M48
; DRILL file {KiCad 8.0.1} date 2025-03-07T14:58:41+0200
; FORMAT={-:-/ absolute / inch / decimal}
; #@! TF.CreationDate,2025-03-07T14:58:41+02:00
; #@! TF.GenerationSoftware,Kicad,Pcbnew,8.0.1
; #@! TF.FileFunction,Plated,1,2,PTH
FMAT,2
INCH
; #@! TA.AperFunction,Plated,PTH,ViaDrill
T1C0.0236
; #@! TA.AperFunction,Plated,PTH,ComponentDrill
T2C0.0315
; #@! TA.AperFunction,Plated,PTH,ComponentDrill
T3C0.0374
; #@! TA.AperFunction,Plated,PTH,ViaDrill
T4C0.0394
; #@! TA.AperFunction,Plated,PTH,ComponentDrill
T5C0.0394
; #@! TA.AperFunction,Plated,PTH,ComponentDrill
T6C0.0433
; #@! TA.AperFunction,Plated,PTH,ComponentDrill
T7C0.0512
%
G90
G05
T1
X2.9071Y-4.9677
X2.9118Y-5.4209
T2
X2.9823Y-3.5224
X2.9823Y-3.6209
X3.1575Y-3.5248
X3.1575Y-3.6232
X3.265Y-3.5252
X3.265Y-3.6236
X3.3484Y-5.3157
X3.4469Y-5.3157
X3.5449Y-5.2102
X3.5469Y-5.3146
X3.6402Y-5.5028
X3.6433Y-5.2102
X3.6433Y-5.5992
X3.6433Y-5.6976
X3.6453Y-5.3146
X3.7386Y-5.5028
X3.8311Y-5.2524
X3.8311Y-5.3508
X4.0638Y-5.3799
X4.1622Y-5.3799
X4.6256Y-5.7008
X4.7201Y-5.1902
X4.724Y-5.7008
X4.8185Y-5.1902
T3
X3.0669Y-5.3157
X3.0669Y-5.4142
X3.0669Y-5.5126
X3.0685Y-4.8685
X3.0685Y-4.9669
X3.0685Y-5.0654
X5.1417Y-4.9441
X5.1417Y-5.0425
X5.1417Y-5.1409
X5.1433Y-4.5031
X5.1433Y-4.6016
X5.1433Y-4.7
X5.1433Y-5.3882
X5.1433Y-5.4866
X5.1433Y-5.585
T4
X5.2732Y-4.602
X5.2732Y-5.0429
X5.2732Y-5.4827
T5
X2.9953Y-5.7496
X3.0512Y-3.8382
X3.0512Y-3.9366
X3.0512Y-4.1894
X3.0512Y-4.2878
X3.0528Y-4.5295
X3.0528Y-4.628
X3.0937Y-5.7496
X3.3906Y-3.2661
X3.3906Y-3.3661
X3.3906Y-3.4661
X3.3906Y-3.5661
X3.3906Y-3.6661
X3.3906Y-3.7661
X3.3906Y-3.8661
X3.3906Y-3.9661
X3.3906Y-4.0661
X3.3906Y-4.1661
X3.3906Y-4.2661
X3.3906Y-4.3661
X3.3906Y-4.4661
X3.3906Y-4.5661
X3.3906Y-4.6661
X3.3906Y-4.7661
X3.3906Y-4.8661
X3.3906Y-4.9661
X3.3906Y-5.0661
X3.5173Y-5.9772
X3.5173Y-6.0756
X3.6398Y-3.2642
X3.6398Y-3.3642
X3.6398Y-3.4642
X3.6398Y-3.5642
X3.6398Y-3.6642
X3.6398Y-3.7642
X3.6398Y-3.8642
X3.6398Y-3.9642
X3.6398Y-4.0642
X3.6398Y-4.1642
X3.6398Y-4.2642
X3.6398Y-4.3642
X3.6398Y-4.4642
X3.6398Y-4.5642
X3.6398Y-4.6642
X3.6398Y-4.7642
X3.6398Y-4.8642
X3.6398Y-4.9642
X3.6398Y-5.0642
X3.9126Y-5.9315
X4.011Y-5.9315
X4.302Y-5.2213
X4.4004Y-5.2213
X4.6079Y-3.2654
X4.6079Y-3.3654
X4.6079Y-3.4654
X4.6079Y-3.5654
X4.6079Y-3.6654
X4.6079Y-3.7654
X4.6079Y-3.8654
X4.6079Y-3.9654
X4.6079Y-4.0654
X4.6079Y-4.1654
X4.6079Y-4.2654
X4.6079Y-4.3654
X4.6079Y-4.4654
X4.6079Y-4.5654
X4.6079Y-4.6654
X4.6079Y-4.7654
X4.6079Y-4.8654
X4.6079Y-4.9654
X4.6079Y-5.0654
X4.6476Y-5.913
X4.6476Y-6.0114
X4.8457Y-6.5106
X4.8512Y-3.2638
X4.8512Y-3.3638
X4.8512Y-3.4638
X4.8512Y-3.5638
X4.8512Y-3.6638
X4.8512Y-3.7638
X4.8512Y-3.8638
X4.8512Y-3.9638
X4.8512Y-4.0638
X4.8512Y-4.1638
X4.8512Y-4.2638
X4.8512Y-4.3638
X4.8512Y-4.4638
X4.8512Y-4.5638
X4.8512Y-4.6638
X4.8512Y-4.7638
X4.8512Y-4.8638
X4.8512Y-4.9638
X4.8512Y-5.0638
X4.9441Y-6.5106
X5.1016Y-5.7988
X5.1343Y-4.2402
X5.2Y-5.7988
X5.2181Y-3.8799
X5.2181Y-3.9783
X5.2197Y-3.5205
X5.2197Y-3.6189
X5.2327Y-4.2402
T6
X3.4941Y-5.4988
X3.4941Y-5.5988
X3.4941Y-5.6988
X3.9606Y-5.5039
X4.0606Y-5.5039
X4.1606Y-5.5039
X4.724Y-5.3441
X4.724Y-5.4441
X4.724Y-5.5441
T7
X3.0449Y-6.0453
X3.0449Y-6.2421
X3.902Y-6.4195
X4.0988Y-6.4195
X4.3929Y-6.4179
X4.5898Y-6.4179
X5.1496Y-6.0429
X5.1496Y-6.2398
M30
