%TF.GenerationSoftware,KiCad,Pcbnew,8.0.1*%
%TF.CreationDate,2025-03-07T04:44:00+02:00*%
%TF.ProjectId,ROBOSOCCER 3,524f424f-534f-4434-9345-5220332e6b69,rev?*%
%TF.SameCoordinates,Original*%
%TF.FileFunction,Legend,Top*%
%TF.FilePolarity,Positive*%
%FSLAX46Y46*%
G04 Gerber Fmt 4.6, Leading zero omitted, Abs format (unit mm)*
G04 Created by KiCad (PCBNEW 8.0.1) date 2025-03-07 04:44:00*
%MOMM*%
%LPD*%
G01*
G04 APERTURE LIST*
%ADD10C,0.200000*%
%ADD11C,0.250000*%
%ADD12C,0.300000*%
%ADD13C,0.150000*%
%ADD14C,0.120000*%
G04 APERTURE END LIST*
D10*
X126227219Y-92778898D02*
X125751028Y-93112231D01*
X126227219Y-93350326D02*
X125227219Y-93350326D01*
X125227219Y-93350326D02*
X125227219Y-92969374D01*
X125227219Y-92969374D02*
X125274838Y-92874136D01*
X125274838Y-92874136D02*
X125322457Y-92826517D01*
X125322457Y-92826517D02*
X125417695Y-92778898D01*
X125417695Y-92778898D02*
X125560552Y-92778898D01*
X125560552Y-92778898D02*
X125655790Y-92826517D01*
X125655790Y-92826517D02*
X125703409Y-92874136D01*
X125703409Y-92874136D02*
X125751028Y-92969374D01*
X125751028Y-92969374D02*
X125751028Y-93350326D01*
X125227219Y-92445564D02*
X126227219Y-91778898D01*
X125227219Y-91778898D02*
X126227219Y-92445564D01*
X119601101Y-101021695D02*
X119143958Y-101021695D01*
X119372530Y-101021695D02*
X119372530Y-100221695D01*
X119372530Y-100221695D02*
X119296339Y-100335980D01*
X119296339Y-100335980D02*
X119220149Y-100412171D01*
X119220149Y-100412171D02*
X119143958Y-100450266D01*
X119982054Y-101021695D02*
X120134435Y-101021695D01*
X120134435Y-101021695D02*
X120210625Y-100983600D01*
X120210625Y-100983600D02*
X120248721Y-100945504D01*
X120248721Y-100945504D02*
X120324911Y-100831219D01*
X120324911Y-100831219D02*
X120363006Y-100678838D01*
X120363006Y-100678838D02*
X120363006Y-100374076D01*
X120363006Y-100374076D02*
X120324911Y-100297885D01*
X120324911Y-100297885D02*
X120286816Y-100259790D01*
X120286816Y-100259790D02*
X120210625Y-100221695D01*
X120210625Y-100221695D02*
X120058244Y-100221695D01*
X120058244Y-100221695D02*
X119982054Y-100259790D01*
X119982054Y-100259790D02*
X119943959Y-100297885D01*
X119943959Y-100297885D02*
X119905863Y-100374076D01*
X119905863Y-100374076D02*
X119905863Y-100564552D01*
X119905863Y-100564552D02*
X119943959Y-100640742D01*
X119943959Y-100640742D02*
X119982054Y-100678838D01*
X119982054Y-100678838D02*
X120058244Y-100716933D01*
X120058244Y-100716933D02*
X120210625Y-100716933D01*
X120210625Y-100716933D02*
X120286816Y-100678838D01*
X120286816Y-100678838D02*
X120324911Y-100640742D01*
X120324911Y-100640742D02*
X120363006Y-100564552D01*
X119671101Y-103521695D02*
X119213958Y-103521695D01*
X119442530Y-103521695D02*
X119442530Y-102721695D01*
X119442530Y-102721695D02*
X119366339Y-102835980D01*
X119366339Y-102835980D02*
X119290149Y-102912171D01*
X119290149Y-102912171D02*
X119213958Y-102950266D01*
X120128244Y-103064552D02*
X120052054Y-103026457D01*
X120052054Y-103026457D02*
X120013959Y-102988361D01*
X120013959Y-102988361D02*
X119975863Y-102912171D01*
X119975863Y-102912171D02*
X119975863Y-102874076D01*
X119975863Y-102874076D02*
X120013959Y-102797885D01*
X120013959Y-102797885D02*
X120052054Y-102759790D01*
X120052054Y-102759790D02*
X120128244Y-102721695D01*
X120128244Y-102721695D02*
X120280625Y-102721695D01*
X120280625Y-102721695D02*
X120356816Y-102759790D01*
X120356816Y-102759790D02*
X120394911Y-102797885D01*
X120394911Y-102797885D02*
X120433006Y-102874076D01*
X120433006Y-102874076D02*
X120433006Y-102912171D01*
X120433006Y-102912171D02*
X120394911Y-102988361D01*
X120394911Y-102988361D02*
X120356816Y-103026457D01*
X120356816Y-103026457D02*
X120280625Y-103064552D01*
X120280625Y-103064552D02*
X120128244Y-103064552D01*
X120128244Y-103064552D02*
X120052054Y-103102647D01*
X120052054Y-103102647D02*
X120013959Y-103140742D01*
X120013959Y-103140742D02*
X119975863Y-103216933D01*
X119975863Y-103216933D02*
X119975863Y-103369314D01*
X119975863Y-103369314D02*
X120013959Y-103445504D01*
X120013959Y-103445504D02*
X120052054Y-103483600D01*
X120052054Y-103483600D02*
X120128244Y-103521695D01*
X120128244Y-103521695D02*
X120280625Y-103521695D01*
X120280625Y-103521695D02*
X120356816Y-103483600D01*
X120356816Y-103483600D02*
X120394911Y-103445504D01*
X120394911Y-103445504D02*
X120433006Y-103369314D01*
X120433006Y-103369314D02*
X120433006Y-103216933D01*
X120433006Y-103216933D02*
X120394911Y-103140742D01*
X120394911Y-103140742D02*
X120356816Y-103102647D01*
X120356816Y-103102647D02*
X120280625Y-103064552D01*
X126779600Y-136397945D02*
X126827219Y-136255088D01*
X126827219Y-136255088D02*
X126827219Y-136016993D01*
X126827219Y-136016993D02*
X126779600Y-135921755D01*
X126779600Y-135921755D02*
X126731980Y-135874136D01*
X126731980Y-135874136D02*
X126636742Y-135826517D01*
X126636742Y-135826517D02*
X126541504Y-135826517D01*
X126541504Y-135826517D02*
X126446266Y-135874136D01*
X126446266Y-135874136D02*
X126398647Y-135921755D01*
X126398647Y-135921755D02*
X126351028Y-136016993D01*
X126351028Y-136016993D02*
X126303409Y-136207469D01*
X126303409Y-136207469D02*
X126255790Y-136302707D01*
X126255790Y-136302707D02*
X126208171Y-136350326D01*
X126208171Y-136350326D02*
X126112933Y-136397945D01*
X126112933Y-136397945D02*
X126017695Y-136397945D01*
X126017695Y-136397945D02*
X125922457Y-136350326D01*
X125922457Y-136350326D02*
X125874838Y-136302707D01*
X125874838Y-136302707D02*
X125827219Y-136207469D01*
X125827219Y-136207469D02*
X125827219Y-135969374D01*
X125827219Y-135969374D02*
X125874838Y-135826517D01*
X126827219Y-135397945D02*
X125827219Y-135397945D01*
X125874838Y-134397946D02*
X125827219Y-134493184D01*
X125827219Y-134493184D02*
X125827219Y-134636041D01*
X125827219Y-134636041D02*
X125874838Y-134778898D01*
X125874838Y-134778898D02*
X125970076Y-134874136D01*
X125970076Y-134874136D02*
X126065314Y-134921755D01*
X126065314Y-134921755D02*
X126255790Y-134969374D01*
X126255790Y-134969374D02*
X126398647Y-134969374D01*
X126398647Y-134969374D02*
X126589123Y-134921755D01*
X126589123Y-134921755D02*
X126684361Y-134874136D01*
X126684361Y-134874136D02*
X126779600Y-134778898D01*
X126779600Y-134778898D02*
X126827219Y-134636041D01*
X126827219Y-134636041D02*
X126827219Y-134540803D01*
X126827219Y-134540803D02*
X126779600Y-134397946D01*
X126779600Y-134397946D02*
X126731980Y-134350327D01*
X126731980Y-134350327D02*
X126398647Y-134350327D01*
X126398647Y-134350327D02*
X126398647Y-134540803D01*
X121513482Y-163077219D02*
X120942054Y-163077219D01*
X121227768Y-163077219D02*
X121227768Y-162077219D01*
X121227768Y-162077219D02*
X121132530Y-162220076D01*
X121132530Y-162220076D02*
X121037292Y-162315314D01*
X121037292Y-162315314D02*
X120942054Y-162362933D01*
X121894435Y-162172457D02*
X121942054Y-162124838D01*
X121942054Y-162124838D02*
X122037292Y-162077219D01*
X122037292Y-162077219D02*
X122275387Y-162077219D01*
X122275387Y-162077219D02*
X122370625Y-162124838D01*
X122370625Y-162124838D02*
X122418244Y-162172457D01*
X122418244Y-162172457D02*
X122465863Y-162267695D01*
X122465863Y-162267695D02*
X122465863Y-162362933D01*
X122465863Y-162362933D02*
X122418244Y-162505790D01*
X122418244Y-162505790D02*
X121846816Y-163077219D01*
X121846816Y-163077219D02*
X122465863Y-163077219D01*
X122799197Y-162410552D02*
X123037292Y-163077219D01*
X123037292Y-163077219D02*
X123275387Y-162410552D01*
X119531101Y-111051695D02*
X119073958Y-111051695D01*
X119302530Y-111051695D02*
X119302530Y-110251695D01*
X119302530Y-110251695D02*
X119226339Y-110365980D01*
X119226339Y-110365980D02*
X119150149Y-110442171D01*
X119150149Y-110442171D02*
X119073958Y-110480266D01*
X120216816Y-110251695D02*
X120064435Y-110251695D01*
X120064435Y-110251695D02*
X119988244Y-110289790D01*
X119988244Y-110289790D02*
X119950149Y-110327885D01*
X119950149Y-110327885D02*
X119873959Y-110442171D01*
X119873959Y-110442171D02*
X119835863Y-110594552D01*
X119835863Y-110594552D02*
X119835863Y-110899314D01*
X119835863Y-110899314D02*
X119873959Y-110975504D01*
X119873959Y-110975504D02*
X119912054Y-111013600D01*
X119912054Y-111013600D02*
X119988244Y-111051695D01*
X119988244Y-111051695D02*
X120140625Y-111051695D01*
X120140625Y-111051695D02*
X120216816Y-111013600D01*
X120216816Y-111013600D02*
X120254911Y-110975504D01*
X120254911Y-110975504D02*
X120293006Y-110899314D01*
X120293006Y-110899314D02*
X120293006Y-110708838D01*
X120293006Y-110708838D02*
X120254911Y-110632647D01*
X120254911Y-110632647D02*
X120216816Y-110594552D01*
X120216816Y-110594552D02*
X120140625Y-110556457D01*
X120140625Y-110556457D02*
X119988244Y-110556457D01*
X119988244Y-110556457D02*
X119912054Y-110594552D01*
X119912054Y-110594552D02*
X119873959Y-110632647D01*
X119873959Y-110632647D02*
X119835863Y-110708838D01*
X125227219Y-90653183D02*
X125227219Y-90081755D01*
X126227219Y-90367469D02*
X125227219Y-90367469D01*
X125227219Y-89843659D02*
X126227219Y-89176993D01*
X125227219Y-89176993D02*
X126227219Y-89843659D01*
X88761101Y-118761695D02*
X88303958Y-118761695D01*
X88532530Y-118761695D02*
X88532530Y-117961695D01*
X88532530Y-117961695D02*
X88456339Y-118075980D01*
X88456339Y-118075980D02*
X88380149Y-118152171D01*
X88380149Y-118152171D02*
X88303958Y-118190266D01*
X89027768Y-117961695D02*
X89523006Y-117961695D01*
X89523006Y-117961695D02*
X89256340Y-118266457D01*
X89256340Y-118266457D02*
X89370625Y-118266457D01*
X89370625Y-118266457D02*
X89446816Y-118304552D01*
X89446816Y-118304552D02*
X89484911Y-118342647D01*
X89484911Y-118342647D02*
X89523006Y-118418838D01*
X89523006Y-118418838D02*
X89523006Y-118609314D01*
X89523006Y-118609314D02*
X89484911Y-118685504D01*
X89484911Y-118685504D02*
X89446816Y-118723600D01*
X89446816Y-118723600D02*
X89370625Y-118761695D01*
X89370625Y-118761695D02*
X89142054Y-118761695D01*
X89142054Y-118761695D02*
X89065863Y-118723600D01*
X89065863Y-118723600D02*
X89027768Y-118685504D01*
X119193958Y-85057885D02*
X119232054Y-85019790D01*
X119232054Y-85019790D02*
X119308244Y-84981695D01*
X119308244Y-84981695D02*
X119498720Y-84981695D01*
X119498720Y-84981695D02*
X119574911Y-85019790D01*
X119574911Y-85019790D02*
X119613006Y-85057885D01*
X119613006Y-85057885D02*
X119651101Y-85134076D01*
X119651101Y-85134076D02*
X119651101Y-85210266D01*
X119651101Y-85210266D02*
X119613006Y-85324552D01*
X119613006Y-85324552D02*
X119155863Y-85781695D01*
X119155863Y-85781695D02*
X119651101Y-85781695D01*
X119917768Y-84981695D02*
X120413006Y-84981695D01*
X120413006Y-84981695D02*
X120146340Y-85286457D01*
X120146340Y-85286457D02*
X120260625Y-85286457D01*
X120260625Y-85286457D02*
X120336816Y-85324552D01*
X120336816Y-85324552D02*
X120374911Y-85362647D01*
X120374911Y-85362647D02*
X120413006Y-85438838D01*
X120413006Y-85438838D02*
X120413006Y-85629314D01*
X120413006Y-85629314D02*
X120374911Y-85705504D01*
X120374911Y-85705504D02*
X120336816Y-85743600D01*
X120336816Y-85743600D02*
X120260625Y-85781695D01*
X120260625Y-85781695D02*
X120032054Y-85781695D01*
X120032054Y-85781695D02*
X119955863Y-85743600D01*
X119955863Y-85743600D02*
X119917768Y-85705504D01*
X119601101Y-97659790D02*
X119524911Y-97621695D01*
X119524911Y-97621695D02*
X119410625Y-97621695D01*
X119410625Y-97621695D02*
X119296339Y-97659790D01*
X119296339Y-97659790D02*
X119220149Y-97735980D01*
X119220149Y-97735980D02*
X119182054Y-97812171D01*
X119182054Y-97812171D02*
X119143958Y-97964552D01*
X119143958Y-97964552D02*
X119143958Y-98078838D01*
X119143958Y-98078838D02*
X119182054Y-98231219D01*
X119182054Y-98231219D02*
X119220149Y-98307409D01*
X119220149Y-98307409D02*
X119296339Y-98383600D01*
X119296339Y-98383600D02*
X119410625Y-98421695D01*
X119410625Y-98421695D02*
X119486816Y-98421695D01*
X119486816Y-98421695D02*
X119601101Y-98383600D01*
X119601101Y-98383600D02*
X119639197Y-98345504D01*
X119639197Y-98345504D02*
X119639197Y-98078838D01*
X119639197Y-98078838D02*
X119486816Y-98078838D01*
X119982054Y-98421695D02*
X119982054Y-97621695D01*
X119982054Y-97621695D02*
X120439197Y-98421695D01*
X120439197Y-98421695D02*
X120439197Y-97621695D01*
X120820149Y-98421695D02*
X120820149Y-97621695D01*
X120820149Y-97621695D02*
X121010625Y-97621695D01*
X121010625Y-97621695D02*
X121124911Y-97659790D01*
X121124911Y-97659790D02*
X121201101Y-97735980D01*
X121201101Y-97735980D02*
X121239196Y-97812171D01*
X121239196Y-97812171D02*
X121277292Y-97964552D01*
X121277292Y-97964552D02*
X121277292Y-98078838D01*
X121277292Y-98078838D02*
X121239196Y-98231219D01*
X121239196Y-98231219D02*
X121201101Y-98307409D01*
X121201101Y-98307409D02*
X121124911Y-98383600D01*
X121124911Y-98383600D02*
X121010625Y-98421695D01*
X121010625Y-98421695D02*
X120820149Y-98421695D01*
X88195863Y-95051695D02*
X88691101Y-95051695D01*
X88691101Y-95051695D02*
X88424435Y-95356457D01*
X88424435Y-95356457D02*
X88538720Y-95356457D01*
X88538720Y-95356457D02*
X88614911Y-95394552D01*
X88614911Y-95394552D02*
X88653006Y-95432647D01*
X88653006Y-95432647D02*
X88691101Y-95508838D01*
X88691101Y-95508838D02*
X88691101Y-95699314D01*
X88691101Y-95699314D02*
X88653006Y-95775504D01*
X88653006Y-95775504D02*
X88614911Y-95813600D01*
X88614911Y-95813600D02*
X88538720Y-95851695D01*
X88538720Y-95851695D02*
X88310149Y-95851695D01*
X88310149Y-95851695D02*
X88233958Y-95813600D01*
X88233958Y-95813600D02*
X88195863Y-95775504D01*
X89414911Y-95051695D02*
X89033959Y-95051695D01*
X89033959Y-95051695D02*
X88995863Y-95432647D01*
X88995863Y-95432647D02*
X89033959Y-95394552D01*
X89033959Y-95394552D02*
X89110149Y-95356457D01*
X89110149Y-95356457D02*
X89300625Y-95356457D01*
X89300625Y-95356457D02*
X89376816Y-95394552D01*
X89376816Y-95394552D02*
X89414911Y-95432647D01*
X89414911Y-95432647D02*
X89453006Y-95508838D01*
X89453006Y-95508838D02*
X89453006Y-95699314D01*
X89453006Y-95699314D02*
X89414911Y-95775504D01*
X89414911Y-95775504D02*
X89376816Y-95813600D01*
X89376816Y-95813600D02*
X89300625Y-95851695D01*
X89300625Y-95851695D02*
X89110149Y-95851695D01*
X89110149Y-95851695D02*
X89033959Y-95813600D01*
X89033959Y-95813600D02*
X88995863Y-95775504D01*
X127299600Y-124387945D02*
X127347219Y-124245088D01*
X127347219Y-124245088D02*
X127347219Y-124006993D01*
X127347219Y-124006993D02*
X127299600Y-123911755D01*
X127299600Y-123911755D02*
X127251980Y-123864136D01*
X127251980Y-123864136D02*
X127156742Y-123816517D01*
X127156742Y-123816517D02*
X127061504Y-123816517D01*
X127061504Y-123816517D02*
X126966266Y-123864136D01*
X126966266Y-123864136D02*
X126918647Y-123911755D01*
X126918647Y-123911755D02*
X126871028Y-124006993D01*
X126871028Y-124006993D02*
X126823409Y-124197469D01*
X126823409Y-124197469D02*
X126775790Y-124292707D01*
X126775790Y-124292707D02*
X126728171Y-124340326D01*
X126728171Y-124340326D02*
X126632933Y-124387945D01*
X126632933Y-124387945D02*
X126537695Y-124387945D01*
X126537695Y-124387945D02*
X126442457Y-124340326D01*
X126442457Y-124340326D02*
X126394838Y-124292707D01*
X126394838Y-124292707D02*
X126347219Y-124197469D01*
X126347219Y-124197469D02*
X126347219Y-123959374D01*
X126347219Y-123959374D02*
X126394838Y-123816517D01*
X127347219Y-123387945D02*
X126347219Y-123387945D01*
X126394838Y-122387946D02*
X126347219Y-122483184D01*
X126347219Y-122483184D02*
X126347219Y-122626041D01*
X126347219Y-122626041D02*
X126394838Y-122768898D01*
X126394838Y-122768898D02*
X126490076Y-122864136D01*
X126490076Y-122864136D02*
X126585314Y-122911755D01*
X126585314Y-122911755D02*
X126775790Y-122959374D01*
X126775790Y-122959374D02*
X126918647Y-122959374D01*
X126918647Y-122959374D02*
X127109123Y-122911755D01*
X127109123Y-122911755D02*
X127204361Y-122864136D01*
X127204361Y-122864136D02*
X127299600Y-122768898D01*
X127299600Y-122768898D02*
X127347219Y-122626041D01*
X127347219Y-122626041D02*
X127347219Y-122530803D01*
X127347219Y-122530803D02*
X127299600Y-122387946D01*
X127299600Y-122387946D02*
X127251980Y-122340327D01*
X127251980Y-122340327D02*
X126918647Y-122340327D01*
X126918647Y-122340327D02*
X126918647Y-122530803D01*
X88253958Y-105347885D02*
X88292054Y-105309790D01*
X88292054Y-105309790D02*
X88368244Y-105271695D01*
X88368244Y-105271695D02*
X88558720Y-105271695D01*
X88558720Y-105271695D02*
X88634911Y-105309790D01*
X88634911Y-105309790D02*
X88673006Y-105347885D01*
X88673006Y-105347885D02*
X88711101Y-105424076D01*
X88711101Y-105424076D02*
X88711101Y-105500266D01*
X88711101Y-105500266D02*
X88673006Y-105614552D01*
X88673006Y-105614552D02*
X88215863Y-106071695D01*
X88215863Y-106071695D02*
X88711101Y-106071695D01*
X89396816Y-105271695D02*
X89244435Y-105271695D01*
X89244435Y-105271695D02*
X89168244Y-105309790D01*
X89168244Y-105309790D02*
X89130149Y-105347885D01*
X89130149Y-105347885D02*
X89053959Y-105462171D01*
X89053959Y-105462171D02*
X89015863Y-105614552D01*
X89015863Y-105614552D02*
X89015863Y-105919314D01*
X89015863Y-105919314D02*
X89053959Y-105995504D01*
X89053959Y-105995504D02*
X89092054Y-106033600D01*
X89092054Y-106033600D02*
X89168244Y-106071695D01*
X89168244Y-106071695D02*
X89320625Y-106071695D01*
X89320625Y-106071695D02*
X89396816Y-106033600D01*
X89396816Y-106033600D02*
X89434911Y-105995504D01*
X89434911Y-105995504D02*
X89473006Y-105919314D01*
X89473006Y-105919314D02*
X89473006Y-105728838D01*
X89473006Y-105728838D02*
X89434911Y-105652647D01*
X89434911Y-105652647D02*
X89396816Y-105614552D01*
X89396816Y-105614552D02*
X89320625Y-105576457D01*
X89320625Y-105576457D02*
X89168244Y-105576457D01*
X89168244Y-105576457D02*
X89092054Y-105614552D01*
X89092054Y-105614552D02*
X89053959Y-105652647D01*
X89053959Y-105652647D02*
X89015863Y-105728838D01*
X88165863Y-87531695D02*
X88661101Y-87531695D01*
X88661101Y-87531695D02*
X88394435Y-87836457D01*
X88394435Y-87836457D02*
X88508720Y-87836457D01*
X88508720Y-87836457D02*
X88584911Y-87874552D01*
X88584911Y-87874552D02*
X88623006Y-87912647D01*
X88623006Y-87912647D02*
X88661101Y-87988838D01*
X88661101Y-87988838D02*
X88661101Y-88179314D01*
X88661101Y-88179314D02*
X88623006Y-88255504D01*
X88623006Y-88255504D02*
X88584911Y-88293600D01*
X88584911Y-88293600D02*
X88508720Y-88331695D01*
X88508720Y-88331695D02*
X88280149Y-88331695D01*
X88280149Y-88331695D02*
X88203958Y-88293600D01*
X88203958Y-88293600D02*
X88165863Y-88255504D01*
X89346816Y-87531695D02*
X89194435Y-87531695D01*
X89194435Y-87531695D02*
X89118244Y-87569790D01*
X89118244Y-87569790D02*
X89080149Y-87607885D01*
X89080149Y-87607885D02*
X89003959Y-87722171D01*
X89003959Y-87722171D02*
X88965863Y-87874552D01*
X88965863Y-87874552D02*
X88965863Y-88179314D01*
X88965863Y-88179314D02*
X89003959Y-88255504D01*
X89003959Y-88255504D02*
X89042054Y-88293600D01*
X89042054Y-88293600D02*
X89118244Y-88331695D01*
X89118244Y-88331695D02*
X89270625Y-88331695D01*
X89270625Y-88331695D02*
X89346816Y-88293600D01*
X89346816Y-88293600D02*
X89384911Y-88255504D01*
X89384911Y-88255504D02*
X89423006Y-88179314D01*
X89423006Y-88179314D02*
X89423006Y-87988838D01*
X89423006Y-87988838D02*
X89384911Y-87912647D01*
X89384911Y-87912647D02*
X89346816Y-87874552D01*
X89346816Y-87874552D02*
X89270625Y-87836457D01*
X89270625Y-87836457D02*
X89118244Y-87836457D01*
X89118244Y-87836457D02*
X89042054Y-87874552D01*
X89042054Y-87874552D02*
X89003959Y-87912647D01*
X89003959Y-87912647D02*
X88965863Y-87988838D01*
X81387219Y-100596517D02*
X81387219Y-101167945D01*
X81387219Y-100882231D02*
X80387219Y-100882231D01*
X80387219Y-100882231D02*
X80530076Y-100977469D01*
X80530076Y-100977469D02*
X80625314Y-101072707D01*
X80625314Y-101072707D02*
X80672933Y-101167945D01*
X92862780Y-151415863D02*
X92862780Y-150939673D01*
X92862780Y-150939673D02*
X92386590Y-150892054D01*
X92386590Y-150892054D02*
X92434209Y-150939673D01*
X92434209Y-150939673D02*
X92481828Y-151034911D01*
X92481828Y-151034911D02*
X92481828Y-151273006D01*
X92481828Y-151273006D02*
X92434209Y-151368244D01*
X92434209Y-151368244D02*
X92386590Y-151415863D01*
X92386590Y-151415863D02*
X92291352Y-151463482D01*
X92291352Y-151463482D02*
X92053257Y-151463482D01*
X92053257Y-151463482D02*
X91958019Y-151415863D01*
X91958019Y-151415863D02*
X91910400Y-151368244D01*
X91910400Y-151368244D02*
X91862780Y-151273006D01*
X91862780Y-151273006D02*
X91862780Y-151034911D01*
X91862780Y-151034911D02*
X91910400Y-150939673D01*
X91910400Y-150939673D02*
X91958019Y-150892054D01*
X92529447Y-151796816D02*
X91862780Y-152034911D01*
X91862780Y-152034911D02*
X92529447Y-152273006D01*
X81312780Y-124355863D02*
X81312780Y-123879673D01*
X81312780Y-123879673D02*
X80836590Y-123832054D01*
X80836590Y-123832054D02*
X80884209Y-123879673D01*
X80884209Y-123879673D02*
X80931828Y-123974911D01*
X80931828Y-123974911D02*
X80931828Y-124213006D01*
X80931828Y-124213006D02*
X80884209Y-124308244D01*
X80884209Y-124308244D02*
X80836590Y-124355863D01*
X80836590Y-124355863D02*
X80741352Y-124403482D01*
X80741352Y-124403482D02*
X80503257Y-124403482D01*
X80503257Y-124403482D02*
X80408019Y-124355863D01*
X80408019Y-124355863D02*
X80360400Y-124308244D01*
X80360400Y-124308244D02*
X80312780Y-124213006D01*
X80312780Y-124213006D02*
X80312780Y-123974911D01*
X80312780Y-123974911D02*
X80360400Y-123879673D01*
X80360400Y-123879673D02*
X80408019Y-123832054D01*
X80979447Y-124736816D02*
X80312780Y-124974911D01*
X80312780Y-124974911D02*
X80979447Y-125213006D01*
X88691101Y-111021695D02*
X88233958Y-111021695D01*
X88462530Y-111021695D02*
X88462530Y-110221695D01*
X88462530Y-110221695D02*
X88386339Y-110335980D01*
X88386339Y-110335980D02*
X88310149Y-110412171D01*
X88310149Y-110412171D02*
X88233958Y-110450266D01*
X89376816Y-110488361D02*
X89376816Y-111021695D01*
X89186340Y-110183600D02*
X88995863Y-110755028D01*
X88995863Y-110755028D02*
X89491102Y-110755028D01*
X99731101Y-155247219D02*
X99397768Y-154771028D01*
X99159673Y-155247219D02*
X99159673Y-154247219D01*
X99159673Y-154247219D02*
X99540625Y-154247219D01*
X99540625Y-154247219D02*
X99635863Y-154294838D01*
X99635863Y-154294838D02*
X99683482Y-154342457D01*
X99683482Y-154342457D02*
X99731101Y-154437695D01*
X99731101Y-154437695D02*
X99731101Y-154580552D01*
X99731101Y-154580552D02*
X99683482Y-154675790D01*
X99683482Y-154675790D02*
X99635863Y-154723409D01*
X99635863Y-154723409D02*
X99540625Y-154771028D01*
X99540625Y-154771028D02*
X99159673Y-154771028D01*
X100159673Y-154723409D02*
X100493006Y-154723409D01*
X100635863Y-155247219D02*
X100159673Y-155247219D01*
X100159673Y-155247219D02*
X100159673Y-154247219D01*
X100159673Y-154247219D02*
X100635863Y-154247219D01*
X101540625Y-155247219D02*
X101064435Y-155247219D01*
X101064435Y-155247219D02*
X101064435Y-154247219D01*
X101826340Y-154961504D02*
X102302530Y-154961504D01*
X101731102Y-155247219D02*
X102064435Y-154247219D01*
X102064435Y-154247219D02*
X102397768Y-155247219D01*
X102921578Y-154771028D02*
X102921578Y-155247219D01*
X102588245Y-154247219D02*
X102921578Y-154771028D01*
X102921578Y-154771028D02*
X103254911Y-154247219D01*
X73987219Y-117730326D02*
X73320552Y-117730326D01*
X73415790Y-117730326D02*
X73368171Y-117682707D01*
X73368171Y-117682707D02*
X73320552Y-117587469D01*
X73320552Y-117587469D02*
X73320552Y-117444612D01*
X73320552Y-117444612D02*
X73368171Y-117349374D01*
X73368171Y-117349374D02*
X73463409Y-117301755D01*
X73463409Y-117301755D02*
X73987219Y-117301755D01*
X73463409Y-117301755D02*
X73368171Y-117254136D01*
X73368171Y-117254136D02*
X73320552Y-117158898D01*
X73320552Y-117158898D02*
X73320552Y-117016041D01*
X73320552Y-117016041D02*
X73368171Y-116920802D01*
X73368171Y-116920802D02*
X73463409Y-116873183D01*
X73463409Y-116873183D02*
X73987219Y-116873183D01*
X73987219Y-115873184D02*
X73987219Y-116444612D01*
X73987219Y-116158898D02*
X72987219Y-116158898D01*
X72987219Y-116158898D02*
X73130076Y-116254136D01*
X73130076Y-116254136D02*
X73225314Y-116349374D01*
X73225314Y-116349374D02*
X73272933Y-116444612D01*
X122127219Y-146934136D02*
X122127219Y-147410326D01*
X122127219Y-147410326D02*
X122603409Y-147457945D01*
X122603409Y-147457945D02*
X122555790Y-147410326D01*
X122555790Y-147410326D02*
X122508171Y-147315088D01*
X122508171Y-147315088D02*
X122508171Y-147076993D01*
X122508171Y-147076993D02*
X122555790Y-146981755D01*
X122555790Y-146981755D02*
X122603409Y-146934136D01*
X122603409Y-146934136D02*
X122698647Y-146886517D01*
X122698647Y-146886517D02*
X122936742Y-146886517D01*
X122936742Y-146886517D02*
X123031980Y-146934136D01*
X123031980Y-146934136D02*
X123079600Y-146981755D01*
X123079600Y-146981755D02*
X123127219Y-147076993D01*
X123127219Y-147076993D02*
X123127219Y-147315088D01*
X123127219Y-147315088D02*
X123079600Y-147410326D01*
X123079600Y-147410326D02*
X123031980Y-147457945D01*
X122460552Y-146553183D02*
X123127219Y-146315088D01*
X123127219Y-146315088D02*
X122460552Y-146076993D01*
X119123958Y-95177885D02*
X119162054Y-95139790D01*
X119162054Y-95139790D02*
X119238244Y-95101695D01*
X119238244Y-95101695D02*
X119428720Y-95101695D01*
X119428720Y-95101695D02*
X119504911Y-95139790D01*
X119504911Y-95139790D02*
X119543006Y-95177885D01*
X119543006Y-95177885D02*
X119581101Y-95254076D01*
X119581101Y-95254076D02*
X119581101Y-95330266D01*
X119581101Y-95330266D02*
X119543006Y-95444552D01*
X119543006Y-95444552D02*
X119085863Y-95901695D01*
X119085863Y-95901695D02*
X119581101Y-95901695D01*
X120343006Y-95901695D02*
X119885863Y-95901695D01*
X120114435Y-95901695D02*
X120114435Y-95101695D01*
X120114435Y-95101695D02*
X120038244Y-95215980D01*
X120038244Y-95215980D02*
X119962054Y-95292171D01*
X119962054Y-95292171D02*
X119885863Y-95330266D01*
X119594911Y-82668361D02*
X119594911Y-83315980D01*
X119594911Y-83315980D02*
X119556816Y-83392171D01*
X119556816Y-83392171D02*
X119518720Y-83430266D01*
X119518720Y-83430266D02*
X119442530Y-83468361D01*
X119442530Y-83468361D02*
X119328244Y-83468361D01*
X119328244Y-83468361D02*
X119252054Y-83430266D01*
X119594911Y-83163600D02*
X119518720Y-83201695D01*
X119518720Y-83201695D02*
X119366339Y-83201695D01*
X119366339Y-83201695D02*
X119290149Y-83163600D01*
X119290149Y-83163600D02*
X119252054Y-83125504D01*
X119252054Y-83125504D02*
X119213958Y-83049314D01*
X119213958Y-83049314D02*
X119213958Y-82820742D01*
X119213958Y-82820742D02*
X119252054Y-82744552D01*
X119252054Y-82744552D02*
X119290149Y-82706457D01*
X119290149Y-82706457D02*
X119366339Y-82668361D01*
X119366339Y-82668361D02*
X119518720Y-82668361D01*
X119518720Y-82668361D02*
X119594911Y-82706457D01*
X119975864Y-82668361D02*
X119975864Y-83201695D01*
X119975864Y-82744552D02*
X120013959Y-82706457D01*
X120013959Y-82706457D02*
X120090149Y-82668361D01*
X120090149Y-82668361D02*
X120204435Y-82668361D01*
X120204435Y-82668361D02*
X120280626Y-82706457D01*
X120280626Y-82706457D02*
X120318721Y-82782647D01*
X120318721Y-82782647D02*
X120318721Y-83201695D01*
X121042531Y-83201695D02*
X121042531Y-82401695D01*
X121042531Y-83163600D02*
X120966340Y-83201695D01*
X120966340Y-83201695D02*
X120813959Y-83201695D01*
X120813959Y-83201695D02*
X120737769Y-83163600D01*
X120737769Y-83163600D02*
X120699674Y-83125504D01*
X120699674Y-83125504D02*
X120661578Y-83049314D01*
X120661578Y-83049314D02*
X120661578Y-82820742D01*
X120661578Y-82820742D02*
X120699674Y-82744552D01*
X120699674Y-82744552D02*
X120737769Y-82706457D01*
X120737769Y-82706457D02*
X120813959Y-82668361D01*
X120813959Y-82668361D02*
X120966340Y-82668361D01*
X120966340Y-82668361D02*
X121042531Y-82706457D01*
X73486400Y-119603958D02*
X73448304Y-119680149D01*
X73448304Y-119680149D02*
X73448304Y-119832530D01*
X73448304Y-119832530D02*
X73486400Y-119908720D01*
X73486400Y-119908720D02*
X73562590Y-119946816D01*
X73562590Y-119946816D02*
X73600685Y-119946816D01*
X73600685Y-119946816D02*
X73676876Y-119908720D01*
X73676876Y-119908720D02*
X73714971Y-119832530D01*
X73714971Y-119832530D02*
X73714971Y-119718244D01*
X73714971Y-119718244D02*
X73753066Y-119642054D01*
X73753066Y-119642054D02*
X73829257Y-119603958D01*
X73829257Y-119603958D02*
X73867352Y-119603958D01*
X73867352Y-119603958D02*
X73943542Y-119642054D01*
X73943542Y-119642054D02*
X73981638Y-119718244D01*
X73981638Y-119718244D02*
X73981638Y-119832530D01*
X73981638Y-119832530D02*
X73943542Y-119908720D01*
X73486400Y-120594435D02*
X73448304Y-120518244D01*
X73448304Y-120518244D02*
X73448304Y-120365863D01*
X73448304Y-120365863D02*
X73486400Y-120289673D01*
X73486400Y-120289673D02*
X73562590Y-120251577D01*
X73562590Y-120251577D02*
X73867352Y-120251577D01*
X73867352Y-120251577D02*
X73943542Y-120289673D01*
X73943542Y-120289673D02*
X73981638Y-120365863D01*
X73981638Y-120365863D02*
X73981638Y-120518244D01*
X73981638Y-120518244D02*
X73943542Y-120594435D01*
X73943542Y-120594435D02*
X73867352Y-120632530D01*
X73867352Y-120632530D02*
X73791161Y-120632530D01*
X73791161Y-120632530D02*
X73714971Y-120251577D01*
X73448304Y-120975387D02*
X73981638Y-120975387D01*
X73829257Y-120975387D02*
X73905447Y-121013482D01*
X73905447Y-121013482D02*
X73943542Y-121051577D01*
X73943542Y-121051577D02*
X73981638Y-121127768D01*
X73981638Y-121127768D02*
X73981638Y-121203958D01*
X73981638Y-121394434D02*
X73448304Y-121584910D01*
X73448304Y-121584910D02*
X73981638Y-121775387D01*
X73448304Y-122194434D02*
X73486400Y-122118244D01*
X73486400Y-122118244D02*
X73524495Y-122080149D01*
X73524495Y-122080149D02*
X73600685Y-122042053D01*
X73600685Y-122042053D02*
X73829257Y-122042053D01*
X73829257Y-122042053D02*
X73905447Y-122080149D01*
X73905447Y-122080149D02*
X73943542Y-122118244D01*
X73943542Y-122118244D02*
X73981638Y-122194434D01*
X73981638Y-122194434D02*
X73981638Y-122308720D01*
X73981638Y-122308720D02*
X73943542Y-122384911D01*
X73943542Y-122384911D02*
X73905447Y-122423006D01*
X73905447Y-122423006D02*
X73829257Y-122461101D01*
X73829257Y-122461101D02*
X73600685Y-122461101D01*
X73600685Y-122461101D02*
X73524495Y-122423006D01*
X73524495Y-122423006D02*
X73486400Y-122384911D01*
X73486400Y-122384911D02*
X73448304Y-122308720D01*
X73448304Y-122308720D02*
X73448304Y-122194434D01*
X73981638Y-123146816D02*
X73448304Y-123146816D01*
X74286400Y-122956340D02*
X73714971Y-122765863D01*
X73714971Y-122765863D02*
X73714971Y-123261102D01*
X133713600Y-131426041D02*
X133751695Y-131349850D01*
X133751695Y-131349850D02*
X133751695Y-131197469D01*
X133751695Y-131197469D02*
X133713600Y-131121279D01*
X133713600Y-131121279D02*
X133637409Y-131083183D01*
X133637409Y-131083183D02*
X133599314Y-131083183D01*
X133599314Y-131083183D02*
X133523123Y-131121279D01*
X133523123Y-131121279D02*
X133485028Y-131197469D01*
X133485028Y-131197469D02*
X133485028Y-131311755D01*
X133485028Y-131311755D02*
X133446933Y-131387945D01*
X133446933Y-131387945D02*
X133370742Y-131426041D01*
X133370742Y-131426041D02*
X133332647Y-131426041D01*
X133332647Y-131426041D02*
X133256457Y-131387945D01*
X133256457Y-131387945D02*
X133218361Y-131311755D01*
X133218361Y-131311755D02*
X133218361Y-131197469D01*
X133218361Y-131197469D02*
X133256457Y-131121279D01*
X133713600Y-130435564D02*
X133751695Y-130511755D01*
X133751695Y-130511755D02*
X133751695Y-130664136D01*
X133751695Y-130664136D02*
X133713600Y-130740326D01*
X133713600Y-130740326D02*
X133637409Y-130778422D01*
X133637409Y-130778422D02*
X133332647Y-130778422D01*
X133332647Y-130778422D02*
X133256457Y-130740326D01*
X133256457Y-130740326D02*
X133218361Y-130664136D01*
X133218361Y-130664136D02*
X133218361Y-130511755D01*
X133218361Y-130511755D02*
X133256457Y-130435564D01*
X133256457Y-130435564D02*
X133332647Y-130397469D01*
X133332647Y-130397469D02*
X133408838Y-130397469D01*
X133408838Y-130397469D02*
X133485028Y-130778422D01*
X133751695Y-130054612D02*
X133218361Y-130054612D01*
X133370742Y-130054612D02*
X133294552Y-130016517D01*
X133294552Y-130016517D02*
X133256457Y-129978422D01*
X133256457Y-129978422D02*
X133218361Y-129902231D01*
X133218361Y-129902231D02*
X133218361Y-129826041D01*
X133218361Y-129635565D02*
X133751695Y-129445089D01*
X133751695Y-129445089D02*
X133218361Y-129254612D01*
X133751695Y-128835565D02*
X133713600Y-128911755D01*
X133713600Y-128911755D02*
X133675504Y-128949850D01*
X133675504Y-128949850D02*
X133599314Y-128987946D01*
X133599314Y-128987946D02*
X133370742Y-128987946D01*
X133370742Y-128987946D02*
X133294552Y-128949850D01*
X133294552Y-128949850D02*
X133256457Y-128911755D01*
X133256457Y-128911755D02*
X133218361Y-128835565D01*
X133218361Y-128835565D02*
X133218361Y-128721279D01*
X133218361Y-128721279D02*
X133256457Y-128645088D01*
X133256457Y-128645088D02*
X133294552Y-128606993D01*
X133294552Y-128606993D02*
X133370742Y-128568898D01*
X133370742Y-128568898D02*
X133599314Y-128568898D01*
X133599314Y-128568898D02*
X133675504Y-128606993D01*
X133675504Y-128606993D02*
X133713600Y-128645088D01*
X133713600Y-128645088D02*
X133751695Y-128721279D01*
X133751695Y-128721279D02*
X133751695Y-128835565D01*
X133027885Y-128264136D02*
X132989790Y-128226040D01*
X132989790Y-128226040D02*
X132951695Y-128149850D01*
X132951695Y-128149850D02*
X132951695Y-127959374D01*
X132951695Y-127959374D02*
X132989790Y-127883183D01*
X132989790Y-127883183D02*
X133027885Y-127845088D01*
X133027885Y-127845088D02*
X133104076Y-127806993D01*
X133104076Y-127806993D02*
X133180266Y-127806993D01*
X133180266Y-127806993D02*
X133294552Y-127845088D01*
X133294552Y-127845088D02*
X133751695Y-128302231D01*
X133751695Y-128302231D02*
X133751695Y-127806993D01*
X126364838Y-142446517D02*
X126317219Y-142541755D01*
X126317219Y-142541755D02*
X126317219Y-142684612D01*
X126317219Y-142684612D02*
X126364838Y-142827469D01*
X126364838Y-142827469D02*
X126460076Y-142922707D01*
X126460076Y-142922707D02*
X126555314Y-142970326D01*
X126555314Y-142970326D02*
X126745790Y-143017945D01*
X126745790Y-143017945D02*
X126888647Y-143017945D01*
X126888647Y-143017945D02*
X127079123Y-142970326D01*
X127079123Y-142970326D02*
X127174361Y-142922707D01*
X127174361Y-142922707D02*
X127269600Y-142827469D01*
X127269600Y-142827469D02*
X127317219Y-142684612D01*
X127317219Y-142684612D02*
X127317219Y-142589374D01*
X127317219Y-142589374D02*
X127269600Y-142446517D01*
X127269600Y-142446517D02*
X127221980Y-142398898D01*
X127221980Y-142398898D02*
X126888647Y-142398898D01*
X126888647Y-142398898D02*
X126888647Y-142589374D01*
X127317219Y-141970326D02*
X126317219Y-141970326D01*
X126317219Y-141970326D02*
X127317219Y-141398898D01*
X127317219Y-141398898D02*
X126317219Y-141398898D01*
X127317219Y-140922707D02*
X126317219Y-140922707D01*
X126317219Y-140922707D02*
X126317219Y-140684612D01*
X126317219Y-140684612D02*
X126364838Y-140541755D01*
X126364838Y-140541755D02*
X126460076Y-140446517D01*
X126460076Y-140446517D02*
X126555314Y-140398898D01*
X126555314Y-140398898D02*
X126745790Y-140351279D01*
X126745790Y-140351279D02*
X126888647Y-140351279D01*
X126888647Y-140351279D02*
X127079123Y-140398898D01*
X127079123Y-140398898D02*
X127174361Y-140446517D01*
X127174361Y-140446517D02*
X127269600Y-140541755D01*
X127269600Y-140541755D02*
X127317219Y-140684612D01*
X127317219Y-140684612D02*
X127317219Y-140922707D01*
X88215863Y-89981695D02*
X88711101Y-89981695D01*
X88711101Y-89981695D02*
X88444435Y-90286457D01*
X88444435Y-90286457D02*
X88558720Y-90286457D01*
X88558720Y-90286457D02*
X88634911Y-90324552D01*
X88634911Y-90324552D02*
X88673006Y-90362647D01*
X88673006Y-90362647D02*
X88711101Y-90438838D01*
X88711101Y-90438838D02*
X88711101Y-90629314D01*
X88711101Y-90629314D02*
X88673006Y-90705504D01*
X88673006Y-90705504D02*
X88634911Y-90743600D01*
X88634911Y-90743600D02*
X88558720Y-90781695D01*
X88558720Y-90781695D02*
X88330149Y-90781695D01*
X88330149Y-90781695D02*
X88253958Y-90743600D01*
X88253958Y-90743600D02*
X88215863Y-90705504D01*
X89092054Y-90781695D02*
X89244435Y-90781695D01*
X89244435Y-90781695D02*
X89320625Y-90743600D01*
X89320625Y-90743600D02*
X89358721Y-90705504D01*
X89358721Y-90705504D02*
X89434911Y-90591219D01*
X89434911Y-90591219D02*
X89473006Y-90438838D01*
X89473006Y-90438838D02*
X89473006Y-90134076D01*
X89473006Y-90134076D02*
X89434911Y-90057885D01*
X89434911Y-90057885D02*
X89396816Y-90019790D01*
X89396816Y-90019790D02*
X89320625Y-89981695D01*
X89320625Y-89981695D02*
X89168244Y-89981695D01*
X89168244Y-89981695D02*
X89092054Y-90019790D01*
X89092054Y-90019790D02*
X89053959Y-90057885D01*
X89053959Y-90057885D02*
X89015863Y-90134076D01*
X89015863Y-90134076D02*
X89015863Y-90324552D01*
X89015863Y-90324552D02*
X89053959Y-90400742D01*
X89053959Y-90400742D02*
X89092054Y-90438838D01*
X89092054Y-90438838D02*
X89168244Y-90476933D01*
X89168244Y-90476933D02*
X89320625Y-90476933D01*
X89320625Y-90476933D02*
X89396816Y-90438838D01*
X89396816Y-90438838D02*
X89434911Y-90400742D01*
X89434911Y-90400742D02*
X89473006Y-90324552D01*
X126304838Y-118756517D02*
X126257219Y-118851755D01*
X126257219Y-118851755D02*
X126257219Y-118994612D01*
X126257219Y-118994612D02*
X126304838Y-119137469D01*
X126304838Y-119137469D02*
X126400076Y-119232707D01*
X126400076Y-119232707D02*
X126495314Y-119280326D01*
X126495314Y-119280326D02*
X126685790Y-119327945D01*
X126685790Y-119327945D02*
X126828647Y-119327945D01*
X126828647Y-119327945D02*
X127019123Y-119280326D01*
X127019123Y-119280326D02*
X127114361Y-119232707D01*
X127114361Y-119232707D02*
X127209600Y-119137469D01*
X127209600Y-119137469D02*
X127257219Y-118994612D01*
X127257219Y-118994612D02*
X127257219Y-118899374D01*
X127257219Y-118899374D02*
X127209600Y-118756517D01*
X127209600Y-118756517D02*
X127161980Y-118708898D01*
X127161980Y-118708898D02*
X126828647Y-118708898D01*
X126828647Y-118708898D02*
X126828647Y-118899374D01*
X127257219Y-118280326D02*
X126257219Y-118280326D01*
X126257219Y-118280326D02*
X127257219Y-117708898D01*
X127257219Y-117708898D02*
X126257219Y-117708898D01*
X127257219Y-117232707D02*
X126257219Y-117232707D01*
X126257219Y-117232707D02*
X126257219Y-116994612D01*
X126257219Y-116994612D02*
X126304838Y-116851755D01*
X126304838Y-116851755D02*
X126400076Y-116756517D01*
X126400076Y-116756517D02*
X126495314Y-116708898D01*
X126495314Y-116708898D02*
X126685790Y-116661279D01*
X126685790Y-116661279D02*
X126828647Y-116661279D01*
X126828647Y-116661279D02*
X127019123Y-116708898D01*
X127019123Y-116708898D02*
X127114361Y-116756517D01*
X127114361Y-116756517D02*
X127209600Y-116851755D01*
X127209600Y-116851755D02*
X127257219Y-116994612D01*
X127257219Y-116994612D02*
X127257219Y-117232707D01*
X119053958Y-117947885D02*
X119092054Y-117909790D01*
X119092054Y-117909790D02*
X119168244Y-117871695D01*
X119168244Y-117871695D02*
X119358720Y-117871695D01*
X119358720Y-117871695D02*
X119434911Y-117909790D01*
X119434911Y-117909790D02*
X119473006Y-117947885D01*
X119473006Y-117947885D02*
X119511101Y-118024076D01*
X119511101Y-118024076D02*
X119511101Y-118100266D01*
X119511101Y-118100266D02*
X119473006Y-118214552D01*
X119473006Y-118214552D02*
X119015863Y-118671695D01*
X119015863Y-118671695D02*
X119511101Y-118671695D01*
X119531101Y-121221695D02*
X119073958Y-121221695D01*
X119302530Y-121221695D02*
X119302530Y-120421695D01*
X119302530Y-120421695D02*
X119226339Y-120535980D01*
X119226339Y-120535980D02*
X119150149Y-120612171D01*
X119150149Y-120612171D02*
X119073958Y-120650266D01*
X120254911Y-120421695D02*
X119873959Y-120421695D01*
X119873959Y-120421695D02*
X119835863Y-120802647D01*
X119835863Y-120802647D02*
X119873959Y-120764552D01*
X119873959Y-120764552D02*
X119950149Y-120726457D01*
X119950149Y-120726457D02*
X120140625Y-120726457D01*
X120140625Y-120726457D02*
X120216816Y-120764552D01*
X120216816Y-120764552D02*
X120254911Y-120802647D01*
X120254911Y-120802647D02*
X120293006Y-120878838D01*
X120293006Y-120878838D02*
X120293006Y-121069314D01*
X120293006Y-121069314D02*
X120254911Y-121145504D01*
X120254911Y-121145504D02*
X120216816Y-121183600D01*
X120216816Y-121183600D02*
X120140625Y-121221695D01*
X120140625Y-121221695D02*
X119950149Y-121221695D01*
X119950149Y-121221695D02*
X119873959Y-121183600D01*
X119873959Y-121183600D02*
X119835863Y-121145504D01*
X88584911Y-82558361D02*
X88584911Y-83205980D01*
X88584911Y-83205980D02*
X88546816Y-83282171D01*
X88546816Y-83282171D02*
X88508720Y-83320266D01*
X88508720Y-83320266D02*
X88432530Y-83358361D01*
X88432530Y-83358361D02*
X88318244Y-83358361D01*
X88318244Y-83358361D02*
X88242054Y-83320266D01*
X88584911Y-83053600D02*
X88508720Y-83091695D01*
X88508720Y-83091695D02*
X88356339Y-83091695D01*
X88356339Y-83091695D02*
X88280149Y-83053600D01*
X88280149Y-83053600D02*
X88242054Y-83015504D01*
X88242054Y-83015504D02*
X88203958Y-82939314D01*
X88203958Y-82939314D02*
X88203958Y-82710742D01*
X88203958Y-82710742D02*
X88242054Y-82634552D01*
X88242054Y-82634552D02*
X88280149Y-82596457D01*
X88280149Y-82596457D02*
X88356339Y-82558361D01*
X88356339Y-82558361D02*
X88508720Y-82558361D01*
X88508720Y-82558361D02*
X88584911Y-82596457D01*
X88965864Y-82558361D02*
X88965864Y-83091695D01*
X88965864Y-82634552D02*
X89003959Y-82596457D01*
X89003959Y-82596457D02*
X89080149Y-82558361D01*
X89080149Y-82558361D02*
X89194435Y-82558361D01*
X89194435Y-82558361D02*
X89270626Y-82596457D01*
X89270626Y-82596457D02*
X89308721Y-82672647D01*
X89308721Y-82672647D02*
X89308721Y-83091695D01*
X90032531Y-83091695D02*
X90032531Y-82291695D01*
X90032531Y-83053600D02*
X89956340Y-83091695D01*
X89956340Y-83091695D02*
X89803959Y-83091695D01*
X89803959Y-83091695D02*
X89727769Y-83053600D01*
X89727769Y-83053600D02*
X89689674Y-83015504D01*
X89689674Y-83015504D02*
X89651578Y-82939314D01*
X89651578Y-82939314D02*
X89651578Y-82710742D01*
X89651578Y-82710742D02*
X89689674Y-82634552D01*
X89689674Y-82634552D02*
X89727769Y-82596457D01*
X89727769Y-82596457D02*
X89803959Y-82558361D01*
X89803959Y-82558361D02*
X89956340Y-82558361D01*
X89956340Y-82558361D02*
X90032531Y-82596457D01*
X88253958Y-107777885D02*
X88292054Y-107739790D01*
X88292054Y-107739790D02*
X88368244Y-107701695D01*
X88368244Y-107701695D02*
X88558720Y-107701695D01*
X88558720Y-107701695D02*
X88634911Y-107739790D01*
X88634911Y-107739790D02*
X88673006Y-107777885D01*
X88673006Y-107777885D02*
X88711101Y-107854076D01*
X88711101Y-107854076D02*
X88711101Y-107930266D01*
X88711101Y-107930266D02*
X88673006Y-108044552D01*
X88673006Y-108044552D02*
X88215863Y-108501695D01*
X88215863Y-108501695D02*
X88711101Y-108501695D01*
X88977768Y-107701695D02*
X89511102Y-107701695D01*
X89511102Y-107701695D02*
X89168244Y-108501695D01*
X88292054Y-85172647D02*
X88558720Y-85172647D01*
X88673006Y-85591695D02*
X88292054Y-85591695D01*
X88292054Y-85591695D02*
X88292054Y-84791695D01*
X88292054Y-84791695D02*
X88673006Y-84791695D01*
X89015864Y-85591695D02*
X89015864Y-84791695D01*
X89015864Y-84791695D02*
X89473007Y-85591695D01*
X89473007Y-85591695D02*
X89473007Y-84791695D01*
X127063409Y-101530326D02*
X127063409Y-101196993D01*
X127587219Y-101054136D02*
X127587219Y-101530326D01*
X127587219Y-101530326D02*
X126587219Y-101530326D01*
X126587219Y-101530326D02*
X126587219Y-101054136D01*
X127587219Y-100625564D02*
X126587219Y-100625564D01*
X126587219Y-100625564D02*
X127587219Y-100054136D01*
X127587219Y-100054136D02*
X126587219Y-100054136D01*
X119504911Y-113138361D02*
X119504911Y-113671695D01*
X119314435Y-112833600D02*
X119123958Y-113405028D01*
X119123958Y-113405028D02*
X119619197Y-113405028D01*
X125274838Y-83486517D02*
X125227219Y-83581755D01*
X125227219Y-83581755D02*
X125227219Y-83724612D01*
X125227219Y-83724612D02*
X125274838Y-83867469D01*
X125274838Y-83867469D02*
X125370076Y-83962707D01*
X125370076Y-83962707D02*
X125465314Y-84010326D01*
X125465314Y-84010326D02*
X125655790Y-84057945D01*
X125655790Y-84057945D02*
X125798647Y-84057945D01*
X125798647Y-84057945D02*
X125989123Y-84010326D01*
X125989123Y-84010326D02*
X126084361Y-83962707D01*
X126084361Y-83962707D02*
X126179600Y-83867469D01*
X126179600Y-83867469D02*
X126227219Y-83724612D01*
X126227219Y-83724612D02*
X126227219Y-83629374D01*
X126227219Y-83629374D02*
X126179600Y-83486517D01*
X126179600Y-83486517D02*
X126131980Y-83438898D01*
X126131980Y-83438898D02*
X125798647Y-83438898D01*
X125798647Y-83438898D02*
X125798647Y-83629374D01*
X126227219Y-83010326D02*
X125227219Y-83010326D01*
X125227219Y-83010326D02*
X126227219Y-82438898D01*
X126227219Y-82438898D02*
X125227219Y-82438898D01*
X126227219Y-81962707D02*
X125227219Y-81962707D01*
X125227219Y-81962707D02*
X125227219Y-81724612D01*
X125227219Y-81724612D02*
X125274838Y-81581755D01*
X125274838Y-81581755D02*
X125370076Y-81486517D01*
X125370076Y-81486517D02*
X125465314Y-81438898D01*
X125465314Y-81438898D02*
X125655790Y-81391279D01*
X125655790Y-81391279D02*
X125798647Y-81391279D01*
X125798647Y-81391279D02*
X125989123Y-81438898D01*
X125989123Y-81438898D02*
X126084361Y-81486517D01*
X126084361Y-81486517D02*
X126179600Y-81581755D01*
X126179600Y-81581755D02*
X126227219Y-81724612D01*
X126227219Y-81724612D02*
X126227219Y-81962707D01*
X134047219Y-108400326D02*
X133380552Y-108400326D01*
X133475790Y-108400326D02*
X133428171Y-108352707D01*
X133428171Y-108352707D02*
X133380552Y-108257469D01*
X133380552Y-108257469D02*
X133380552Y-108114612D01*
X133380552Y-108114612D02*
X133428171Y-108019374D01*
X133428171Y-108019374D02*
X133523409Y-107971755D01*
X133523409Y-107971755D02*
X134047219Y-107971755D01*
X133523409Y-107971755D02*
X133428171Y-107924136D01*
X133428171Y-107924136D02*
X133380552Y-107828898D01*
X133380552Y-107828898D02*
X133380552Y-107686041D01*
X133380552Y-107686041D02*
X133428171Y-107590802D01*
X133428171Y-107590802D02*
X133523409Y-107543183D01*
X133523409Y-107543183D02*
X134047219Y-107543183D01*
X133380552Y-106638422D02*
X134047219Y-106638422D01*
X132999600Y-106876517D02*
X133713885Y-107114612D01*
X133713885Y-107114612D02*
X133713885Y-106495565D01*
X81235161Y-126733482D02*
X81282780Y-126638244D01*
X81282780Y-126638244D02*
X81282780Y-126495387D01*
X81282780Y-126495387D02*
X81235161Y-126352530D01*
X81235161Y-126352530D02*
X81139923Y-126257292D01*
X81139923Y-126257292D02*
X81044685Y-126209673D01*
X81044685Y-126209673D02*
X80854209Y-126162054D01*
X80854209Y-126162054D02*
X80711352Y-126162054D01*
X80711352Y-126162054D02*
X80520876Y-126209673D01*
X80520876Y-126209673D02*
X80425638Y-126257292D01*
X80425638Y-126257292D02*
X80330400Y-126352530D01*
X80330400Y-126352530D02*
X80282780Y-126495387D01*
X80282780Y-126495387D02*
X80282780Y-126590625D01*
X80282780Y-126590625D02*
X80330400Y-126733482D01*
X80330400Y-126733482D02*
X80378019Y-126781101D01*
X80378019Y-126781101D02*
X80711352Y-126781101D01*
X80711352Y-126781101D02*
X80711352Y-126590625D01*
X80282780Y-127209673D02*
X81282780Y-127209673D01*
X81282780Y-127209673D02*
X80282780Y-127781101D01*
X80282780Y-127781101D02*
X81282780Y-127781101D01*
X80282780Y-128257292D02*
X81282780Y-128257292D01*
X81282780Y-128257292D02*
X81282780Y-128495387D01*
X81282780Y-128495387D02*
X81235161Y-128638244D01*
X81235161Y-128638244D02*
X81139923Y-128733482D01*
X81139923Y-128733482D02*
X81044685Y-128781101D01*
X81044685Y-128781101D02*
X80854209Y-128828720D01*
X80854209Y-128828720D02*
X80711352Y-128828720D01*
X80711352Y-128828720D02*
X80520876Y-128781101D01*
X80520876Y-128781101D02*
X80425638Y-128733482D01*
X80425638Y-128733482D02*
X80330400Y-128638244D01*
X80330400Y-128638244D02*
X80282780Y-128495387D01*
X80282780Y-128495387D02*
X80282780Y-128257292D01*
D11*
X115124619Y-134332669D02*
X115124619Y-133713622D01*
X115124619Y-133713622D02*
X115505571Y-134046955D01*
X115505571Y-134046955D02*
X115505571Y-133904098D01*
X115505571Y-133904098D02*
X115553190Y-133808860D01*
X115553190Y-133808860D02*
X115600809Y-133761241D01*
X115600809Y-133761241D02*
X115696047Y-133713622D01*
X115696047Y-133713622D02*
X115934142Y-133713622D01*
X115934142Y-133713622D02*
X116029380Y-133761241D01*
X116029380Y-133761241D02*
X116077000Y-133808860D01*
X116077000Y-133808860D02*
X116124619Y-133904098D01*
X116124619Y-133904098D02*
X116124619Y-134189812D01*
X116124619Y-134189812D02*
X116077000Y-134285050D01*
X116077000Y-134285050D02*
X116029380Y-134332669D01*
X116029380Y-133285050D02*
X116077000Y-133237431D01*
X116077000Y-133237431D02*
X116124619Y-133285050D01*
X116124619Y-133285050D02*
X116077000Y-133332669D01*
X116077000Y-133332669D02*
X116029380Y-133285050D01*
X116029380Y-133285050D02*
X116124619Y-133285050D01*
X115124619Y-132904098D02*
X115124619Y-132285051D01*
X115124619Y-132285051D02*
X115505571Y-132618384D01*
X115505571Y-132618384D02*
X115505571Y-132475527D01*
X115505571Y-132475527D02*
X115553190Y-132380289D01*
X115553190Y-132380289D02*
X115600809Y-132332670D01*
X115600809Y-132332670D02*
X115696047Y-132285051D01*
X115696047Y-132285051D02*
X115934142Y-132285051D01*
X115934142Y-132285051D02*
X116029380Y-132332670D01*
X116029380Y-132332670D02*
X116077000Y-132380289D01*
X116077000Y-132380289D02*
X116124619Y-132475527D01*
X116124619Y-132475527D02*
X116124619Y-132761241D01*
X116124619Y-132761241D02*
X116077000Y-132856479D01*
X116077000Y-132856479D02*
X116029380Y-132904098D01*
X115457952Y-131951717D02*
X116124619Y-131713622D01*
X116124619Y-131713622D02*
X115457952Y-131475527D01*
D12*
X111621177Y-84805304D02*
X112054510Y-86105304D01*
X112054510Y-86105304D02*
X112487844Y-84805304D01*
X112859273Y-84929114D02*
X112921177Y-84867209D01*
X112921177Y-84867209D02*
X113044987Y-84805304D01*
X113044987Y-84805304D02*
X113354511Y-84805304D01*
X113354511Y-84805304D02*
X113478320Y-84867209D01*
X113478320Y-84867209D02*
X113540225Y-84929114D01*
X113540225Y-84929114D02*
X113602130Y-85052923D01*
X113602130Y-85052923D02*
X113602130Y-85176733D01*
X113602130Y-85176733D02*
X113540225Y-85362447D01*
X113540225Y-85362447D02*
X112797368Y-86105304D01*
X112797368Y-86105304D02*
X113602130Y-86105304D01*
D10*
X120923482Y-160957219D02*
X120352054Y-160957219D01*
X120637768Y-160957219D02*
X120637768Y-159957219D01*
X120637768Y-159957219D02*
X120542530Y-160100076D01*
X120542530Y-160100076D02*
X120447292Y-160195314D01*
X120447292Y-160195314D02*
X120352054Y-160242933D01*
X121304435Y-160052457D02*
X121352054Y-160004838D01*
X121352054Y-160004838D02*
X121447292Y-159957219D01*
X121447292Y-159957219D02*
X121685387Y-159957219D01*
X121685387Y-159957219D02*
X121780625Y-160004838D01*
X121780625Y-160004838D02*
X121828244Y-160052457D01*
X121828244Y-160052457D02*
X121875863Y-160147695D01*
X121875863Y-160147695D02*
X121875863Y-160242933D01*
X121875863Y-160242933D02*
X121828244Y-160385790D01*
X121828244Y-160385790D02*
X121256816Y-160957219D01*
X121256816Y-160957219D02*
X121875863Y-160957219D01*
X122161578Y-159957219D02*
X122494911Y-160957219D01*
X122494911Y-160957219D02*
X122828244Y-159957219D01*
X124256816Y-160433409D02*
X124399673Y-160481028D01*
X124399673Y-160481028D02*
X124447292Y-160528647D01*
X124447292Y-160528647D02*
X124494911Y-160623885D01*
X124494911Y-160623885D02*
X124494911Y-160766742D01*
X124494911Y-160766742D02*
X124447292Y-160861980D01*
X124447292Y-160861980D02*
X124399673Y-160909600D01*
X124399673Y-160909600D02*
X124304435Y-160957219D01*
X124304435Y-160957219D02*
X123923483Y-160957219D01*
X123923483Y-160957219D02*
X123923483Y-159957219D01*
X123923483Y-159957219D02*
X124256816Y-159957219D01*
X124256816Y-159957219D02*
X124352054Y-160004838D01*
X124352054Y-160004838D02*
X124399673Y-160052457D01*
X124399673Y-160052457D02*
X124447292Y-160147695D01*
X124447292Y-160147695D02*
X124447292Y-160242933D01*
X124447292Y-160242933D02*
X124399673Y-160338171D01*
X124399673Y-160338171D02*
X124352054Y-160385790D01*
X124352054Y-160385790D02*
X124256816Y-160433409D01*
X124256816Y-160433409D02*
X123923483Y-160433409D01*
X124923483Y-159957219D02*
X124923483Y-160766742D01*
X124923483Y-160766742D02*
X124971102Y-160861980D01*
X124971102Y-160861980D02*
X125018721Y-160909600D01*
X125018721Y-160909600D02*
X125113959Y-160957219D01*
X125113959Y-160957219D02*
X125304435Y-160957219D01*
X125304435Y-160957219D02*
X125399673Y-160909600D01*
X125399673Y-160909600D02*
X125447292Y-160861980D01*
X125447292Y-160861980D02*
X125494911Y-160766742D01*
X125494911Y-160766742D02*
X125494911Y-159957219D01*
X126542530Y-160861980D02*
X126494911Y-160909600D01*
X126494911Y-160909600D02*
X126352054Y-160957219D01*
X126352054Y-160957219D02*
X126256816Y-160957219D01*
X126256816Y-160957219D02*
X126113959Y-160909600D01*
X126113959Y-160909600D02*
X126018721Y-160814361D01*
X126018721Y-160814361D02*
X125971102Y-160719123D01*
X125971102Y-160719123D02*
X125923483Y-160528647D01*
X125923483Y-160528647D02*
X125923483Y-160385790D01*
X125923483Y-160385790D02*
X125971102Y-160195314D01*
X125971102Y-160195314D02*
X126018721Y-160100076D01*
X126018721Y-160100076D02*
X126113959Y-160004838D01*
X126113959Y-160004838D02*
X126256816Y-159957219D01*
X126256816Y-159957219D02*
X126352054Y-159957219D01*
X126352054Y-159957219D02*
X126494911Y-160004838D01*
X126494911Y-160004838D02*
X126542530Y-160052457D01*
X126971102Y-160957219D02*
X126971102Y-159957219D01*
X127542530Y-160957219D02*
X127113959Y-160385790D01*
X127542530Y-159957219D02*
X126971102Y-160528647D01*
X81595161Y-139103482D02*
X81642780Y-139008244D01*
X81642780Y-139008244D02*
X81642780Y-138865387D01*
X81642780Y-138865387D02*
X81595161Y-138722530D01*
X81595161Y-138722530D02*
X81499923Y-138627292D01*
X81499923Y-138627292D02*
X81404685Y-138579673D01*
X81404685Y-138579673D02*
X81214209Y-138532054D01*
X81214209Y-138532054D02*
X81071352Y-138532054D01*
X81071352Y-138532054D02*
X80880876Y-138579673D01*
X80880876Y-138579673D02*
X80785638Y-138627292D01*
X80785638Y-138627292D02*
X80690400Y-138722530D01*
X80690400Y-138722530D02*
X80642780Y-138865387D01*
X80642780Y-138865387D02*
X80642780Y-138960625D01*
X80642780Y-138960625D02*
X80690400Y-139103482D01*
X80690400Y-139103482D02*
X80738019Y-139151101D01*
X80738019Y-139151101D02*
X81071352Y-139151101D01*
X81071352Y-139151101D02*
X81071352Y-138960625D01*
X80642780Y-139579673D02*
X81642780Y-139579673D01*
X81642780Y-139579673D02*
X80642780Y-140151101D01*
X80642780Y-140151101D02*
X81642780Y-140151101D01*
X80642780Y-140627292D02*
X81642780Y-140627292D01*
X81642780Y-140627292D02*
X81642780Y-140865387D01*
X81642780Y-140865387D02*
X81595161Y-141008244D01*
X81595161Y-141008244D02*
X81499923Y-141103482D01*
X81499923Y-141103482D02*
X81404685Y-141151101D01*
X81404685Y-141151101D02*
X81214209Y-141198720D01*
X81214209Y-141198720D02*
X81071352Y-141198720D01*
X81071352Y-141198720D02*
X80880876Y-141151101D01*
X80880876Y-141151101D02*
X80785638Y-141103482D01*
X80785638Y-141103482D02*
X80690400Y-141008244D01*
X80690400Y-141008244D02*
X80642780Y-140865387D01*
X80642780Y-140865387D02*
X80642780Y-140627292D01*
X88165863Y-100151695D02*
X88661101Y-100151695D01*
X88661101Y-100151695D02*
X88394435Y-100456457D01*
X88394435Y-100456457D02*
X88508720Y-100456457D01*
X88508720Y-100456457D02*
X88584911Y-100494552D01*
X88584911Y-100494552D02*
X88623006Y-100532647D01*
X88623006Y-100532647D02*
X88661101Y-100608838D01*
X88661101Y-100608838D02*
X88661101Y-100799314D01*
X88661101Y-100799314D02*
X88623006Y-100875504D01*
X88623006Y-100875504D02*
X88584911Y-100913600D01*
X88584911Y-100913600D02*
X88508720Y-100951695D01*
X88508720Y-100951695D02*
X88280149Y-100951695D01*
X88280149Y-100951695D02*
X88203958Y-100913600D01*
X88203958Y-100913600D02*
X88165863Y-100875504D01*
X88927768Y-100151695D02*
X89423006Y-100151695D01*
X89423006Y-100151695D02*
X89156340Y-100456457D01*
X89156340Y-100456457D02*
X89270625Y-100456457D01*
X89270625Y-100456457D02*
X89346816Y-100494552D01*
X89346816Y-100494552D02*
X89384911Y-100532647D01*
X89384911Y-100532647D02*
X89423006Y-100608838D01*
X89423006Y-100608838D02*
X89423006Y-100799314D01*
X89423006Y-100799314D02*
X89384911Y-100875504D01*
X89384911Y-100875504D02*
X89346816Y-100913600D01*
X89346816Y-100913600D02*
X89270625Y-100951695D01*
X89270625Y-100951695D02*
X89042054Y-100951695D01*
X89042054Y-100951695D02*
X88965863Y-100913600D01*
X88965863Y-100913600D02*
X88927768Y-100875504D01*
X88165863Y-97601695D02*
X88661101Y-97601695D01*
X88661101Y-97601695D02*
X88394435Y-97906457D01*
X88394435Y-97906457D02*
X88508720Y-97906457D01*
X88508720Y-97906457D02*
X88584911Y-97944552D01*
X88584911Y-97944552D02*
X88623006Y-97982647D01*
X88623006Y-97982647D02*
X88661101Y-98058838D01*
X88661101Y-98058838D02*
X88661101Y-98249314D01*
X88661101Y-98249314D02*
X88623006Y-98325504D01*
X88623006Y-98325504D02*
X88584911Y-98363600D01*
X88584911Y-98363600D02*
X88508720Y-98401695D01*
X88508720Y-98401695D02*
X88280149Y-98401695D01*
X88280149Y-98401695D02*
X88203958Y-98363600D01*
X88203958Y-98363600D02*
X88165863Y-98325504D01*
X88965863Y-97677885D02*
X89003959Y-97639790D01*
X89003959Y-97639790D02*
X89080149Y-97601695D01*
X89080149Y-97601695D02*
X89270625Y-97601695D01*
X89270625Y-97601695D02*
X89346816Y-97639790D01*
X89346816Y-97639790D02*
X89384911Y-97677885D01*
X89384911Y-97677885D02*
X89423006Y-97754076D01*
X89423006Y-97754076D02*
X89423006Y-97830266D01*
X89423006Y-97830266D02*
X89384911Y-97944552D01*
X89384911Y-97944552D02*
X88927768Y-98401695D01*
X88927768Y-98401695D02*
X89423006Y-98401695D01*
X119593006Y-105171695D02*
X119212054Y-105171695D01*
X119212054Y-105171695D02*
X119173958Y-105552647D01*
X119173958Y-105552647D02*
X119212054Y-105514552D01*
X119212054Y-105514552D02*
X119288244Y-105476457D01*
X119288244Y-105476457D02*
X119478720Y-105476457D01*
X119478720Y-105476457D02*
X119554911Y-105514552D01*
X119554911Y-105514552D02*
X119593006Y-105552647D01*
X119593006Y-105552647D02*
X119631101Y-105628838D01*
X119631101Y-105628838D02*
X119631101Y-105819314D01*
X119631101Y-105819314D02*
X119593006Y-105895504D01*
X119593006Y-105895504D02*
X119554911Y-105933600D01*
X119554911Y-105933600D02*
X119478720Y-105971695D01*
X119478720Y-105971695D02*
X119288244Y-105971695D01*
X119288244Y-105971695D02*
X119212054Y-105933600D01*
X119212054Y-105933600D02*
X119173958Y-105895504D01*
X88969197Y-126285504D02*
X88931101Y-126323600D01*
X88931101Y-126323600D02*
X88816816Y-126361695D01*
X88816816Y-126361695D02*
X88740625Y-126361695D01*
X88740625Y-126361695D02*
X88626339Y-126323600D01*
X88626339Y-126323600D02*
X88550149Y-126247409D01*
X88550149Y-126247409D02*
X88512054Y-126171219D01*
X88512054Y-126171219D02*
X88473958Y-126018838D01*
X88473958Y-126018838D02*
X88473958Y-125904552D01*
X88473958Y-125904552D02*
X88512054Y-125752171D01*
X88512054Y-125752171D02*
X88550149Y-125675980D01*
X88550149Y-125675980D02*
X88626339Y-125599790D01*
X88626339Y-125599790D02*
X88740625Y-125561695D01*
X88740625Y-125561695D02*
X88816816Y-125561695D01*
X88816816Y-125561695D02*
X88931101Y-125599790D01*
X88931101Y-125599790D02*
X88969197Y-125637885D01*
X89312054Y-126361695D02*
X89312054Y-125561695D01*
X89312054Y-125561695D02*
X89578720Y-126133123D01*
X89578720Y-126133123D02*
X89845387Y-125561695D01*
X89845387Y-125561695D02*
X89845387Y-126361695D01*
X90226340Y-126361695D02*
X90226340Y-125561695D01*
X90226340Y-125561695D02*
X90416816Y-125561695D01*
X90416816Y-125561695D02*
X90531102Y-125599790D01*
X90531102Y-125599790D02*
X90607292Y-125675980D01*
X90607292Y-125675980D02*
X90645387Y-125752171D01*
X90645387Y-125752171D02*
X90683483Y-125904552D01*
X90683483Y-125904552D02*
X90683483Y-126018838D01*
X90683483Y-126018838D02*
X90645387Y-126171219D01*
X90645387Y-126171219D02*
X90607292Y-126247409D01*
X90607292Y-126247409D02*
X90531102Y-126323600D01*
X90531102Y-126323600D02*
X90416816Y-126361695D01*
X90416816Y-126361695D02*
X90226340Y-126361695D01*
X80692457Y-103897945D02*
X80644838Y-103850326D01*
X80644838Y-103850326D02*
X80597219Y-103755088D01*
X80597219Y-103755088D02*
X80597219Y-103516993D01*
X80597219Y-103516993D02*
X80644838Y-103421755D01*
X80644838Y-103421755D02*
X80692457Y-103374136D01*
X80692457Y-103374136D02*
X80787695Y-103326517D01*
X80787695Y-103326517D02*
X80882933Y-103326517D01*
X80882933Y-103326517D02*
X81025790Y-103374136D01*
X81025790Y-103374136D02*
X81597219Y-103945564D01*
X81597219Y-103945564D02*
X81597219Y-103326517D01*
X83244838Y-116786517D02*
X83197219Y-116881755D01*
X83197219Y-116881755D02*
X83197219Y-117024612D01*
X83197219Y-117024612D02*
X83244838Y-117167469D01*
X83244838Y-117167469D02*
X83340076Y-117262707D01*
X83340076Y-117262707D02*
X83435314Y-117310326D01*
X83435314Y-117310326D02*
X83625790Y-117357945D01*
X83625790Y-117357945D02*
X83768647Y-117357945D01*
X83768647Y-117357945D02*
X83959123Y-117310326D01*
X83959123Y-117310326D02*
X84054361Y-117262707D01*
X84054361Y-117262707D02*
X84149600Y-117167469D01*
X84149600Y-117167469D02*
X84197219Y-117024612D01*
X84197219Y-117024612D02*
X84197219Y-116929374D01*
X84197219Y-116929374D02*
X84149600Y-116786517D01*
X84149600Y-116786517D02*
X84101980Y-116738898D01*
X84101980Y-116738898D02*
X83768647Y-116738898D01*
X83768647Y-116738898D02*
X83768647Y-116929374D01*
X84197219Y-116310326D02*
X83197219Y-116310326D01*
X83197219Y-116310326D02*
X84197219Y-115738898D01*
X84197219Y-115738898D02*
X83197219Y-115738898D01*
X84197219Y-115262707D02*
X83197219Y-115262707D01*
X83197219Y-115262707D02*
X83197219Y-115024612D01*
X83197219Y-115024612D02*
X83244838Y-114881755D01*
X83244838Y-114881755D02*
X83340076Y-114786517D01*
X83340076Y-114786517D02*
X83435314Y-114738898D01*
X83435314Y-114738898D02*
X83625790Y-114691279D01*
X83625790Y-114691279D02*
X83768647Y-114691279D01*
X83768647Y-114691279D02*
X83959123Y-114738898D01*
X83959123Y-114738898D02*
X84054361Y-114786517D01*
X84054361Y-114786517D02*
X84149600Y-114881755D01*
X84149600Y-114881755D02*
X84197219Y-115024612D01*
X84197219Y-115024612D02*
X84197219Y-115262707D01*
X88893006Y-128281695D02*
X88512054Y-128281695D01*
X88512054Y-128281695D02*
X88473958Y-128662647D01*
X88473958Y-128662647D02*
X88512054Y-128624552D01*
X88512054Y-128624552D02*
X88588244Y-128586457D01*
X88588244Y-128586457D02*
X88778720Y-128586457D01*
X88778720Y-128586457D02*
X88854911Y-128624552D01*
X88854911Y-128624552D02*
X88893006Y-128662647D01*
X88893006Y-128662647D02*
X88931101Y-128738838D01*
X88931101Y-128738838D02*
X88931101Y-128929314D01*
X88931101Y-128929314D02*
X88893006Y-129005504D01*
X88893006Y-129005504D02*
X88854911Y-129043600D01*
X88854911Y-129043600D02*
X88778720Y-129081695D01*
X88778720Y-129081695D02*
X88588244Y-129081695D01*
X88588244Y-129081695D02*
X88512054Y-129043600D01*
X88512054Y-129043600D02*
X88473958Y-129005504D01*
X89159673Y-128281695D02*
X89426340Y-129081695D01*
X89426340Y-129081695D02*
X89693006Y-128281695D01*
X119639197Y-128715504D02*
X119601101Y-128753600D01*
X119601101Y-128753600D02*
X119486816Y-128791695D01*
X119486816Y-128791695D02*
X119410625Y-128791695D01*
X119410625Y-128791695D02*
X119296339Y-128753600D01*
X119296339Y-128753600D02*
X119220149Y-128677409D01*
X119220149Y-128677409D02*
X119182054Y-128601219D01*
X119182054Y-128601219D02*
X119143958Y-128448838D01*
X119143958Y-128448838D02*
X119143958Y-128334552D01*
X119143958Y-128334552D02*
X119182054Y-128182171D01*
X119182054Y-128182171D02*
X119220149Y-128105980D01*
X119220149Y-128105980D02*
X119296339Y-128029790D01*
X119296339Y-128029790D02*
X119410625Y-127991695D01*
X119410625Y-127991695D02*
X119486816Y-127991695D01*
X119486816Y-127991695D02*
X119601101Y-128029790D01*
X119601101Y-128029790D02*
X119639197Y-128067885D01*
X120363006Y-128791695D02*
X119982054Y-128791695D01*
X119982054Y-128791695D02*
X119982054Y-127991695D01*
X120629673Y-128791695D02*
X120629673Y-127991695D01*
X121086816Y-128791695D02*
X120743958Y-128334552D01*
X121086816Y-127991695D02*
X120629673Y-128448838D01*
X88711101Y-113641695D02*
X88253958Y-113641695D01*
X88482530Y-113641695D02*
X88482530Y-112841695D01*
X88482530Y-112841695D02*
X88406339Y-112955980D01*
X88406339Y-112955980D02*
X88330149Y-113032171D01*
X88330149Y-113032171D02*
X88253958Y-113070266D01*
X89015863Y-112917885D02*
X89053959Y-112879790D01*
X89053959Y-112879790D02*
X89130149Y-112841695D01*
X89130149Y-112841695D02*
X89320625Y-112841695D01*
X89320625Y-112841695D02*
X89396816Y-112879790D01*
X89396816Y-112879790D02*
X89434911Y-112917885D01*
X89434911Y-112917885D02*
X89473006Y-112994076D01*
X89473006Y-112994076D02*
X89473006Y-113070266D01*
X89473006Y-113070266D02*
X89434911Y-113184552D01*
X89434911Y-113184552D02*
X88977768Y-113641695D01*
X88977768Y-113641695D02*
X89473006Y-113641695D01*
X123497219Y-157396517D02*
X123497219Y-157967945D01*
X123497219Y-157682231D02*
X122497219Y-157682231D01*
X122497219Y-157682231D02*
X122640076Y-157777469D01*
X122640076Y-157777469D02*
X122735314Y-157872707D01*
X122735314Y-157872707D02*
X122782933Y-157967945D01*
X122592457Y-157015564D02*
X122544838Y-156967945D01*
X122544838Y-156967945D02*
X122497219Y-156872707D01*
X122497219Y-156872707D02*
X122497219Y-156634612D01*
X122497219Y-156634612D02*
X122544838Y-156539374D01*
X122544838Y-156539374D02*
X122592457Y-156491755D01*
X122592457Y-156491755D02*
X122687695Y-156444136D01*
X122687695Y-156444136D02*
X122782933Y-156444136D01*
X122782933Y-156444136D02*
X122925790Y-156491755D01*
X122925790Y-156491755D02*
X123497219Y-157063183D01*
X123497219Y-157063183D02*
X123497219Y-156444136D01*
X122830552Y-156110802D02*
X123497219Y-155872707D01*
X123497219Y-155872707D02*
X122830552Y-155634612D01*
X119244435Y-115321695D02*
X119320625Y-115321695D01*
X119320625Y-115321695D02*
X119396816Y-115359790D01*
X119396816Y-115359790D02*
X119434911Y-115397885D01*
X119434911Y-115397885D02*
X119473006Y-115474076D01*
X119473006Y-115474076D02*
X119511101Y-115626457D01*
X119511101Y-115626457D02*
X119511101Y-115816933D01*
X119511101Y-115816933D02*
X119473006Y-115969314D01*
X119473006Y-115969314D02*
X119434911Y-116045504D01*
X119434911Y-116045504D02*
X119396816Y-116083600D01*
X119396816Y-116083600D02*
X119320625Y-116121695D01*
X119320625Y-116121695D02*
X119244435Y-116121695D01*
X119244435Y-116121695D02*
X119168244Y-116083600D01*
X119168244Y-116083600D02*
X119130149Y-116045504D01*
X119130149Y-116045504D02*
X119092054Y-115969314D01*
X119092054Y-115969314D02*
X119053958Y-115816933D01*
X119053958Y-115816933D02*
X119053958Y-115626457D01*
X119053958Y-115626457D02*
X119092054Y-115474076D01*
X119092054Y-115474076D02*
X119130149Y-115397885D01*
X119130149Y-115397885D02*
X119168244Y-115359790D01*
X119168244Y-115359790D02*
X119244435Y-115321695D01*
X119073958Y-126273600D02*
X119188244Y-126311695D01*
X119188244Y-126311695D02*
X119378720Y-126311695D01*
X119378720Y-126311695D02*
X119454911Y-126273600D01*
X119454911Y-126273600D02*
X119493006Y-126235504D01*
X119493006Y-126235504D02*
X119531101Y-126159314D01*
X119531101Y-126159314D02*
X119531101Y-126083123D01*
X119531101Y-126083123D02*
X119493006Y-126006933D01*
X119493006Y-126006933D02*
X119454911Y-125968838D01*
X119454911Y-125968838D02*
X119378720Y-125930742D01*
X119378720Y-125930742D02*
X119226339Y-125892647D01*
X119226339Y-125892647D02*
X119150149Y-125854552D01*
X119150149Y-125854552D02*
X119112054Y-125816457D01*
X119112054Y-125816457D02*
X119073958Y-125740266D01*
X119073958Y-125740266D02*
X119073958Y-125664076D01*
X119073958Y-125664076D02*
X119112054Y-125587885D01*
X119112054Y-125587885D02*
X119150149Y-125549790D01*
X119150149Y-125549790D02*
X119226339Y-125511695D01*
X119226339Y-125511695D02*
X119416816Y-125511695D01*
X119416816Y-125511695D02*
X119531101Y-125549790D01*
X119873959Y-126311695D02*
X119873959Y-125511695D01*
X119873959Y-125511695D02*
X120064435Y-125511695D01*
X120064435Y-125511695D02*
X120178721Y-125549790D01*
X120178721Y-125549790D02*
X120254911Y-125625980D01*
X120254911Y-125625980D02*
X120293006Y-125702171D01*
X120293006Y-125702171D02*
X120331102Y-125854552D01*
X120331102Y-125854552D02*
X120331102Y-125968838D01*
X120331102Y-125968838D02*
X120293006Y-126121219D01*
X120293006Y-126121219D02*
X120254911Y-126197409D01*
X120254911Y-126197409D02*
X120178721Y-126273600D01*
X120178721Y-126273600D02*
X120064435Y-126311695D01*
X120064435Y-126311695D02*
X119873959Y-126311695D01*
X120826340Y-125511695D02*
X120902530Y-125511695D01*
X120902530Y-125511695D02*
X120978721Y-125549790D01*
X120978721Y-125549790D02*
X121016816Y-125587885D01*
X121016816Y-125587885D02*
X121054911Y-125664076D01*
X121054911Y-125664076D02*
X121093006Y-125816457D01*
X121093006Y-125816457D02*
X121093006Y-126006933D01*
X121093006Y-126006933D02*
X121054911Y-126159314D01*
X121054911Y-126159314D02*
X121016816Y-126235504D01*
X121016816Y-126235504D02*
X120978721Y-126273600D01*
X120978721Y-126273600D02*
X120902530Y-126311695D01*
X120902530Y-126311695D02*
X120826340Y-126311695D01*
X120826340Y-126311695D02*
X120750149Y-126273600D01*
X120750149Y-126273600D02*
X120712054Y-126235504D01*
X120712054Y-126235504D02*
X120673959Y-126159314D01*
X120673959Y-126159314D02*
X120635863Y-126006933D01*
X120635863Y-126006933D02*
X120635863Y-125816457D01*
X120635863Y-125816457D02*
X120673959Y-125664076D01*
X120673959Y-125664076D02*
X120712054Y-125587885D01*
X120712054Y-125587885D02*
X120750149Y-125549790D01*
X120750149Y-125549790D02*
X120826340Y-125511695D01*
X103653482Y-155814838D02*
X103558244Y-155767219D01*
X103558244Y-155767219D02*
X103415387Y-155767219D01*
X103415387Y-155767219D02*
X103272530Y-155814838D01*
X103272530Y-155814838D02*
X103177292Y-155910076D01*
X103177292Y-155910076D02*
X103129673Y-156005314D01*
X103129673Y-156005314D02*
X103082054Y-156195790D01*
X103082054Y-156195790D02*
X103082054Y-156338647D01*
X103082054Y-156338647D02*
X103129673Y-156529123D01*
X103129673Y-156529123D02*
X103177292Y-156624361D01*
X103177292Y-156624361D02*
X103272530Y-156719600D01*
X103272530Y-156719600D02*
X103415387Y-156767219D01*
X103415387Y-156767219D02*
X103510625Y-156767219D01*
X103510625Y-156767219D02*
X103653482Y-156719600D01*
X103653482Y-156719600D02*
X103701101Y-156671980D01*
X103701101Y-156671980D02*
X103701101Y-156338647D01*
X103701101Y-156338647D02*
X103510625Y-156338647D01*
X104129673Y-156767219D02*
X104129673Y-155767219D01*
X104129673Y-155767219D02*
X104701101Y-156767219D01*
X104701101Y-156767219D02*
X104701101Y-155767219D01*
X105177292Y-156767219D02*
X105177292Y-155767219D01*
X105177292Y-155767219D02*
X105415387Y-155767219D01*
X105415387Y-155767219D02*
X105558244Y-155814838D01*
X105558244Y-155814838D02*
X105653482Y-155910076D01*
X105653482Y-155910076D02*
X105701101Y-156005314D01*
X105701101Y-156005314D02*
X105748720Y-156195790D01*
X105748720Y-156195790D02*
X105748720Y-156338647D01*
X105748720Y-156338647D02*
X105701101Y-156529123D01*
X105701101Y-156529123D02*
X105653482Y-156624361D01*
X105653482Y-156624361D02*
X105558244Y-156719600D01*
X105558244Y-156719600D02*
X105415387Y-156767219D01*
X105415387Y-156767219D02*
X105177292Y-156767219D01*
X127209600Y-112707945D02*
X127257219Y-112565088D01*
X127257219Y-112565088D02*
X127257219Y-112326993D01*
X127257219Y-112326993D02*
X127209600Y-112231755D01*
X127209600Y-112231755D02*
X127161980Y-112184136D01*
X127161980Y-112184136D02*
X127066742Y-112136517D01*
X127066742Y-112136517D02*
X126971504Y-112136517D01*
X126971504Y-112136517D02*
X126876266Y-112184136D01*
X126876266Y-112184136D02*
X126828647Y-112231755D01*
X126828647Y-112231755D02*
X126781028Y-112326993D01*
X126781028Y-112326993D02*
X126733409Y-112517469D01*
X126733409Y-112517469D02*
X126685790Y-112612707D01*
X126685790Y-112612707D02*
X126638171Y-112660326D01*
X126638171Y-112660326D02*
X126542933Y-112707945D01*
X126542933Y-112707945D02*
X126447695Y-112707945D01*
X126447695Y-112707945D02*
X126352457Y-112660326D01*
X126352457Y-112660326D02*
X126304838Y-112612707D01*
X126304838Y-112612707D02*
X126257219Y-112517469D01*
X126257219Y-112517469D02*
X126257219Y-112279374D01*
X126257219Y-112279374D02*
X126304838Y-112136517D01*
X127257219Y-111707945D02*
X126257219Y-111707945D01*
X126304838Y-110707946D02*
X126257219Y-110803184D01*
X126257219Y-110803184D02*
X126257219Y-110946041D01*
X126257219Y-110946041D02*
X126304838Y-111088898D01*
X126304838Y-111088898D02*
X126400076Y-111184136D01*
X126400076Y-111184136D02*
X126495314Y-111231755D01*
X126495314Y-111231755D02*
X126685790Y-111279374D01*
X126685790Y-111279374D02*
X126828647Y-111279374D01*
X126828647Y-111279374D02*
X127019123Y-111231755D01*
X127019123Y-111231755D02*
X127114361Y-111184136D01*
X127114361Y-111184136D02*
X127209600Y-111088898D01*
X127209600Y-111088898D02*
X127257219Y-110946041D01*
X127257219Y-110946041D02*
X127257219Y-110850803D01*
X127257219Y-110850803D02*
X127209600Y-110707946D01*
X127209600Y-110707946D02*
X127161980Y-110660327D01*
X127161980Y-110660327D02*
X126828647Y-110660327D01*
X126828647Y-110660327D02*
X126828647Y-110850803D01*
X126394838Y-130436517D02*
X126347219Y-130531755D01*
X126347219Y-130531755D02*
X126347219Y-130674612D01*
X126347219Y-130674612D02*
X126394838Y-130817469D01*
X126394838Y-130817469D02*
X126490076Y-130912707D01*
X126490076Y-130912707D02*
X126585314Y-130960326D01*
X126585314Y-130960326D02*
X126775790Y-131007945D01*
X126775790Y-131007945D02*
X126918647Y-131007945D01*
X126918647Y-131007945D02*
X127109123Y-130960326D01*
X127109123Y-130960326D02*
X127204361Y-130912707D01*
X127204361Y-130912707D02*
X127299600Y-130817469D01*
X127299600Y-130817469D02*
X127347219Y-130674612D01*
X127347219Y-130674612D02*
X127347219Y-130579374D01*
X127347219Y-130579374D02*
X127299600Y-130436517D01*
X127299600Y-130436517D02*
X127251980Y-130388898D01*
X127251980Y-130388898D02*
X126918647Y-130388898D01*
X126918647Y-130388898D02*
X126918647Y-130579374D01*
X127347219Y-129960326D02*
X126347219Y-129960326D01*
X126347219Y-129960326D02*
X127347219Y-129388898D01*
X127347219Y-129388898D02*
X126347219Y-129388898D01*
X127347219Y-128912707D02*
X126347219Y-128912707D01*
X126347219Y-128912707D02*
X126347219Y-128674612D01*
X126347219Y-128674612D02*
X126394838Y-128531755D01*
X126394838Y-128531755D02*
X126490076Y-128436517D01*
X126490076Y-128436517D02*
X126585314Y-128388898D01*
X126585314Y-128388898D02*
X126775790Y-128341279D01*
X126775790Y-128341279D02*
X126918647Y-128341279D01*
X126918647Y-128341279D02*
X127109123Y-128388898D01*
X127109123Y-128388898D02*
X127204361Y-128436517D01*
X127204361Y-128436517D02*
X127299600Y-128531755D01*
X127299600Y-128531755D02*
X127347219Y-128674612D01*
X127347219Y-128674612D02*
X127347219Y-128912707D01*
X80752780Y-133253482D02*
X80752780Y-132682054D01*
X80752780Y-132967768D02*
X81752780Y-132967768D01*
X81752780Y-132967768D02*
X81609923Y-132872530D01*
X81609923Y-132872530D02*
X81514685Y-132777292D01*
X81514685Y-132777292D02*
X81467066Y-132682054D01*
X81752780Y-133586816D02*
X81752780Y-134205863D01*
X81752780Y-134205863D02*
X81371828Y-133872530D01*
X81371828Y-133872530D02*
X81371828Y-134015387D01*
X81371828Y-134015387D02*
X81324209Y-134110625D01*
X81324209Y-134110625D02*
X81276590Y-134158244D01*
X81276590Y-134158244D02*
X81181352Y-134205863D01*
X81181352Y-134205863D02*
X80943257Y-134205863D01*
X80943257Y-134205863D02*
X80848019Y-134158244D01*
X80848019Y-134158244D02*
X80800400Y-134110625D01*
X80800400Y-134110625D02*
X80752780Y-134015387D01*
X80752780Y-134015387D02*
X80752780Y-133729673D01*
X80752780Y-133729673D02*
X80800400Y-133634435D01*
X80800400Y-133634435D02*
X80848019Y-133586816D01*
X73966400Y-138593958D02*
X73928304Y-138670149D01*
X73928304Y-138670149D02*
X73928304Y-138822530D01*
X73928304Y-138822530D02*
X73966400Y-138898720D01*
X73966400Y-138898720D02*
X74042590Y-138936816D01*
X74042590Y-138936816D02*
X74080685Y-138936816D01*
X74080685Y-138936816D02*
X74156876Y-138898720D01*
X74156876Y-138898720D02*
X74194971Y-138822530D01*
X74194971Y-138822530D02*
X74194971Y-138708244D01*
X74194971Y-138708244D02*
X74233066Y-138632054D01*
X74233066Y-138632054D02*
X74309257Y-138593958D01*
X74309257Y-138593958D02*
X74347352Y-138593958D01*
X74347352Y-138593958D02*
X74423542Y-138632054D01*
X74423542Y-138632054D02*
X74461638Y-138708244D01*
X74461638Y-138708244D02*
X74461638Y-138822530D01*
X74461638Y-138822530D02*
X74423542Y-138898720D01*
X73966400Y-139584435D02*
X73928304Y-139508244D01*
X73928304Y-139508244D02*
X73928304Y-139355863D01*
X73928304Y-139355863D02*
X73966400Y-139279673D01*
X73966400Y-139279673D02*
X74042590Y-139241577D01*
X74042590Y-139241577D02*
X74347352Y-139241577D01*
X74347352Y-139241577D02*
X74423542Y-139279673D01*
X74423542Y-139279673D02*
X74461638Y-139355863D01*
X74461638Y-139355863D02*
X74461638Y-139508244D01*
X74461638Y-139508244D02*
X74423542Y-139584435D01*
X74423542Y-139584435D02*
X74347352Y-139622530D01*
X74347352Y-139622530D02*
X74271161Y-139622530D01*
X74271161Y-139622530D02*
X74194971Y-139241577D01*
X73928304Y-139965387D02*
X74461638Y-139965387D01*
X74309257Y-139965387D02*
X74385447Y-140003482D01*
X74385447Y-140003482D02*
X74423542Y-140041577D01*
X74423542Y-140041577D02*
X74461638Y-140117768D01*
X74461638Y-140117768D02*
X74461638Y-140193958D01*
X74461638Y-140384434D02*
X73928304Y-140574910D01*
X73928304Y-140574910D02*
X74461638Y-140765387D01*
X73928304Y-141184434D02*
X73966400Y-141108244D01*
X73966400Y-141108244D02*
X74004495Y-141070149D01*
X74004495Y-141070149D02*
X74080685Y-141032053D01*
X74080685Y-141032053D02*
X74309257Y-141032053D01*
X74309257Y-141032053D02*
X74385447Y-141070149D01*
X74385447Y-141070149D02*
X74423542Y-141108244D01*
X74423542Y-141108244D02*
X74461638Y-141184434D01*
X74461638Y-141184434D02*
X74461638Y-141298720D01*
X74461638Y-141298720D02*
X74423542Y-141374911D01*
X74423542Y-141374911D02*
X74385447Y-141413006D01*
X74385447Y-141413006D02*
X74309257Y-141451101D01*
X74309257Y-141451101D02*
X74080685Y-141451101D01*
X74080685Y-141451101D02*
X74004495Y-141413006D01*
X74004495Y-141413006D02*
X73966400Y-141374911D01*
X73966400Y-141374911D02*
X73928304Y-141298720D01*
X73928304Y-141298720D02*
X73928304Y-141184434D01*
X74728304Y-141717768D02*
X74728304Y-142213006D01*
X74728304Y-142213006D02*
X74423542Y-141946340D01*
X74423542Y-141946340D02*
X74423542Y-142060625D01*
X74423542Y-142060625D02*
X74385447Y-142136816D01*
X74385447Y-142136816D02*
X74347352Y-142174911D01*
X74347352Y-142174911D02*
X74271161Y-142213006D01*
X74271161Y-142213006D02*
X74080685Y-142213006D01*
X74080685Y-142213006D02*
X74004495Y-142174911D01*
X74004495Y-142174911D02*
X73966400Y-142136816D01*
X73966400Y-142136816D02*
X73928304Y-142060625D01*
X73928304Y-142060625D02*
X73928304Y-141832054D01*
X73928304Y-141832054D02*
X73966400Y-141755863D01*
X73966400Y-141755863D02*
X74004495Y-141717768D01*
X119601101Y-108431695D02*
X119143958Y-108431695D01*
X119372530Y-108431695D02*
X119372530Y-107631695D01*
X119372530Y-107631695D02*
X119296339Y-107745980D01*
X119296339Y-107745980D02*
X119220149Y-107822171D01*
X119220149Y-107822171D02*
X119143958Y-107860266D01*
X119867768Y-107631695D02*
X120401102Y-107631695D01*
X120401102Y-107631695D02*
X120058244Y-108431695D01*
X126742457Y-94267945D02*
X126694838Y-94220326D01*
X126694838Y-94220326D02*
X126647219Y-94125088D01*
X126647219Y-94125088D02*
X126647219Y-93886993D01*
X126647219Y-93886993D02*
X126694838Y-93791755D01*
X126694838Y-93791755D02*
X126742457Y-93744136D01*
X126742457Y-93744136D02*
X126837695Y-93696517D01*
X126837695Y-93696517D02*
X126932933Y-93696517D01*
X126932933Y-93696517D02*
X127075790Y-93744136D01*
X127075790Y-93744136D02*
X127647219Y-94315564D01*
X127647219Y-94315564D02*
X127647219Y-93696517D01*
X119207768Y-90071695D02*
X119664911Y-90071695D01*
X119436339Y-90871695D02*
X119436339Y-90071695D01*
X119855387Y-90071695D02*
X120388721Y-90871695D01*
X120388721Y-90071695D02*
X119855387Y-90871695D01*
X85477219Y-159466517D02*
X85477219Y-160037945D01*
X85477219Y-159752231D02*
X84477219Y-159752231D01*
X84477219Y-159752231D02*
X84620076Y-159847469D01*
X84620076Y-159847469D02*
X84715314Y-159942707D01*
X84715314Y-159942707D02*
X84762933Y-160037945D01*
X84572457Y-159085564D02*
X84524838Y-159037945D01*
X84524838Y-159037945D02*
X84477219Y-158942707D01*
X84477219Y-158942707D02*
X84477219Y-158704612D01*
X84477219Y-158704612D02*
X84524838Y-158609374D01*
X84524838Y-158609374D02*
X84572457Y-158561755D01*
X84572457Y-158561755D02*
X84667695Y-158514136D01*
X84667695Y-158514136D02*
X84762933Y-158514136D01*
X84762933Y-158514136D02*
X84905790Y-158561755D01*
X84905790Y-158561755D02*
X85477219Y-159133183D01*
X85477219Y-159133183D02*
X85477219Y-158514136D01*
X84810552Y-158180802D02*
X85477219Y-157942707D01*
X85477219Y-157942707D02*
X84810552Y-157704612D01*
D12*
X107774510Y-136379400D02*
X108917368Y-136379400D01*
X108345939Y-136950828D02*
X108345939Y-135807971D01*
X113060224Y-136379400D02*
X114203082Y-136379400D01*
D10*
X83007219Y-84395564D02*
X83007219Y-83776517D01*
X83007219Y-83776517D02*
X83388171Y-84109850D01*
X83388171Y-84109850D02*
X83388171Y-83966993D01*
X83388171Y-83966993D02*
X83435790Y-83871755D01*
X83435790Y-83871755D02*
X83483409Y-83824136D01*
X83483409Y-83824136D02*
X83578647Y-83776517D01*
X83578647Y-83776517D02*
X83816742Y-83776517D01*
X83816742Y-83776517D02*
X83911980Y-83824136D01*
X83911980Y-83824136D02*
X83959600Y-83871755D01*
X83959600Y-83871755D02*
X84007219Y-83966993D01*
X84007219Y-83966993D02*
X84007219Y-84252707D01*
X84007219Y-84252707D02*
X83959600Y-84347945D01*
X83959600Y-84347945D02*
X83911980Y-84395564D01*
X83911980Y-83347945D02*
X83959600Y-83300326D01*
X83959600Y-83300326D02*
X84007219Y-83347945D01*
X84007219Y-83347945D02*
X83959600Y-83395564D01*
X83959600Y-83395564D02*
X83911980Y-83347945D01*
X83911980Y-83347945D02*
X84007219Y-83347945D01*
X83007219Y-82966993D02*
X83007219Y-82347946D01*
X83007219Y-82347946D02*
X83388171Y-82681279D01*
X83388171Y-82681279D02*
X83388171Y-82538422D01*
X83388171Y-82538422D02*
X83435790Y-82443184D01*
X83435790Y-82443184D02*
X83483409Y-82395565D01*
X83483409Y-82395565D02*
X83578647Y-82347946D01*
X83578647Y-82347946D02*
X83816742Y-82347946D01*
X83816742Y-82347946D02*
X83911980Y-82395565D01*
X83911980Y-82395565D02*
X83959600Y-82443184D01*
X83959600Y-82443184D02*
X84007219Y-82538422D01*
X84007219Y-82538422D02*
X84007219Y-82824136D01*
X84007219Y-82824136D02*
X83959600Y-82919374D01*
X83959600Y-82919374D02*
X83911980Y-82966993D01*
X83007219Y-82062231D02*
X84007219Y-81728898D01*
X84007219Y-81728898D02*
X83007219Y-81395565D01*
X122494838Y-152896517D02*
X122447219Y-152991755D01*
X122447219Y-152991755D02*
X122447219Y-153134612D01*
X122447219Y-153134612D02*
X122494838Y-153277469D01*
X122494838Y-153277469D02*
X122590076Y-153372707D01*
X122590076Y-153372707D02*
X122685314Y-153420326D01*
X122685314Y-153420326D02*
X122875790Y-153467945D01*
X122875790Y-153467945D02*
X123018647Y-153467945D01*
X123018647Y-153467945D02*
X123209123Y-153420326D01*
X123209123Y-153420326D02*
X123304361Y-153372707D01*
X123304361Y-153372707D02*
X123399600Y-153277469D01*
X123399600Y-153277469D02*
X123447219Y-153134612D01*
X123447219Y-153134612D02*
X123447219Y-153039374D01*
X123447219Y-153039374D02*
X123399600Y-152896517D01*
X123399600Y-152896517D02*
X123351980Y-152848898D01*
X123351980Y-152848898D02*
X123018647Y-152848898D01*
X123018647Y-152848898D02*
X123018647Y-153039374D01*
X123447219Y-152420326D02*
X122447219Y-152420326D01*
X122447219Y-152420326D02*
X123447219Y-151848898D01*
X123447219Y-151848898D02*
X122447219Y-151848898D01*
X123447219Y-151372707D02*
X122447219Y-151372707D01*
X122447219Y-151372707D02*
X122447219Y-151134612D01*
X122447219Y-151134612D02*
X122494838Y-150991755D01*
X122494838Y-150991755D02*
X122590076Y-150896517D01*
X122590076Y-150896517D02*
X122685314Y-150848898D01*
X122685314Y-150848898D02*
X122875790Y-150801279D01*
X122875790Y-150801279D02*
X123018647Y-150801279D01*
X123018647Y-150801279D02*
X123209123Y-150848898D01*
X123209123Y-150848898D02*
X123304361Y-150896517D01*
X123304361Y-150896517D02*
X123399600Y-150991755D01*
X123399600Y-150991755D02*
X123447219Y-151134612D01*
X123447219Y-151134612D02*
X123447219Y-151372707D01*
X88781101Y-115339790D02*
X88704911Y-115301695D01*
X88704911Y-115301695D02*
X88590625Y-115301695D01*
X88590625Y-115301695D02*
X88476339Y-115339790D01*
X88476339Y-115339790D02*
X88400149Y-115415980D01*
X88400149Y-115415980D02*
X88362054Y-115492171D01*
X88362054Y-115492171D02*
X88323958Y-115644552D01*
X88323958Y-115644552D02*
X88323958Y-115758838D01*
X88323958Y-115758838D02*
X88362054Y-115911219D01*
X88362054Y-115911219D02*
X88400149Y-115987409D01*
X88400149Y-115987409D02*
X88476339Y-116063600D01*
X88476339Y-116063600D02*
X88590625Y-116101695D01*
X88590625Y-116101695D02*
X88666816Y-116101695D01*
X88666816Y-116101695D02*
X88781101Y-116063600D01*
X88781101Y-116063600D02*
X88819197Y-116025504D01*
X88819197Y-116025504D02*
X88819197Y-115758838D01*
X88819197Y-115758838D02*
X88666816Y-115758838D01*
X89162054Y-116101695D02*
X89162054Y-115301695D01*
X89162054Y-115301695D02*
X89619197Y-116101695D01*
X89619197Y-116101695D02*
X89619197Y-115301695D01*
X90000149Y-116101695D02*
X90000149Y-115301695D01*
X90000149Y-115301695D02*
X90190625Y-115301695D01*
X90190625Y-115301695D02*
X90304911Y-115339790D01*
X90304911Y-115339790D02*
X90381101Y-115415980D01*
X90381101Y-115415980D02*
X90419196Y-115492171D01*
X90419196Y-115492171D02*
X90457292Y-115644552D01*
X90457292Y-115644552D02*
X90457292Y-115758838D01*
X90457292Y-115758838D02*
X90419196Y-115911219D01*
X90419196Y-115911219D02*
X90381101Y-115987409D01*
X90381101Y-115987409D02*
X90304911Y-116063600D01*
X90304911Y-116063600D02*
X90190625Y-116101695D01*
X90190625Y-116101695D02*
X90000149Y-116101695D01*
X74097219Y-105840326D02*
X73430552Y-105840326D01*
X73525790Y-105840326D02*
X73478171Y-105792707D01*
X73478171Y-105792707D02*
X73430552Y-105697469D01*
X73430552Y-105697469D02*
X73430552Y-105554612D01*
X73430552Y-105554612D02*
X73478171Y-105459374D01*
X73478171Y-105459374D02*
X73573409Y-105411755D01*
X73573409Y-105411755D02*
X74097219Y-105411755D01*
X73573409Y-105411755D02*
X73478171Y-105364136D01*
X73478171Y-105364136D02*
X73430552Y-105268898D01*
X73430552Y-105268898D02*
X73430552Y-105126041D01*
X73430552Y-105126041D02*
X73478171Y-105030802D01*
X73478171Y-105030802D02*
X73573409Y-104983183D01*
X73573409Y-104983183D02*
X74097219Y-104983183D01*
X73192457Y-104554612D02*
X73144838Y-104506993D01*
X73144838Y-104506993D02*
X73097219Y-104411755D01*
X73097219Y-104411755D02*
X73097219Y-104173660D01*
X73097219Y-104173660D02*
X73144838Y-104078422D01*
X73144838Y-104078422D02*
X73192457Y-104030803D01*
X73192457Y-104030803D02*
X73287695Y-103983184D01*
X73287695Y-103983184D02*
X73382933Y-103983184D01*
X73382933Y-103983184D02*
X73525790Y-104030803D01*
X73525790Y-104030803D02*
X74097219Y-104602231D01*
X74097219Y-104602231D02*
X74097219Y-103983184D01*
X119053958Y-123703600D02*
X119168244Y-123741695D01*
X119168244Y-123741695D02*
X119358720Y-123741695D01*
X119358720Y-123741695D02*
X119434911Y-123703600D01*
X119434911Y-123703600D02*
X119473006Y-123665504D01*
X119473006Y-123665504D02*
X119511101Y-123589314D01*
X119511101Y-123589314D02*
X119511101Y-123513123D01*
X119511101Y-123513123D02*
X119473006Y-123436933D01*
X119473006Y-123436933D02*
X119434911Y-123398838D01*
X119434911Y-123398838D02*
X119358720Y-123360742D01*
X119358720Y-123360742D02*
X119206339Y-123322647D01*
X119206339Y-123322647D02*
X119130149Y-123284552D01*
X119130149Y-123284552D02*
X119092054Y-123246457D01*
X119092054Y-123246457D02*
X119053958Y-123170266D01*
X119053958Y-123170266D02*
X119053958Y-123094076D01*
X119053958Y-123094076D02*
X119092054Y-123017885D01*
X119092054Y-123017885D02*
X119130149Y-122979790D01*
X119130149Y-122979790D02*
X119206339Y-122941695D01*
X119206339Y-122941695D02*
X119396816Y-122941695D01*
X119396816Y-122941695D02*
X119511101Y-122979790D01*
X119853959Y-123741695D02*
X119853959Y-122941695D01*
X119853959Y-122941695D02*
X120044435Y-122941695D01*
X120044435Y-122941695D02*
X120158721Y-122979790D01*
X120158721Y-122979790D02*
X120234911Y-123055980D01*
X120234911Y-123055980D02*
X120273006Y-123132171D01*
X120273006Y-123132171D02*
X120311102Y-123284552D01*
X120311102Y-123284552D02*
X120311102Y-123398838D01*
X120311102Y-123398838D02*
X120273006Y-123551219D01*
X120273006Y-123551219D02*
X120234911Y-123627409D01*
X120234911Y-123627409D02*
X120158721Y-123703600D01*
X120158721Y-123703600D02*
X120044435Y-123741695D01*
X120044435Y-123741695D02*
X119853959Y-123741695D01*
X121073006Y-123741695D02*
X120615863Y-123741695D01*
X120844435Y-123741695D02*
X120844435Y-122941695D01*
X120844435Y-122941695D02*
X120768244Y-123055980D01*
X120768244Y-123055980D02*
X120692054Y-123132171D01*
X120692054Y-123132171D02*
X120615863Y-123170266D01*
X84334838Y-154516517D02*
X84287219Y-154611755D01*
X84287219Y-154611755D02*
X84287219Y-154754612D01*
X84287219Y-154754612D02*
X84334838Y-154897469D01*
X84334838Y-154897469D02*
X84430076Y-154992707D01*
X84430076Y-154992707D02*
X84525314Y-155040326D01*
X84525314Y-155040326D02*
X84715790Y-155087945D01*
X84715790Y-155087945D02*
X84858647Y-155087945D01*
X84858647Y-155087945D02*
X85049123Y-155040326D01*
X85049123Y-155040326D02*
X85144361Y-154992707D01*
X85144361Y-154992707D02*
X85239600Y-154897469D01*
X85239600Y-154897469D02*
X85287219Y-154754612D01*
X85287219Y-154754612D02*
X85287219Y-154659374D01*
X85287219Y-154659374D02*
X85239600Y-154516517D01*
X85239600Y-154516517D02*
X85191980Y-154468898D01*
X85191980Y-154468898D02*
X84858647Y-154468898D01*
X84858647Y-154468898D02*
X84858647Y-154659374D01*
X85287219Y-154040326D02*
X84287219Y-154040326D01*
X84287219Y-154040326D02*
X85287219Y-153468898D01*
X85287219Y-153468898D02*
X84287219Y-153468898D01*
X85287219Y-152992707D02*
X84287219Y-152992707D01*
X84287219Y-152992707D02*
X84287219Y-152754612D01*
X84287219Y-152754612D02*
X84334838Y-152611755D01*
X84334838Y-152611755D02*
X84430076Y-152516517D01*
X84430076Y-152516517D02*
X84525314Y-152468898D01*
X84525314Y-152468898D02*
X84715790Y-152421279D01*
X84715790Y-152421279D02*
X84858647Y-152421279D01*
X84858647Y-152421279D02*
X85049123Y-152468898D01*
X85049123Y-152468898D02*
X85144361Y-152516517D01*
X85144361Y-152516517D02*
X85239600Y-152611755D01*
X85239600Y-152611755D02*
X85287219Y-152754612D01*
X85287219Y-152754612D02*
X85287219Y-152992707D01*
X83147219Y-129544136D02*
X83147219Y-130020326D01*
X83147219Y-130020326D02*
X83623409Y-130067945D01*
X83623409Y-130067945D02*
X83575790Y-130020326D01*
X83575790Y-130020326D02*
X83528171Y-129925088D01*
X83528171Y-129925088D02*
X83528171Y-129686993D01*
X83528171Y-129686993D02*
X83575790Y-129591755D01*
X83575790Y-129591755D02*
X83623409Y-129544136D01*
X83623409Y-129544136D02*
X83718647Y-129496517D01*
X83718647Y-129496517D02*
X83956742Y-129496517D01*
X83956742Y-129496517D02*
X84051980Y-129544136D01*
X84051980Y-129544136D02*
X84099600Y-129591755D01*
X84099600Y-129591755D02*
X84147219Y-129686993D01*
X84147219Y-129686993D02*
X84147219Y-129925088D01*
X84147219Y-129925088D02*
X84099600Y-130020326D01*
X84099600Y-130020326D02*
X84051980Y-130067945D01*
X83147219Y-129210802D02*
X84147219Y-128877469D01*
X84147219Y-128877469D02*
X83147219Y-128544136D01*
D12*
X98451653Y-83710828D02*
X97951653Y-82996542D01*
X97594510Y-83710828D02*
X97594510Y-82210828D01*
X97594510Y-82210828D02*
X98165939Y-82210828D01*
X98165939Y-82210828D02*
X98308796Y-82282257D01*
X98308796Y-82282257D02*
X98380225Y-82353685D01*
X98380225Y-82353685D02*
X98451653Y-82496542D01*
X98451653Y-82496542D02*
X98451653Y-82710828D01*
X98451653Y-82710828D02*
X98380225Y-82853685D01*
X98380225Y-82853685D02*
X98308796Y-82925114D01*
X98308796Y-82925114D02*
X98165939Y-82996542D01*
X98165939Y-82996542D02*
X97594510Y-82996542D01*
X99380225Y-82210828D02*
X99665939Y-82210828D01*
X99665939Y-82210828D02*
X99808796Y-82282257D01*
X99808796Y-82282257D02*
X99951653Y-82425114D01*
X99951653Y-82425114D02*
X100023082Y-82710828D01*
X100023082Y-82710828D02*
X100023082Y-83210828D01*
X100023082Y-83210828D02*
X99951653Y-83496542D01*
X99951653Y-83496542D02*
X99808796Y-83639400D01*
X99808796Y-83639400D02*
X99665939Y-83710828D01*
X99665939Y-83710828D02*
X99380225Y-83710828D01*
X99380225Y-83710828D02*
X99237368Y-83639400D01*
X99237368Y-83639400D02*
X99094510Y-83496542D01*
X99094510Y-83496542D02*
X99023082Y-83210828D01*
X99023082Y-83210828D02*
X99023082Y-82710828D01*
X99023082Y-82710828D02*
X99094510Y-82425114D01*
X99094510Y-82425114D02*
X99237368Y-82282257D01*
X99237368Y-82282257D02*
X99380225Y-82210828D01*
X101165939Y-82925114D02*
X101380225Y-82996542D01*
X101380225Y-82996542D02*
X101451654Y-83067971D01*
X101451654Y-83067971D02*
X101523082Y-83210828D01*
X101523082Y-83210828D02*
X101523082Y-83425114D01*
X101523082Y-83425114D02*
X101451654Y-83567971D01*
X101451654Y-83567971D02*
X101380225Y-83639400D01*
X101380225Y-83639400D02*
X101237368Y-83710828D01*
X101237368Y-83710828D02*
X100665939Y-83710828D01*
X100665939Y-83710828D02*
X100665939Y-82210828D01*
X100665939Y-82210828D02*
X101165939Y-82210828D01*
X101165939Y-82210828D02*
X101308797Y-82282257D01*
X101308797Y-82282257D02*
X101380225Y-82353685D01*
X101380225Y-82353685D02*
X101451654Y-82496542D01*
X101451654Y-82496542D02*
X101451654Y-82639400D01*
X101451654Y-82639400D02*
X101380225Y-82782257D01*
X101380225Y-82782257D02*
X101308797Y-82853685D01*
X101308797Y-82853685D02*
X101165939Y-82925114D01*
X101165939Y-82925114D02*
X100665939Y-82925114D01*
X102451654Y-82210828D02*
X102737368Y-82210828D01*
X102737368Y-82210828D02*
X102880225Y-82282257D01*
X102880225Y-82282257D02*
X103023082Y-82425114D01*
X103023082Y-82425114D02*
X103094511Y-82710828D01*
X103094511Y-82710828D02*
X103094511Y-83210828D01*
X103094511Y-83210828D02*
X103023082Y-83496542D01*
X103023082Y-83496542D02*
X102880225Y-83639400D01*
X102880225Y-83639400D02*
X102737368Y-83710828D01*
X102737368Y-83710828D02*
X102451654Y-83710828D01*
X102451654Y-83710828D02*
X102308797Y-83639400D01*
X102308797Y-83639400D02*
X102165939Y-83496542D01*
X102165939Y-83496542D02*
X102094511Y-83210828D01*
X102094511Y-83210828D02*
X102094511Y-82710828D01*
X102094511Y-82710828D02*
X102165939Y-82425114D01*
X102165939Y-82425114D02*
X102308797Y-82282257D01*
X102308797Y-82282257D02*
X102451654Y-82210828D01*
X103665940Y-83639400D02*
X103880226Y-83710828D01*
X103880226Y-83710828D02*
X104237368Y-83710828D01*
X104237368Y-83710828D02*
X104380226Y-83639400D01*
X104380226Y-83639400D02*
X104451654Y-83567971D01*
X104451654Y-83567971D02*
X104523083Y-83425114D01*
X104523083Y-83425114D02*
X104523083Y-83282257D01*
X104523083Y-83282257D02*
X104451654Y-83139400D01*
X104451654Y-83139400D02*
X104380226Y-83067971D01*
X104380226Y-83067971D02*
X104237368Y-82996542D01*
X104237368Y-82996542D02*
X103951654Y-82925114D01*
X103951654Y-82925114D02*
X103808797Y-82853685D01*
X103808797Y-82853685D02*
X103737368Y-82782257D01*
X103737368Y-82782257D02*
X103665940Y-82639400D01*
X103665940Y-82639400D02*
X103665940Y-82496542D01*
X103665940Y-82496542D02*
X103737368Y-82353685D01*
X103737368Y-82353685D02*
X103808797Y-82282257D01*
X103808797Y-82282257D02*
X103951654Y-82210828D01*
X103951654Y-82210828D02*
X104308797Y-82210828D01*
X104308797Y-82210828D02*
X104523083Y-82282257D01*
X105451654Y-82210828D02*
X105737368Y-82210828D01*
X105737368Y-82210828D02*
X105880225Y-82282257D01*
X105880225Y-82282257D02*
X106023082Y-82425114D01*
X106023082Y-82425114D02*
X106094511Y-82710828D01*
X106094511Y-82710828D02*
X106094511Y-83210828D01*
X106094511Y-83210828D02*
X106023082Y-83496542D01*
X106023082Y-83496542D02*
X105880225Y-83639400D01*
X105880225Y-83639400D02*
X105737368Y-83710828D01*
X105737368Y-83710828D02*
X105451654Y-83710828D01*
X105451654Y-83710828D02*
X105308797Y-83639400D01*
X105308797Y-83639400D02*
X105165939Y-83496542D01*
X105165939Y-83496542D02*
X105094511Y-83210828D01*
X105094511Y-83210828D02*
X105094511Y-82710828D01*
X105094511Y-82710828D02*
X105165939Y-82425114D01*
X105165939Y-82425114D02*
X105308797Y-82282257D01*
X105308797Y-82282257D02*
X105451654Y-82210828D01*
X107594511Y-83567971D02*
X107523083Y-83639400D01*
X107523083Y-83639400D02*
X107308797Y-83710828D01*
X107308797Y-83710828D02*
X107165940Y-83710828D01*
X107165940Y-83710828D02*
X106951654Y-83639400D01*
X106951654Y-83639400D02*
X106808797Y-83496542D01*
X106808797Y-83496542D02*
X106737368Y-83353685D01*
X106737368Y-83353685D02*
X106665940Y-83067971D01*
X106665940Y-83067971D02*
X106665940Y-82853685D01*
X106665940Y-82853685D02*
X106737368Y-82567971D01*
X106737368Y-82567971D02*
X106808797Y-82425114D01*
X106808797Y-82425114D02*
X106951654Y-82282257D01*
X106951654Y-82282257D02*
X107165940Y-82210828D01*
X107165940Y-82210828D02*
X107308797Y-82210828D01*
X107308797Y-82210828D02*
X107523083Y-82282257D01*
X107523083Y-82282257D02*
X107594511Y-82353685D01*
X109094511Y-83567971D02*
X109023083Y-83639400D01*
X109023083Y-83639400D02*
X108808797Y-83710828D01*
X108808797Y-83710828D02*
X108665940Y-83710828D01*
X108665940Y-83710828D02*
X108451654Y-83639400D01*
X108451654Y-83639400D02*
X108308797Y-83496542D01*
X108308797Y-83496542D02*
X108237368Y-83353685D01*
X108237368Y-83353685D02*
X108165940Y-83067971D01*
X108165940Y-83067971D02*
X108165940Y-82853685D01*
X108165940Y-82853685D02*
X108237368Y-82567971D01*
X108237368Y-82567971D02*
X108308797Y-82425114D01*
X108308797Y-82425114D02*
X108451654Y-82282257D01*
X108451654Y-82282257D02*
X108665940Y-82210828D01*
X108665940Y-82210828D02*
X108808797Y-82210828D01*
X108808797Y-82210828D02*
X109023083Y-82282257D01*
X109023083Y-82282257D02*
X109094511Y-82353685D01*
X109737368Y-82925114D02*
X110237368Y-82925114D01*
X110451654Y-83710828D02*
X109737368Y-83710828D01*
X109737368Y-83710828D02*
X109737368Y-82210828D01*
X109737368Y-82210828D02*
X110451654Y-82210828D01*
X111951654Y-83710828D02*
X111451654Y-82996542D01*
X111094511Y-83710828D02*
X111094511Y-82210828D01*
X111094511Y-82210828D02*
X111665940Y-82210828D01*
X111665940Y-82210828D02*
X111808797Y-82282257D01*
X111808797Y-82282257D02*
X111880226Y-82353685D01*
X111880226Y-82353685D02*
X111951654Y-82496542D01*
X111951654Y-82496542D02*
X111951654Y-82710828D01*
X111951654Y-82710828D02*
X111880226Y-82853685D01*
X111880226Y-82853685D02*
X111808797Y-82925114D01*
X111808797Y-82925114D02*
X111665940Y-82996542D01*
X111665940Y-82996542D02*
X111094511Y-82996542D01*
D10*
X88373958Y-121323600D02*
X88488244Y-121361695D01*
X88488244Y-121361695D02*
X88678720Y-121361695D01*
X88678720Y-121361695D02*
X88754911Y-121323600D01*
X88754911Y-121323600D02*
X88793006Y-121285504D01*
X88793006Y-121285504D02*
X88831101Y-121209314D01*
X88831101Y-121209314D02*
X88831101Y-121133123D01*
X88831101Y-121133123D02*
X88793006Y-121056933D01*
X88793006Y-121056933D02*
X88754911Y-121018838D01*
X88754911Y-121018838D02*
X88678720Y-120980742D01*
X88678720Y-120980742D02*
X88526339Y-120942647D01*
X88526339Y-120942647D02*
X88450149Y-120904552D01*
X88450149Y-120904552D02*
X88412054Y-120866457D01*
X88412054Y-120866457D02*
X88373958Y-120790266D01*
X88373958Y-120790266D02*
X88373958Y-120714076D01*
X88373958Y-120714076D02*
X88412054Y-120637885D01*
X88412054Y-120637885D02*
X88450149Y-120599790D01*
X88450149Y-120599790D02*
X88526339Y-120561695D01*
X88526339Y-120561695D02*
X88716816Y-120561695D01*
X88716816Y-120561695D02*
X88831101Y-120599790D01*
X89173959Y-121361695D02*
X89173959Y-120561695D01*
X89173959Y-120561695D02*
X89364435Y-120561695D01*
X89364435Y-120561695D02*
X89478721Y-120599790D01*
X89478721Y-120599790D02*
X89554911Y-120675980D01*
X89554911Y-120675980D02*
X89593006Y-120752171D01*
X89593006Y-120752171D02*
X89631102Y-120904552D01*
X89631102Y-120904552D02*
X89631102Y-121018838D01*
X89631102Y-121018838D02*
X89593006Y-121171219D01*
X89593006Y-121171219D02*
X89554911Y-121247409D01*
X89554911Y-121247409D02*
X89478721Y-121323600D01*
X89478721Y-121323600D02*
X89364435Y-121361695D01*
X89364435Y-121361695D02*
X89173959Y-121361695D01*
X89935863Y-120637885D02*
X89973959Y-120599790D01*
X89973959Y-120599790D02*
X90050149Y-120561695D01*
X90050149Y-120561695D02*
X90240625Y-120561695D01*
X90240625Y-120561695D02*
X90316816Y-120599790D01*
X90316816Y-120599790D02*
X90354911Y-120637885D01*
X90354911Y-120637885D02*
X90393006Y-120714076D01*
X90393006Y-120714076D02*
X90393006Y-120790266D01*
X90393006Y-120790266D02*
X90354911Y-120904552D01*
X90354911Y-120904552D02*
X89897768Y-121361695D01*
X89897768Y-121361695D02*
X90393006Y-121361695D01*
D12*
X74657368Y-144900828D02*
X74657368Y-143400828D01*
X74657368Y-144829400D02*
X74514510Y-144900828D01*
X74514510Y-144900828D02*
X74228796Y-144900828D01*
X74228796Y-144900828D02*
X74085939Y-144829400D01*
X74085939Y-144829400D02*
X74014510Y-144757971D01*
X74014510Y-144757971D02*
X73943082Y-144615114D01*
X73943082Y-144615114D02*
X73943082Y-144186542D01*
X73943082Y-144186542D02*
X74014510Y-144043685D01*
X74014510Y-144043685D02*
X74085939Y-143972257D01*
X74085939Y-143972257D02*
X74228796Y-143900828D01*
X74228796Y-143900828D02*
X74514510Y-143900828D01*
X74514510Y-143900828D02*
X74657368Y-143972257D01*
X75371653Y-144900828D02*
X75371653Y-143900828D01*
X75371653Y-144186542D02*
X75443082Y-144043685D01*
X75443082Y-144043685D02*
X75514511Y-143972257D01*
X75514511Y-143972257D02*
X75657368Y-143900828D01*
X75657368Y-143900828D02*
X75800225Y-143900828D01*
X76300224Y-144900828D02*
X76300224Y-143900828D01*
X76300224Y-143400828D02*
X76228796Y-143472257D01*
X76228796Y-143472257D02*
X76300224Y-143543685D01*
X76300224Y-143543685D02*
X76371653Y-143472257D01*
X76371653Y-143472257D02*
X76300224Y-143400828D01*
X76300224Y-143400828D02*
X76300224Y-143543685D01*
X76871653Y-143900828D02*
X77228796Y-144900828D01*
X77228796Y-144900828D02*
X77585939Y-143900828D01*
X78728796Y-144829400D02*
X78585939Y-144900828D01*
X78585939Y-144900828D02*
X78300225Y-144900828D01*
X78300225Y-144900828D02*
X78157367Y-144829400D01*
X78157367Y-144829400D02*
X78085939Y-144686542D01*
X78085939Y-144686542D02*
X78085939Y-144115114D01*
X78085939Y-144115114D02*
X78157367Y-143972257D01*
X78157367Y-143972257D02*
X78300225Y-143900828D01*
X78300225Y-143900828D02*
X78585939Y-143900828D01*
X78585939Y-143900828D02*
X78728796Y-143972257D01*
X78728796Y-143972257D02*
X78800225Y-144115114D01*
X78800225Y-144115114D02*
X78800225Y-144257971D01*
X78800225Y-144257971D02*
X78085939Y-144400828D01*
X79443081Y-144900828D02*
X79443081Y-143900828D01*
X79443081Y-144186542D02*
X79514510Y-144043685D01*
X79514510Y-144043685D02*
X79585939Y-143972257D01*
X79585939Y-143972257D02*
X79728796Y-143900828D01*
X79728796Y-143900828D02*
X79871653Y-143900828D01*
X82300224Y-144900828D02*
X81443081Y-144900828D01*
X81871652Y-144900828D02*
X81871652Y-143400828D01*
X81871652Y-143400828D02*
X81728795Y-143615114D01*
X81728795Y-143615114D02*
X81585938Y-143757971D01*
X81585938Y-143757971D02*
X81443081Y-143829400D01*
D10*
X126037219Y-114714136D02*
X126037219Y-115190326D01*
X126037219Y-115190326D02*
X126513409Y-115237945D01*
X126513409Y-115237945D02*
X126465790Y-115190326D01*
X126465790Y-115190326D02*
X126418171Y-115095088D01*
X126418171Y-115095088D02*
X126418171Y-114856993D01*
X126418171Y-114856993D02*
X126465790Y-114761755D01*
X126465790Y-114761755D02*
X126513409Y-114714136D01*
X126513409Y-114714136D02*
X126608647Y-114666517D01*
X126608647Y-114666517D02*
X126846742Y-114666517D01*
X126846742Y-114666517D02*
X126941980Y-114714136D01*
X126941980Y-114714136D02*
X126989600Y-114761755D01*
X126989600Y-114761755D02*
X127037219Y-114856993D01*
X127037219Y-114856993D02*
X127037219Y-115095088D01*
X127037219Y-115095088D02*
X126989600Y-115190326D01*
X126989600Y-115190326D02*
X126941980Y-115237945D01*
X126370552Y-114333183D02*
X127037219Y-114095088D01*
X127037219Y-114095088D02*
X126370552Y-113856993D01*
X81737219Y-112226517D02*
X81737219Y-112797945D01*
X81737219Y-112512231D02*
X80737219Y-112512231D01*
X80737219Y-112512231D02*
X80880076Y-112607469D01*
X80880076Y-112607469D02*
X80975314Y-112702707D01*
X80975314Y-112702707D02*
X81022933Y-112797945D01*
X114685161Y-152373482D02*
X114732780Y-152278244D01*
X114732780Y-152278244D02*
X114732780Y-152135387D01*
X114732780Y-152135387D02*
X114685161Y-151992530D01*
X114685161Y-151992530D02*
X114589923Y-151897292D01*
X114589923Y-151897292D02*
X114494685Y-151849673D01*
X114494685Y-151849673D02*
X114304209Y-151802054D01*
X114304209Y-151802054D02*
X114161352Y-151802054D01*
X114161352Y-151802054D02*
X113970876Y-151849673D01*
X113970876Y-151849673D02*
X113875638Y-151897292D01*
X113875638Y-151897292D02*
X113780400Y-151992530D01*
X113780400Y-151992530D02*
X113732780Y-152135387D01*
X113732780Y-152135387D02*
X113732780Y-152230625D01*
X113732780Y-152230625D02*
X113780400Y-152373482D01*
X113780400Y-152373482D02*
X113828019Y-152421101D01*
X113828019Y-152421101D02*
X114161352Y-152421101D01*
X114161352Y-152421101D02*
X114161352Y-152230625D01*
X113732780Y-152849673D02*
X114732780Y-152849673D01*
X114732780Y-152849673D02*
X113732780Y-153421101D01*
X113732780Y-153421101D02*
X114732780Y-153421101D01*
X113732780Y-153897292D02*
X114732780Y-153897292D01*
X114732780Y-153897292D02*
X114732780Y-154135387D01*
X114732780Y-154135387D02*
X114685161Y-154278244D01*
X114685161Y-154278244D02*
X114589923Y-154373482D01*
X114589923Y-154373482D02*
X114494685Y-154421101D01*
X114494685Y-154421101D02*
X114304209Y-154468720D01*
X114304209Y-154468720D02*
X114161352Y-154468720D01*
X114161352Y-154468720D02*
X113970876Y-154421101D01*
X113970876Y-154421101D02*
X113875638Y-154373482D01*
X113875638Y-154373482D02*
X113780400Y-154278244D01*
X113780400Y-154278244D02*
X113732780Y-154135387D01*
X113732780Y-154135387D02*
X113732780Y-153897292D01*
X119689197Y-93421695D02*
X119422530Y-93040742D01*
X119232054Y-93421695D02*
X119232054Y-92621695D01*
X119232054Y-92621695D02*
X119536816Y-92621695D01*
X119536816Y-92621695D02*
X119613006Y-92659790D01*
X119613006Y-92659790D02*
X119651101Y-92697885D01*
X119651101Y-92697885D02*
X119689197Y-92774076D01*
X119689197Y-92774076D02*
X119689197Y-92888361D01*
X119689197Y-92888361D02*
X119651101Y-92964552D01*
X119651101Y-92964552D02*
X119613006Y-93002647D01*
X119613006Y-93002647D02*
X119536816Y-93040742D01*
X119536816Y-93040742D02*
X119232054Y-93040742D01*
X119955863Y-92621695D02*
X120489197Y-93421695D01*
X120489197Y-92621695D02*
X119955863Y-93421695D01*
X81662780Y-136695863D02*
X81662780Y-136219673D01*
X81662780Y-136219673D02*
X81186590Y-136172054D01*
X81186590Y-136172054D02*
X81234209Y-136219673D01*
X81234209Y-136219673D02*
X81281828Y-136314911D01*
X81281828Y-136314911D02*
X81281828Y-136553006D01*
X81281828Y-136553006D02*
X81234209Y-136648244D01*
X81234209Y-136648244D02*
X81186590Y-136695863D01*
X81186590Y-136695863D02*
X81091352Y-136743482D01*
X81091352Y-136743482D02*
X80853257Y-136743482D01*
X80853257Y-136743482D02*
X80758019Y-136695863D01*
X80758019Y-136695863D02*
X80710400Y-136648244D01*
X80710400Y-136648244D02*
X80662780Y-136553006D01*
X80662780Y-136553006D02*
X80662780Y-136314911D01*
X80662780Y-136314911D02*
X80710400Y-136219673D01*
X80710400Y-136219673D02*
X80758019Y-136172054D01*
X81329447Y-137076816D02*
X80662780Y-137314911D01*
X80662780Y-137314911D02*
X81329447Y-137553006D01*
X80942457Y-115337945D02*
X80894838Y-115290326D01*
X80894838Y-115290326D02*
X80847219Y-115195088D01*
X80847219Y-115195088D02*
X80847219Y-114956993D01*
X80847219Y-114956993D02*
X80894838Y-114861755D01*
X80894838Y-114861755D02*
X80942457Y-114814136D01*
X80942457Y-114814136D02*
X81037695Y-114766517D01*
X81037695Y-114766517D02*
X81132933Y-114766517D01*
X81132933Y-114766517D02*
X81275790Y-114814136D01*
X81275790Y-114814136D02*
X81847219Y-115385564D01*
X81847219Y-115385564D02*
X81847219Y-114766517D01*
X84187219Y-148584136D02*
X84187219Y-149060326D01*
X84187219Y-149060326D02*
X84663409Y-149107945D01*
X84663409Y-149107945D02*
X84615790Y-149060326D01*
X84615790Y-149060326D02*
X84568171Y-148965088D01*
X84568171Y-148965088D02*
X84568171Y-148726993D01*
X84568171Y-148726993D02*
X84615790Y-148631755D01*
X84615790Y-148631755D02*
X84663409Y-148584136D01*
X84663409Y-148584136D02*
X84758647Y-148536517D01*
X84758647Y-148536517D02*
X84996742Y-148536517D01*
X84996742Y-148536517D02*
X85091980Y-148584136D01*
X85091980Y-148584136D02*
X85139600Y-148631755D01*
X85139600Y-148631755D02*
X85187219Y-148726993D01*
X85187219Y-148726993D02*
X85187219Y-148965088D01*
X85187219Y-148965088D02*
X85139600Y-149060326D01*
X85139600Y-149060326D02*
X85091980Y-149107945D01*
X84520552Y-148203183D02*
X85187219Y-147965088D01*
X85187219Y-147965088D02*
X84520552Y-147726993D01*
X126712457Y-106017945D02*
X126664838Y-105970326D01*
X126664838Y-105970326D02*
X126617219Y-105875088D01*
X126617219Y-105875088D02*
X126617219Y-105636993D01*
X126617219Y-105636993D02*
X126664838Y-105541755D01*
X126664838Y-105541755D02*
X126712457Y-105494136D01*
X126712457Y-105494136D02*
X126807695Y-105446517D01*
X126807695Y-105446517D02*
X126902933Y-105446517D01*
X126902933Y-105446517D02*
X127045790Y-105494136D01*
X127045790Y-105494136D02*
X127617219Y-106065564D01*
X127617219Y-106065564D02*
X127617219Y-105446517D01*
X119213958Y-87557885D02*
X119252054Y-87519790D01*
X119252054Y-87519790D02*
X119328244Y-87481695D01*
X119328244Y-87481695D02*
X119518720Y-87481695D01*
X119518720Y-87481695D02*
X119594911Y-87519790D01*
X119594911Y-87519790D02*
X119633006Y-87557885D01*
X119633006Y-87557885D02*
X119671101Y-87634076D01*
X119671101Y-87634076D02*
X119671101Y-87710266D01*
X119671101Y-87710266D02*
X119633006Y-87824552D01*
X119633006Y-87824552D02*
X119175863Y-88281695D01*
X119175863Y-88281695D02*
X119671101Y-88281695D01*
X119975863Y-87557885D02*
X120013959Y-87519790D01*
X120013959Y-87519790D02*
X120090149Y-87481695D01*
X120090149Y-87481695D02*
X120280625Y-87481695D01*
X120280625Y-87481695D02*
X120356816Y-87519790D01*
X120356816Y-87519790D02*
X120394911Y-87557885D01*
X120394911Y-87557885D02*
X120433006Y-87634076D01*
X120433006Y-87634076D02*
X120433006Y-87710266D01*
X120433006Y-87710266D02*
X120394911Y-87824552D01*
X120394911Y-87824552D02*
X119937768Y-88281695D01*
X119937768Y-88281695D02*
X120433006Y-88281695D01*
X126157219Y-138534136D02*
X126157219Y-139010326D01*
X126157219Y-139010326D02*
X126633409Y-139057945D01*
X126633409Y-139057945D02*
X126585790Y-139010326D01*
X126585790Y-139010326D02*
X126538171Y-138915088D01*
X126538171Y-138915088D02*
X126538171Y-138676993D01*
X126538171Y-138676993D02*
X126585790Y-138581755D01*
X126585790Y-138581755D02*
X126633409Y-138534136D01*
X126633409Y-138534136D02*
X126728647Y-138486517D01*
X126728647Y-138486517D02*
X126966742Y-138486517D01*
X126966742Y-138486517D02*
X127061980Y-138534136D01*
X127061980Y-138534136D02*
X127109600Y-138581755D01*
X127109600Y-138581755D02*
X127157219Y-138676993D01*
X127157219Y-138676993D02*
X127157219Y-138915088D01*
X127157219Y-138915088D02*
X127109600Y-139010326D01*
X127109600Y-139010326D02*
X127061980Y-139057945D01*
X126490552Y-138153183D02*
X127157219Y-137915088D01*
X127157219Y-137915088D02*
X126490552Y-137676993D01*
X88145863Y-92551695D02*
X88641101Y-92551695D01*
X88641101Y-92551695D02*
X88374435Y-92856457D01*
X88374435Y-92856457D02*
X88488720Y-92856457D01*
X88488720Y-92856457D02*
X88564911Y-92894552D01*
X88564911Y-92894552D02*
X88603006Y-92932647D01*
X88603006Y-92932647D02*
X88641101Y-93008838D01*
X88641101Y-93008838D02*
X88641101Y-93199314D01*
X88641101Y-93199314D02*
X88603006Y-93275504D01*
X88603006Y-93275504D02*
X88564911Y-93313600D01*
X88564911Y-93313600D02*
X88488720Y-93351695D01*
X88488720Y-93351695D02*
X88260149Y-93351695D01*
X88260149Y-93351695D02*
X88183958Y-93313600D01*
X88183958Y-93313600D02*
X88145863Y-93275504D01*
X89326816Y-92818361D02*
X89326816Y-93351695D01*
X89136340Y-92513600D02*
X88945863Y-93085028D01*
X88945863Y-93085028D02*
X89441102Y-93085028D01*
X81293409Y-110850326D02*
X81293409Y-110516993D01*
X81817219Y-110374136D02*
X81817219Y-110850326D01*
X81817219Y-110850326D02*
X80817219Y-110850326D01*
X80817219Y-110850326D02*
X80817219Y-110374136D01*
X81817219Y-109945564D02*
X80817219Y-109945564D01*
X80817219Y-109945564D02*
X81817219Y-109374136D01*
X81817219Y-109374136D02*
X80817219Y-109374136D01*
X127133409Y-88850326D02*
X127133409Y-88516993D01*
X127657219Y-88374136D02*
X127657219Y-88850326D01*
X127657219Y-88850326D02*
X126657219Y-88850326D01*
X126657219Y-88850326D02*
X126657219Y-88374136D01*
X127657219Y-87945564D02*
X126657219Y-87945564D01*
X126657219Y-87945564D02*
X127657219Y-87374136D01*
X127657219Y-87374136D02*
X126657219Y-87374136D01*
X133543600Y-142676041D02*
X133581695Y-142599850D01*
X133581695Y-142599850D02*
X133581695Y-142447469D01*
X133581695Y-142447469D02*
X133543600Y-142371279D01*
X133543600Y-142371279D02*
X133467409Y-142333183D01*
X133467409Y-142333183D02*
X133429314Y-142333183D01*
X133429314Y-142333183D02*
X133353123Y-142371279D01*
X133353123Y-142371279D02*
X133315028Y-142447469D01*
X133315028Y-142447469D02*
X133315028Y-142561755D01*
X133315028Y-142561755D02*
X133276933Y-142637945D01*
X133276933Y-142637945D02*
X133200742Y-142676041D01*
X133200742Y-142676041D02*
X133162647Y-142676041D01*
X133162647Y-142676041D02*
X133086457Y-142637945D01*
X133086457Y-142637945D02*
X133048361Y-142561755D01*
X133048361Y-142561755D02*
X133048361Y-142447469D01*
X133048361Y-142447469D02*
X133086457Y-142371279D01*
X133543600Y-141685564D02*
X133581695Y-141761755D01*
X133581695Y-141761755D02*
X133581695Y-141914136D01*
X133581695Y-141914136D02*
X133543600Y-141990326D01*
X133543600Y-141990326D02*
X133467409Y-142028422D01*
X133467409Y-142028422D02*
X133162647Y-142028422D01*
X133162647Y-142028422D02*
X133086457Y-141990326D01*
X133086457Y-141990326D02*
X133048361Y-141914136D01*
X133048361Y-141914136D02*
X133048361Y-141761755D01*
X133048361Y-141761755D02*
X133086457Y-141685564D01*
X133086457Y-141685564D02*
X133162647Y-141647469D01*
X133162647Y-141647469D02*
X133238838Y-141647469D01*
X133238838Y-141647469D02*
X133315028Y-142028422D01*
X133581695Y-141304612D02*
X133048361Y-141304612D01*
X133200742Y-141304612D02*
X133124552Y-141266517D01*
X133124552Y-141266517D02*
X133086457Y-141228422D01*
X133086457Y-141228422D02*
X133048361Y-141152231D01*
X133048361Y-141152231D02*
X133048361Y-141076041D01*
X133048361Y-140885565D02*
X133581695Y-140695089D01*
X133581695Y-140695089D02*
X133048361Y-140504612D01*
X133581695Y-140085565D02*
X133543600Y-140161755D01*
X133543600Y-140161755D02*
X133505504Y-140199850D01*
X133505504Y-140199850D02*
X133429314Y-140237946D01*
X133429314Y-140237946D02*
X133200742Y-140237946D01*
X133200742Y-140237946D02*
X133124552Y-140199850D01*
X133124552Y-140199850D02*
X133086457Y-140161755D01*
X133086457Y-140161755D02*
X133048361Y-140085565D01*
X133048361Y-140085565D02*
X133048361Y-139971279D01*
X133048361Y-139971279D02*
X133086457Y-139895088D01*
X133086457Y-139895088D02*
X133124552Y-139856993D01*
X133124552Y-139856993D02*
X133200742Y-139818898D01*
X133200742Y-139818898D02*
X133429314Y-139818898D01*
X133429314Y-139818898D02*
X133505504Y-139856993D01*
X133505504Y-139856993D02*
X133543600Y-139895088D01*
X133543600Y-139895088D02*
X133581695Y-139971279D01*
X133581695Y-139971279D02*
X133581695Y-140085565D01*
X133581695Y-139056993D02*
X133581695Y-139514136D01*
X133581695Y-139285564D02*
X132781695Y-139285564D01*
X132781695Y-139285564D02*
X132895980Y-139361755D01*
X132895980Y-139361755D02*
X132972171Y-139437945D01*
X132972171Y-139437945D02*
X133010266Y-139514136D01*
X125213482Y-162294838D02*
X125118244Y-162247219D01*
X125118244Y-162247219D02*
X124975387Y-162247219D01*
X124975387Y-162247219D02*
X124832530Y-162294838D01*
X124832530Y-162294838D02*
X124737292Y-162390076D01*
X124737292Y-162390076D02*
X124689673Y-162485314D01*
X124689673Y-162485314D02*
X124642054Y-162675790D01*
X124642054Y-162675790D02*
X124642054Y-162818647D01*
X124642054Y-162818647D02*
X124689673Y-163009123D01*
X124689673Y-163009123D02*
X124737292Y-163104361D01*
X124737292Y-163104361D02*
X124832530Y-163199600D01*
X124832530Y-163199600D02*
X124975387Y-163247219D01*
X124975387Y-163247219D02*
X125070625Y-163247219D01*
X125070625Y-163247219D02*
X125213482Y-163199600D01*
X125213482Y-163199600D02*
X125261101Y-163151980D01*
X125261101Y-163151980D02*
X125261101Y-162818647D01*
X125261101Y-162818647D02*
X125070625Y-162818647D01*
X125689673Y-163247219D02*
X125689673Y-162247219D01*
X125689673Y-162247219D02*
X126261101Y-163247219D01*
X126261101Y-163247219D02*
X126261101Y-162247219D01*
X126737292Y-163247219D02*
X126737292Y-162247219D01*
X126737292Y-162247219D02*
X126975387Y-162247219D01*
X126975387Y-162247219D02*
X127118244Y-162294838D01*
X127118244Y-162294838D02*
X127213482Y-162390076D01*
X127213482Y-162390076D02*
X127261101Y-162485314D01*
X127261101Y-162485314D02*
X127308720Y-162675790D01*
X127308720Y-162675790D02*
X127308720Y-162818647D01*
X127308720Y-162818647D02*
X127261101Y-163009123D01*
X127261101Y-163009123D02*
X127213482Y-163104361D01*
X127213482Y-163104361D02*
X127118244Y-163199600D01*
X127118244Y-163199600D02*
X126975387Y-163247219D01*
X126975387Y-163247219D02*
X126737292Y-163247219D01*
X80440400Y-120312054D02*
X80392780Y-120454911D01*
X80392780Y-120454911D02*
X80392780Y-120693006D01*
X80392780Y-120693006D02*
X80440400Y-120788244D01*
X80440400Y-120788244D02*
X80488019Y-120835863D01*
X80488019Y-120835863D02*
X80583257Y-120883482D01*
X80583257Y-120883482D02*
X80678495Y-120883482D01*
X80678495Y-120883482D02*
X80773733Y-120835863D01*
X80773733Y-120835863D02*
X80821352Y-120788244D01*
X80821352Y-120788244D02*
X80868971Y-120693006D01*
X80868971Y-120693006D02*
X80916590Y-120502530D01*
X80916590Y-120502530D02*
X80964209Y-120407292D01*
X80964209Y-120407292D02*
X81011828Y-120359673D01*
X81011828Y-120359673D02*
X81107066Y-120312054D01*
X81107066Y-120312054D02*
X81202304Y-120312054D01*
X81202304Y-120312054D02*
X81297542Y-120359673D01*
X81297542Y-120359673D02*
X81345161Y-120407292D01*
X81345161Y-120407292D02*
X81392780Y-120502530D01*
X81392780Y-120502530D02*
X81392780Y-120740625D01*
X81392780Y-120740625D02*
X81345161Y-120883482D01*
X80392780Y-121312054D02*
X81392780Y-121312054D01*
X81345161Y-122312053D02*
X81392780Y-122216815D01*
X81392780Y-122216815D02*
X81392780Y-122073958D01*
X81392780Y-122073958D02*
X81345161Y-121931101D01*
X81345161Y-121931101D02*
X81249923Y-121835863D01*
X81249923Y-121835863D02*
X81154685Y-121788244D01*
X81154685Y-121788244D02*
X80964209Y-121740625D01*
X80964209Y-121740625D02*
X80821352Y-121740625D01*
X80821352Y-121740625D02*
X80630876Y-121788244D01*
X80630876Y-121788244D02*
X80535638Y-121835863D01*
X80535638Y-121835863D02*
X80440400Y-121931101D01*
X80440400Y-121931101D02*
X80392780Y-122073958D01*
X80392780Y-122073958D02*
X80392780Y-122169196D01*
X80392780Y-122169196D02*
X80440400Y-122312053D01*
X80440400Y-122312053D02*
X80488019Y-122359672D01*
X80488019Y-122359672D02*
X80821352Y-122359672D01*
X80821352Y-122359672D02*
X80821352Y-122169196D01*
X114732780Y-149815863D02*
X114732780Y-149339673D01*
X114732780Y-149339673D02*
X114256590Y-149292054D01*
X114256590Y-149292054D02*
X114304209Y-149339673D01*
X114304209Y-149339673D02*
X114351828Y-149434911D01*
X114351828Y-149434911D02*
X114351828Y-149673006D01*
X114351828Y-149673006D02*
X114304209Y-149768244D01*
X114304209Y-149768244D02*
X114256590Y-149815863D01*
X114256590Y-149815863D02*
X114161352Y-149863482D01*
X114161352Y-149863482D02*
X113923257Y-149863482D01*
X113923257Y-149863482D02*
X113828019Y-149815863D01*
X113828019Y-149815863D02*
X113780400Y-149768244D01*
X113780400Y-149768244D02*
X113732780Y-149673006D01*
X113732780Y-149673006D02*
X113732780Y-149434911D01*
X113732780Y-149434911D02*
X113780400Y-149339673D01*
X113780400Y-149339673D02*
X113828019Y-149292054D01*
X114399447Y-150196816D02*
X113732780Y-150434911D01*
X113732780Y-150434911D02*
X114399447Y-150673006D01*
X133923600Y-114146041D02*
X133961695Y-114069850D01*
X133961695Y-114069850D02*
X133961695Y-113917469D01*
X133961695Y-113917469D02*
X133923600Y-113841279D01*
X133923600Y-113841279D02*
X133847409Y-113803183D01*
X133847409Y-113803183D02*
X133809314Y-113803183D01*
X133809314Y-113803183D02*
X133733123Y-113841279D01*
X133733123Y-113841279D02*
X133695028Y-113917469D01*
X133695028Y-113917469D02*
X133695028Y-114031755D01*
X133695028Y-114031755D02*
X133656933Y-114107945D01*
X133656933Y-114107945D02*
X133580742Y-114146041D01*
X133580742Y-114146041D02*
X133542647Y-114146041D01*
X133542647Y-114146041D02*
X133466457Y-114107945D01*
X133466457Y-114107945D02*
X133428361Y-114031755D01*
X133428361Y-114031755D02*
X133428361Y-113917469D01*
X133428361Y-113917469D02*
X133466457Y-113841279D01*
X133923600Y-113155564D02*
X133961695Y-113231755D01*
X133961695Y-113231755D02*
X133961695Y-113384136D01*
X133961695Y-113384136D02*
X133923600Y-113460326D01*
X133923600Y-113460326D02*
X133847409Y-113498422D01*
X133847409Y-113498422D02*
X133542647Y-113498422D01*
X133542647Y-113498422D02*
X133466457Y-113460326D01*
X133466457Y-113460326D02*
X133428361Y-113384136D01*
X133428361Y-113384136D02*
X133428361Y-113231755D01*
X133428361Y-113231755D02*
X133466457Y-113155564D01*
X133466457Y-113155564D02*
X133542647Y-113117469D01*
X133542647Y-113117469D02*
X133618838Y-113117469D01*
X133618838Y-113117469D02*
X133695028Y-113498422D01*
X133961695Y-112774612D02*
X133428361Y-112774612D01*
X133580742Y-112774612D02*
X133504552Y-112736517D01*
X133504552Y-112736517D02*
X133466457Y-112698422D01*
X133466457Y-112698422D02*
X133428361Y-112622231D01*
X133428361Y-112622231D02*
X133428361Y-112546041D01*
X133428361Y-112355565D02*
X133961695Y-112165089D01*
X133961695Y-112165089D02*
X133428361Y-111974612D01*
X133961695Y-111555565D02*
X133923600Y-111631755D01*
X133923600Y-111631755D02*
X133885504Y-111669850D01*
X133885504Y-111669850D02*
X133809314Y-111707946D01*
X133809314Y-111707946D02*
X133580742Y-111707946D01*
X133580742Y-111707946D02*
X133504552Y-111669850D01*
X133504552Y-111669850D02*
X133466457Y-111631755D01*
X133466457Y-111631755D02*
X133428361Y-111555565D01*
X133428361Y-111555565D02*
X133428361Y-111441279D01*
X133428361Y-111441279D02*
X133466457Y-111365088D01*
X133466457Y-111365088D02*
X133504552Y-111326993D01*
X133504552Y-111326993D02*
X133580742Y-111288898D01*
X133580742Y-111288898D02*
X133809314Y-111288898D01*
X133809314Y-111288898D02*
X133885504Y-111326993D01*
X133885504Y-111326993D02*
X133923600Y-111365088D01*
X133923600Y-111365088D02*
X133961695Y-111441279D01*
X133961695Y-111441279D02*
X133961695Y-111555565D01*
X133161695Y-110565088D02*
X133161695Y-110946040D01*
X133161695Y-110946040D02*
X133542647Y-110984136D01*
X133542647Y-110984136D02*
X133504552Y-110946040D01*
X133504552Y-110946040D02*
X133466457Y-110869850D01*
X133466457Y-110869850D02*
X133466457Y-110679374D01*
X133466457Y-110679374D02*
X133504552Y-110603183D01*
X133504552Y-110603183D02*
X133542647Y-110565088D01*
X133542647Y-110565088D02*
X133618838Y-110526993D01*
X133618838Y-110526993D02*
X133809314Y-110526993D01*
X133809314Y-110526993D02*
X133885504Y-110565088D01*
X133885504Y-110565088D02*
X133923600Y-110603183D01*
X133923600Y-110603183D02*
X133961695Y-110679374D01*
X133961695Y-110679374D02*
X133961695Y-110869850D01*
X133961695Y-110869850D02*
X133923600Y-110946040D01*
X133923600Y-110946040D02*
X133885504Y-110984136D01*
X98263482Y-156877219D02*
X97692054Y-156877219D01*
X97977768Y-156877219D02*
X97977768Y-155877219D01*
X97977768Y-155877219D02*
X97882530Y-156020076D01*
X97882530Y-156020076D02*
X97787292Y-156115314D01*
X97787292Y-156115314D02*
X97692054Y-156162933D01*
X98644435Y-155972457D02*
X98692054Y-155924838D01*
X98692054Y-155924838D02*
X98787292Y-155877219D01*
X98787292Y-155877219D02*
X99025387Y-155877219D01*
X99025387Y-155877219D02*
X99120625Y-155924838D01*
X99120625Y-155924838D02*
X99168244Y-155972457D01*
X99168244Y-155972457D02*
X99215863Y-156067695D01*
X99215863Y-156067695D02*
X99215863Y-156162933D01*
X99215863Y-156162933D02*
X99168244Y-156305790D01*
X99168244Y-156305790D02*
X98596816Y-156877219D01*
X98596816Y-156877219D02*
X99215863Y-156877219D01*
X99549197Y-156210552D02*
X99787292Y-156877219D01*
X99787292Y-156877219D02*
X100025387Y-156210552D01*
D11*
X129561139Y-161834619D02*
X129561139Y-160834619D01*
X129561139Y-161787000D02*
X129465901Y-161834619D01*
X129465901Y-161834619D02*
X129275425Y-161834619D01*
X129275425Y-161834619D02*
X129180187Y-161787000D01*
X129180187Y-161787000D02*
X129132568Y-161739380D01*
X129132568Y-161739380D02*
X129084949Y-161644142D01*
X129084949Y-161644142D02*
X129084949Y-161358428D01*
X129084949Y-161358428D02*
X129132568Y-161263190D01*
X129132568Y-161263190D02*
X129180187Y-161215571D01*
X129180187Y-161215571D02*
X129275425Y-161167952D01*
X129275425Y-161167952D02*
X129465901Y-161167952D01*
X129465901Y-161167952D02*
X129561139Y-161215571D01*
X130037330Y-161834619D02*
X130037330Y-161167952D01*
X130037330Y-161358428D02*
X130084949Y-161263190D01*
X130084949Y-161263190D02*
X130132568Y-161215571D01*
X130132568Y-161215571D02*
X130227806Y-161167952D01*
X130227806Y-161167952D02*
X130323044Y-161167952D01*
X130656378Y-161834619D02*
X130656378Y-161167952D01*
X130656378Y-160834619D02*
X130608759Y-160882238D01*
X130608759Y-160882238D02*
X130656378Y-160929857D01*
X130656378Y-160929857D02*
X130703997Y-160882238D01*
X130703997Y-160882238D02*
X130656378Y-160834619D01*
X130656378Y-160834619D02*
X130656378Y-160929857D01*
X131037330Y-161167952D02*
X131275425Y-161834619D01*
X131275425Y-161834619D02*
X131513520Y-161167952D01*
X132275425Y-161787000D02*
X132180187Y-161834619D01*
X132180187Y-161834619D02*
X131989711Y-161834619D01*
X131989711Y-161834619D02*
X131894473Y-161787000D01*
X131894473Y-161787000D02*
X131846854Y-161691761D01*
X131846854Y-161691761D02*
X131846854Y-161310809D01*
X131846854Y-161310809D02*
X131894473Y-161215571D01*
X131894473Y-161215571D02*
X131989711Y-161167952D01*
X131989711Y-161167952D02*
X132180187Y-161167952D01*
X132180187Y-161167952D02*
X132275425Y-161215571D01*
X132275425Y-161215571D02*
X132323044Y-161310809D01*
X132323044Y-161310809D02*
X132323044Y-161406047D01*
X132323044Y-161406047D02*
X131846854Y-161501285D01*
X132751616Y-161834619D02*
X132751616Y-161167952D01*
X132751616Y-161358428D02*
X132799235Y-161263190D01*
X132799235Y-161263190D02*
X132846854Y-161215571D01*
X132846854Y-161215571D02*
X132942092Y-161167952D01*
X132942092Y-161167952D02*
X133037330Y-161167952D01*
X134084950Y-160929857D02*
X134132569Y-160882238D01*
X134132569Y-160882238D02*
X134227807Y-160834619D01*
X134227807Y-160834619D02*
X134465902Y-160834619D01*
X134465902Y-160834619D02*
X134561140Y-160882238D01*
X134561140Y-160882238D02*
X134608759Y-160929857D01*
X134608759Y-160929857D02*
X134656378Y-161025095D01*
X134656378Y-161025095D02*
X134656378Y-161120333D01*
X134656378Y-161120333D02*
X134608759Y-161263190D01*
X134608759Y-161263190D02*
X134037331Y-161834619D01*
X134037331Y-161834619D02*
X134656378Y-161834619D01*
D10*
X126127219Y-126394136D02*
X126127219Y-126870326D01*
X126127219Y-126870326D02*
X126603409Y-126917945D01*
X126603409Y-126917945D02*
X126555790Y-126870326D01*
X126555790Y-126870326D02*
X126508171Y-126775088D01*
X126508171Y-126775088D02*
X126508171Y-126536993D01*
X126508171Y-126536993D02*
X126555790Y-126441755D01*
X126555790Y-126441755D02*
X126603409Y-126394136D01*
X126603409Y-126394136D02*
X126698647Y-126346517D01*
X126698647Y-126346517D02*
X126936742Y-126346517D01*
X126936742Y-126346517D02*
X127031980Y-126394136D01*
X127031980Y-126394136D02*
X127079600Y-126441755D01*
X127079600Y-126441755D02*
X127127219Y-126536993D01*
X127127219Y-126536993D02*
X127127219Y-126775088D01*
X127127219Y-126775088D02*
X127079600Y-126870326D01*
X127079600Y-126870326D02*
X127031980Y-126917945D01*
X126460552Y-126013183D02*
X127127219Y-125775088D01*
X127127219Y-125775088D02*
X126460552Y-125536993D01*
X88303958Y-123823600D02*
X88418244Y-123861695D01*
X88418244Y-123861695D02*
X88608720Y-123861695D01*
X88608720Y-123861695D02*
X88684911Y-123823600D01*
X88684911Y-123823600D02*
X88723006Y-123785504D01*
X88723006Y-123785504D02*
X88761101Y-123709314D01*
X88761101Y-123709314D02*
X88761101Y-123633123D01*
X88761101Y-123633123D02*
X88723006Y-123556933D01*
X88723006Y-123556933D02*
X88684911Y-123518838D01*
X88684911Y-123518838D02*
X88608720Y-123480742D01*
X88608720Y-123480742D02*
X88456339Y-123442647D01*
X88456339Y-123442647D02*
X88380149Y-123404552D01*
X88380149Y-123404552D02*
X88342054Y-123366457D01*
X88342054Y-123366457D02*
X88303958Y-123290266D01*
X88303958Y-123290266D02*
X88303958Y-123214076D01*
X88303958Y-123214076D02*
X88342054Y-123137885D01*
X88342054Y-123137885D02*
X88380149Y-123099790D01*
X88380149Y-123099790D02*
X88456339Y-123061695D01*
X88456339Y-123061695D02*
X88646816Y-123061695D01*
X88646816Y-123061695D02*
X88761101Y-123099790D01*
X89103959Y-123861695D02*
X89103959Y-123061695D01*
X89103959Y-123061695D02*
X89294435Y-123061695D01*
X89294435Y-123061695D02*
X89408721Y-123099790D01*
X89408721Y-123099790D02*
X89484911Y-123175980D01*
X89484911Y-123175980D02*
X89523006Y-123252171D01*
X89523006Y-123252171D02*
X89561102Y-123404552D01*
X89561102Y-123404552D02*
X89561102Y-123518838D01*
X89561102Y-123518838D02*
X89523006Y-123671219D01*
X89523006Y-123671219D02*
X89484911Y-123747409D01*
X89484911Y-123747409D02*
X89408721Y-123823600D01*
X89408721Y-123823600D02*
X89294435Y-123861695D01*
X89294435Y-123861695D02*
X89103959Y-123861695D01*
X89827768Y-123061695D02*
X90323006Y-123061695D01*
X90323006Y-123061695D02*
X90056340Y-123366457D01*
X90056340Y-123366457D02*
X90170625Y-123366457D01*
X90170625Y-123366457D02*
X90246816Y-123404552D01*
X90246816Y-123404552D02*
X90284911Y-123442647D01*
X90284911Y-123442647D02*
X90323006Y-123518838D01*
X90323006Y-123518838D02*
X90323006Y-123709314D01*
X90323006Y-123709314D02*
X90284911Y-123785504D01*
X90284911Y-123785504D02*
X90246816Y-123823600D01*
X90246816Y-123823600D02*
X90170625Y-123861695D01*
X90170625Y-123861695D02*
X89942054Y-123861695D01*
X89942054Y-123861695D02*
X89865863Y-123823600D01*
X89865863Y-123823600D02*
X89827768Y-123785504D01*
X134157219Y-96880326D02*
X133490552Y-96880326D01*
X133585790Y-96880326D02*
X133538171Y-96832707D01*
X133538171Y-96832707D02*
X133490552Y-96737469D01*
X133490552Y-96737469D02*
X133490552Y-96594612D01*
X133490552Y-96594612D02*
X133538171Y-96499374D01*
X133538171Y-96499374D02*
X133633409Y-96451755D01*
X133633409Y-96451755D02*
X134157219Y-96451755D01*
X133633409Y-96451755D02*
X133538171Y-96404136D01*
X133538171Y-96404136D02*
X133490552Y-96308898D01*
X133490552Y-96308898D02*
X133490552Y-96166041D01*
X133490552Y-96166041D02*
X133538171Y-96070802D01*
X133538171Y-96070802D02*
X133633409Y-96023183D01*
X133633409Y-96023183D02*
X134157219Y-96023183D01*
X133157219Y-95642231D02*
X133157219Y-95023184D01*
X133157219Y-95023184D02*
X133538171Y-95356517D01*
X133538171Y-95356517D02*
X133538171Y-95213660D01*
X133538171Y-95213660D02*
X133585790Y-95118422D01*
X133585790Y-95118422D02*
X133633409Y-95070803D01*
X133633409Y-95070803D02*
X133728647Y-95023184D01*
X133728647Y-95023184D02*
X133966742Y-95023184D01*
X133966742Y-95023184D02*
X134061980Y-95070803D01*
X134061980Y-95070803D02*
X134109600Y-95118422D01*
X134109600Y-95118422D02*
X134157219Y-95213660D01*
X134157219Y-95213660D02*
X134157219Y-95499374D01*
X134157219Y-95499374D02*
X134109600Y-95594612D01*
X134109600Y-95594612D02*
X134061980Y-95642231D01*
X127567219Y-91076517D02*
X127567219Y-91647945D01*
X127567219Y-91362231D02*
X126567219Y-91362231D01*
X126567219Y-91362231D02*
X126710076Y-91457469D01*
X126710076Y-91457469D02*
X126805314Y-91552707D01*
X126805314Y-91552707D02*
X126852933Y-91647945D01*
X88203958Y-102867885D02*
X88242054Y-102829790D01*
X88242054Y-102829790D02*
X88318244Y-102791695D01*
X88318244Y-102791695D02*
X88508720Y-102791695D01*
X88508720Y-102791695D02*
X88584911Y-102829790D01*
X88584911Y-102829790D02*
X88623006Y-102867885D01*
X88623006Y-102867885D02*
X88661101Y-102944076D01*
X88661101Y-102944076D02*
X88661101Y-103020266D01*
X88661101Y-103020266D02*
X88623006Y-103134552D01*
X88623006Y-103134552D02*
X88165863Y-103591695D01*
X88165863Y-103591695D02*
X88661101Y-103591695D01*
X89384911Y-102791695D02*
X89003959Y-102791695D01*
X89003959Y-102791695D02*
X88965863Y-103172647D01*
X88965863Y-103172647D02*
X89003959Y-103134552D01*
X89003959Y-103134552D02*
X89080149Y-103096457D01*
X89080149Y-103096457D02*
X89270625Y-103096457D01*
X89270625Y-103096457D02*
X89346816Y-103134552D01*
X89346816Y-103134552D02*
X89384911Y-103172647D01*
X89384911Y-103172647D02*
X89423006Y-103248838D01*
X89423006Y-103248838D02*
X89423006Y-103439314D01*
X89423006Y-103439314D02*
X89384911Y-103515504D01*
X89384911Y-103515504D02*
X89346816Y-103553600D01*
X89346816Y-103553600D02*
X89270625Y-103591695D01*
X89270625Y-103591695D02*
X89080149Y-103591695D01*
X89080149Y-103591695D02*
X89003959Y-103553600D01*
X89003959Y-103553600D02*
X88965863Y-103515504D01*
X127507219Y-102906517D02*
X127507219Y-103477945D01*
X127507219Y-103192231D02*
X126507219Y-103192231D01*
X126507219Y-103192231D02*
X126650076Y-103287469D01*
X126650076Y-103287469D02*
X126745314Y-103382707D01*
X126745314Y-103382707D02*
X126792933Y-103477945D01*
X92815161Y-153973482D02*
X92862780Y-153878244D01*
X92862780Y-153878244D02*
X92862780Y-153735387D01*
X92862780Y-153735387D02*
X92815161Y-153592530D01*
X92815161Y-153592530D02*
X92719923Y-153497292D01*
X92719923Y-153497292D02*
X92624685Y-153449673D01*
X92624685Y-153449673D02*
X92434209Y-153402054D01*
X92434209Y-153402054D02*
X92291352Y-153402054D01*
X92291352Y-153402054D02*
X92100876Y-153449673D01*
X92100876Y-153449673D02*
X92005638Y-153497292D01*
X92005638Y-153497292D02*
X91910400Y-153592530D01*
X91910400Y-153592530D02*
X91862780Y-153735387D01*
X91862780Y-153735387D02*
X91862780Y-153830625D01*
X91862780Y-153830625D02*
X91910400Y-153973482D01*
X91910400Y-153973482D02*
X91958019Y-154021101D01*
X91958019Y-154021101D02*
X92291352Y-154021101D01*
X92291352Y-154021101D02*
X92291352Y-153830625D01*
X91862780Y-154449673D02*
X92862780Y-154449673D01*
X92862780Y-154449673D02*
X91862780Y-155021101D01*
X91862780Y-155021101D02*
X92862780Y-155021101D01*
X91862780Y-155497292D02*
X92862780Y-155497292D01*
X92862780Y-155497292D02*
X92862780Y-155735387D01*
X92862780Y-155735387D02*
X92815161Y-155878244D01*
X92815161Y-155878244D02*
X92719923Y-155973482D01*
X92719923Y-155973482D02*
X92624685Y-156021101D01*
X92624685Y-156021101D02*
X92434209Y-156068720D01*
X92434209Y-156068720D02*
X92291352Y-156068720D01*
X92291352Y-156068720D02*
X92100876Y-156021101D01*
X92100876Y-156021101D02*
X92005638Y-155973482D01*
X92005638Y-155973482D02*
X91910400Y-155878244D01*
X91910400Y-155878244D02*
X91862780Y-155735387D01*
X91862780Y-155735387D02*
X91862780Y-155497292D01*
X80913409Y-99080326D02*
X80913409Y-98746993D01*
X81437219Y-98604136D02*
X81437219Y-99080326D01*
X81437219Y-99080326D02*
X80437219Y-99080326D01*
X80437219Y-99080326D02*
X80437219Y-98604136D01*
X81437219Y-98175564D02*
X80437219Y-98175564D01*
X80437219Y-98175564D02*
X81437219Y-97604136D01*
X81437219Y-97604136D02*
X80437219Y-97604136D01*
D13*
X132008095Y-161384819D02*
X132008095Y-160384819D01*
X132008095Y-160861009D02*
X132579523Y-160861009D01*
X132579523Y-161384819D02*
X132579523Y-160384819D01*
X133484285Y-160718152D02*
X133484285Y-161384819D01*
X133246190Y-160337200D02*
X133008095Y-161051485D01*
X133008095Y-161051485D02*
X133627142Y-161051485D01*
X75958095Y-79944819D02*
X75958095Y-78944819D01*
X75958095Y-79421009D02*
X76529523Y-79421009D01*
X76529523Y-79944819D02*
X76529523Y-78944819D01*
X76958095Y-79040057D02*
X77005714Y-78992438D01*
X77005714Y-78992438D02*
X77100952Y-78944819D01*
X77100952Y-78944819D02*
X77339047Y-78944819D01*
X77339047Y-78944819D02*
X77434285Y-78992438D01*
X77434285Y-78992438D02*
X77481904Y-79040057D01*
X77481904Y-79040057D02*
X77529523Y-79135295D01*
X77529523Y-79135295D02*
X77529523Y-79230533D01*
X77529523Y-79230533D02*
X77481904Y-79373390D01*
X77481904Y-79373390D02*
X76910476Y-79944819D01*
X76910476Y-79944819D02*
X77529523Y-79944819D01*
X116706666Y-79624819D02*
X116706666Y-80339104D01*
X116706666Y-80339104D02*
X116659047Y-80481961D01*
X116659047Y-80481961D02*
X116563809Y-80577200D01*
X116563809Y-80577200D02*
X116420952Y-80624819D01*
X116420952Y-80624819D02*
X116325714Y-80624819D01*
X117706666Y-80624819D02*
X117135238Y-80624819D01*
X117420952Y-80624819D02*
X117420952Y-79624819D01*
X117420952Y-79624819D02*
X117325714Y-79767676D01*
X117325714Y-79767676D02*
X117230476Y-79862914D01*
X117230476Y-79862914D02*
X117135238Y-79910533D01*
X122410476Y-80024819D02*
X122410476Y-80739104D01*
X122410476Y-80739104D02*
X122362857Y-80881961D01*
X122362857Y-80881961D02*
X122267619Y-80977200D01*
X122267619Y-80977200D02*
X122124762Y-81024819D01*
X122124762Y-81024819D02*
X122029524Y-81024819D01*
X123410476Y-81024819D02*
X122839048Y-81024819D01*
X123124762Y-81024819D02*
X123124762Y-80024819D01*
X123124762Y-80024819D02*
X123029524Y-80167676D01*
X123029524Y-80167676D02*
X122934286Y-80262914D01*
X122934286Y-80262914D02*
X122839048Y-80310533D01*
X123743810Y-80024819D02*
X124362857Y-80024819D01*
X124362857Y-80024819D02*
X124029524Y-80405771D01*
X124029524Y-80405771D02*
X124172381Y-80405771D01*
X124172381Y-80405771D02*
X124267619Y-80453390D01*
X124267619Y-80453390D02*
X124315238Y-80501009D01*
X124315238Y-80501009D02*
X124362857Y-80596247D01*
X124362857Y-80596247D02*
X124362857Y-80834342D01*
X124362857Y-80834342D02*
X124315238Y-80929580D01*
X124315238Y-80929580D02*
X124267619Y-80977200D01*
X124267619Y-80977200D02*
X124172381Y-81024819D01*
X124172381Y-81024819D02*
X123886667Y-81024819D01*
X123886667Y-81024819D02*
X123791429Y-80977200D01*
X123791429Y-80977200D02*
X123743810Y-80929580D01*
X75958095Y-161334819D02*
X75958095Y-160334819D01*
X75958095Y-160811009D02*
X76529523Y-160811009D01*
X76529523Y-161334819D02*
X76529523Y-160334819D01*
X76910476Y-160334819D02*
X77529523Y-160334819D01*
X77529523Y-160334819D02*
X77196190Y-160715771D01*
X77196190Y-160715771D02*
X77339047Y-160715771D01*
X77339047Y-160715771D02*
X77434285Y-160763390D01*
X77434285Y-160763390D02*
X77481904Y-160811009D01*
X77481904Y-160811009D02*
X77529523Y-160906247D01*
X77529523Y-160906247D02*
X77529523Y-161144342D01*
X77529523Y-161144342D02*
X77481904Y-161239580D01*
X77481904Y-161239580D02*
X77434285Y-161287200D01*
X77434285Y-161287200D02*
X77339047Y-161334819D01*
X77339047Y-161334819D02*
X77053333Y-161334819D01*
X77053333Y-161334819D02*
X76958095Y-161287200D01*
X76958095Y-161287200D02*
X76910476Y-161239580D01*
D14*
%TO.C,J4*%
X73304000Y-146050000D02*
X83225000Y-146050000D01*
X73304000Y-161170000D02*
X73304000Y-146050000D01*
X73304000Y-161170000D02*
X83225000Y-161170000D01*
X76264000Y-161170000D02*
X76264000Y-146050000D01*
X77290000Y-147540000D02*
X77326000Y-147575000D01*
X77290000Y-152540000D02*
X77326000Y-152575000D01*
X77496000Y-147335000D02*
X77542000Y-147382000D01*
X77496000Y-152335000D02*
X77542000Y-152382000D01*
X79588000Y-149837000D02*
X79634000Y-149884000D01*
X79588000Y-154837000D02*
X79634000Y-154884000D01*
X79804000Y-149644000D02*
X79839000Y-149679000D01*
X79804000Y-154644000D02*
X79839000Y-154679000D01*
X81165000Y-161170000D02*
X81165000Y-146050000D01*
X82665000Y-161170000D02*
X82665000Y-146050000D01*
X82725000Y-161410000D02*
X83465000Y-161410000D01*
X83225000Y-161170000D02*
X83225000Y-146050000D01*
X83465000Y-161410000D02*
X83465000Y-160910000D01*
X77029574Y-159293042D02*
G75*
G02*
X77030001Y-157926001I1535419J683041D01*
G01*
X77881958Y-157074574D02*
G75*
G02*
X79249000Y-157075000I683042J-1535426D01*
G01*
X79248042Y-160145426D02*
G75*
G02*
X77881001Y-160144999I-683041J1535419D01*
G01*
X80099755Y-157926682D02*
G75*
G02*
X80244999Y-158610000I-1534755J-683318D01*
G01*
X80245252Y-158581195D02*
G75*
G02*
X80099999Y-159294000I-1680253J-28806D01*
G01*
X80245000Y-148610000D02*
G75*
G02*
X76885000Y-148610000I-1680000J0D01*
G01*
X76885000Y-148610000D02*
G75*
G02*
X80245000Y-148610000I1680000J0D01*
G01*
X80245000Y-153610000D02*
G75*
G02*
X76885000Y-153610000I-1680000J0D01*
G01*
X76885000Y-153610000D02*
G75*
G02*
X80245000Y-153610000I1680000J0D01*
G01*
%TO.C,J21*%
X86730000Y-148910000D02*
X86730000Y-151410000D01*
X87030000Y-149210000D02*
X87030000Y-156930000D01*
X87030000Y-156930000D02*
X91050000Y-156930000D01*
X88530000Y-149210000D02*
X88530000Y-150210000D01*
X88530000Y-150210000D02*
X87030000Y-150210000D01*
X88530000Y-155930000D02*
X87030000Y-155930000D01*
X88530000Y-156930000D02*
X88530000Y-155930000D01*
X89230000Y-148910000D02*
X86730000Y-148910000D01*
X89340000Y-149210000D02*
X89340000Y-149710000D01*
X89340000Y-149710000D02*
X90550000Y-149710000D01*
X89340000Y-156430000D02*
X89340000Y-156930000D01*
X90550000Y-149710000D02*
X90550000Y-156430000D01*
X90550000Y-156430000D02*
X89340000Y-156430000D01*
X91050000Y-149210000D02*
X87030000Y-149210000D01*
X91050000Y-156930000D02*
X91050000Y-149210000D01*
%TO.C,C7*%
X105099000Y-135730000D02*
X103841000Y-135730000D01*
X105099000Y-137570000D02*
X103841000Y-137570000D01*
%TO.C,C9*%
X82010000Y-90161000D02*
X82010000Y-91419000D01*
X83850000Y-90161000D02*
X83850000Y-91419000D01*
%TO.C,C1*%
X91620000Y-144099000D02*
X91620000Y-142841000D01*
X93460000Y-144099000D02*
X93460000Y-142841000D01*
%TO.C,J8*%
X128230000Y-97890000D02*
X128230000Y-100390000D01*
X128530000Y-98190000D02*
X128530000Y-108410000D01*
X128530000Y-108410000D02*
X132550000Y-108410000D01*
X130030000Y-98190000D02*
X130030000Y-99190000D01*
X130030000Y-99190000D02*
X128530000Y-99190000D01*
X130030000Y-107410000D02*
X128530000Y-107410000D01*
X130030000Y-108410000D02*
X130030000Y-107410000D01*
X130730000Y-97890000D02*
X128230000Y-97890000D01*
X130840000Y-98190000D02*
X130840000Y-98690000D01*
X130840000Y-98690000D02*
X132050000Y-98690000D01*
X130840000Y-107910000D02*
X130840000Y-108410000D01*
X132050000Y-98690000D02*
X132050000Y-107910000D01*
X132050000Y-107910000D02*
X130840000Y-107910000D01*
X132550000Y-98190000D02*
X128530000Y-98190000D01*
X132550000Y-108410000D02*
X132550000Y-98190000D01*
%TO.C,J16*%
X106360000Y-132730000D02*
X106360000Y-135230000D01*
X106360000Y-135230000D02*
X108860000Y-135230000D01*
X106660000Y-130910000D02*
X106660000Y-134930000D01*
X106660000Y-132620000D02*
X107160000Y-132620000D01*
X106660000Y-133430000D02*
X107660000Y-133430000D01*
X106660000Y-134930000D02*
X114380000Y-134930000D01*
X107160000Y-131410000D02*
X113880000Y-131410000D01*
X107160000Y-132620000D02*
X107160000Y-131410000D01*
X107660000Y-133430000D02*
X107660000Y-134930000D01*
X113380000Y-133430000D02*
X113380000Y-134930000D01*
X113880000Y-131410000D02*
X113880000Y-132620000D01*
X113880000Y-132620000D02*
X114380000Y-132620000D01*
X114380000Y-130910000D02*
X106660000Y-130910000D01*
X114380000Y-133430000D02*
X113380000Y-133430000D01*
X114380000Y-134930000D02*
X114380000Y-130910000D01*
%TO.C,J14*%
X84790000Y-127410000D02*
X84790000Y-81630000D01*
X87450000Y-81630000D02*
X84790000Y-81630000D01*
X87450000Y-127410000D02*
X84790000Y-127410000D01*
X87450000Y-127410000D02*
X87450000Y-81630000D01*
X87450000Y-128680000D02*
X87450000Y-130010000D01*
X87450000Y-130010000D02*
X86120000Y-130010000D01*
%TO.C,J1*%
X115710000Y-84210000D02*
X115710000Y-129990000D01*
X115710000Y-84210000D02*
X118370000Y-84210000D01*
X115710000Y-129990000D02*
X118370000Y-129990000D01*
X117040000Y-81610000D02*
X118370000Y-81610000D01*
X118370000Y-81610000D02*
X118370000Y-82940000D01*
X118370000Y-84210000D02*
X118370000Y-129990000D01*
%TO.C,J6*%
X75050000Y-107210000D02*
X75050000Y-109710000D01*
X75350000Y-107510000D02*
X75350000Y-117730000D01*
X75350000Y-117730000D02*
X79370000Y-117730000D01*
X76850000Y-107510000D02*
X76850000Y-108510000D01*
X76850000Y-108510000D02*
X75350000Y-108510000D01*
X76850000Y-116730000D02*
X75350000Y-116730000D01*
X76850000Y-117730000D02*
X76850000Y-116730000D01*
X77550000Y-107210000D02*
X75050000Y-107210000D01*
X77660000Y-107510000D02*
X77660000Y-108010000D01*
X77660000Y-108010000D02*
X78870000Y-108010000D01*
X77660000Y-117230000D02*
X77660000Y-117730000D01*
X78870000Y-108010000D02*
X78870000Y-117230000D01*
X78870000Y-117230000D02*
X77660000Y-117230000D01*
X79370000Y-107510000D02*
X75350000Y-107510000D01*
X79370000Y-117730000D02*
X79370000Y-107510000D01*
%TO.C,J19*%
X74970000Y-119060000D02*
X74970000Y-121560000D01*
X75270000Y-119360000D02*
X75270000Y-129580000D01*
X75270000Y-129580000D02*
X79290000Y-129580000D01*
X76770000Y-119360000D02*
X76770000Y-120360000D01*
X76770000Y-120360000D02*
X75270000Y-120360000D01*
X76770000Y-128580000D02*
X75270000Y-128580000D01*
X76770000Y-129580000D02*
X76770000Y-128580000D01*
X77470000Y-119060000D02*
X74970000Y-119060000D01*
X77580000Y-119360000D02*
X77580000Y-119860000D01*
X77580000Y-119860000D02*
X78790000Y-119860000D01*
X77580000Y-129080000D02*
X77580000Y-129580000D01*
X78790000Y-119860000D02*
X78790000Y-129080000D01*
X78790000Y-129080000D02*
X77580000Y-129080000D01*
X79290000Y-119360000D02*
X75270000Y-119360000D01*
X79290000Y-129580000D02*
X79290000Y-119360000D01*
%TO.C,C2*%
X86929000Y-134100000D02*
X85671000Y-134100000D01*
X86929000Y-135940000D02*
X85671000Y-135940000D01*
%TO.C,J5*%
X75100000Y-95370000D02*
X75100000Y-97870000D01*
X75400000Y-95670000D02*
X75400000Y-105890000D01*
X75400000Y-105890000D02*
X79420000Y-105890000D01*
X76900000Y-95670000D02*
X76900000Y-96670000D01*
X76900000Y-96670000D02*
X75400000Y-96670000D01*
X76900000Y-104890000D02*
X75400000Y-104890000D01*
X76900000Y-105890000D02*
X76900000Y-104890000D01*
X77600000Y-95370000D02*
X75100000Y-95370000D01*
X77710000Y-95670000D02*
X77710000Y-96170000D01*
X77710000Y-96170000D02*
X78920000Y-96170000D01*
X77710000Y-105390000D02*
X77710000Y-105890000D01*
X78920000Y-96170000D02*
X78920000Y-105390000D01*
X78920000Y-105390000D02*
X77710000Y-105390000D01*
X79420000Y-95670000D02*
X75400000Y-95670000D01*
X79420000Y-105890000D02*
X79420000Y-95670000D01*
%TO.C,U3*%
X85480000Y-137090000D02*
X90121000Y-137090000D01*
X85480000Y-140359000D02*
X86990000Y-140359000D01*
X85480000Y-144060000D02*
X86990000Y-144060000D01*
X85480000Y-147330000D02*
X85480000Y-137090000D01*
X85480000Y-147330000D02*
X90121000Y-147330000D01*
X86990000Y-147330000D02*
X86990000Y-137090000D01*
X90121000Y-147330000D02*
X90121000Y-137090000D01*
%TO.C,J12*%
X75410000Y-131400000D02*
X75410000Y-133900000D01*
X75710000Y-131700000D02*
X75710000Y-141920000D01*
X75710000Y-141920000D02*
X79730000Y-141920000D01*
X77210000Y-131700000D02*
X77210000Y-132700000D01*
X77210000Y-132700000D02*
X75710000Y-132700000D01*
X77210000Y-140920000D02*
X75710000Y-140920000D01*
X77210000Y-141920000D02*
X77210000Y-140920000D01*
X77910000Y-131400000D02*
X75410000Y-131400000D01*
X78020000Y-131700000D02*
X78020000Y-132200000D01*
X78020000Y-132200000D02*
X79230000Y-132200000D01*
X78020000Y-141420000D02*
X78020000Y-141920000D01*
X79230000Y-132200000D02*
X79230000Y-141420000D01*
X79230000Y-141420000D02*
X78020000Y-141420000D01*
X79730000Y-131700000D02*
X75710000Y-131700000D01*
X79730000Y-141920000D02*
X79730000Y-131700000D01*
%TO.C,C12*%
X91969000Y-134070000D02*
X90711000Y-134070000D01*
X91969000Y-135910000D02*
X90711000Y-135910000D01*
%TO.C,C13*%
X91919000Y-131420000D02*
X90661000Y-131420000D01*
X91919000Y-133260000D02*
X90661000Y-133260000D01*
%TO.C,U2*%
X98020000Y-143070000D02*
X98020000Y-138429000D01*
X101289000Y-143070000D02*
X101289000Y-141560000D01*
X104990000Y-143070000D02*
X104990000Y-141560000D01*
X108260000Y-138429000D02*
X98020000Y-138429000D01*
X108260000Y-141560000D02*
X98020000Y-141560000D01*
X108260000Y-143070000D02*
X98020000Y-143070000D01*
X108260000Y-143070000D02*
X108260000Y-138429000D01*
%TO.C,U1*%
X118619000Y-133160000D02*
X118619000Y-143400000D01*
X121750000Y-133160000D02*
X121750000Y-143400000D01*
X123260000Y-133160000D02*
X118619000Y-133160000D01*
X123260000Y-133160000D02*
X123260000Y-143400000D01*
X123260000Y-136430000D02*
X121750000Y-136430000D01*
X123260000Y-140131000D02*
X121750000Y-140131000D01*
X123260000Y-143400000D02*
X118619000Y-143400000D01*
%TO.C,C5*%
X120511000Y-130910000D02*
X121769000Y-130910000D01*
X120511000Y-132750000D02*
X121769000Y-132750000D01*
%TO.C,C6*%
X119369000Y-143880000D02*
X118111000Y-143880000D01*
X119369000Y-145720000D02*
X118111000Y-145720000D01*
%TO.C,J10*%
X128040000Y-121100000D02*
X128040000Y-123600000D01*
X128340000Y-121400000D02*
X128340000Y-131620000D01*
X128340000Y-131620000D02*
X132360000Y-131620000D01*
X129840000Y-121400000D02*
X129840000Y-122400000D01*
X129840000Y-122400000D02*
X128340000Y-122400000D01*
X129840000Y-130620000D02*
X128340000Y-130620000D01*
X129840000Y-131620000D02*
X129840000Y-130620000D01*
X130540000Y-121100000D02*
X128040000Y-121100000D01*
X130650000Y-121400000D02*
X130650000Y-121900000D01*
X130650000Y-121900000D02*
X131860000Y-121900000D01*
X130650000Y-131120000D02*
X130650000Y-131620000D01*
X131860000Y-121900000D02*
X131860000Y-131120000D01*
X131860000Y-131120000D02*
X130650000Y-131120000D01*
X132360000Y-121400000D02*
X128340000Y-121400000D01*
X132360000Y-131620000D02*
X132360000Y-121400000D01*
%TO.C,J15*%
X115440000Y-147280000D02*
X115440000Y-149780000D01*
X115740000Y-147580000D02*
X115740000Y-155300000D01*
X115740000Y-155300000D02*
X119760000Y-155300000D01*
X117240000Y-147580000D02*
X117240000Y-148580000D01*
X117240000Y-148580000D02*
X115740000Y-148580000D01*
X117240000Y-154300000D02*
X115740000Y-154300000D01*
X117240000Y-155300000D02*
X117240000Y-154300000D01*
X117940000Y-147280000D02*
X115440000Y-147280000D01*
X118050000Y-147580000D02*
X118050000Y-148080000D01*
X118050000Y-148080000D02*
X119260000Y-148080000D01*
X118050000Y-154800000D02*
X118050000Y-155300000D01*
X119260000Y-148080000D02*
X119260000Y-154800000D01*
X119260000Y-154800000D02*
X118050000Y-154800000D01*
X119760000Y-147580000D02*
X115740000Y-147580000D01*
X119760000Y-155300000D02*
X119760000Y-147580000D01*
%TO.C,C11*%
X100580000Y-134660000D02*
G75*
G02*
X94040000Y-134660000I-3270000J0D01*
G01*
X94040000Y-134660000D02*
G75*
G02*
X100580000Y-134660000I3270000J0D01*
G01*
%TO.C,C4*%
X79280000Y-90151000D02*
X79280000Y-91409000D01*
X81120000Y-90151000D02*
X81120000Y-91409000D01*
%TO.C,J13*%
X121890000Y-81570000D02*
X123220000Y-81570000D01*
X121890000Y-82900000D02*
X121890000Y-81570000D01*
X121890000Y-84170000D02*
X121890000Y-129950000D01*
X121890000Y-84170000D02*
X124550000Y-84170000D01*
X121890000Y-129950000D02*
X124550000Y-129950000D01*
X124550000Y-84170000D02*
X124550000Y-129950000D01*
%TO.C,J9*%
X128200000Y-86220000D02*
X128200000Y-88720000D01*
X128500000Y-86520000D02*
X128500000Y-96740000D01*
X128500000Y-96740000D02*
X132520000Y-96740000D01*
X130000000Y-86520000D02*
X130000000Y-87520000D01*
X130000000Y-87520000D02*
X128500000Y-87520000D01*
X130000000Y-95740000D02*
X128500000Y-95740000D01*
X130000000Y-96740000D02*
X130000000Y-95740000D01*
X130700000Y-86220000D02*
X128200000Y-86220000D01*
X130810000Y-86520000D02*
X130810000Y-87020000D01*
X130810000Y-87020000D02*
X132020000Y-87020000D01*
X130810000Y-96240000D02*
X130810000Y-96740000D01*
X132020000Y-87020000D02*
X132020000Y-96240000D01*
X132020000Y-96240000D02*
X130810000Y-96240000D01*
X132520000Y-86520000D02*
X128500000Y-86520000D01*
X132520000Y-96740000D02*
X132520000Y-86520000D01*
%TO.C,C8*%
X94339000Y-138850000D02*
X93081000Y-138850000D01*
X94339000Y-140690000D02*
X93081000Y-140690000D01*
%TO.C,J20*%
X128040000Y-109450000D02*
X128040000Y-111950000D01*
X128340000Y-109750000D02*
X128340000Y-119970000D01*
X128340000Y-119970000D02*
X132360000Y-119970000D01*
X129840000Y-109750000D02*
X129840000Y-110750000D01*
X129840000Y-110750000D02*
X128340000Y-110750000D01*
X129840000Y-118970000D02*
X128340000Y-118970000D01*
X129840000Y-119970000D02*
X129840000Y-118970000D01*
X130540000Y-109450000D02*
X128040000Y-109450000D01*
X130650000Y-109750000D02*
X130650000Y-110250000D01*
X130650000Y-110250000D02*
X131860000Y-110250000D01*
X130650000Y-119470000D02*
X130650000Y-119970000D01*
X131860000Y-110250000D02*
X131860000Y-119470000D01*
X131860000Y-119470000D02*
X130650000Y-119470000D01*
X132360000Y-109750000D02*
X128340000Y-109750000D01*
X132360000Y-119970000D02*
X132360000Y-109750000D01*
%TO.C,J3*%
X108780000Y-167175000D02*
X108780000Y-167915000D01*
X108780000Y-167915000D02*
X109280000Y-167915000D01*
X109020000Y-157754000D02*
X109020000Y-167675000D01*
X109020000Y-157754000D02*
X119140000Y-157754000D01*
X109020000Y-160714000D02*
X119140000Y-160714000D01*
X109020000Y-165615000D02*
X119140000Y-165615000D01*
X109020000Y-167115000D02*
X119140000Y-167115000D01*
X109020000Y-167675000D02*
X119140000Y-167675000D01*
X115353000Y-164038000D02*
X115306000Y-164084000D01*
X115546000Y-164254000D02*
X115511000Y-164289000D01*
X117650000Y-161740000D02*
X117615000Y-161776000D01*
X117855000Y-161946000D02*
X117808000Y-161992000D01*
X119140000Y-157754000D02*
X119140000Y-167675000D01*
X110044574Y-163698042D02*
G75*
G02*
X110045001Y-162331001I1535419J683041D01*
G01*
X110896958Y-161479574D02*
G75*
G02*
X112263999Y-161480001I683041J-1535419D01*
G01*
X111608805Y-164695252D02*
G75*
G02*
X110896000Y-164549999I-28806J1680253D01*
G01*
X112263318Y-164549755D02*
G75*
G02*
X111580000Y-164694999I-683318J1534755D01*
G01*
X113115426Y-162331958D02*
G75*
G02*
X113115000Y-163699000I-1535426J-683042D01*
G01*
X118260000Y-163015000D02*
G75*
G02*
X114900000Y-163015000I-1680000J0D01*
G01*
X114900000Y-163015000D02*
G75*
G02*
X118260000Y-163015000I1680000J0D01*
G01*
%TO.C,J7*%
X124354000Y-144560000D02*
X134275000Y-144560000D01*
X124354000Y-159680000D02*
X124354000Y-144560000D01*
X124354000Y-159680000D02*
X134275000Y-159680000D01*
X127314000Y-159680000D02*
X127314000Y-144560000D01*
X128340000Y-146050000D02*
X128376000Y-146085000D01*
X128340000Y-151050000D02*
X128376000Y-151085000D01*
X128546000Y-145845000D02*
X128592000Y-145892000D01*
X128546000Y-150845000D02*
X128592000Y-150892000D01*
X130638000Y-148347000D02*
X130684000Y-148394000D01*
X130638000Y-153347000D02*
X130684000Y-153394000D01*
X130854000Y-148154000D02*
X130889000Y-148189000D01*
X130854000Y-153154000D02*
X130889000Y-153189000D01*
X132215000Y-159680000D02*
X132215000Y-144560000D01*
X133715000Y-159680000D02*
X133715000Y-144560000D01*
X133775000Y-159920000D02*
X134515000Y-159920000D01*
X134275000Y-159680000D02*
X134275000Y-144560000D01*
X134515000Y-159920000D02*
X134515000Y-159420000D01*
X128079574Y-157803042D02*
G75*
G02*
X128080001Y-156436001I1535419J683041D01*
G01*
X128931958Y-155584574D02*
G75*
G02*
X130299000Y-155585000I683042J-1535426D01*
G01*
X130298042Y-158655426D02*
G75*
G02*
X128931001Y-158654999I-683041J1535419D01*
G01*
X131149755Y-156436682D02*
G75*
G02*
X131294999Y-157120000I-1534755J-683318D01*
G01*
X131295252Y-157091195D02*
G75*
G02*
X131149999Y-157804000I-1680253J-28806D01*
G01*
X131295000Y-147120000D02*
G75*
G02*
X127935000Y-147120000I-1680000J0D01*
G01*
X127935000Y-147120000D02*
G75*
G02*
X131295000Y-147120000I1680000J0D01*
G01*
X131295000Y-152120000D02*
G75*
G02*
X127935000Y-152120000I-1680000J0D01*
G01*
X127935000Y-152120000D02*
G75*
G02*
X131295000Y-152120000I1680000J0D01*
G01*
%TO.C,J18*%
X96310000Y-167215000D02*
X96310000Y-167955000D01*
X96310000Y-167955000D02*
X96810000Y-167955000D01*
X96550000Y-157794000D02*
X96550000Y-167715000D01*
X96550000Y-157794000D02*
X106670000Y-157794000D01*
X96550000Y-160754000D02*
X106670000Y-160754000D01*
X96550000Y-165655000D02*
X106670000Y-165655000D01*
X96550000Y-167155000D02*
X106670000Y-167155000D01*
X96550000Y-167715000D02*
X106670000Y-167715000D01*
X102883000Y-164078000D02*
X102836000Y-164124000D01*
X103076000Y-164294000D02*
X103041000Y-164329000D01*
X105180000Y-161780000D02*
X105145000Y-161816000D01*
X105385000Y-161986000D02*
X105338000Y-162032000D01*
X106670000Y-157794000D02*
X106670000Y-167715000D01*
X97574574Y-163738042D02*
G75*
G02*
X97575001Y-162371001I1535419J683041D01*
G01*
X98426958Y-161519574D02*
G75*
G02*
X99793999Y-161520001I683041J-1535419D01*
G01*
X99138805Y-164735252D02*
G75*
G02*
X98426000Y-164589999I-28806J1680253D01*
G01*
X99793318Y-164589755D02*
G75*
G02*
X99110000Y-164734999I-683318J1534755D01*
G01*
X100645426Y-162371958D02*
G75*
G02*
X100645000Y-163739000I-1535426J-683042D01*
G01*
X105790000Y-163055000D02*
G75*
G02*
X102430000Y-163055000I-1680000J0D01*
G01*
X102430000Y-163055000D02*
G75*
G02*
X105790000Y-163055000I1680000J0D01*
G01*
%TO.C,J2*%
X91120000Y-127360000D02*
X91120000Y-81580000D01*
X91120000Y-129960000D02*
X91120000Y-128630000D01*
X92450000Y-129960000D02*
X91120000Y-129960000D01*
X93780000Y-81580000D02*
X91120000Y-81580000D01*
X93780000Y-127360000D02*
X91120000Y-127360000D01*
X93780000Y-127360000D02*
X93780000Y-81580000D01*
%TO.C,J17*%
X120170000Y-165480000D02*
X120170000Y-167980000D01*
X120170000Y-167980000D02*
X122670000Y-167980000D01*
X120470000Y-163660000D02*
X120470000Y-167680000D01*
X120470000Y-165370000D02*
X120970000Y-165370000D01*
X120470000Y-166180000D02*
X121470000Y-166180000D01*
X120470000Y-167680000D02*
X128190000Y-167680000D01*
X120970000Y-164160000D02*
X127690000Y-164160000D01*
X120970000Y-165370000D02*
X120970000Y-164160000D01*
X121470000Y-166180000D02*
X121470000Y-167680000D01*
X127190000Y-166180000D02*
X127190000Y-167680000D01*
X127690000Y-164160000D02*
X127690000Y-165370000D01*
X127690000Y-165370000D02*
X128190000Y-165370000D01*
X128190000Y-163660000D02*
X120470000Y-163660000D01*
X128190000Y-166180000D02*
X127190000Y-166180000D01*
X128190000Y-167680000D02*
X128190000Y-163660000D01*
%TO.C,J11*%
X127990000Y-132760000D02*
X127990000Y-135260000D01*
X128290000Y-133060000D02*
X128290000Y-143280000D01*
X128290000Y-143280000D02*
X132310000Y-143280000D01*
X129790000Y-133060000D02*
X129790000Y-134060000D01*
X129790000Y-134060000D02*
X128290000Y-134060000D01*
X129790000Y-142280000D02*
X128290000Y-142280000D01*
X129790000Y-143280000D02*
X129790000Y-142280000D01*
X130490000Y-132760000D02*
X127990000Y-132760000D01*
X130600000Y-133060000D02*
X130600000Y-133560000D01*
X130600000Y-133560000D02*
X131810000Y-133560000D01*
X130600000Y-142780000D02*
X130600000Y-143280000D01*
X131810000Y-133560000D02*
X131810000Y-142780000D01*
X131810000Y-142780000D02*
X130600000Y-142780000D01*
X132310000Y-133060000D02*
X128290000Y-133060000D01*
X132310000Y-143280000D02*
X132310000Y-133060000D01*
%TO.C,C10*%
X79020000Y-90720000D02*
G75*
G02*
X72480000Y-90720000I-3270000J0D01*
G01*
X72480000Y-90720000D02*
G75*
G02*
X79020000Y-90720000I3270000J0D01*
G01*
%TD*%
M02*
