%TF.GenerationSoftware,KiCad,Pcbnew,8.0.1*%
%TF.CreationDate,2025-03-07T04:44:00+02:00*%
%TF.ProjectId,ROBOSOCCER 3,524f424f-534f-4434-9345-5220332e6b69,rev?*%
%TF.SameCoordinates,Original*%
%TF.FileFunction,Copper,L2,Bot*%
%TF.FilePolarity,Positive*%
%FSLAX46Y46*%
G04 Gerber Fmt 4.6, Leading zero omitted, Abs format (unit mm)*
G04 Created by KiCad (PCBNEW 8.0.1) date 2025-03-07 04:44:00*
%MOMM*%
%LPD*%
G01*
G04 APERTURE LIST*
G04 Aperture macros list*
%AMRoundRect*
0 Rectangle with rounded corners*
0 $1 Rounding radius*
0 $2 $3 $4 $5 $6 $7 $8 $9 X,Y pos of 4 corners*
0 Add a 4 corners polygon primitive as box body*
4,1,4,$2,$3,$4,$5,$6,$7,$8,$9,$2,$3,0*
0 Add four circle primitives for the rounded corners*
1,1,$1+$1,$2,$3*
1,1,$1+$1,$4,$5*
1,1,$1+$1,$6,$7*
1,1,$1+$1,$8,$9*
0 Add four rect primitives between the rounded corners*
20,1,$1+$1,$2,$3,$4,$5,0*
20,1,$1+$1,$4,$5,$6,$7,0*
20,1,$1+$1,$6,$7,$8,$9,0*
20,1,$1+$1,$8,$9,$2,$3,0*%
G04 Aperture macros list end*
%TA.AperFunction,ComponentPad*%
%ADD10R,2.600000X2.600000*%
%TD*%
%TA.AperFunction,ComponentPad*%
%ADD11C,2.600000*%
%TD*%
%TA.AperFunction,ComponentPad*%
%ADD12RoundRect,0.250000X-0.750000X0.600000X-0.750000X-0.600000X0.750000X-0.600000X0.750000X0.600000X0*%
%TD*%
%TA.AperFunction,ComponentPad*%
%ADD13O,2.000000X1.700000*%
%TD*%
%TA.AperFunction,ComponentPad*%
%ADD14C,1.600000*%
%TD*%
%TA.AperFunction,ComponentPad*%
%ADD15C,1.800000*%
%TD*%
%TA.AperFunction,ComponentPad*%
%ADD16RoundRect,0.250000X-0.725000X0.600000X-0.725000X-0.600000X0.725000X-0.600000X0.725000X0.600000X0*%
%TD*%
%TA.AperFunction,ComponentPad*%
%ADD17O,1.950000X1.700000*%
%TD*%
%TA.AperFunction,ComponentPad*%
%ADD18RoundRect,0.250000X-0.600000X-0.750000X0.600000X-0.750000X0.600000X0.750000X-0.600000X0.750000X0*%
%TD*%
%TA.AperFunction,ComponentPad*%
%ADD19O,1.700000X2.000000*%
%TD*%
%TA.AperFunction,ComponentPad*%
%ADD20R,1.800000X1.800000*%
%TD*%
%TA.AperFunction,ComponentPad*%
%ADD21O,1.800000X1.800000*%
%TD*%
%TA.AperFunction,ComponentPad*%
%ADD22R,1.800000X1.700000*%
%TD*%
%TA.AperFunction,ComponentPad*%
%ADD23R,2.000000X1.905000*%
%TD*%
%TA.AperFunction,ComponentPad*%
%ADD24O,2.000000X1.905000*%
%TD*%
%TA.AperFunction,ComponentPad*%
%ADD25R,1.905000X2.000000*%
%TD*%
%TA.AperFunction,ComponentPad*%
%ADD26O,1.905000X2.000000*%
%TD*%
%TA.AperFunction,ViaPad*%
%ADD27C,1.400000*%
%TD*%
%TA.AperFunction,Conductor*%
%ADD28C,1.000000*%
%TD*%
%TA.AperFunction,Conductor*%
%ADD29C,2.000000*%
%TD*%
%TA.AperFunction,Conductor*%
%ADD30C,2.500000*%
%TD*%
%TA.AperFunction,Conductor*%
%ADD31C,1.500000*%
%TD*%
G04 APERTURE END LIST*
D10*
%TO.P,J4,1,Pin_1*%
%TO.N,12v*%
X78565000Y-158610000D03*
D11*
%TO.P,J4,2,Pin_2*%
%TO.N,GND*%
X78565000Y-153610000D03*
%TO.P,J4,3,Pin_3*%
%TO.N,5v-d2*%
X78565000Y-148610000D03*
%TD*%
D12*
%TO.P,J21,1,Pin_1*%
%TO.N,5v-d2*%
X89340000Y-151820000D03*
D13*
%TO.P,J21,2,Pin_2*%
%TO.N,GND*%
X89340000Y-154320000D03*
%TD*%
D14*
%TO.P,C7,1*%
%TO.N,12v*%
X105720000Y-136650000D03*
%TO.P,C7,2*%
%TO.N,GND*%
X103220000Y-136650000D03*
%TD*%
D15*
%TO.P,C9,1*%
%TO.N,3.3V*%
X82930000Y-89540000D03*
%TO.P,C9,2*%
%TO.N,GND*%
X82930000Y-92040000D03*
%TD*%
D14*
%TO.P,C1,1*%
%TO.N,12v*%
X92540000Y-144720000D03*
%TO.P,C1,2*%
%TO.N,GND*%
X92540000Y-142220000D03*
%TD*%
D16*
%TO.P,J8,1,Pin_1*%
%TO.N,19*%
X130840000Y-100800000D03*
D17*
%TO.P,J8,2,Pin_2*%
%TO.N,18*%
X130840000Y-103300000D03*
%TO.P,J8,3,Pin_3*%
%TO.N,5*%
X130840000Y-105800000D03*
%TD*%
D18*
%TO.P,J16,1,Pin_1*%
%TO.N,3.3V*%
X109270000Y-132620000D03*
D19*
%TO.P,J16,2,Pin_2*%
%TO.N,GND*%
X111770000Y-132620000D03*
%TD*%
D20*
%TO.P,J14,1,Pin_1*%
%TO.N,5v-ESP*%
X86120000Y-128680000D03*
D21*
%TO.P,J14,2,Pin_2*%
%TO.N,CMD*%
X86120000Y-126140000D03*
%TO.P,J14,3,Pin_3*%
%TO.N,SD3*%
X86120000Y-123600000D03*
%TO.P,J14,4,Pin_4*%
%TO.N,SD2*%
X86120000Y-121060000D03*
%TO.P,J14,5,Pin_5*%
%TO.N,13*%
X86120000Y-118520000D03*
%TO.P,J14,6,Pin_6*%
%TO.N,GND*%
X86120000Y-115980000D03*
%TO.P,J14,7,Pin_7*%
%TO.N,12*%
X86120000Y-113440000D03*
%TO.P,J14,8,Pin_8*%
%TO.N,14*%
X86120000Y-110900000D03*
%TO.P,J14,9,Pin_9*%
%TO.N,27*%
X86120000Y-108360000D03*
%TO.P,J14,10,Pin_10*%
%TO.N,26*%
X86120000Y-105820000D03*
%TO.P,J14,11,Pin_11*%
%TO.N,25*%
X86120000Y-103280000D03*
%TO.P,J14,12,Pin_12*%
%TO.N,33*%
X86120000Y-100740000D03*
%TO.P,J14,13,Pin_13*%
%TO.N,32*%
X86120000Y-98200000D03*
%TO.P,J14,14,Pin_14*%
%TO.N,35*%
X86120000Y-95660000D03*
%TO.P,J14,15,Pin_15*%
%TO.N,34*%
X86120000Y-93120000D03*
%TO.P,J14,16,Pin_16*%
%TO.N,39*%
X86120000Y-90580000D03*
%TO.P,J14,17,Pin_17*%
%TO.N,36*%
X86120000Y-88040000D03*
%TO.P,J14,18,Pin_18*%
%TO.N,EN*%
X86120000Y-85500000D03*
%TO.P,J14,19,Pin_19*%
%TO.N,3.3V*%
X86120000Y-82960000D03*
%TD*%
D22*
%TO.P,J1,1,Pin_1*%
%TO.N,GND*%
X117040000Y-82940000D03*
D21*
%TO.P,J1,2,Pin_2*%
%TO.N,23*%
X117040000Y-85480000D03*
%TO.P,J1,3,Pin_3*%
%TO.N,22*%
X117040000Y-88020000D03*
%TO.P,J1,4,Pin_4*%
%TO.N,TX*%
X117040000Y-90560000D03*
%TO.P,J1,5,Pin_5*%
%TO.N,RX*%
X117040000Y-93100000D03*
%TO.P,J1,6,Pin_6*%
%TO.N,21*%
X117040000Y-95640000D03*
%TO.P,J1,7,Pin_7*%
%TO.N,GND*%
X117040000Y-98180000D03*
%TO.P,J1,8,Pin_8*%
%TO.N,19*%
X117040000Y-100720000D03*
%TO.P,J1,9,Pin_9*%
%TO.N,18*%
X117040000Y-103260000D03*
%TO.P,J1,10,Pin_10*%
%TO.N,5*%
X117040000Y-105800000D03*
%TO.P,J1,11,Pin_11*%
%TO.N,17*%
X117040000Y-108340000D03*
%TO.P,J1,12,Pin_12*%
%TO.N,16*%
X117040000Y-110880000D03*
%TO.P,J1,13,Pin_13*%
%TO.N,4*%
X117040000Y-113420000D03*
%TO.P,J1,14,Pin_14*%
%TO.N,0*%
X117040000Y-115960000D03*
%TO.P,J1,15,Pin_15*%
%TO.N,2*%
X117040000Y-118500000D03*
%TO.P,J1,16,Pin_16*%
%TO.N,15*%
X117040000Y-121040000D03*
%TO.P,J1,17,Pin_17*%
%TO.N,SD1*%
X117040000Y-123580000D03*
%TO.P,J1,18,Pin_18*%
%TO.N,SD0*%
X117040000Y-126120000D03*
%TO.P,J1,19,Pin_19*%
%TO.N,CLK*%
X117040000Y-128660000D03*
%TD*%
D16*
%TO.P,J6,1,Pin_1*%
%TO.N,26*%
X77660000Y-110120000D03*
D17*
%TO.P,J6,2,Pin_2*%
%TO.N,27*%
X77660000Y-112620000D03*
%TO.P,J6,3,Pin_3*%
%TO.N,14*%
X77660000Y-115120000D03*
%TD*%
D16*
%TO.P,J19,1,Pin_1*%
%TO.N,12*%
X77580000Y-121970000D03*
D17*
%TO.P,J19,2,Pin_2*%
%TO.N,5v-3 4*%
X77580000Y-124470000D03*
%TO.P,J19,3,Pin_3*%
%TO.N,GND*%
X77580000Y-126970000D03*
%TD*%
D14*
%TO.P,C2,1*%
%TO.N,5v-3 4*%
X87550000Y-135020000D03*
%TO.P,C2,2*%
%TO.N,GND*%
X85050000Y-135020000D03*
%TD*%
D16*
%TO.P,J5,1,Pin_1*%
%TO.N,32*%
X77710000Y-98280000D03*
D17*
%TO.P,J5,2,Pin_2*%
%TO.N,33*%
X77710000Y-100780000D03*
%TO.P,J5,3,Pin_3*%
%TO.N,25*%
X77710000Y-103280000D03*
%TD*%
D23*
%TO.P,U3,1,IN*%
%TO.N,12v*%
X88750000Y-144750000D03*
D24*
%TO.P,U3,2,GND*%
%TO.N,GND*%
X88750000Y-142210000D03*
%TO.P,U3,3,OUT*%
%TO.N,5v-3 4*%
X88750000Y-139670000D03*
%TD*%
D16*
%TO.P,J12,1,Pin_1*%
%TO.N,13*%
X78020000Y-134310000D03*
D17*
%TO.P,J12,2,Pin_2*%
%TO.N,5v-3 4*%
X78020000Y-136810000D03*
%TO.P,J12,3,Pin_3*%
%TO.N,GND*%
X78020000Y-139310000D03*
%TD*%
D14*
%TO.P,C12,1*%
%TO.N,5v-ESP*%
X92590000Y-134990000D03*
%TO.P,C12,2*%
%TO.N,GND*%
X90090000Y-134990000D03*
%TD*%
%TO.P,C13,1*%
%TO.N,5v-ESP*%
X92540000Y-132340000D03*
%TO.P,C13,2*%
%TO.N,GND*%
X90040000Y-132340000D03*
%TD*%
D25*
%TO.P,U2,1,IN*%
%TO.N,12v*%
X105680000Y-139800000D03*
D26*
%TO.P,U2,2,GND*%
%TO.N,GND*%
X103140000Y-139800000D03*
%TO.P,U2,3,OUT*%
%TO.N,5v-ESP*%
X100600000Y-139800000D03*
%TD*%
D23*
%TO.P,U1,1,IN*%
%TO.N,12v*%
X119990000Y-135740000D03*
D24*
%TO.P,U1,2,GND*%
%TO.N,GND*%
X119990000Y-138280000D03*
%TO.P,U1,3,OUT*%
%TO.N,5v-1 2 5*%
X119990000Y-140820000D03*
%TD*%
D14*
%TO.P,C5,1*%
%TO.N,12v*%
X119890000Y-131830000D03*
%TO.P,C5,2*%
%TO.N,GND*%
X122390000Y-131830000D03*
%TD*%
%TO.P,C6,1*%
%TO.N,5v-1 2 5*%
X119990000Y-144800000D03*
%TO.P,C6,2*%
%TO.N,GND*%
X117490000Y-144800000D03*
%TD*%
D16*
%TO.P,J10,1,Pin_1*%
%TO.N,16*%
X130650000Y-124010000D03*
D17*
%TO.P,J10,2,Pin_2*%
%TO.N,5v-1 2 5*%
X130650000Y-126510000D03*
%TO.P,J10,3,Pin_3*%
%TO.N,GND*%
X130650000Y-129010000D03*
%TD*%
D12*
%TO.P,J15,1,Pin_1*%
%TO.N,5v-d1*%
X118050000Y-150190000D03*
D13*
%TO.P,J15,2,Pin_2*%
%TO.N,GND*%
X118050000Y-152690000D03*
%TD*%
D14*
%TO.P,C11,1*%
%TO.N,5v-ESP*%
X97310000Y-133410000D03*
%TO.P,C11,2*%
%TO.N,GND*%
X97310000Y-135910000D03*
%TD*%
D15*
%TO.P,C4,1*%
%TO.N,3.3V*%
X80200000Y-89530000D03*
%TO.P,C4,2*%
%TO.N,GND*%
X80200000Y-92030000D03*
%TD*%
D20*
%TO.P,J13,1,Pin_1*%
%TO.N,GND*%
X123220000Y-82900000D03*
D21*
%TO.P,J13,2,Pin_2*%
%TO.N,23*%
X123220000Y-85440000D03*
%TO.P,J13,3,Pin_3*%
%TO.N,22*%
X123220000Y-87980000D03*
%TO.P,J13,4,Pin_4*%
%TO.N,TX*%
X123220000Y-90520000D03*
%TO.P,J13,5,Pin_5*%
%TO.N,RX*%
X123220000Y-93060000D03*
%TO.P,J13,6,Pin_6*%
%TO.N,21*%
X123220000Y-95600000D03*
%TO.P,J13,7,Pin_7*%
%TO.N,GND*%
X123220000Y-98140000D03*
%TO.P,J13,8,Pin_8*%
%TO.N,19*%
X123220000Y-100680000D03*
%TO.P,J13,9,Pin_9*%
%TO.N,18*%
X123220000Y-103220000D03*
%TO.P,J13,10,Pin_10*%
%TO.N,5*%
X123220000Y-105760000D03*
%TO.P,J13,11,Pin_11*%
%TO.N,17*%
X123220000Y-108300000D03*
%TO.P,J13,12,Pin_12*%
%TO.N,16*%
X123220000Y-110840000D03*
%TO.P,J13,13,Pin_13*%
%TO.N,4*%
X123220000Y-113380000D03*
%TO.P,J13,14,Pin_14*%
%TO.N,0*%
X123220000Y-115920000D03*
%TO.P,J13,15,Pin_15*%
%TO.N,2*%
X123220000Y-118460000D03*
%TO.P,J13,16,Pin_16*%
%TO.N,15*%
X123220000Y-121000000D03*
%TO.P,J13,17,Pin_17*%
%TO.N,SD1*%
X123220000Y-123540000D03*
%TO.P,J13,18,Pin_18*%
%TO.N,SD0*%
X123220000Y-126080000D03*
%TO.P,J13,19,Pin_19*%
%TO.N,CLK*%
X123220000Y-128620000D03*
%TD*%
D16*
%TO.P,J9,1,Pin_1*%
%TO.N,23*%
X130810000Y-89130000D03*
D17*
%TO.P,J9,2,Pin_2*%
%TO.N,22*%
X130810000Y-91630000D03*
%TO.P,J9,3,Pin_3*%
%TO.N,21*%
X130810000Y-94130000D03*
%TD*%
D14*
%TO.P,C8,1*%
%TO.N,5v-ESP*%
X94960000Y-139770000D03*
%TO.P,C8,2*%
%TO.N,GND*%
X92460000Y-139770000D03*
%TD*%
D16*
%TO.P,J20,1,Pin_1*%
%TO.N,17*%
X130650000Y-112360000D03*
D17*
%TO.P,J20,2,Pin_2*%
%TO.N,5v-1 2 5*%
X130650000Y-114860000D03*
%TO.P,J20,3,Pin_3*%
%TO.N,GND*%
X130650000Y-117360000D03*
%TD*%
D10*
%TO.P,J3,1,Pin_1*%
%TO.N,12v*%
X111580000Y-163015000D03*
D11*
%TO.P,J3,2,Pin_2*%
%TO.N,GND*%
X116580000Y-163015000D03*
%TD*%
D10*
%TO.P,J7,1,Pin_1*%
%TO.N,12v*%
X129615000Y-157120000D03*
D11*
%TO.P,J7,2,Pin_2*%
%TO.N,GND*%
X129615000Y-152120000D03*
%TO.P,J7,3,Pin_3*%
%TO.N,5v-d1*%
X129615000Y-147120000D03*
%TD*%
D10*
%TO.P,J18,1,Pin_1*%
%TO.N,12v*%
X99110000Y-163055000D03*
D11*
%TO.P,J18,2,Pin_2*%
%TO.N,GND*%
X104110000Y-163055000D03*
%TD*%
D20*
%TO.P,J2,1,Pin_1*%
%TO.N,5v-ESP*%
X92450000Y-128630000D03*
D21*
%TO.P,J2,2,Pin_2*%
%TO.N,CMD*%
X92450000Y-126090000D03*
%TO.P,J2,3,Pin_3*%
%TO.N,SD3*%
X92450000Y-123550000D03*
%TO.P,J2,4,Pin_4*%
%TO.N,SD2*%
X92450000Y-121010000D03*
%TO.P,J2,5,Pin_5*%
%TO.N,13*%
X92450000Y-118470000D03*
%TO.P,J2,6,Pin_6*%
%TO.N,GND*%
X92450000Y-115930000D03*
%TO.P,J2,7,Pin_7*%
%TO.N,12*%
X92450000Y-113390000D03*
%TO.P,J2,8,Pin_8*%
%TO.N,14*%
X92450000Y-110850000D03*
%TO.P,J2,9,Pin_9*%
%TO.N,27*%
X92450000Y-108310000D03*
%TO.P,J2,10,Pin_10*%
%TO.N,26*%
X92450000Y-105770000D03*
%TO.P,J2,11,Pin_11*%
%TO.N,25*%
X92450000Y-103230000D03*
%TO.P,J2,12,Pin_12*%
%TO.N,33*%
X92450000Y-100690000D03*
%TO.P,J2,13,Pin_13*%
%TO.N,32*%
X92450000Y-98150000D03*
%TO.P,J2,14,Pin_14*%
%TO.N,35*%
X92450000Y-95610000D03*
%TO.P,J2,15,Pin_15*%
%TO.N,34*%
X92450000Y-93070000D03*
%TO.P,J2,16,Pin_16*%
%TO.N,39*%
X92450000Y-90530000D03*
%TO.P,J2,17,Pin_17*%
%TO.N,36*%
X92450000Y-87990000D03*
%TO.P,J2,18,Pin_18*%
%TO.N,EN*%
X92450000Y-85450000D03*
%TO.P,J2,19,Pin_19*%
%TO.N,3.3V*%
X92450000Y-82910000D03*
%TD*%
D18*
%TO.P,J17,1,Pin_1*%
%TO.N,12v*%
X123080000Y-165370000D03*
D19*
%TO.P,J17,2,Pin_2*%
%TO.N,GND*%
X125580000Y-165370000D03*
%TD*%
D16*
%TO.P,J11,1,Pin_1*%
%TO.N,4*%
X130600000Y-135670000D03*
D17*
%TO.P,J11,2,Pin_2*%
%TO.N,5v-1 2 5*%
X130600000Y-138170000D03*
%TO.P,J11,3,Pin_3*%
%TO.N,GND*%
X130600000Y-140670000D03*
%TD*%
D15*
%TO.P,C10,1*%
%TO.N,3.3V*%
X75750000Y-89470000D03*
%TO.P,C10,2*%
%TO.N,GND*%
X75750000Y-91970000D03*
%TD*%
D27*
%TO.N,5v-3 4*%
X73880000Y-136860000D03*
X73880000Y-124500000D03*
%TO.N,5v-1 2 5*%
X134070000Y-138170000D03*
X134070000Y-138170000D03*
X134090000Y-114820000D03*
X134060000Y-126530000D03*
%TD*%
D28*
%TO.N,GND*%
X92430000Y-115950000D02*
X86150000Y-115950000D01*
X117260000Y-82950000D02*
X123170000Y-82950000D01*
X92450000Y-115930000D02*
X92430000Y-115950000D01*
X123170000Y-98190000D02*
X123220000Y-98140000D01*
X123170000Y-82950000D02*
X123220000Y-82900000D01*
X117040000Y-98180000D02*
X117050000Y-98190000D01*
X117050000Y-98190000D02*
X123170000Y-98190000D01*
X86150000Y-115950000D02*
X86120000Y-115980000D01*
D29*
%TO.N,12v*%
X111580000Y-144720000D02*
X111580000Y-159970000D01*
D30*
X123070000Y-157120000D02*
X129615000Y-157120000D01*
D29*
X109870000Y-139800000D02*
X111580000Y-141510000D01*
X117350000Y-135740000D02*
X119990000Y-135740000D01*
X105720000Y-136650000D02*
X105720000Y-139760000D01*
D30*
X99200000Y-158610000D02*
X78565000Y-158610000D01*
D31*
X88750000Y-144750000D02*
X92510000Y-144750000D01*
D29*
X123080000Y-157130000D02*
X123070000Y-157120000D01*
D30*
X117760000Y-158610000D02*
X119250000Y-157120000D01*
X119250000Y-157120000D02*
X123070000Y-157120000D01*
D31*
X92510000Y-144750000D02*
X92540000Y-144720000D01*
D30*
X111580000Y-159970000D02*
X111580000Y-158670000D01*
D31*
X119890000Y-131830000D02*
X119890000Y-135640000D01*
D29*
X111580000Y-141510000D02*
X117350000Y-135740000D01*
D31*
X92540000Y-144720000D02*
X111580000Y-144720000D01*
D30*
X99110000Y-158700000D02*
X99200000Y-158610000D01*
D31*
X119890000Y-135640000D02*
X119990000Y-135740000D01*
D30*
X111580000Y-163015000D02*
X111580000Y-159970000D01*
X111520000Y-158610000D02*
X117760000Y-158610000D01*
D29*
X105720000Y-139760000D02*
X105680000Y-139800000D01*
D30*
X111520000Y-158610000D02*
X99200000Y-158610000D01*
D29*
X111580000Y-141510000D02*
X111580000Y-144720000D01*
X123080000Y-165370000D02*
X123080000Y-157130000D01*
D28*
X119800000Y-135550000D02*
X119990000Y-135740000D01*
D29*
X105680000Y-139800000D02*
X109870000Y-139800000D01*
D30*
X111580000Y-158670000D02*
X111520000Y-158610000D01*
X99110000Y-163055000D02*
X99110000Y-158700000D01*
D28*
%TO.N,3.3V*%
X93700000Y-82910000D02*
X101790000Y-91000000D01*
X92450000Y-82910000D02*
X93700000Y-82910000D01*
X101790000Y-91000000D02*
X101790000Y-118160000D01*
X86120000Y-82960000D02*
X83870000Y-82960000D01*
X83870000Y-82960000D02*
X82930000Y-83900000D01*
X82930000Y-83900000D02*
X82930000Y-89540000D01*
X92400000Y-82960000D02*
X92450000Y-82910000D01*
X80140000Y-89470000D02*
X75750000Y-89470000D01*
X86120000Y-82960000D02*
X92400000Y-82960000D01*
X109290000Y-132600000D02*
X109270000Y-132620000D01*
X82930000Y-89540000D02*
X80210000Y-89540000D01*
X80200000Y-89530000D02*
X80140000Y-89470000D01*
X109290000Y-125660000D02*
X109290000Y-132600000D01*
X101790000Y-118160000D02*
X109290000Y-125660000D01*
X80210000Y-89540000D02*
X80200000Y-89530000D01*
%TO.N,18*%
X117040000Y-103260000D02*
X117050000Y-103270000D01*
X117050000Y-103270000D02*
X123170000Y-103270000D01*
X130840000Y-103300000D02*
X123300000Y-103300000D01*
X123170000Y-103270000D02*
X123220000Y-103220000D01*
X123300000Y-103300000D02*
X123220000Y-103220000D01*
%TO.N,2*%
X123170000Y-118510000D02*
X123220000Y-118460000D01*
X117040000Y-118500000D02*
X117050000Y-118510000D01*
X117050000Y-118510000D02*
X123170000Y-118510000D01*
%TO.N,RX*%
X117050000Y-93110000D02*
X123170000Y-93110000D01*
X117040000Y-93100000D02*
X117050000Y-93110000D01*
X123170000Y-93110000D02*
X123220000Y-93060000D01*
%TO.N,21*%
X117040000Y-95640000D02*
X117050000Y-95650000D01*
X130810000Y-94130000D02*
X127650000Y-94130000D01*
X127650000Y-94130000D02*
X126180000Y-95600000D01*
X123170000Y-95650000D02*
X123220000Y-95600000D01*
X117050000Y-95650000D02*
X123170000Y-95650000D01*
X126180000Y-95600000D02*
X123220000Y-95600000D01*
%TO.N,TX*%
X117050000Y-90570000D02*
X123170000Y-90570000D01*
X123170000Y-90570000D02*
X123220000Y-90520000D01*
X117040000Y-90560000D02*
X117050000Y-90570000D01*
%TO.N,SD1*%
X117260000Y-123590000D02*
X123170000Y-123590000D01*
X123170000Y-123590000D02*
X123220000Y-123540000D01*
%TO.N,0*%
X117050000Y-115970000D02*
X123170000Y-115970000D01*
X117040000Y-115960000D02*
X117050000Y-115970000D01*
X123170000Y-115970000D02*
X123220000Y-115920000D01*
%TO.N,SD0*%
X117040000Y-126120000D02*
X117050000Y-126130000D01*
X123170000Y-126130000D02*
X123220000Y-126080000D01*
X117050000Y-126130000D02*
X123170000Y-126130000D01*
%TO.N,22*%
X117080000Y-87980000D02*
X117040000Y-88020000D01*
X128700000Y-91630000D02*
X130810000Y-91630000D01*
X117040000Y-88020000D02*
X117050000Y-88030000D01*
X123220000Y-87980000D02*
X125050000Y-87980000D01*
X125050000Y-87980000D02*
X128700000Y-91630000D01*
X117050000Y-88030000D02*
X117260000Y-88030000D01*
X123220000Y-87980000D02*
X117080000Y-87980000D01*
%TO.N,4*%
X124660000Y-113380000D02*
X123220000Y-113380000D01*
X126270000Y-114990000D02*
X124660000Y-113380000D01*
X123170000Y-113430000D02*
X123220000Y-113380000D01*
X126270000Y-131340000D02*
X126270000Y-114990000D01*
X117050000Y-113430000D02*
X123170000Y-113430000D01*
X130600000Y-135670000D02*
X126270000Y-131340000D01*
X117040000Y-113420000D02*
X117050000Y-113430000D01*
%TO.N,15*%
X123170000Y-121050000D02*
X123220000Y-121000000D01*
X117040000Y-121040000D02*
X117050000Y-121050000D01*
X117050000Y-121050000D02*
X123170000Y-121050000D01*
%TO.N,5*%
X123260000Y-105800000D02*
X123220000Y-105760000D01*
X117040000Y-105800000D02*
X117050000Y-105810000D01*
X130840000Y-105800000D02*
X123260000Y-105800000D01*
X117050000Y-105810000D02*
X123170000Y-105810000D01*
X123170000Y-105810000D02*
X123220000Y-105760000D01*
%TO.N,17*%
X126590000Y-108300000D02*
X123220000Y-108300000D01*
X130650000Y-112360000D02*
X126590000Y-108300000D01*
X117040000Y-108340000D02*
X117050000Y-108350000D01*
X117050000Y-108350000D02*
X117260000Y-108350000D01*
X123220000Y-108300000D02*
X117080000Y-108300000D01*
X117080000Y-108300000D02*
X117040000Y-108340000D01*
%TO.N,CLK*%
X117040000Y-128660000D02*
X117050000Y-128670000D01*
X123170000Y-128670000D02*
X123220000Y-128620000D01*
X117050000Y-128670000D02*
X123170000Y-128670000D01*
%TO.N,19*%
X117040000Y-100720000D02*
X117050000Y-100730000D01*
X123170000Y-100730000D02*
X123220000Y-100680000D01*
X117050000Y-100730000D02*
X123170000Y-100730000D01*
X130840000Y-100800000D02*
X123340000Y-100800000D01*
X123340000Y-100800000D02*
X123220000Y-100680000D01*
%TO.N,16*%
X123170000Y-110890000D02*
X123220000Y-110840000D01*
X117050000Y-110890000D02*
X123170000Y-110890000D01*
X126030000Y-110840000D02*
X123220000Y-110840000D01*
X127820000Y-121180000D02*
X127820000Y-112630000D01*
X117040000Y-110880000D02*
X117050000Y-110890000D01*
X127820000Y-112630000D02*
X126030000Y-110840000D01*
X130650000Y-124010000D02*
X127820000Y-121180000D01*
%TO.N,14*%
X79960000Y-115120000D02*
X77660000Y-115120000D01*
X86120000Y-110900000D02*
X84180000Y-110900000D01*
X84180000Y-110900000D02*
X79960000Y-115120000D01*
X92190000Y-110900000D02*
X92160000Y-110870000D01*
X86120000Y-110900000D02*
X92190000Y-110900000D01*
%TO.N,SD2*%
X92190000Y-121060000D02*
X92160000Y-121030000D01*
X86120000Y-121060000D02*
X92190000Y-121060000D01*
%TO.N,26*%
X77660000Y-110120000D02*
X78980000Y-110120000D01*
X78980000Y-110120000D02*
X83280000Y-105820000D01*
X86120000Y-105820000D02*
X92190000Y-105820000D01*
X92190000Y-105820000D02*
X92160000Y-105790000D01*
X83280000Y-105820000D02*
X86120000Y-105820000D01*
%TO.N,33*%
X77750000Y-100740000D02*
X77710000Y-100780000D01*
X86120000Y-100740000D02*
X92190000Y-100740000D01*
X92190000Y-100740000D02*
X92160000Y-100710000D01*
X86120000Y-100740000D02*
X77750000Y-100740000D01*
%TO.N,32*%
X86120000Y-98200000D02*
X92190000Y-98200000D01*
X85120000Y-98260000D02*
X77730000Y-98260000D01*
X85180000Y-98200000D02*
X85120000Y-98260000D01*
X92190000Y-98200000D02*
X92160000Y-98170000D01*
X86120000Y-98200000D02*
X85180000Y-98200000D01*
X77730000Y-98260000D02*
X77710000Y-98280000D01*
%TO.N,CMD*%
X86120000Y-126140000D02*
X92190000Y-126140000D01*
X92190000Y-126140000D02*
X92160000Y-126110000D01*
%TO.N,25*%
X86120000Y-103280000D02*
X92190000Y-103280000D01*
X92190000Y-103280000D02*
X92160000Y-103250000D01*
X86120000Y-103280000D02*
X77710000Y-103280000D01*
%TO.N,13*%
X80820000Y-132680000D02*
X80820000Y-122280000D01*
X80820000Y-122280000D02*
X84580000Y-118520000D01*
X86120000Y-118520000D02*
X92190000Y-118520000D01*
X79190000Y-134310000D02*
X80820000Y-132680000D01*
X78020000Y-134310000D02*
X79190000Y-134310000D01*
X92190000Y-118520000D02*
X92160000Y-118490000D01*
X84580000Y-118520000D02*
X86120000Y-118520000D01*
%TO.N,27*%
X92190000Y-108360000D02*
X92160000Y-108330000D01*
X86120000Y-108360000D02*
X83540000Y-108360000D01*
X79280000Y-112620000D02*
X77660000Y-112620000D01*
X86120000Y-108360000D02*
X92190000Y-108360000D01*
X83540000Y-108360000D02*
X79280000Y-112620000D01*
%TO.N,35*%
X86120000Y-95660000D02*
X92190000Y-95660000D01*
X92190000Y-95660000D02*
X92160000Y-95630000D01*
%TO.N,39*%
X92190000Y-90580000D02*
X92160000Y-90550000D01*
X86120000Y-90580000D02*
X92190000Y-90580000D01*
%TO.N,EN*%
X92450000Y-85450000D02*
X92430000Y-85470000D01*
X92430000Y-85470000D02*
X86150000Y-85470000D01*
X86150000Y-85470000D02*
X86120000Y-85500000D01*
%TO.N,34*%
X92190000Y-93120000D02*
X92160000Y-93090000D01*
X86120000Y-93120000D02*
X92190000Y-93120000D01*
%TO.N,12*%
X82380000Y-117930000D02*
X82380000Y-115500000D01*
X77580000Y-121970000D02*
X78340000Y-121970000D01*
X82380000Y-115500000D02*
X84440000Y-113440000D01*
X84440000Y-113440000D02*
X86120000Y-113440000D01*
X86120000Y-113440000D02*
X92190000Y-113440000D01*
X78340000Y-121970000D02*
X82380000Y-117930000D01*
X92190000Y-113440000D02*
X92160000Y-113410000D01*
%TO.N,36*%
X86120000Y-88040000D02*
X92190000Y-88040000D01*
X92190000Y-88040000D02*
X92160000Y-88010000D01*
%TO.N,SD3*%
X92190000Y-123600000D02*
X92160000Y-123570000D01*
X86120000Y-123600000D02*
X92190000Y-123600000D01*
%TO.N,23*%
X129180000Y-89130000D02*
X125490000Y-85440000D01*
X117040000Y-85480000D02*
X117050000Y-85490000D01*
X123220000Y-85440000D02*
X117080000Y-85440000D01*
X117080000Y-85440000D02*
X117040000Y-85480000D01*
X117050000Y-85490000D02*
X117260000Y-85490000D01*
X130810000Y-89130000D02*
X129180000Y-89130000D01*
X125490000Y-85440000D02*
X123220000Y-85440000D01*
%TO.N,5v-ESP*%
X92560000Y-132360000D02*
X92540000Y-132340000D01*
X93720000Y-132340000D02*
X94790000Y-133410000D01*
X86120000Y-128680000D02*
X92400000Y-128680000D01*
X92190000Y-128680000D02*
X92160000Y-128650000D01*
X94790000Y-133410000D02*
X97310000Y-133410000D01*
X92590000Y-136340000D02*
X92590000Y-134990000D01*
X92450000Y-132250000D02*
X92540000Y-132340000D01*
X94990000Y-139800000D02*
X94960000Y-139770000D01*
X94960000Y-139770000D02*
X94960000Y-138710000D01*
X100600000Y-139800000D02*
X94990000Y-139800000D01*
X92540000Y-132340000D02*
X92540000Y-134940000D01*
X92400000Y-128680000D02*
X92450000Y-128630000D01*
X92540000Y-132340000D02*
X93720000Y-132340000D01*
X100540000Y-139860000D02*
X100600000Y-139800000D01*
X92540000Y-134940000D02*
X92590000Y-134990000D01*
X92450000Y-128630000D02*
X92450000Y-132250000D01*
X94960000Y-138710000D02*
X92590000Y-136340000D01*
D31*
%TO.N,5v-3 4*%
X73880000Y-136860000D02*
X77970000Y-136860000D01*
D29*
X82260000Y-136810000D02*
X85120000Y-139670000D01*
X78020000Y-136810000D02*
X82260000Y-136810000D01*
D28*
X87550000Y-136640000D02*
X88750000Y-137840000D01*
D31*
X77580000Y-124470000D02*
X73910000Y-124470000D01*
D29*
X85120000Y-139670000D02*
X88750000Y-139670000D01*
D28*
X88750000Y-137840000D02*
X88750000Y-139670000D01*
X87550000Y-135020000D02*
X87550000Y-136640000D01*
D31*
%TO.N,5v-1 2 5*%
X134060000Y-126530000D02*
X130670000Y-126530000D01*
X134070000Y-138170000D02*
X130600000Y-138170000D01*
X130670000Y-126530000D02*
X130650000Y-126510000D01*
X134050000Y-114860000D02*
X134090000Y-114820000D01*
X119990000Y-140820000D02*
X119990000Y-144800000D01*
X119990000Y-140820000D02*
X124060000Y-140820000D01*
X124060000Y-140820000D02*
X126710000Y-138170000D01*
X130650000Y-114860000D02*
X134050000Y-114860000D01*
X126710000Y-138170000D02*
X130600000Y-138170000D01*
X134070000Y-138170000D02*
X134060000Y-138160000D01*
D29*
%TO.N,5v-d1*%
X118070000Y-150210000D02*
X126525000Y-150210000D01*
X126525000Y-150210000D02*
X129615000Y-147120000D01*
X118050000Y-150190000D02*
X118070000Y-150210000D01*
%TO.N,5v-d2*%
X78565000Y-148610000D02*
X82920000Y-148610000D01*
X86130000Y-151820000D02*
X89340000Y-151820000D01*
X82920000Y-148610000D02*
X86130000Y-151820000D01*
%TD*%
%TA.AperFunction,Conductor*%
%TO.N,GND*%
G36*
X136052539Y-80870185D02*
G01*
X136098294Y-80922989D01*
X136109500Y-80974500D01*
X136109500Y-168355500D01*
X136089815Y-168422539D01*
X136037011Y-168468294D01*
X135985500Y-168479500D01*
X72304500Y-168479500D01*
X72237461Y-168459815D01*
X72191706Y-168407011D01*
X72180500Y-168355500D01*
X72180500Y-165201288D01*
X74869500Y-165201288D01*
X74901161Y-165441785D01*
X74963947Y-165676104D01*
X74984658Y-165726104D01*
X75056776Y-165900212D01*
X75178064Y-166110289D01*
X75178066Y-166110292D01*
X75178067Y-166110293D01*
X75325733Y-166302736D01*
X75325739Y-166302743D01*
X75497256Y-166474260D01*
X75497262Y-166474265D01*
X75689711Y-166621936D01*
X75899788Y-166743224D01*
X76123900Y-166836054D01*
X76358211Y-166898838D01*
X76538586Y-166922584D01*
X76598711Y-166930500D01*
X76598712Y-166930500D01*
X76841289Y-166930500D01*
X76889388Y-166924167D01*
X77081789Y-166898838D01*
X77316100Y-166836054D01*
X77540212Y-166743224D01*
X77750289Y-166621936D01*
X77942738Y-166474265D01*
X78114265Y-166302738D01*
X78261936Y-166110289D01*
X78383224Y-165900212D01*
X78476054Y-165676100D01*
X78538838Y-165441789D01*
X78570500Y-165201288D01*
X78570500Y-164958712D01*
X78538838Y-164718211D01*
X78476054Y-164483900D01*
X78383224Y-164259788D01*
X78261936Y-164049711D01*
X78114265Y-163857262D01*
X78114260Y-163857256D01*
X77942743Y-163685739D01*
X77942736Y-163685733D01*
X77750293Y-163538067D01*
X77750292Y-163538066D01*
X77750289Y-163538064D01*
X77540212Y-163416776D01*
X77540205Y-163416773D01*
X77316104Y-163323947D01*
X77081785Y-163261161D01*
X76841289Y-163229500D01*
X76841288Y-163229500D01*
X76598712Y-163229500D01*
X76598711Y-163229500D01*
X76358214Y-163261161D01*
X76123895Y-163323947D01*
X75899794Y-163416773D01*
X75899785Y-163416777D01*
X75689706Y-163538067D01*
X75497263Y-163685733D01*
X75497256Y-163685739D01*
X75325739Y-163857256D01*
X75325733Y-163857263D01*
X75178067Y-164049706D01*
X75056777Y-164259785D01*
X75056773Y-164259794D01*
X74963947Y-164483895D01*
X74901161Y-164718214D01*
X74869500Y-164958711D01*
X74869500Y-165201288D01*
X72180500Y-165201288D01*
X72180500Y-159957870D01*
X76764500Y-159957870D01*
X76764501Y-159957874D01*
X76770908Y-160017483D01*
X76821202Y-160152328D01*
X76821206Y-160152335D01*
X76907452Y-160267544D01*
X76907455Y-160267547D01*
X77022664Y-160353793D01*
X77022671Y-160353797D01*
X77157517Y-160404091D01*
X77157516Y-160404091D01*
X77164444Y-160404835D01*
X77217127Y-160410500D01*
X79912872Y-160410499D01*
X79972483Y-160404091D01*
X80068396Y-160368318D01*
X80111729Y-160360500D01*
X97235500Y-160360500D01*
X97302539Y-160380185D01*
X97348294Y-160432989D01*
X97359500Y-160484500D01*
X97359500Y-161508271D01*
X97351682Y-161551604D01*
X97315908Y-161647517D01*
X97309501Y-161707116D01*
X97309501Y-161707123D01*
X97309500Y-161707135D01*
X97309500Y-164402870D01*
X97309501Y-164402876D01*
X97315908Y-164462483D01*
X97366202Y-164597328D01*
X97366206Y-164597335D01*
X97452452Y-164712544D01*
X97452455Y-164712547D01*
X97567664Y-164798793D01*
X97567671Y-164798797D01*
X97702517Y-164849091D01*
X97702516Y-164849091D01*
X97709444Y-164849835D01*
X97762127Y-164855500D01*
X100457872Y-164855499D01*
X100517483Y-164849091D01*
X100652331Y-164798796D01*
X100767546Y-164712546D01*
X100853796Y-164597331D01*
X100904091Y-164462483D01*
X100910500Y-164402873D01*
X100910499Y-161707128D01*
X100904091Y-161647517D01*
X100868318Y-161551604D01*
X100860500Y-161508271D01*
X100860500Y-160484500D01*
X100880185Y-160417461D01*
X100932989Y-160371706D01*
X100984500Y-160360500D01*
X109705500Y-160360500D01*
X109772539Y-160380185D01*
X109818294Y-160432989D01*
X109829500Y-160484500D01*
X109829500Y-161468271D01*
X109821682Y-161511604D01*
X109785908Y-161607517D01*
X109781608Y-161647516D01*
X109779501Y-161667123D01*
X109779500Y-161667135D01*
X109779500Y-164362870D01*
X109779501Y-164362876D01*
X109785908Y-164422483D01*
X109836202Y-164557328D01*
X109836206Y-164557335D01*
X109922452Y-164672544D01*
X109922455Y-164672547D01*
X110037664Y-164758793D01*
X110037671Y-164758797D01*
X110172517Y-164809091D01*
X110172516Y-164809091D01*
X110179444Y-164809835D01*
X110232127Y-164815500D01*
X112927872Y-164815499D01*
X112987483Y-164809091D01*
X113122331Y-164758796D01*
X113237546Y-164672546D01*
X113323796Y-164557331D01*
X113374091Y-164422483D01*
X113380500Y-164362873D01*
X113380499Y-161667128D01*
X113374091Y-161607517D01*
X113338318Y-161511604D01*
X113330500Y-161468271D01*
X113330500Y-160484500D01*
X113350185Y-160417461D01*
X113402989Y-160371706D01*
X113454500Y-160360500D01*
X117874727Y-160360500D01*
X117874734Y-160360500D01*
X118097605Y-160331158D01*
X118097605Y-160331163D01*
X118097625Y-160331155D01*
X118102239Y-160330548D01*
X118323887Y-160271158D01*
X118535888Y-160183344D01*
X118734612Y-160068611D01*
X118801243Y-160017483D01*
X118878928Y-159957874D01*
X118900277Y-159941490D01*
X118916661Y-159928920D01*
X119938761Y-158906818D01*
X120000084Y-158873334D01*
X120026442Y-158870500D01*
X121455500Y-158870500D01*
X121522539Y-158890185D01*
X121568294Y-158942989D01*
X121579500Y-158994500D01*
X121579500Y-165488097D01*
X121616447Y-165721369D01*
X121616447Y-165721372D01*
X121689430Y-165945988D01*
X121689430Y-165945989D01*
X121715985Y-165998106D01*
X121729500Y-166054399D01*
X121729500Y-166170000D01*
X121729501Y-166170019D01*
X121740000Y-166272796D01*
X121740001Y-166272799D01*
X121795185Y-166439331D01*
X121795186Y-166439334D01*
X121887288Y-166588656D01*
X122011344Y-166712712D01*
X122160666Y-166804814D01*
X122327203Y-166859999D01*
X122429991Y-166870500D01*
X122951905Y-166870499D01*
X122951919Y-166870500D01*
X122961908Y-166870500D01*
X123208082Y-166870500D01*
X123208094Y-166870499D01*
X123730002Y-166870499D01*
X123730008Y-166870499D01*
X123832797Y-166859999D01*
X123999334Y-166804814D01*
X124148656Y-166712712D01*
X124272712Y-166588656D01*
X124364814Y-166439334D01*
X124419999Y-166272797D01*
X124430500Y-166170009D01*
X124430499Y-166054399D01*
X124444014Y-165998105D01*
X124470568Y-165945992D01*
X124543553Y-165721368D01*
X124550723Y-165676100D01*
X124580500Y-165488097D01*
X124580500Y-165251288D01*
X130919500Y-165251288D01*
X130951161Y-165491785D01*
X131013947Y-165726104D01*
X131086062Y-165900205D01*
X131106776Y-165950212D01*
X131228064Y-166160289D01*
X131228066Y-166160292D01*
X131228067Y-166160293D01*
X131375733Y-166352736D01*
X131375739Y-166352743D01*
X131547256Y-166524260D01*
X131547262Y-166524265D01*
X131739711Y-166671936D01*
X131949788Y-166793224D01*
X132173900Y-166886054D01*
X132408211Y-166948838D01*
X132588586Y-166972584D01*
X132648711Y-166980500D01*
X132648712Y-166980500D01*
X132891289Y-166980500D01*
X132939388Y-166974167D01*
X133131789Y-166948838D01*
X133366100Y-166886054D01*
X133590212Y-166793224D01*
X133800289Y-166671936D01*
X133992738Y-166524265D01*
X134164265Y-166352738D01*
X134311936Y-166160289D01*
X134433224Y-165950212D01*
X134526054Y-165726100D01*
X134588838Y-165491789D01*
X134620500Y-165251288D01*
X134620500Y-165008712D01*
X134613917Y-164958712D01*
X134612584Y-164948586D01*
X134588838Y-164768211D01*
X134526054Y-164533900D01*
X134433224Y-164309788D01*
X134311936Y-164099711D01*
X134164265Y-163907262D01*
X134164260Y-163907256D01*
X133992743Y-163735739D01*
X133992736Y-163735733D01*
X133800293Y-163588067D01*
X133800292Y-163588066D01*
X133800289Y-163588064D01*
X133590212Y-163466776D01*
X133590205Y-163466773D01*
X133366104Y-163373947D01*
X133131785Y-163311161D01*
X132891289Y-163279500D01*
X132891288Y-163279500D01*
X132648712Y-163279500D01*
X132648711Y-163279500D01*
X132408214Y-163311161D01*
X132173895Y-163373947D01*
X131949794Y-163466773D01*
X131949785Y-163466777D01*
X131739706Y-163588067D01*
X131547263Y-163735733D01*
X131547256Y-163735739D01*
X131375739Y-163907256D01*
X131375733Y-163907263D01*
X131228067Y-164099706D01*
X131106777Y-164309785D01*
X131106773Y-164309794D01*
X131013947Y-164533895D01*
X130951161Y-164768214D01*
X130919500Y-165008711D01*
X130919500Y-165251288D01*
X124580500Y-165251288D01*
X124580500Y-158994500D01*
X124600185Y-158927461D01*
X124652989Y-158881706D01*
X124704500Y-158870500D01*
X128068271Y-158870500D01*
X128111604Y-158878318D01*
X128207517Y-158914091D01*
X128207516Y-158914091D01*
X128214444Y-158914835D01*
X128267127Y-158920500D01*
X130962872Y-158920499D01*
X131022483Y-158914091D01*
X131157331Y-158863796D01*
X131272546Y-158777546D01*
X131358796Y-158662331D01*
X131409091Y-158527483D01*
X131415500Y-158467873D01*
X131415499Y-155772128D01*
X131409091Y-155712517D01*
X131358796Y-155577669D01*
X131358795Y-155577668D01*
X131358793Y-155577664D01*
X131272547Y-155462455D01*
X131272544Y-155462452D01*
X131157335Y-155376206D01*
X131157328Y-155376202D01*
X131022482Y-155325908D01*
X131022483Y-155325908D01*
X130962883Y-155319501D01*
X130962881Y-155319500D01*
X130962873Y-155319500D01*
X130962864Y-155319500D01*
X128267129Y-155319500D01*
X128267123Y-155319501D01*
X128207516Y-155325908D01*
X128111604Y-155361682D01*
X128068271Y-155369500D01*
X123184734Y-155369500D01*
X119135266Y-155369500D01*
X119135260Y-155369500D01*
X119135255Y-155369501D01*
X118934228Y-155395966D01*
X118934228Y-155395967D01*
X118930215Y-155396495D01*
X118907763Y-155399451D01*
X118686112Y-155458842D01*
X118474123Y-155546650D01*
X118474108Y-155546657D01*
X118275388Y-155661388D01*
X118131072Y-155772125D01*
X118131073Y-155772126D01*
X118093334Y-155801085D01*
X117071238Y-156823181D01*
X117009915Y-156856666D01*
X116983557Y-156859500D01*
X113204500Y-156859500D01*
X113137461Y-156839815D01*
X113091706Y-156787011D01*
X113080500Y-156735500D01*
X113080500Y-150840001D01*
X116549500Y-150840001D01*
X116549501Y-150840019D01*
X116560000Y-150942796D01*
X116560001Y-150942799D01*
X116601224Y-151067200D01*
X116615186Y-151109334D01*
X116707288Y-151258656D01*
X116831344Y-151382712D01*
X116980666Y-151474814D01*
X117147203Y-151529999D01*
X117249991Y-151540500D01*
X117346346Y-151540499D01*
X117402640Y-151554013D01*
X117494008Y-151600568D01*
X117674393Y-151659179D01*
X117718631Y-151673553D01*
X117951903Y-151710500D01*
X117951908Y-151710500D01*
X126643097Y-151710500D01*
X126876368Y-151673553D01*
X127100992Y-151600568D01*
X127311434Y-151493343D01*
X127502510Y-151354517D01*
X129940791Y-148916234D01*
X130002112Y-148882751D01*
X130009994Y-148881301D01*
X130016772Y-148880280D01*
X130274641Y-148800738D01*
X130469984Y-148706666D01*
X130517767Y-148683655D01*
X130517767Y-148683654D01*
X130517775Y-148683651D01*
X130740741Y-148531635D01*
X130938561Y-148348085D01*
X131106815Y-148137102D01*
X131241743Y-147903398D01*
X131340334Y-147652195D01*
X131400383Y-147389103D01*
X131413098Y-147219432D01*
X131420549Y-147120004D01*
X131420549Y-147119995D01*
X131400383Y-146850898D01*
X131340335Y-146587811D01*
X131340334Y-146587805D01*
X131241743Y-146336602D01*
X131106815Y-146102898D01*
X130938561Y-145891915D01*
X130938560Y-145891914D01*
X130938557Y-145891910D01*
X130740741Y-145708365D01*
X130639205Y-145639139D01*
X130517775Y-145556349D01*
X130517769Y-145556346D01*
X130517768Y-145556345D01*
X130517767Y-145556344D01*
X130274643Y-145439263D01*
X130274645Y-145439263D01*
X130016773Y-145359720D01*
X130016767Y-145359718D01*
X129749936Y-145319500D01*
X129749929Y-145319500D01*
X129480071Y-145319500D01*
X129480063Y-145319500D01*
X129213232Y-145359718D01*
X129213226Y-145359720D01*
X128955358Y-145439262D01*
X128712230Y-145556346D01*
X128489258Y-145708365D01*
X128291442Y-145891910D01*
X128123185Y-146102898D01*
X127988258Y-146336599D01*
X127988256Y-146336603D01*
X127889667Y-146587801D01*
X127857540Y-146728554D01*
X127824330Y-146788641D01*
X125939792Y-148673181D01*
X125878469Y-148706666D01*
X125852111Y-148709500D01*
X118304125Y-148709500D01*
X118284727Y-148707973D01*
X118264736Y-148704806D01*
X118168096Y-148689500D01*
X118168092Y-148689500D01*
X117931908Y-148689500D01*
X117931903Y-148689500D01*
X117698630Y-148726447D01*
X117698627Y-148726447D01*
X117474009Y-148799431D01*
X117474007Y-148799431D01*
X117421889Y-148825986D01*
X117365598Y-148839500D01*
X117249999Y-148839500D01*
X117249980Y-148839501D01*
X117147203Y-148850000D01*
X117147200Y-148850001D01*
X116980668Y-148905185D01*
X116980663Y-148905187D01*
X116831342Y-148997289D01*
X116707289Y-149121342D01*
X116615187Y-149270663D01*
X116615186Y-149270666D01*
X116560001Y-149437203D01*
X116560001Y-149437204D01*
X116560000Y-149437204D01*
X116549500Y-149539983D01*
X116549500Y-150840001D01*
X113080500Y-150840001D01*
X113080500Y-142182889D01*
X113100185Y-142115850D01*
X113116819Y-142095208D01*
X117935208Y-137276819D01*
X117996531Y-137243334D01*
X118022889Y-137240500D01*
X120108097Y-137240500D01*
X120214126Y-137223705D01*
X120341368Y-137203553D01*
X120355168Y-137199068D01*
X120393488Y-137192999D01*
X121037871Y-137192999D01*
X121037872Y-137192999D01*
X121097483Y-137186591D01*
X121232331Y-137136296D01*
X121347546Y-137050046D01*
X121433796Y-136934831D01*
X121484091Y-136799983D01*
X121490500Y-136740373D01*
X121490500Y-135749500D01*
X121490500Y-135621908D01*
X121490500Y-135614313D01*
X121490499Y-135614295D01*
X121490499Y-134739629D01*
X121490498Y-134739623D01*
X121484091Y-134680016D01*
X121433797Y-134545171D01*
X121433793Y-134545164D01*
X121347547Y-134429955D01*
X121347544Y-134429952D01*
X121232335Y-134343706D01*
X121232332Y-134343705D01*
X121232331Y-134343704D01*
X121221161Y-134339538D01*
X121165231Y-134297666D01*
X121140816Y-134232201D01*
X121140500Y-134223358D01*
X121140500Y-132204142D01*
X121144724Y-132172052D01*
X121175635Y-132056692D01*
X121195468Y-131830000D01*
X121194592Y-131819992D01*
X121189801Y-131765230D01*
X121175635Y-131603308D01*
X121116739Y-131383504D01*
X121020568Y-131177266D01*
X120890047Y-130990861D01*
X120890045Y-130990858D01*
X120729141Y-130829954D01*
X120542734Y-130699432D01*
X120542732Y-130699431D01*
X120336497Y-130603261D01*
X120336488Y-130603258D01*
X120116697Y-130544366D01*
X120116693Y-130544365D01*
X120116692Y-130544365D01*
X120116691Y-130544364D01*
X120116686Y-130544364D01*
X119890002Y-130524532D01*
X119889998Y-130524532D01*
X119663313Y-130544364D01*
X119663302Y-130544366D01*
X119443511Y-130603258D01*
X119443502Y-130603261D01*
X119237267Y-130699431D01*
X119237265Y-130699432D01*
X119050858Y-130829954D01*
X118889954Y-130990858D01*
X118759432Y-131177265D01*
X118759431Y-131177267D01*
X118663261Y-131383502D01*
X118663258Y-131383511D01*
X118604366Y-131603302D01*
X118604364Y-131603313D01*
X118585407Y-131819998D01*
X118584532Y-131830000D01*
X118604365Y-132056692D01*
X118635275Y-132172052D01*
X118639500Y-132204142D01*
X118639500Y-134115500D01*
X118619815Y-134182539D01*
X118567011Y-134228294D01*
X118515500Y-134239500D01*
X117231903Y-134239500D01*
X116998631Y-134276446D01*
X116848315Y-134325288D01*
X116811451Y-134337266D01*
X116798637Y-134341429D01*
X116774003Y-134349433D01*
X116563565Y-134456657D01*
X116372488Y-134595484D01*
X116372487Y-134595485D01*
X111667681Y-139300292D01*
X111606358Y-139333777D01*
X111536666Y-139328793D01*
X111492319Y-139300292D01*
X110847511Y-138655484D01*
X110831999Y-138644214D01*
X110656434Y-138516657D01*
X110618073Y-138497111D01*
X110445996Y-138409433D01*
X110221368Y-138336446D01*
X109988097Y-138299500D01*
X109988092Y-138299500D01*
X107344500Y-138299500D01*
X107277461Y-138279815D01*
X107231706Y-138227011D01*
X107220500Y-138175500D01*
X107220500Y-136531902D01*
X107183553Y-136298631D01*
X107110566Y-136074003D01*
X107022200Y-135900576D01*
X107003343Y-135863567D01*
X106864517Y-135672490D01*
X106697510Y-135505483D01*
X106506433Y-135366657D01*
X106466767Y-135346446D01*
X106295996Y-135259433D01*
X106071368Y-135186446D01*
X105838097Y-135149500D01*
X105838092Y-135149500D01*
X105601908Y-135149500D01*
X105601903Y-135149500D01*
X105368631Y-135186446D01*
X105144003Y-135259433D01*
X104933566Y-135366657D01*
X104860927Y-135419433D01*
X104742490Y-135505483D01*
X104742488Y-135505485D01*
X104742487Y-135505485D01*
X104575485Y-135672487D01*
X104575485Y-135672488D01*
X104575483Y-135672490D01*
X104519532Y-135749500D01*
X104436657Y-135863566D01*
X104329433Y-136074003D01*
X104256446Y-136298631D01*
X104219500Y-136531902D01*
X104219500Y-139421240D01*
X104216834Y-139443761D01*
X104217209Y-139443821D01*
X104179500Y-139681902D01*
X104179500Y-139918097D01*
X104216446Y-140151367D01*
X104220931Y-140165168D01*
X104227000Y-140203487D01*
X104227000Y-140847870D01*
X104227001Y-140847876D01*
X104233408Y-140907483D01*
X104283702Y-141042328D01*
X104283706Y-141042335D01*
X104369952Y-141157544D01*
X104369955Y-141157547D01*
X104485164Y-141243793D01*
X104485171Y-141243797D01*
X104620017Y-141294091D01*
X104620016Y-141294091D01*
X104626944Y-141294835D01*
X104679627Y-141300500D01*
X105551905Y-141300499D01*
X105551919Y-141300500D01*
X105561908Y-141300500D01*
X109197111Y-141300500D01*
X109264150Y-141320185D01*
X109284792Y-141336819D01*
X110043181Y-142095208D01*
X110076666Y-142156531D01*
X110079500Y-142182889D01*
X110079500Y-143345500D01*
X110059815Y-143412539D01*
X110007011Y-143458294D01*
X109955500Y-143469500D01*
X92914143Y-143469500D01*
X92882050Y-143465275D01*
X92766697Y-143434366D01*
X92766693Y-143434365D01*
X92766692Y-143434365D01*
X92766691Y-143434364D01*
X92766686Y-143434364D01*
X92540002Y-143414532D01*
X92539998Y-143414532D01*
X92313313Y-143434364D01*
X92313306Y-143434365D01*
X92255666Y-143449810D01*
X92093504Y-143493261D01*
X92093499Y-143493263D01*
X92088275Y-143494663D01*
X92087989Y-143493596D01*
X92054499Y-143499500D01*
X90214191Y-143499500D01*
X90147152Y-143479815D01*
X90114924Y-143449810D01*
X90107546Y-143439954D01*
X90107545Y-143439953D01*
X90107544Y-143439952D01*
X89992335Y-143353706D01*
X89992328Y-143353702D01*
X89857482Y-143303408D01*
X89857483Y-143303408D01*
X89797883Y-143297001D01*
X89797881Y-143297000D01*
X89797873Y-143297000D01*
X89797864Y-143297000D01*
X87702129Y-143297000D01*
X87702123Y-143297001D01*
X87642516Y-143303408D01*
X87507671Y-143353702D01*
X87507664Y-143353706D01*
X87392455Y-143439952D01*
X87392452Y-143439955D01*
X87306206Y-143555164D01*
X87306202Y-143555171D01*
X87255908Y-143690017D01*
X87249501Y-143749616D01*
X87249500Y-143749635D01*
X87249500Y-145750370D01*
X87249501Y-145750376D01*
X87255908Y-145809983D01*
X87306202Y-145944828D01*
X87306206Y-145944835D01*
X87392452Y-146060044D01*
X87392455Y-146060047D01*
X87507664Y-146146293D01*
X87507671Y-146146297D01*
X87642517Y-146196591D01*
X87642516Y-146196591D01*
X87649444Y-146197335D01*
X87702127Y-146203000D01*
X89797872Y-146202999D01*
X89857483Y-146196591D01*
X89992331Y-146146296D01*
X90107546Y-146060046D01*
X90114924Y-146050189D01*
X90170857Y-146008318D01*
X90214191Y-146000500D01*
X92277819Y-146000500D01*
X92309911Y-146004724D01*
X92313308Y-146005635D01*
X92475230Y-146019801D01*
X92539998Y-146025468D01*
X92540000Y-146025468D01*
X92540002Y-146025468D01*
X92596673Y-146020509D01*
X92766692Y-146005635D01*
X92882050Y-145974724D01*
X92914143Y-145970500D01*
X109955500Y-145970500D01*
X110022539Y-145990185D01*
X110068294Y-146042989D01*
X110079500Y-146094500D01*
X110079500Y-156735500D01*
X110059815Y-156802539D01*
X110007011Y-156848294D01*
X109955500Y-156859500D01*
X80111729Y-156859500D01*
X80068396Y-156851682D01*
X79972482Y-156815908D01*
X79972483Y-156815908D01*
X79912883Y-156809501D01*
X79912881Y-156809500D01*
X79912873Y-156809500D01*
X79912864Y-156809500D01*
X77217129Y-156809500D01*
X77217123Y-156809501D01*
X77157516Y-156815908D01*
X77022671Y-156866202D01*
X77022664Y-156866206D01*
X76907455Y-156952452D01*
X76907452Y-156952455D01*
X76821206Y-157067664D01*
X76821202Y-157067671D01*
X76770908Y-157202517D01*
X76764501Y-157262116D01*
X76764500Y-157262135D01*
X76764500Y-159957870D01*
X72180500Y-159957870D01*
X72180500Y-148610004D01*
X76759451Y-148610004D01*
X76779616Y-148879101D01*
X76839664Y-149142188D01*
X76839666Y-149142195D01*
X76890086Y-149270663D01*
X76938257Y-149393398D01*
X77073185Y-149627102D01*
X77209080Y-149797509D01*
X77241442Y-149838089D01*
X77428183Y-150011358D01*
X77439259Y-150021635D01*
X77662226Y-150173651D01*
X77905359Y-150290738D01*
X78163228Y-150370280D01*
X78163229Y-150370280D01*
X78163232Y-150370281D01*
X78430063Y-150410499D01*
X78430068Y-150410499D01*
X78430071Y-150410500D01*
X78430072Y-150410500D01*
X78699928Y-150410500D01*
X78699929Y-150410500D01*
X78699936Y-150410499D01*
X78966767Y-150370281D01*
X78966768Y-150370280D01*
X78966772Y-150370280D01*
X79224641Y-150290738D01*
X79467775Y-150173651D01*
X79528798Y-150132045D01*
X79595277Y-150110546D01*
X79598649Y-150110500D01*
X82247111Y-150110500D01*
X82314150Y-150130185D01*
X82334791Y-150146818D01*
X83788538Y-151600566D01*
X85152491Y-152964519D01*
X85152496Y-152964523D01*
X85319155Y-153085606D01*
X85343567Y-153103343D01*
X85454759Y-153159998D01*
X85554003Y-153210566D01*
X85554005Y-153210566D01*
X85554008Y-153210568D01*
X85674412Y-153249689D01*
X85778631Y-153283553D01*
X86011903Y-153320500D01*
X86011908Y-153320500D01*
X89458097Y-153320500D01*
X89691368Y-153283553D01*
X89915992Y-153210568D01*
X89968107Y-153184014D01*
X90024401Y-153170499D01*
X90140002Y-153170499D01*
X90140008Y-153170499D01*
X90242797Y-153159999D01*
X90409334Y-153104814D01*
X90558656Y-153012712D01*
X90682712Y-152888656D01*
X90774814Y-152739334D01*
X90829999Y-152572797D01*
X90840500Y-152470009D01*
X90840500Y-151918541D01*
X90840500Y-151701908D01*
X90840500Y-151694313D01*
X90840499Y-151694295D01*
X90840499Y-151169998D01*
X90840498Y-151169981D01*
X90829999Y-151067203D01*
X90829998Y-151067200D01*
X90774814Y-150900666D01*
X90682712Y-150751344D01*
X90558656Y-150627288D01*
X90409334Y-150535186D01*
X90242797Y-150480001D01*
X90242795Y-150480000D01*
X90140016Y-150469500D01*
X90140009Y-150469500D01*
X90024400Y-150469500D01*
X89968105Y-150455985D01*
X89915996Y-150429433D01*
X89691368Y-150356446D01*
X89458097Y-150319500D01*
X89458092Y-150319500D01*
X86802890Y-150319500D01*
X86735851Y-150299815D01*
X86715209Y-150283181D01*
X83897512Y-147465485D01*
X83897511Y-147465484D01*
X83782482Y-147381910D01*
X83706434Y-147326657D01*
X83495996Y-147219433D01*
X83271368Y-147146446D01*
X83038097Y-147109500D01*
X83038092Y-147109500D01*
X79598649Y-147109500D01*
X79531610Y-147089815D01*
X79528830Y-147087976D01*
X79467775Y-147046349D01*
X79467769Y-147046346D01*
X79467768Y-147046345D01*
X79467767Y-147046344D01*
X79224643Y-146929263D01*
X79224645Y-146929263D01*
X78966773Y-146849720D01*
X78966767Y-146849718D01*
X78699936Y-146809500D01*
X78699929Y-146809500D01*
X78430071Y-146809500D01*
X78430063Y-146809500D01*
X78163232Y-146849718D01*
X78163226Y-146849720D01*
X77905358Y-146929262D01*
X77662230Y-147046346D01*
X77439258Y-147198365D01*
X77241442Y-147381910D01*
X77073185Y-147592898D01*
X76938258Y-147826599D01*
X76938256Y-147826603D01*
X76839666Y-148077804D01*
X76839664Y-148077811D01*
X76779616Y-148340898D01*
X76759451Y-148609995D01*
X76759451Y-148610004D01*
X72180500Y-148610004D01*
X72180500Y-136958422D01*
X72629500Y-136958422D01*
X72660290Y-137152826D01*
X72721117Y-137340029D01*
X72767900Y-137431845D01*
X72810476Y-137515405D01*
X72926172Y-137674646D01*
X73065354Y-137813828D01*
X73224595Y-137929524D01*
X73307455Y-137971743D01*
X73399970Y-138018882D01*
X73399972Y-138018882D01*
X73399975Y-138018884D01*
X73500317Y-138051487D01*
X73587173Y-138079709D01*
X73781578Y-138110500D01*
X73781583Y-138110500D01*
X77237470Y-138110500D01*
X77293765Y-138124015D01*
X77444003Y-138200566D01*
X77444005Y-138200566D01*
X77444008Y-138200568D01*
X77525391Y-138227011D01*
X77668631Y-138273553D01*
X77901903Y-138310500D01*
X77901908Y-138310500D01*
X81587111Y-138310500D01*
X81654150Y-138330185D01*
X81674791Y-138346818D01*
X84142490Y-140814518D01*
X84306955Y-140934008D01*
X84333567Y-140953343D01*
X84440587Y-141007872D01*
X84544003Y-141060566D01*
X84544005Y-141060566D01*
X84544008Y-141060568D01*
X84635255Y-141090216D01*
X84768631Y-141133553D01*
X85001903Y-141170500D01*
X85001908Y-141170500D01*
X88868097Y-141170500D01*
X89101368Y-141133553D01*
X89325992Y-141060568D01*
X89536433Y-140953343D01*
X89727510Y-140814517D01*
X89894517Y-140647510D01*
X90033343Y-140456433D01*
X90140568Y-140245992D01*
X90213553Y-140021368D01*
X90250500Y-139788097D01*
X90250500Y-139551902D01*
X90213553Y-139318631D01*
X90140566Y-139094003D01*
X90033342Y-138883566D01*
X89894517Y-138692490D01*
X89786819Y-138584792D01*
X89753334Y-138523469D01*
X89750500Y-138497111D01*
X89750500Y-137741456D01*
X89722770Y-137602052D01*
X89722770Y-137602051D01*
X89712052Y-137548170D01*
X89712051Y-137548164D01*
X89663870Y-137431845D01*
X89636632Y-137366086D01*
X89536463Y-137216172D01*
X89527140Y-137202219D01*
X89461214Y-137136293D01*
X89387782Y-137062861D01*
X89387781Y-137062860D01*
X88586819Y-136261898D01*
X88553334Y-136200575D01*
X88550500Y-136174217D01*
X88550500Y-135897588D01*
X88570185Y-135830549D01*
X88572925Y-135826465D01*
X88680568Y-135672734D01*
X88776739Y-135466496D01*
X88835635Y-135246692D01*
X88855468Y-135020000D01*
X88855466Y-135019981D01*
X88835635Y-134793313D01*
X88835635Y-134793308D01*
X88782629Y-134595485D01*
X88776741Y-134573511D01*
X88776738Y-134573502D01*
X88762749Y-134543502D01*
X88680568Y-134367266D01*
X88554444Y-134187140D01*
X88550045Y-134180858D01*
X88389141Y-134019954D01*
X88202734Y-133889432D01*
X88202732Y-133889431D01*
X87996497Y-133793261D01*
X87996488Y-133793258D01*
X87776697Y-133734366D01*
X87776693Y-133734365D01*
X87776692Y-133734365D01*
X87776691Y-133734364D01*
X87776686Y-133734364D01*
X87550002Y-133714532D01*
X87549998Y-133714532D01*
X87323313Y-133734364D01*
X87323302Y-133734366D01*
X87103511Y-133793258D01*
X87103502Y-133793261D01*
X86897267Y-133889431D01*
X86897265Y-133889432D01*
X86710858Y-134019954D01*
X86549954Y-134180858D01*
X86419432Y-134367265D01*
X86419431Y-134367267D01*
X86323261Y-134573502D01*
X86323258Y-134573511D01*
X86264366Y-134793302D01*
X86264364Y-134793313D01*
X86244532Y-135019998D01*
X86244532Y-135020001D01*
X86264364Y-135246686D01*
X86264366Y-135246697D01*
X86323258Y-135466488D01*
X86323261Y-135466497D01*
X86395729Y-135621904D01*
X86419432Y-135672734D01*
X86508928Y-135800549D01*
X86527075Y-135826465D01*
X86549402Y-135892671D01*
X86549500Y-135897588D01*
X86549500Y-136738542D01*
X86549864Y-136740373D01*
X86557319Y-136777853D01*
X86559835Y-136790499D01*
X86559835Y-136790500D01*
X86587947Y-136931830D01*
X86587950Y-136931841D01*
X86599494Y-136959707D01*
X86599496Y-136959712D01*
X86663364Y-137113906D01*
X86663371Y-137113919D01*
X86678321Y-137136293D01*
X86772861Y-137277782D01*
X86912218Y-137417139D01*
X86912220Y-137417140D01*
X86919286Y-137424206D01*
X86919285Y-137424206D01*
X86919289Y-137424209D01*
X87452898Y-137957819D01*
X87486383Y-138019142D01*
X87481399Y-138088834D01*
X87439527Y-138144767D01*
X87374063Y-138169184D01*
X87365217Y-138169500D01*
X85792890Y-138169500D01*
X85725851Y-138149815D01*
X85705209Y-138133181D01*
X83237512Y-135665485D01*
X83237511Y-135665484D01*
X83194762Y-135634425D01*
X83046434Y-135526657D01*
X82835996Y-135419433D01*
X82611368Y-135346446D01*
X82378097Y-135309500D01*
X82378092Y-135309500D01*
X79903392Y-135309500D01*
X79836353Y-135289815D01*
X79790598Y-135237011D01*
X79780654Y-135167853D01*
X79809679Y-135104297D01*
X79824725Y-135089648D01*
X79827776Y-135087142D01*
X79827782Y-135087139D01*
X79967139Y-134947782D01*
X79967140Y-134947780D01*
X79974206Y-134940714D01*
X79974209Y-134940710D01*
X81457778Y-133457141D01*
X81457782Y-133457139D01*
X81597139Y-133317782D01*
X81706632Y-133153914D01*
X81706633Y-133153911D01*
X81706635Y-133153908D01*
X81759952Y-133025187D01*
X81771304Y-132997781D01*
X81782051Y-132971836D01*
X81801275Y-132875188D01*
X81810887Y-132826864D01*
X81820500Y-132778542D01*
X81820500Y-122745782D01*
X81840185Y-122678743D01*
X81856819Y-122658101D01*
X84958101Y-119556819D01*
X85019424Y-119523334D01*
X85045782Y-119520500D01*
X85083536Y-119520500D01*
X85150575Y-119540185D01*
X85167521Y-119553272D01*
X85168207Y-119553903D01*
X85168216Y-119553913D01*
X85171950Y-119556819D01*
X85345818Y-119692146D01*
X85386631Y-119748856D01*
X85390306Y-119818629D01*
X85355674Y-119879312D01*
X85345819Y-119887852D01*
X85168218Y-120026085D01*
X85011016Y-120196852D01*
X84884075Y-120391151D01*
X84790842Y-120603699D01*
X84733866Y-120828691D01*
X84733864Y-120828702D01*
X84714700Y-121059993D01*
X84714700Y-121060006D01*
X84733864Y-121291297D01*
X84733866Y-121291308D01*
X84790842Y-121516300D01*
X84884075Y-121728848D01*
X85011016Y-121923147D01*
X85011019Y-121923151D01*
X85011021Y-121923153D01*
X85168216Y-122093913D01*
X85168219Y-122093915D01*
X85168222Y-122093918D01*
X85345818Y-122232147D01*
X85386631Y-122288857D01*
X85390306Y-122358630D01*
X85355674Y-122419313D01*
X85345818Y-122427853D01*
X85168222Y-122566081D01*
X85168219Y-122566084D01*
X85168216Y-122566086D01*
X85168216Y-122566087D01*
X85109267Y-122630122D01*
X85011016Y-122736852D01*
X84884075Y-122931151D01*
X84790842Y-123143699D01*
X84733866Y-123368691D01*
X84733864Y-123368702D01*
X84714700Y-123599993D01*
X84714700Y-123600006D01*
X84733864Y-123831297D01*
X84733866Y-123831308D01*
X84790842Y-124056300D01*
X84884075Y-124268848D01*
X85011016Y-124463147D01*
X85011019Y-124463151D01*
X85011021Y-124463153D01*
X85168216Y-124633913D01*
X85168219Y-124633915D01*
X85168222Y-124633918D01*
X85345818Y-124772147D01*
X85386631Y-124828857D01*
X85390306Y-124898630D01*
X85355674Y-124959313D01*
X85345818Y-124967853D01*
X85168222Y-125106081D01*
X85168219Y-125106084D01*
X85168216Y-125106086D01*
X85168216Y-125106087D01*
X85137457Y-125139500D01*
X85011016Y-125276852D01*
X84884075Y-125471151D01*
X84790842Y-125683699D01*
X84733866Y-125908691D01*
X84733864Y-125908702D01*
X84714700Y-126139993D01*
X84714700Y-126140006D01*
X84733864Y-126371297D01*
X84733866Y-126371308D01*
X84790842Y-126596300D01*
X84884075Y-126808848D01*
X85011016Y-127003147D01*
X85011019Y-127003151D01*
X85011021Y-127003153D01*
X85105803Y-127106114D01*
X85136724Y-127168767D01*
X85128864Y-127238193D01*
X85084716Y-127292348D01*
X85057906Y-127306277D01*
X84977669Y-127336203D01*
X84977664Y-127336206D01*
X84862455Y-127422452D01*
X84862452Y-127422455D01*
X84776206Y-127537664D01*
X84776202Y-127537671D01*
X84725908Y-127672517D01*
X84719501Y-127732116D01*
X84719500Y-127732135D01*
X84719500Y-129627870D01*
X84719501Y-129627876D01*
X84725908Y-129687483D01*
X84776202Y-129822328D01*
X84776206Y-129822335D01*
X84862452Y-129937544D01*
X84862455Y-129937547D01*
X84977664Y-130023793D01*
X84977671Y-130023797D01*
X85112517Y-130074091D01*
X85112516Y-130074091D01*
X85119444Y-130074835D01*
X85172127Y-130080500D01*
X87067872Y-130080499D01*
X87127483Y-130074091D01*
X87262331Y-130023796D01*
X87377546Y-129937546D01*
X87463796Y-129822331D01*
X87473444Y-129796464D01*
X87486609Y-129761167D01*
X87528480Y-129705233D01*
X87593944Y-129680816D01*
X87602791Y-129680500D01*
X90985859Y-129680500D01*
X91052898Y-129700185D01*
X91098653Y-129752989D01*
X91102030Y-129761140D01*
X91106204Y-129772331D01*
X91106205Y-129772332D01*
X91106206Y-129772335D01*
X91192452Y-129887544D01*
X91192455Y-129887547D01*
X91307664Y-129973793D01*
X91307669Y-129973796D01*
X91368833Y-129996608D01*
X91424766Y-130038478D01*
X91449184Y-130103942D01*
X91449500Y-130112790D01*
X91449500Y-131590945D01*
X91429815Y-131657984D01*
X91427075Y-131662068D01*
X91409434Y-131687262D01*
X91313261Y-131893502D01*
X91313258Y-131893511D01*
X91254366Y-132113302D01*
X91254364Y-132113313D01*
X91234532Y-132339998D01*
X91234532Y-132340001D01*
X91254364Y-132566686D01*
X91254366Y-132566697D01*
X91313258Y-132786488D01*
X91313261Y-132786497D01*
X91409431Y-132992732D01*
X91409432Y-132992734D01*
X91517075Y-133146465D01*
X91539402Y-133212671D01*
X91539500Y-133217588D01*
X91539500Y-134183819D01*
X91519815Y-134250858D01*
X91517076Y-134254941D01*
X91459431Y-134337267D01*
X91363261Y-134543502D01*
X91363258Y-134543511D01*
X91304366Y-134763302D01*
X91304364Y-134763313D01*
X91284532Y-134989998D01*
X91284532Y-134990001D01*
X91304364Y-135216686D01*
X91304366Y-135216697D01*
X91363258Y-135436488D01*
X91363261Y-135436497D01*
X91459431Y-135642732D01*
X91459432Y-135642734D01*
X91567075Y-135796465D01*
X91589402Y-135862671D01*
X91589500Y-135867588D01*
X91589500Y-136438543D01*
X91606789Y-136525457D01*
X91606789Y-136525458D01*
X91627947Y-136631829D01*
X91627950Y-136631839D01*
X91633609Y-136645501D01*
X91703366Y-136813911D01*
X91703371Y-136813920D01*
X91812860Y-136977781D01*
X91812863Y-136977785D01*
X91956537Y-137121459D01*
X91956559Y-137121479D01*
X93807141Y-138972061D01*
X93840626Y-139033384D01*
X93835642Y-139103076D01*
X93831364Y-139112194D01*
X93831720Y-139112360D01*
X93829432Y-139117264D01*
X93829432Y-139117266D01*
X93826372Y-139123828D01*
X93733261Y-139323502D01*
X93733258Y-139323511D01*
X93674366Y-139543302D01*
X93674364Y-139543313D01*
X93654532Y-139769998D01*
X93654532Y-139770001D01*
X93674364Y-139996686D01*
X93674366Y-139996697D01*
X93733258Y-140216488D01*
X93733261Y-140216497D01*
X93829431Y-140422732D01*
X93829432Y-140422734D01*
X93959954Y-140609141D01*
X94120858Y-140770045D01*
X94120861Y-140770047D01*
X94307266Y-140900568D01*
X94513504Y-140996739D01*
X94733308Y-141055635D01*
X94895230Y-141069801D01*
X94959998Y-141075468D01*
X94960000Y-141075468D01*
X94960002Y-141075468D01*
X95016673Y-141070509D01*
X95186692Y-141055635D01*
X95406496Y-140996739D01*
X95612734Y-140900568D01*
X95723621Y-140822924D01*
X95789826Y-140800598D01*
X95794743Y-140800500D01*
X99446786Y-140800500D01*
X99513825Y-140820185D01*
X99534467Y-140836819D01*
X99653434Y-140955786D01*
X99838462Y-141090217D01*
X100042242Y-141194048D01*
X100042244Y-141194049D01*
X100259751Y-141264721D01*
X100259752Y-141264721D01*
X100259755Y-141264722D01*
X100485646Y-141300500D01*
X100485647Y-141300500D01*
X100714353Y-141300500D01*
X100714354Y-141300500D01*
X100940245Y-141264722D01*
X100940248Y-141264721D01*
X100940249Y-141264721D01*
X101157755Y-141194049D01*
X101157755Y-141194048D01*
X101157758Y-141194048D01*
X101361538Y-141090217D01*
X101546566Y-140955786D01*
X101708286Y-140794066D01*
X101842717Y-140609038D01*
X101946548Y-140405258D01*
X101998295Y-140245996D01*
X102017221Y-140187749D01*
X102017221Y-140187748D01*
X102017222Y-140187745D01*
X102053000Y-139961854D01*
X102053000Y-139638146D01*
X102017222Y-139412255D01*
X102017221Y-139412251D01*
X102017221Y-139412250D01*
X101946549Y-139194744D01*
X101946548Y-139194742D01*
X101842717Y-138990962D01*
X101708286Y-138805934D01*
X101546566Y-138644214D01*
X101361538Y-138509783D01*
X101336668Y-138497111D01*
X101157755Y-138405950D01*
X100940248Y-138335278D01*
X100770826Y-138308444D01*
X100714354Y-138299500D01*
X100485646Y-138299500D01*
X100410349Y-138311426D01*
X100259753Y-138335278D01*
X100259750Y-138335278D01*
X100042244Y-138405950D01*
X99838461Y-138509783D01*
X99735221Y-138584792D01*
X99653434Y-138644214D01*
X99653432Y-138644216D01*
X99653431Y-138644216D01*
X99534467Y-138763181D01*
X99473144Y-138796666D01*
X99446786Y-138799500D01*
X96084500Y-138799500D01*
X96017461Y-138779815D01*
X95971706Y-138727011D01*
X95960500Y-138675500D01*
X95960500Y-138611456D01*
X95935219Y-138484365D01*
X95922051Y-138418164D01*
X95893508Y-138349255D01*
X95888203Y-138336447D01*
X95846635Y-138236092D01*
X95846628Y-138236079D01*
X95737139Y-138072218D01*
X95737136Y-138072214D01*
X95594686Y-137929764D01*
X95594655Y-137929735D01*
X93626819Y-135961899D01*
X93593334Y-135900576D01*
X93590500Y-135874218D01*
X93590500Y-135867588D01*
X93610185Y-135800549D01*
X93612925Y-135796465D01*
X93720568Y-135642734D01*
X93816739Y-135436496D01*
X93875635Y-135216692D01*
X93895468Y-134990000D01*
X93892843Y-134960001D01*
X93878260Y-134793313D01*
X93875635Y-134763308D01*
X93816739Y-134543504D01*
X93720568Y-134337266D01*
X93615450Y-134187140D01*
X93590045Y-134150858D01*
X93576819Y-134137632D01*
X93543334Y-134076309D01*
X93540500Y-134049951D01*
X93540500Y-133874782D01*
X93560185Y-133807743D01*
X93612989Y-133761988D01*
X93682147Y-133752044D01*
X93745703Y-133781069D01*
X93752181Y-133787101D01*
X94152215Y-134187137D01*
X94152219Y-134187140D01*
X94316079Y-134296628D01*
X94316085Y-134296631D01*
X94316086Y-134296632D01*
X94498165Y-134372052D01*
X94689168Y-134410045D01*
X94691455Y-134410500D01*
X94691458Y-134410501D01*
X94691460Y-134410501D01*
X94894655Y-134410501D01*
X94894675Y-134410500D01*
X96432412Y-134410500D01*
X96499451Y-134430185D01*
X96503523Y-134432917D01*
X96657266Y-134540568D01*
X96863504Y-134636739D01*
X97083308Y-134695635D01*
X97245230Y-134709801D01*
X97309998Y-134715468D01*
X97310000Y-134715468D01*
X97310002Y-134715468D01*
X97366673Y-134710509D01*
X97536692Y-134695635D01*
X97756496Y-134636739D01*
X97962734Y-134540568D01*
X98149139Y-134410047D01*
X98310047Y-134249139D01*
X98440568Y-134062734D01*
X98536739Y-133856496D01*
X98595635Y-133636692D01*
X98615468Y-133410000D01*
X98613776Y-133390666D01*
X98595635Y-133183313D01*
X98595635Y-133183308D01*
X98536739Y-132963504D01*
X98440568Y-132757266D01*
X98310047Y-132570861D01*
X98310045Y-132570858D01*
X98149141Y-132409954D01*
X97962734Y-132279432D01*
X97962732Y-132279431D01*
X97756497Y-132183261D01*
X97756488Y-132183258D01*
X97536697Y-132124366D01*
X97536693Y-132124365D01*
X97536692Y-132124365D01*
X97536691Y-132124364D01*
X97536686Y-132124364D01*
X97310002Y-132104532D01*
X97309998Y-132104532D01*
X97083313Y-132124364D01*
X97083302Y-132124366D01*
X96863511Y-132183258D01*
X96863502Y-132183261D01*
X96657267Y-132279431D01*
X96657265Y-132279432D01*
X96570768Y-132339998D01*
X96523378Y-132373181D01*
X96503535Y-132387075D01*
X96437329Y-132409402D01*
X96432412Y-132409500D01*
X95255783Y-132409500D01*
X95188744Y-132389815D01*
X95168102Y-132373181D01*
X94504209Y-131709289D01*
X94504206Y-131709285D01*
X94504206Y-131709286D01*
X94497139Y-131702219D01*
X94497139Y-131702218D01*
X94357782Y-131562861D01*
X94357781Y-131562860D01*
X94357780Y-131562859D01*
X94193920Y-131453371D01*
X94193911Y-131453366D01*
X94121315Y-131423296D01*
X94065165Y-131400038D01*
X94011836Y-131377949D01*
X94011832Y-131377948D01*
X94011828Y-131377946D01*
X93915188Y-131358724D01*
X93818544Y-131339500D01*
X93818541Y-131339500D01*
X93574500Y-131339500D01*
X93507461Y-131319815D01*
X93461706Y-131267011D01*
X93450500Y-131215500D01*
X93450500Y-130112790D01*
X93470185Y-130045751D01*
X93522989Y-129999996D01*
X93531146Y-129996616D01*
X93592331Y-129973796D01*
X93707546Y-129887546D01*
X93793796Y-129772331D01*
X93844091Y-129637483D01*
X93850500Y-129577873D01*
X93850499Y-127682128D01*
X93844475Y-127626087D01*
X93844091Y-127622516D01*
X93793797Y-127487671D01*
X93793793Y-127487664D01*
X93707547Y-127372455D01*
X93707544Y-127372452D01*
X93592335Y-127286206D01*
X93592328Y-127286202D01*
X93512094Y-127256277D01*
X93456160Y-127214406D01*
X93431743Y-127148941D01*
X93446595Y-127080668D01*
X93464190Y-127056121D01*
X93558979Y-126953153D01*
X93685924Y-126758849D01*
X93779157Y-126546300D01*
X93836134Y-126321305D01*
X93836135Y-126321297D01*
X93855300Y-126090006D01*
X93855300Y-126089993D01*
X93836135Y-125858702D01*
X93836133Y-125858691D01*
X93779157Y-125633699D01*
X93685924Y-125421151D01*
X93558983Y-125226852D01*
X93558980Y-125226849D01*
X93558979Y-125226847D01*
X93401784Y-125056087D01*
X93224180Y-124917853D01*
X93183368Y-124861143D01*
X93179693Y-124791370D01*
X93214324Y-124730687D01*
X93224181Y-124722146D01*
X93226056Y-124720687D01*
X93401784Y-124583913D01*
X93558979Y-124413153D01*
X93685924Y-124218849D01*
X93779157Y-124006300D01*
X93836134Y-123781305D01*
X93836135Y-123781297D01*
X93855300Y-123550006D01*
X93855300Y-123549993D01*
X93836135Y-123318702D01*
X93836133Y-123318691D01*
X93779157Y-123093699D01*
X93685924Y-122881151D01*
X93558983Y-122686852D01*
X93558980Y-122686849D01*
X93558979Y-122686847D01*
X93401784Y-122516087D01*
X93224180Y-122377853D01*
X93183368Y-122321143D01*
X93179693Y-122251370D01*
X93214324Y-122190687D01*
X93224181Y-122182146D01*
X93226056Y-122180687D01*
X93401784Y-122043913D01*
X93558979Y-121873153D01*
X93685924Y-121678849D01*
X93779157Y-121466300D01*
X93836134Y-121241305D01*
X93836135Y-121241297D01*
X93855300Y-121010006D01*
X93855300Y-121009993D01*
X93836135Y-120778702D01*
X93836133Y-120778691D01*
X93779157Y-120553699D01*
X93685924Y-120341151D01*
X93558983Y-120146852D01*
X93558980Y-120146849D01*
X93558979Y-120146847D01*
X93401784Y-119976087D01*
X93224180Y-119837853D01*
X93183368Y-119781143D01*
X93179693Y-119711370D01*
X93214324Y-119650687D01*
X93224181Y-119642146D01*
X93226056Y-119640687D01*
X93401784Y-119503913D01*
X93558979Y-119333153D01*
X93685924Y-119138849D01*
X93779157Y-118926300D01*
X93836134Y-118701305D01*
X93836135Y-118701297D01*
X93855300Y-118470006D01*
X93855300Y-118469993D01*
X93836135Y-118238702D01*
X93836133Y-118238691D01*
X93779157Y-118013699D01*
X93685924Y-117801151D01*
X93558983Y-117606852D01*
X93558980Y-117606849D01*
X93558979Y-117606847D01*
X93401784Y-117436087D01*
X93401779Y-117436083D01*
X93401777Y-117436081D01*
X93218634Y-117293535D01*
X93218628Y-117293531D01*
X93014504Y-117183064D01*
X93014495Y-117183061D01*
X92794984Y-117107702D01*
X92623282Y-117079050D01*
X92566049Y-117069500D01*
X92333951Y-117069500D01*
X92288164Y-117077140D01*
X92105015Y-117107702D01*
X91885504Y-117183061D01*
X91885495Y-117183064D01*
X91681371Y-117293531D01*
X91617132Y-117343531D01*
X91498216Y-117436087D01*
X91458266Y-117479484D01*
X91398381Y-117515473D01*
X91367038Y-117519500D01*
X87156464Y-117519500D01*
X87089425Y-117499815D01*
X87072479Y-117486728D01*
X87071794Y-117486098D01*
X87071784Y-117486087D01*
X86942524Y-117385480D01*
X86888628Y-117343531D01*
X86684504Y-117233064D01*
X86684495Y-117233061D01*
X86464984Y-117157702D01*
X86293282Y-117129050D01*
X86236049Y-117119500D01*
X86003951Y-117119500D01*
X85958164Y-117127140D01*
X85775015Y-117157702D01*
X85555504Y-117233061D01*
X85555495Y-117233064D01*
X85351371Y-117343531D01*
X85232456Y-117436087D01*
X85168216Y-117486087D01*
X85168210Y-117486092D01*
X85167521Y-117486728D01*
X85167172Y-117486899D01*
X85164170Y-117489237D01*
X85163689Y-117488619D01*
X85104867Y-117517652D01*
X85083536Y-117519500D01*
X84481457Y-117519500D01*
X84388711Y-117537949D01*
X84388710Y-117537949D01*
X84288171Y-117557947D01*
X84288159Y-117557950D01*
X84250938Y-117573367D01*
X84250939Y-117573368D01*
X84106088Y-117633366D01*
X84106079Y-117633371D01*
X83942219Y-117742859D01*
X83903181Y-117781898D01*
X83802861Y-117882218D01*
X83592181Y-118092898D01*
X83530858Y-118126383D01*
X83461166Y-118121399D01*
X83405233Y-118079527D01*
X83380816Y-118014063D01*
X83380500Y-118005217D01*
X83380500Y-115965782D01*
X83400185Y-115898743D01*
X83416819Y-115878101D01*
X84818101Y-114476819D01*
X84879424Y-114443334D01*
X84905782Y-114440500D01*
X85083536Y-114440500D01*
X85150575Y-114460185D01*
X85167521Y-114473272D01*
X85168204Y-114473901D01*
X85168216Y-114473913D01*
X85287134Y-114566470D01*
X85341592Y-114608857D01*
X85351374Y-114616470D01*
X85487245Y-114690000D01*
X85545605Y-114721583D01*
X85555497Y-114726936D01*
X85629371Y-114752297D01*
X85775015Y-114802297D01*
X85775017Y-114802297D01*
X85775019Y-114802298D01*
X86003951Y-114840500D01*
X86003952Y-114840500D01*
X86236048Y-114840500D01*
X86236049Y-114840500D01*
X86464981Y-114802298D01*
X86684503Y-114726936D01*
X86888626Y-114616470D01*
X87071784Y-114473913D01*
X87071800Y-114473895D01*
X87072479Y-114473272D01*
X87072827Y-114473100D01*
X87075830Y-114470763D01*
X87076310Y-114471380D01*
X87135133Y-114442348D01*
X87156464Y-114440500D01*
X91476958Y-114440500D01*
X91543997Y-114460185D01*
X91553120Y-114466647D01*
X91681365Y-114566464D01*
X91681371Y-114566468D01*
X91681374Y-114566470D01*
X91885497Y-114676936D01*
X91926878Y-114691142D01*
X92105015Y-114752297D01*
X92105017Y-114752297D01*
X92105019Y-114752298D01*
X92333951Y-114790500D01*
X92333952Y-114790500D01*
X92566048Y-114790500D01*
X92566049Y-114790500D01*
X92794981Y-114752298D01*
X93014503Y-114676936D01*
X93218626Y-114566470D01*
X93226058Y-114560686D01*
X93333810Y-114476819D01*
X93401784Y-114423913D01*
X93558979Y-114253153D01*
X93685924Y-114058849D01*
X93779157Y-113846300D01*
X93836134Y-113621305D01*
X93836201Y-113620500D01*
X93855300Y-113390006D01*
X93855300Y-113389993D01*
X93836135Y-113158702D01*
X93836133Y-113158691D01*
X93779157Y-112933699D01*
X93685924Y-112721151D01*
X93558983Y-112526852D01*
X93558980Y-112526849D01*
X93558979Y-112526847D01*
X93401784Y-112356087D01*
X93224180Y-112217853D01*
X93183368Y-112161143D01*
X93179693Y-112091370D01*
X93214324Y-112030687D01*
X93224181Y-112022146D01*
X93226056Y-112020687D01*
X93401784Y-111883913D01*
X93558979Y-111713153D01*
X93685924Y-111518849D01*
X93779157Y-111306300D01*
X93836134Y-111081305D01*
X93842084Y-111009500D01*
X93855300Y-110850006D01*
X93855300Y-110849993D01*
X93836135Y-110618702D01*
X93836133Y-110618691D01*
X93779157Y-110393699D01*
X93685924Y-110181151D01*
X93558983Y-109986852D01*
X93558980Y-109986849D01*
X93558979Y-109986847D01*
X93401784Y-109816087D01*
X93224180Y-109677853D01*
X93183368Y-109621143D01*
X93179693Y-109551370D01*
X93214324Y-109490687D01*
X93224181Y-109482146D01*
X93226056Y-109480687D01*
X93401784Y-109343913D01*
X93558979Y-109173153D01*
X93685924Y-108978849D01*
X93779157Y-108766300D01*
X93836134Y-108541305D01*
X93852814Y-108340006D01*
X93855300Y-108310006D01*
X93855300Y-108309993D01*
X93836135Y-108078702D01*
X93836133Y-108078691D01*
X93779157Y-107853699D01*
X93685924Y-107641151D01*
X93558983Y-107446852D01*
X93558980Y-107446849D01*
X93558979Y-107446847D01*
X93401784Y-107276087D01*
X93224180Y-107137853D01*
X93183368Y-107081143D01*
X93179693Y-107011370D01*
X93214324Y-106950687D01*
X93224181Y-106942146D01*
X93226056Y-106940687D01*
X93401784Y-106803913D01*
X93558979Y-106633153D01*
X93685924Y-106438849D01*
X93779157Y-106226300D01*
X93836134Y-106001305D01*
X93836135Y-106001297D01*
X93855300Y-105770006D01*
X93855300Y-105769993D01*
X93836135Y-105538702D01*
X93836133Y-105538691D01*
X93779157Y-105313699D01*
X93685924Y-105101151D01*
X93558983Y-104906852D01*
X93558980Y-104906849D01*
X93558979Y-104906847D01*
X93401784Y-104736087D01*
X93224180Y-104597853D01*
X93183368Y-104541143D01*
X93179693Y-104471370D01*
X93214324Y-104410687D01*
X93224181Y-104402146D01*
X93226056Y-104400687D01*
X93401784Y-104263913D01*
X93558979Y-104093153D01*
X93685924Y-103898849D01*
X93779157Y-103686300D01*
X93836134Y-103461305D01*
X93852814Y-103260006D01*
X93855300Y-103230006D01*
X93855300Y-103229993D01*
X93836135Y-102998702D01*
X93836133Y-102998691D01*
X93779157Y-102773699D01*
X93685924Y-102561151D01*
X93558983Y-102366852D01*
X93558980Y-102366849D01*
X93558979Y-102366847D01*
X93401784Y-102196087D01*
X93224180Y-102057853D01*
X93183368Y-102001143D01*
X93179693Y-101931370D01*
X93214324Y-101870687D01*
X93224181Y-101862146D01*
X93226056Y-101860687D01*
X93401784Y-101723913D01*
X93558979Y-101553153D01*
X93685924Y-101358849D01*
X93779157Y-101146300D01*
X93836134Y-100921305D01*
X93852814Y-100720006D01*
X93855300Y-100690006D01*
X93855300Y-100689993D01*
X93836135Y-100458702D01*
X93836133Y-100458691D01*
X93779157Y-100233699D01*
X93685924Y-100021151D01*
X93558983Y-99826852D01*
X93558980Y-99826849D01*
X93558979Y-99826847D01*
X93401784Y-99656087D01*
X93224180Y-99517853D01*
X93183368Y-99461143D01*
X93179693Y-99391370D01*
X93214324Y-99330687D01*
X93224181Y-99322146D01*
X93227581Y-99319500D01*
X93401784Y-99183913D01*
X93558979Y-99013153D01*
X93685924Y-98818849D01*
X93779157Y-98606300D01*
X93836134Y-98381305D01*
X93855300Y-98150000D01*
X93855300Y-98149993D01*
X93836135Y-97918702D01*
X93836133Y-97918691D01*
X93779157Y-97693699D01*
X93685924Y-97481151D01*
X93558983Y-97286852D01*
X93558980Y-97286849D01*
X93558979Y-97286847D01*
X93401784Y-97116087D01*
X93224180Y-96977853D01*
X93183368Y-96921143D01*
X93179693Y-96851370D01*
X93214324Y-96790687D01*
X93224181Y-96782146D01*
X93401784Y-96643913D01*
X93558979Y-96473153D01*
X93685924Y-96278849D01*
X93779157Y-96066300D01*
X93836134Y-95841305D01*
X93836135Y-95841297D01*
X93855300Y-95610006D01*
X93855300Y-95609993D01*
X93836135Y-95378702D01*
X93836133Y-95378691D01*
X93779157Y-95153699D01*
X93685924Y-94941151D01*
X93558983Y-94746852D01*
X93558980Y-94746849D01*
X93558979Y-94746847D01*
X93401784Y-94576087D01*
X93224180Y-94437853D01*
X93183368Y-94381143D01*
X93179693Y-94311370D01*
X93214324Y-94250687D01*
X93224181Y-94242146D01*
X93226056Y-94240687D01*
X93401784Y-94103913D01*
X93558979Y-93933153D01*
X93685924Y-93738849D01*
X93779157Y-93526300D01*
X93836134Y-93301305D01*
X93836135Y-93301297D01*
X93855300Y-93070006D01*
X93855300Y-93069993D01*
X93836135Y-92838702D01*
X93836133Y-92838691D01*
X93779157Y-92613699D01*
X93685924Y-92401151D01*
X93558983Y-92206852D01*
X93558980Y-92206849D01*
X93558979Y-92206847D01*
X93401784Y-92036087D01*
X93224180Y-91897853D01*
X93183368Y-91841143D01*
X93179693Y-91771370D01*
X93214324Y-91710687D01*
X93224181Y-91702146D01*
X93226056Y-91700687D01*
X93401784Y-91563913D01*
X93558979Y-91393153D01*
X93685924Y-91198849D01*
X93779157Y-90986300D01*
X93836134Y-90761305D01*
X93836496Y-90756935D01*
X93855300Y-90530006D01*
X93855300Y-90529993D01*
X93836135Y-90298702D01*
X93836133Y-90298691D01*
X93779157Y-90073699D01*
X93685924Y-89861151D01*
X93558983Y-89666852D01*
X93558980Y-89666849D01*
X93558979Y-89666847D01*
X93401784Y-89496087D01*
X93224180Y-89357853D01*
X93183368Y-89301143D01*
X93179693Y-89231370D01*
X93214324Y-89170687D01*
X93224181Y-89162146D01*
X93226057Y-89160686D01*
X93401784Y-89023913D01*
X93558979Y-88853153D01*
X93685924Y-88658849D01*
X93779157Y-88446300D01*
X93836134Y-88221305D01*
X93836135Y-88221297D01*
X93855300Y-87990006D01*
X93855300Y-87989993D01*
X93836135Y-87758702D01*
X93836133Y-87758691D01*
X93779157Y-87533699D01*
X93685924Y-87321151D01*
X93558983Y-87126852D01*
X93558980Y-87126849D01*
X93558979Y-87126847D01*
X93401784Y-86956087D01*
X93224180Y-86817853D01*
X93183368Y-86761143D01*
X93179693Y-86691370D01*
X93214324Y-86630687D01*
X93224181Y-86622146D01*
X93226056Y-86620687D01*
X93401784Y-86483913D01*
X93558979Y-86313153D01*
X93685924Y-86118849D01*
X93779157Y-85906300D01*
X93836134Y-85681305D01*
X93836135Y-85681297D01*
X93855300Y-85450006D01*
X93855300Y-85449993D01*
X93836135Y-85218702D01*
X93836133Y-85218691D01*
X93779157Y-84993699D01*
X93685924Y-84781151D01*
X93558983Y-84586852D01*
X93558980Y-84586849D01*
X93558979Y-84586847D01*
X93401784Y-84416087D01*
X93224179Y-84277852D01*
X93183367Y-84221142D01*
X93179692Y-84151369D01*
X93214323Y-84090686D01*
X93224165Y-84082158D01*
X93268817Y-84047404D01*
X93333810Y-84021763D01*
X93402350Y-84035330D01*
X93432658Y-84057578D01*
X100753181Y-91378101D01*
X100786666Y-91439424D01*
X100789500Y-91465782D01*
X100789500Y-118258544D01*
X100815939Y-118391461D01*
X100827946Y-118451827D01*
X100827949Y-118451837D01*
X100903364Y-118633907D01*
X100903371Y-118633920D01*
X101012859Y-118797780D01*
X101012860Y-118797781D01*
X101012861Y-118797782D01*
X101152218Y-118937139D01*
X101152219Y-118937139D01*
X101159286Y-118944206D01*
X101159285Y-118944206D01*
X101159289Y-118944209D01*
X108253181Y-126038101D01*
X108286666Y-126099424D01*
X108289500Y-126125782D01*
X108289500Y-131153705D01*
X108269815Y-131220744D01*
X108230599Y-131259242D01*
X108201347Y-131277285D01*
X108201343Y-131277288D01*
X108077289Y-131401342D01*
X107985187Y-131550663D01*
X107985185Y-131550668D01*
X107981145Y-131562861D01*
X107930001Y-131717203D01*
X107930001Y-131717204D01*
X107930000Y-131717204D01*
X107919500Y-131819983D01*
X107919500Y-133420001D01*
X107919501Y-133420018D01*
X107930000Y-133522796D01*
X107930001Y-133522799D01*
X107967740Y-133636686D01*
X107985186Y-133689334D01*
X108077288Y-133838656D01*
X108201344Y-133962712D01*
X108350666Y-134054814D01*
X108517203Y-134109999D01*
X108619991Y-134120500D01*
X109920008Y-134120499D01*
X110022797Y-134109999D01*
X110189334Y-134054814D01*
X110338656Y-133962712D01*
X110462712Y-133838656D01*
X110554814Y-133689334D01*
X110609999Y-133522797D01*
X110620500Y-133420009D01*
X110620499Y-131819992D01*
X110609999Y-131717203D01*
X110554814Y-131550666D01*
X110462712Y-131401344D01*
X110338656Y-131277288D01*
X110338655Y-131277287D01*
X110337585Y-131276441D01*
X110337041Y-131275673D01*
X110333549Y-131272181D01*
X110334146Y-131271583D01*
X110297211Y-131219418D01*
X110290500Y-131179178D01*
X110290500Y-128660006D01*
X115634700Y-128660006D01*
X115653864Y-128891297D01*
X115653866Y-128891308D01*
X115710842Y-129116300D01*
X115804075Y-129328848D01*
X115931016Y-129523147D01*
X115931019Y-129523151D01*
X115931021Y-129523153D01*
X116088216Y-129693913D01*
X116088219Y-129693915D01*
X116088222Y-129693918D01*
X116271365Y-129836464D01*
X116271371Y-129836468D01*
X116271374Y-129836470D01*
X116475497Y-129946936D01*
X116553729Y-129973793D01*
X116695015Y-130022297D01*
X116695017Y-130022297D01*
X116695019Y-130022298D01*
X116923951Y-130060500D01*
X116923952Y-130060500D01*
X117156048Y-130060500D01*
X117156049Y-130060500D01*
X117384981Y-130022298D01*
X117604503Y-129946936D01*
X117808626Y-129836470D01*
X117826796Y-129822328D01*
X117988272Y-129696647D01*
X118053266Y-129671004D01*
X118064434Y-129670500D01*
X122246958Y-129670500D01*
X122313997Y-129690185D01*
X122323120Y-129696647D01*
X122451365Y-129796464D01*
X122451371Y-129796468D01*
X122451374Y-129796470D01*
X122655497Y-129906936D01*
X122744655Y-129937544D01*
X122875015Y-129982297D01*
X122875017Y-129982297D01*
X122875019Y-129982298D01*
X123103951Y-130020500D01*
X123103952Y-130020500D01*
X123336048Y-130020500D01*
X123336049Y-130020500D01*
X123564981Y-129982298D01*
X123784503Y-129906936D01*
X123988626Y-129796470D01*
X124033984Y-129761167D01*
X124120389Y-129693915D01*
X124171784Y-129653913D01*
X124328979Y-129483153D01*
X124455924Y-129288849D01*
X124549157Y-129076300D01*
X124606134Y-128851305D01*
X124606135Y-128851297D01*
X124625300Y-128620006D01*
X124625300Y-128619993D01*
X124606135Y-128388702D01*
X124606133Y-128388691D01*
X124549157Y-128163699D01*
X124455924Y-127951151D01*
X124328983Y-127756852D01*
X124328980Y-127756849D01*
X124328979Y-127756847D01*
X124171784Y-127586087D01*
X123994180Y-127447853D01*
X123953368Y-127391143D01*
X123949693Y-127321370D01*
X123984324Y-127260687D01*
X123994181Y-127252146D01*
X124012175Y-127238141D01*
X124171784Y-127113913D01*
X124328979Y-126943153D01*
X124455924Y-126748849D01*
X124549157Y-126536300D01*
X124606134Y-126311305D01*
X124620328Y-126140006D01*
X124625300Y-126080006D01*
X124625300Y-126079993D01*
X124606135Y-125848702D01*
X124606133Y-125848691D01*
X124549157Y-125623699D01*
X124455924Y-125411151D01*
X124328983Y-125216852D01*
X124328980Y-125216849D01*
X124328979Y-125216847D01*
X124171784Y-125046087D01*
X123994180Y-124907853D01*
X123953368Y-124851143D01*
X123949693Y-124781370D01*
X123984324Y-124720687D01*
X123994181Y-124712146D01*
X124171784Y-124573913D01*
X124328979Y-124403153D01*
X124455924Y-124208849D01*
X124549157Y-123996300D01*
X124606134Y-123771305D01*
X124606890Y-123762184D01*
X124625300Y-123540006D01*
X124625300Y-123539993D01*
X124606135Y-123308702D01*
X124606133Y-123308691D01*
X124549157Y-123083699D01*
X124455924Y-122871151D01*
X124328983Y-122676852D01*
X124328980Y-122676849D01*
X124328979Y-122676847D01*
X124171784Y-122506087D01*
X123994180Y-122367853D01*
X123953368Y-122311143D01*
X123949693Y-122241370D01*
X123984324Y-122180687D01*
X123994181Y-122172146D01*
X124171784Y-122033913D01*
X124328979Y-121863153D01*
X124455924Y-121668849D01*
X124549157Y-121456300D01*
X124606134Y-121231305D01*
X124606135Y-121231297D01*
X124625300Y-121000006D01*
X124625300Y-120999993D01*
X124606135Y-120768702D01*
X124606133Y-120768691D01*
X124549157Y-120543699D01*
X124455924Y-120331151D01*
X124328983Y-120136852D01*
X124328980Y-120136849D01*
X124328979Y-120136847D01*
X124171784Y-119966087D01*
X123994180Y-119827853D01*
X123953368Y-119771143D01*
X123949693Y-119701370D01*
X123984324Y-119640687D01*
X123994181Y-119632146D01*
X124171784Y-119493913D01*
X124328979Y-119323153D01*
X124455924Y-119128849D01*
X124549157Y-118916300D01*
X124606134Y-118691305D01*
X124610889Y-118633920D01*
X124625300Y-118460006D01*
X124625300Y-118459993D01*
X124606135Y-118228702D01*
X124606133Y-118228691D01*
X124549157Y-118003699D01*
X124455924Y-117791151D01*
X124328983Y-117596852D01*
X124328980Y-117596849D01*
X124328979Y-117596847D01*
X124171784Y-117426087D01*
X123994180Y-117287853D01*
X123953368Y-117231143D01*
X123949693Y-117161370D01*
X123984324Y-117100687D01*
X123994181Y-117092146D01*
X124171784Y-116953913D01*
X124328979Y-116783153D01*
X124455924Y-116588849D01*
X124549157Y-116376300D01*
X124606134Y-116151305D01*
X124608687Y-116120500D01*
X124625300Y-115920006D01*
X124625300Y-115919993D01*
X124606135Y-115688702D01*
X124606133Y-115688691D01*
X124549157Y-115463699D01*
X124455924Y-115251151D01*
X124328983Y-115056852D01*
X124328980Y-115056849D01*
X124328979Y-115056847D01*
X124171784Y-114886087D01*
X124171779Y-114886083D01*
X124171777Y-114886081D01*
X123994181Y-114747852D01*
X123953368Y-114691142D01*
X123949693Y-114621369D01*
X123984325Y-114560686D01*
X123994165Y-114552158D01*
X124145660Y-114434245D01*
X124210651Y-114408605D01*
X124279191Y-114422172D01*
X124309500Y-114444420D01*
X125233181Y-115368101D01*
X125266666Y-115429424D01*
X125269500Y-115455782D01*
X125269500Y-131438542D01*
X125281896Y-131500860D01*
X125281896Y-131500861D01*
X125307947Y-131631828D01*
X125307950Y-131631840D01*
X125327692Y-131679500D01*
X125383366Y-131813911D01*
X125383371Y-131813920D01*
X125492859Y-131977780D01*
X125492860Y-131977781D01*
X125492861Y-131977782D01*
X125632218Y-132117139D01*
X125632219Y-132117139D01*
X125639286Y-132124206D01*
X125639285Y-132124206D01*
X125639289Y-132124209D01*
X129088181Y-135573102D01*
X129121666Y-135634425D01*
X129124500Y-135660783D01*
X129124500Y-136320001D01*
X129124501Y-136320019D01*
X129135000Y-136422796D01*
X129135001Y-136422799D01*
X129190185Y-136589331D01*
X129190189Y-136589340D01*
X129277198Y-136730404D01*
X129295638Y-136797796D01*
X129274715Y-136864459D01*
X129221073Y-136909229D01*
X129171659Y-136919500D01*
X126611578Y-136919500D01*
X126417173Y-136950290D01*
X126229969Y-137011117D01*
X126054594Y-137100476D01*
X125982542Y-137152826D01*
X125895354Y-137216172D01*
X125895352Y-137216174D01*
X125895351Y-137216174D01*
X123578345Y-139533181D01*
X123517022Y-139566666D01*
X123490664Y-139569500D01*
X120813533Y-139569500D01*
X120757238Y-139555985D01*
X120749236Y-139551908D01*
X120687595Y-139520500D01*
X120595255Y-139473450D01*
X120377748Y-139402778D01*
X120208326Y-139375944D01*
X120151854Y-139367000D01*
X119828146Y-139367000D01*
X119752849Y-139378926D01*
X119602253Y-139402778D01*
X119602250Y-139402778D01*
X119384744Y-139473450D01*
X119180961Y-139577283D01*
X119097191Y-139638146D01*
X118995934Y-139711714D01*
X118995932Y-139711716D01*
X118995931Y-139711716D01*
X118834216Y-139873431D01*
X118834216Y-139873432D01*
X118834214Y-139873434D01*
X118776480Y-139952896D01*
X118699783Y-140058461D01*
X118595950Y-140262244D01*
X118525278Y-140479750D01*
X118525278Y-140479753D01*
X118525278Y-140479755D01*
X118489500Y-140705646D01*
X118489500Y-140934354D01*
X118492508Y-140953343D01*
X118525278Y-141160246D01*
X118525278Y-141160249D01*
X118595950Y-141377755D01*
X118595952Y-141377758D01*
X118699783Y-141581538D01*
X118699787Y-141581543D01*
X118715818Y-141603608D01*
X118739298Y-141669414D01*
X118739500Y-141676493D01*
X118739500Y-144425856D01*
X118735275Y-144457949D01*
X118704366Y-144573302D01*
X118704364Y-144573313D01*
X118684532Y-144799998D01*
X118684532Y-144800001D01*
X118704364Y-145026686D01*
X118704366Y-145026697D01*
X118763258Y-145246488D01*
X118763261Y-145246497D01*
X118859431Y-145452732D01*
X118859432Y-145452734D01*
X118989954Y-145639141D01*
X119150858Y-145800045D01*
X119150861Y-145800047D01*
X119337266Y-145930568D01*
X119543504Y-146026739D01*
X119763308Y-146085635D01*
X119925230Y-146099801D01*
X119989998Y-146105468D01*
X119990000Y-146105468D01*
X119990002Y-146105468D01*
X120046673Y-146100509D01*
X120216692Y-146085635D01*
X120436496Y-146026739D01*
X120642734Y-145930568D01*
X120829139Y-145800047D01*
X120990047Y-145639139D01*
X121120568Y-145452734D01*
X121216739Y-145246496D01*
X121275635Y-145026692D01*
X121295468Y-144800000D01*
X121275635Y-144573308D01*
X121244725Y-144457949D01*
X121240500Y-144425856D01*
X121240500Y-142194500D01*
X121260185Y-142127461D01*
X121312989Y-142081706D01*
X121364500Y-142070500D01*
X124158422Y-142070500D01*
X124352826Y-142039709D01*
X124540026Y-141978884D01*
X124715405Y-141889524D01*
X124874646Y-141773828D01*
X127191655Y-139456819D01*
X127252978Y-139423334D01*
X127279336Y-139420500D01*
X129933694Y-139420500D01*
X129972012Y-139426569D01*
X130025109Y-139443821D01*
X130158757Y-139487246D01*
X130368713Y-139520500D01*
X130368714Y-139520500D01*
X130831286Y-139520500D01*
X130831287Y-139520500D01*
X131041243Y-139487246D01*
X131174891Y-139443821D01*
X131227988Y-139426569D01*
X131266306Y-139420500D01*
X134168422Y-139420500D01*
X134362826Y-139389709D01*
X134368169Y-139387973D01*
X134432717Y-139367000D01*
X134550026Y-139328884D01*
X134725405Y-139239524D01*
X134884646Y-139123828D01*
X135023828Y-138984646D01*
X135139524Y-138825405D01*
X135228884Y-138650026D01*
X135289709Y-138462826D01*
X135295338Y-138427283D01*
X135320500Y-138268417D01*
X135320500Y-138071583D01*
X135320500Y-138071577D01*
X135298038Y-137929764D01*
X135289709Y-137877174D01*
X135258320Y-137780568D01*
X135228884Y-137689974D01*
X135228882Y-137689971D01*
X135228882Y-137689969D01*
X135156628Y-137548164D01*
X135139524Y-137514595D01*
X135023828Y-137355354D01*
X134874646Y-137206172D01*
X134715405Y-137090476D01*
X134540030Y-137001117D01*
X134352826Y-136940290D01*
X134158422Y-136909500D01*
X134158417Y-136909500D01*
X133961583Y-136909500D01*
X133961579Y-136909500D01*
X133908086Y-136917973D01*
X133888687Y-136919500D01*
X132028341Y-136919500D01*
X131961302Y-136899815D01*
X131915547Y-136847011D01*
X131905603Y-136777853D01*
X131922802Y-136730404D01*
X132009810Y-136589340D01*
X132009814Y-136589334D01*
X132064999Y-136422797D01*
X132075500Y-136320009D01*
X132075499Y-135019992D01*
X132064999Y-134917203D01*
X132009814Y-134750666D01*
X131917712Y-134601344D01*
X131793656Y-134477288D01*
X131644334Y-134385186D01*
X131477797Y-134330001D01*
X131477795Y-134330000D01*
X131375016Y-134319500D01*
X131375009Y-134319500D01*
X130715783Y-134319500D01*
X130648744Y-134299815D01*
X130628102Y-134283181D01*
X127306819Y-130961898D01*
X127273334Y-130900575D01*
X127270500Y-130874217D01*
X127270500Y-122344782D01*
X127290185Y-122277743D01*
X127342989Y-122231988D01*
X127412147Y-122222044D01*
X127475703Y-122251069D01*
X127482179Y-122257099D01*
X128315742Y-123090663D01*
X129138181Y-123913102D01*
X129171666Y-123974425D01*
X129174500Y-124000783D01*
X129174500Y-124660001D01*
X129174501Y-124660019D01*
X129185000Y-124762796D01*
X129185001Y-124762799D01*
X129240185Y-124929331D01*
X129240187Y-124929336D01*
X129275069Y-124985888D01*
X129318369Y-125056090D01*
X129332289Y-125078657D01*
X129456344Y-125202712D01*
X129611120Y-125298178D01*
X129657845Y-125350126D01*
X129669068Y-125419088D01*
X129641224Y-125483171D01*
X129633706Y-125491398D01*
X129494889Y-125630215D01*
X129369951Y-125802179D01*
X129273444Y-125991585D01*
X129207753Y-126193760D01*
X129174500Y-126403713D01*
X129174500Y-126616286D01*
X129207212Y-126822826D01*
X129207754Y-126826243D01*
X129258737Y-126983153D01*
X129273444Y-127028414D01*
X129369951Y-127217820D01*
X129494890Y-127389786D01*
X129645213Y-127540109D01*
X129817179Y-127665048D01*
X129817181Y-127665049D01*
X129817184Y-127665051D01*
X130006588Y-127761557D01*
X130208757Y-127827246D01*
X130418713Y-127860500D01*
X130418714Y-127860500D01*
X130881286Y-127860500D01*
X130881287Y-127860500D01*
X131091243Y-127827246D01*
X131216434Y-127786568D01*
X131254752Y-127780500D01*
X134158422Y-127780500D01*
X134352826Y-127749709D01*
X134540025Y-127688884D01*
X134715405Y-127599524D01*
X134874646Y-127483828D01*
X135013828Y-127344646D01*
X135129524Y-127185405D01*
X135218884Y-127010025D01*
X135279709Y-126822826D01*
X135281923Y-126808848D01*
X135310500Y-126628422D01*
X135310500Y-126431577D01*
X135279709Y-126237173D01*
X135243515Y-126125782D01*
X135218884Y-126049975D01*
X135218882Y-126049972D01*
X135218882Y-126049970D01*
X135146902Y-125908702D01*
X135129524Y-125874595D01*
X135013828Y-125715354D01*
X134874646Y-125576172D01*
X134715405Y-125460476D01*
X134697104Y-125451151D01*
X134540029Y-125371117D01*
X134352826Y-125310290D01*
X134158422Y-125279500D01*
X134158417Y-125279500D01*
X132065031Y-125279500D01*
X131997992Y-125259815D01*
X131952237Y-125207011D01*
X131942293Y-125137853D01*
X131964847Y-125085375D01*
X131963920Y-125084803D01*
X131967710Y-125078657D01*
X131967712Y-125078656D01*
X132059814Y-124929334D01*
X132114999Y-124762797D01*
X132125500Y-124660009D01*
X132125499Y-123359992D01*
X132121280Y-123318695D01*
X132114999Y-123257203D01*
X132114998Y-123257200D01*
X132099102Y-123209229D01*
X132059814Y-123090666D01*
X131967712Y-122941344D01*
X131843656Y-122817288D01*
X131694334Y-122725186D01*
X131527797Y-122670001D01*
X131527795Y-122670000D01*
X131425016Y-122659500D01*
X131425009Y-122659500D01*
X130765783Y-122659500D01*
X130698744Y-122639815D01*
X130678102Y-122623181D01*
X128856819Y-120801898D01*
X128823334Y-120740575D01*
X128820500Y-120714217D01*
X128820500Y-112531456D01*
X128792258Y-112389479D01*
X128782051Y-112338165D01*
X128780929Y-112335457D01*
X128741597Y-112240500D01*
X128715710Y-112178004D01*
X128708242Y-112108538D01*
X128739517Y-112046058D01*
X128799606Y-112010406D01*
X128869431Y-112012900D01*
X128917953Y-112042873D01*
X129138181Y-112263101D01*
X129171666Y-112324424D01*
X129174500Y-112350782D01*
X129174500Y-113010001D01*
X129174501Y-113010019D01*
X129185000Y-113112796D01*
X129185001Y-113112799D01*
X129240185Y-113279331D01*
X129240187Y-113279336D01*
X129270090Y-113327816D01*
X129332288Y-113428656D01*
X129456344Y-113552712D01*
X129567556Y-113621308D01*
X129611120Y-113648178D01*
X129657845Y-113700126D01*
X129669068Y-113769088D01*
X129641224Y-113833171D01*
X129633706Y-113841398D01*
X129494889Y-113980215D01*
X129369951Y-114152179D01*
X129273444Y-114341585D01*
X129207753Y-114543760D01*
X129174500Y-114753713D01*
X129174500Y-114966286D01*
X129197709Y-115112826D01*
X129207754Y-115176243D01*
X129261115Y-115340471D01*
X129273444Y-115378414D01*
X129369951Y-115567820D01*
X129494890Y-115739786D01*
X129645213Y-115890109D01*
X129817179Y-116015048D01*
X129817181Y-116015049D01*
X129817184Y-116015051D01*
X130006588Y-116111557D01*
X130208757Y-116177246D01*
X130418713Y-116210500D01*
X130418714Y-116210500D01*
X130881286Y-116210500D01*
X130881287Y-116210500D01*
X131091243Y-116177246D01*
X131222226Y-116134686D01*
X131277988Y-116116569D01*
X131316306Y-116110500D01*
X134148422Y-116110500D01*
X134342826Y-116079709D01*
X134409602Y-116058012D01*
X134530026Y-116018884D01*
X134705405Y-115929524D01*
X134864646Y-115813828D01*
X135043829Y-115634645D01*
X135159524Y-115475405D01*
X135248884Y-115300025D01*
X135309709Y-115112826D01*
X135325407Y-115013713D01*
X135340500Y-114918421D01*
X135340500Y-114721577D01*
X135309709Y-114527172D01*
X135272908Y-114413913D01*
X135248884Y-114339974D01*
X135248882Y-114339971D01*
X135248882Y-114339969D01*
X135159523Y-114164593D01*
X135043829Y-114005354D01*
X134904646Y-113866171D01*
X134745406Y-113750476D01*
X134570030Y-113661117D01*
X134382827Y-113600290D01*
X134188422Y-113569500D01*
X134188417Y-113569500D01*
X133991584Y-113569500D01*
X133991579Y-113569500D01*
X133797177Y-113600290D01*
X133797175Y-113600290D01*
X133787507Y-113603432D01*
X133749192Y-113609500D01*
X132078341Y-113609500D01*
X132011302Y-113589815D01*
X131965547Y-113537011D01*
X131955603Y-113467853D01*
X131972802Y-113420404D01*
X132059810Y-113279340D01*
X132059814Y-113279334D01*
X132114999Y-113112797D01*
X132125500Y-113010009D01*
X132125499Y-111709992D01*
X132114999Y-111607203D01*
X132059814Y-111440666D01*
X131967712Y-111291344D01*
X131843656Y-111167288D01*
X131750888Y-111110069D01*
X131694336Y-111075187D01*
X131694331Y-111075185D01*
X131642506Y-111058012D01*
X131527797Y-111020001D01*
X131527795Y-111020000D01*
X131425016Y-111009500D01*
X131425009Y-111009500D01*
X130765782Y-111009500D01*
X130698743Y-110989815D01*
X130678101Y-110973181D01*
X127371479Y-107666559D01*
X127371459Y-107666537D01*
X127227785Y-107522863D01*
X127227781Y-107522860D01*
X127063920Y-107413371D01*
X127063907Y-107413364D01*
X126909723Y-107349500D01*
X126881837Y-107337949D01*
X126881829Y-107337947D01*
X126785188Y-107318724D01*
X126688544Y-107299500D01*
X126688541Y-107299500D01*
X124256464Y-107299500D01*
X124189425Y-107279815D01*
X124172479Y-107266728D01*
X124171792Y-107266095D01*
X124171784Y-107266087D01*
X124071269Y-107187853D01*
X123994181Y-107127853D01*
X123953368Y-107071143D01*
X123949693Y-107001370D01*
X123984325Y-106940687D01*
X123994181Y-106932146D01*
X124129729Y-106826646D01*
X124194723Y-106801004D01*
X124205891Y-106800500D01*
X129754800Y-106800500D01*
X129821839Y-106820185D01*
X129834365Y-106829493D01*
X130007179Y-106955048D01*
X130007181Y-106955049D01*
X130007184Y-106955051D01*
X130196588Y-107051557D01*
X130398757Y-107117246D01*
X130608713Y-107150500D01*
X130608714Y-107150500D01*
X131071286Y-107150500D01*
X131071287Y-107150500D01*
X131281243Y-107117246D01*
X131483412Y-107051557D01*
X131672816Y-106955051D01*
X131812015Y-106853918D01*
X131844786Y-106830109D01*
X131844788Y-106830106D01*
X131844792Y-106830104D01*
X131995104Y-106679792D01*
X131995106Y-106679788D01*
X131995109Y-106679786D01*
X132120048Y-106507820D01*
X132120047Y-106507820D01*
X132120051Y-106507816D01*
X132216557Y-106318412D01*
X132282246Y-106116243D01*
X132315500Y-105906287D01*
X132315500Y-105693713D01*
X132282246Y-105483757D01*
X132216557Y-105281588D01*
X132120051Y-105092184D01*
X132120049Y-105092181D01*
X132120048Y-105092179D01*
X131995109Y-104920213D01*
X131844792Y-104769896D01*
X131830461Y-104759484D01*
X131680204Y-104650316D01*
X131637540Y-104594989D01*
X131631561Y-104525376D01*
X131664166Y-104463580D01*
X131680199Y-104449686D01*
X131844792Y-104330104D01*
X131995104Y-104179792D01*
X131995106Y-104179788D01*
X131995109Y-104179786D01*
X132120048Y-104007820D01*
X132120047Y-104007820D01*
X132120051Y-104007816D01*
X132216557Y-103818412D01*
X132282246Y-103616243D01*
X132315500Y-103406287D01*
X132315500Y-103193713D01*
X132282246Y-102983757D01*
X132216557Y-102781588D01*
X132120051Y-102592184D01*
X132120049Y-102592181D01*
X132120048Y-102592179D01*
X131995109Y-102420213D01*
X131856294Y-102281398D01*
X131822809Y-102220075D01*
X131827793Y-102150383D01*
X131869665Y-102094450D01*
X131878879Y-102088178D01*
X131884331Y-102084814D01*
X131884334Y-102084814D01*
X132033656Y-101992712D01*
X132157712Y-101868656D01*
X132249814Y-101719334D01*
X132304999Y-101552797D01*
X132315500Y-101450009D01*
X132315499Y-100149992D01*
X132304999Y-100047203D01*
X132249814Y-99880666D01*
X132157712Y-99731344D01*
X132033656Y-99607288D01*
X131884334Y-99515186D01*
X131717797Y-99460001D01*
X131717795Y-99460000D01*
X131615010Y-99449500D01*
X130064998Y-99449500D01*
X130064981Y-99449501D01*
X129962203Y-99460000D01*
X129962200Y-99460001D01*
X129795668Y-99515185D01*
X129795663Y-99515187D01*
X129646342Y-99607289D01*
X129522287Y-99731344D01*
X129516580Y-99740598D01*
X129464632Y-99787322D01*
X129411042Y-99799500D01*
X124367402Y-99799500D01*
X124300363Y-99779815D01*
X124276172Y-99759483D01*
X124239655Y-99719815D01*
X124171784Y-99646087D01*
X124171783Y-99646086D01*
X124171781Y-99646084D01*
X124171777Y-99646081D01*
X123988634Y-99503535D01*
X123988628Y-99503531D01*
X123784504Y-99393064D01*
X123784495Y-99393061D01*
X123564984Y-99317702D01*
X123393282Y-99289050D01*
X123336049Y-99279500D01*
X123103951Y-99279500D01*
X123061121Y-99286647D01*
X122875015Y-99317702D01*
X122655504Y-99393061D01*
X122655495Y-99393064D01*
X122451371Y-99503531D01*
X122330187Y-99597853D01*
X122268216Y-99646087D01*
X122228266Y-99689484D01*
X122168381Y-99725473D01*
X122137038Y-99729500D01*
X118086140Y-99729500D01*
X118019101Y-99709815D01*
X117994907Y-99689479D01*
X117991790Y-99686093D01*
X117991777Y-99686081D01*
X117808634Y-99543535D01*
X117808628Y-99543531D01*
X117604504Y-99433064D01*
X117604495Y-99433061D01*
X117384984Y-99357702D01*
X117197818Y-99326470D01*
X117156049Y-99319500D01*
X116923951Y-99319500D01*
X116882182Y-99326470D01*
X116695015Y-99357702D01*
X116475504Y-99433061D01*
X116475495Y-99433064D01*
X116271371Y-99543531D01*
X116271365Y-99543535D01*
X116088222Y-99686081D01*
X116088219Y-99686084D01*
X116088216Y-99686086D01*
X116088216Y-99686087D01*
X116085090Y-99689483D01*
X115931016Y-99856852D01*
X115804075Y-100051151D01*
X115710842Y-100263699D01*
X115653866Y-100488691D01*
X115653864Y-100488702D01*
X115634700Y-100719993D01*
X115634700Y-100720006D01*
X115653864Y-100951297D01*
X115653866Y-100951308D01*
X115710842Y-101176300D01*
X115804075Y-101388848D01*
X115931016Y-101583147D01*
X115931019Y-101583151D01*
X115931021Y-101583153D01*
X116088216Y-101753913D01*
X116088219Y-101753915D01*
X116088222Y-101753918D01*
X116265818Y-101892147D01*
X116306631Y-101948857D01*
X116310306Y-102018630D01*
X116275674Y-102079313D01*
X116265818Y-102087853D01*
X116088222Y-102226081D01*
X116088219Y-102226084D01*
X116088216Y-102226086D01*
X116088216Y-102226087D01*
X116061642Y-102254954D01*
X115931016Y-102396852D01*
X115804075Y-102591151D01*
X115710842Y-102803699D01*
X115653866Y-103028691D01*
X115653864Y-103028702D01*
X115634700Y-103259993D01*
X115634700Y-103260006D01*
X115653864Y-103491297D01*
X115653866Y-103491308D01*
X115710842Y-103716300D01*
X115804075Y-103928848D01*
X115931016Y-104123147D01*
X115931019Y-104123151D01*
X115931021Y-104123153D01*
X116088216Y-104293913D01*
X116088219Y-104293915D01*
X116088222Y-104293918D01*
X116265818Y-104432147D01*
X116306631Y-104488857D01*
X116310306Y-104558630D01*
X116275674Y-104619313D01*
X116265818Y-104627853D01*
X116088222Y-104766081D01*
X116088219Y-104766084D01*
X116088216Y-104766086D01*
X116088216Y-104766087D01*
X116085090Y-104769483D01*
X115931016Y-104936852D01*
X115804075Y-105131151D01*
X115710842Y-105343699D01*
X115653866Y-105568691D01*
X115653864Y-105568702D01*
X115634700Y-105799993D01*
X115634700Y-105800006D01*
X115653864Y-106031297D01*
X115653866Y-106031308D01*
X115710842Y-106256300D01*
X115804075Y-106468848D01*
X115931016Y-106663147D01*
X115931019Y-106663151D01*
X115931021Y-106663153D01*
X116088216Y-106833913D01*
X116088219Y-106833915D01*
X116088222Y-106833918D01*
X116265818Y-106972147D01*
X116306631Y-107028857D01*
X116310306Y-107098630D01*
X116275674Y-107159313D01*
X116265818Y-107167853D01*
X116088222Y-107306081D01*
X116088219Y-107306084D01*
X115931016Y-107476852D01*
X115804075Y-107671151D01*
X115710842Y-107883699D01*
X115653866Y-108108691D01*
X115653864Y-108108702D01*
X115634700Y-108339993D01*
X115634700Y-108340006D01*
X115653864Y-108571297D01*
X115653866Y-108571308D01*
X115710842Y-108796300D01*
X115804075Y-109008848D01*
X115931016Y-109203147D01*
X115931019Y-109203151D01*
X115931021Y-109203153D01*
X116088216Y-109373913D01*
X116088219Y-109373915D01*
X116088222Y-109373918D01*
X116265818Y-109512147D01*
X116306631Y-109568857D01*
X116310306Y-109638630D01*
X116275674Y-109699313D01*
X116265818Y-109707853D01*
X116088222Y-109846081D01*
X116088219Y-109846084D01*
X116088216Y-109846086D01*
X116088216Y-109846087D01*
X116085090Y-109849483D01*
X115931016Y-110016852D01*
X115804075Y-110211151D01*
X115710842Y-110423699D01*
X115653866Y-110648691D01*
X115653864Y-110648702D01*
X115634700Y-110879993D01*
X115634700Y-110880006D01*
X115653864Y-111111297D01*
X115653866Y-111111308D01*
X115710842Y-111336300D01*
X115804075Y-111548848D01*
X115931016Y-111743147D01*
X115931019Y-111743151D01*
X115931021Y-111743153D01*
X116088216Y-111913913D01*
X116088219Y-111913915D01*
X116088222Y-111913918D01*
X116265818Y-112052147D01*
X116306631Y-112108857D01*
X116310306Y-112178630D01*
X116275674Y-112239313D01*
X116265818Y-112247853D01*
X116088222Y-112386081D01*
X116088219Y-112386084D01*
X116088216Y-112386086D01*
X116088216Y-112386087D01*
X116085090Y-112389483D01*
X115931016Y-112556852D01*
X115804075Y-112751151D01*
X115710842Y-112963699D01*
X115653866Y-113188691D01*
X115653864Y-113188702D01*
X115634700Y-113419993D01*
X115634700Y-113420006D01*
X115653864Y-113651297D01*
X115653866Y-113651308D01*
X115710842Y-113876300D01*
X115804075Y-114088848D01*
X115931016Y-114283147D01*
X115931019Y-114283151D01*
X115931021Y-114283153D01*
X116088216Y-114453913D01*
X116088219Y-114453915D01*
X116088222Y-114453918D01*
X116265818Y-114592147D01*
X116306631Y-114648857D01*
X116310306Y-114718630D01*
X116275674Y-114779313D01*
X116265818Y-114787853D01*
X116088222Y-114926081D01*
X116088219Y-114926084D01*
X116088216Y-114926086D01*
X116088216Y-114926087D01*
X116048252Y-114969500D01*
X115931016Y-115096852D01*
X115804075Y-115291151D01*
X115710842Y-115503699D01*
X115653866Y-115728691D01*
X115653864Y-115728702D01*
X115634700Y-115959993D01*
X115634700Y-115960006D01*
X115653864Y-116191297D01*
X115653866Y-116191308D01*
X115710842Y-116416300D01*
X115804075Y-116628848D01*
X115931016Y-116823147D01*
X115931019Y-116823151D01*
X115931021Y-116823153D01*
X116088216Y-116993913D01*
X116088219Y-116993915D01*
X116088222Y-116993918D01*
X116265818Y-117132147D01*
X116306631Y-117188857D01*
X116310306Y-117258630D01*
X116275674Y-117319313D01*
X116265818Y-117327853D01*
X116088222Y-117466081D01*
X116088219Y-117466084D01*
X116088216Y-117466086D01*
X116088216Y-117466087D01*
X116085090Y-117469483D01*
X115931016Y-117636852D01*
X115804075Y-117831151D01*
X115710842Y-118043699D01*
X115653866Y-118268691D01*
X115653864Y-118268702D01*
X115634700Y-118499993D01*
X115634700Y-118500006D01*
X115653864Y-118731297D01*
X115653866Y-118731308D01*
X115710842Y-118956300D01*
X115804075Y-119168848D01*
X115931016Y-119363147D01*
X115931019Y-119363151D01*
X115931021Y-119363153D01*
X116088216Y-119533913D01*
X116088219Y-119533915D01*
X116088222Y-119533918D01*
X116265818Y-119672147D01*
X116306631Y-119728857D01*
X116310306Y-119798630D01*
X116275674Y-119859313D01*
X116265818Y-119867853D01*
X116088222Y-120006081D01*
X116088219Y-120006084D01*
X116088216Y-120006086D01*
X116088216Y-120006087D01*
X116085090Y-120009483D01*
X115931016Y-120176852D01*
X115804075Y-120371151D01*
X115710842Y-120583699D01*
X115653866Y-120808691D01*
X115653864Y-120808702D01*
X115634700Y-121039993D01*
X115634700Y-121040006D01*
X115653864Y-121271297D01*
X115653866Y-121271308D01*
X115710842Y-121496300D01*
X115804075Y-121708848D01*
X115931016Y-121903147D01*
X115931019Y-121903151D01*
X115931021Y-121903153D01*
X116088216Y-122073913D01*
X116088219Y-122073915D01*
X116088222Y-122073918D01*
X116265818Y-122212147D01*
X116306631Y-122268857D01*
X116310306Y-122338630D01*
X116275674Y-122399313D01*
X116265818Y-122407853D01*
X116088222Y-122546081D01*
X116088219Y-122546084D01*
X116088216Y-122546086D01*
X116088216Y-122546087D01*
X116085090Y-122549483D01*
X115931016Y-122716852D01*
X115804075Y-122911151D01*
X115710842Y-123123699D01*
X115653866Y-123348691D01*
X115653864Y-123348702D01*
X115634700Y-123579993D01*
X115634700Y-123580006D01*
X115653864Y-123811297D01*
X115653866Y-123811308D01*
X115710842Y-124036300D01*
X115804075Y-124248848D01*
X115931016Y-124443147D01*
X115931019Y-124443151D01*
X115931021Y-124443153D01*
X116088216Y-124613913D01*
X116088219Y-124613915D01*
X116088222Y-124613918D01*
X116265818Y-124752147D01*
X116306631Y-124808857D01*
X116310306Y-124878630D01*
X116275674Y-124939313D01*
X116265818Y-124947853D01*
X116088222Y-125086081D01*
X116088219Y-125086084D01*
X116088216Y-125086086D01*
X116088216Y-125086087D01*
X116085090Y-125089483D01*
X115931016Y-125256852D01*
X115804075Y-125451151D01*
X115710842Y-125663699D01*
X115653866Y-125888691D01*
X115653864Y-125888702D01*
X115634700Y-126119993D01*
X115634700Y-126120006D01*
X115653864Y-126351297D01*
X115653866Y-126351308D01*
X115710842Y-126576300D01*
X115804075Y-126788848D01*
X115931016Y-126983147D01*
X115931019Y-126983151D01*
X115931021Y-126983153D01*
X116088216Y-127153913D01*
X116088219Y-127153915D01*
X116088222Y-127153918D01*
X116265818Y-127292147D01*
X116306631Y-127348857D01*
X116310306Y-127418630D01*
X116275674Y-127479313D01*
X116265818Y-127487853D01*
X116088222Y-127626081D01*
X116088219Y-127626084D01*
X116088216Y-127626086D01*
X116088216Y-127626087D01*
X116085090Y-127629483D01*
X115931016Y-127796852D01*
X115804075Y-127991151D01*
X115710842Y-128203699D01*
X115653866Y-128428691D01*
X115653864Y-128428702D01*
X115634700Y-128659993D01*
X115634700Y-128660006D01*
X110290500Y-128660006D01*
X110290500Y-125561456D01*
X110272749Y-125472221D01*
X110272749Y-125472216D01*
X110252053Y-125368172D01*
X110252052Y-125368165D01*
X110204501Y-125253368D01*
X110189374Y-125216847D01*
X110176635Y-125186092D01*
X110176628Y-125186079D01*
X110067140Y-125022219D01*
X110004234Y-124959313D01*
X109927782Y-124882861D01*
X109927781Y-124882860D01*
X102826819Y-117781898D01*
X102793334Y-117720575D01*
X102790500Y-117694217D01*
X102790500Y-95640006D01*
X115634700Y-95640006D01*
X115653864Y-95871297D01*
X115653866Y-95871308D01*
X115710842Y-96096300D01*
X115804075Y-96308848D01*
X115931016Y-96503147D01*
X115931019Y-96503151D01*
X115931021Y-96503153D01*
X116088216Y-96673913D01*
X116088219Y-96673915D01*
X116088222Y-96673918D01*
X116271365Y-96816464D01*
X116271371Y-96816468D01*
X116271374Y-96816470D01*
X116475497Y-96926936D01*
X116578500Y-96962297D01*
X116695015Y-97002297D01*
X116695017Y-97002297D01*
X116695019Y-97002298D01*
X116923951Y-97040500D01*
X116923952Y-97040500D01*
X117156048Y-97040500D01*
X117156049Y-97040500D01*
X117384981Y-97002298D01*
X117604503Y-96926936D01*
X117808626Y-96816470D01*
X117841752Y-96790687D01*
X117988272Y-96676647D01*
X118053266Y-96651004D01*
X118064434Y-96650500D01*
X122246958Y-96650500D01*
X122313997Y-96670185D01*
X122323120Y-96676647D01*
X122451365Y-96776464D01*
X122451371Y-96776468D01*
X122451374Y-96776470D01*
X122655497Y-96886936D01*
X122755139Y-96921143D01*
X122875015Y-96962297D01*
X122875017Y-96962297D01*
X122875019Y-96962298D01*
X123103951Y-97000500D01*
X123103952Y-97000500D01*
X123336048Y-97000500D01*
X123336049Y-97000500D01*
X123564981Y-96962298D01*
X123784503Y-96886936D01*
X123988626Y-96776470D01*
X124171784Y-96633913D01*
X124171800Y-96633895D01*
X124172479Y-96633272D01*
X124172827Y-96633100D01*
X124175830Y-96630763D01*
X124176310Y-96631380D01*
X124235133Y-96602348D01*
X124256464Y-96600500D01*
X126278542Y-96600500D01*
X126297870Y-96596655D01*
X126375188Y-96581275D01*
X126471836Y-96562051D01*
X126533205Y-96536631D01*
X126653914Y-96486632D01*
X126817782Y-96377139D01*
X126957139Y-96237782D01*
X126957140Y-96237780D01*
X126964206Y-96230714D01*
X126964208Y-96230710D01*
X128028101Y-95166819D01*
X128089424Y-95133334D01*
X128115782Y-95130500D01*
X129724800Y-95130500D01*
X129791839Y-95150185D01*
X129804365Y-95159493D01*
X129977179Y-95285048D01*
X129977181Y-95285049D01*
X129977184Y-95285051D01*
X130166588Y-95381557D01*
X130368757Y-95447246D01*
X130578713Y-95480500D01*
X130578714Y-95480500D01*
X131041286Y-95480500D01*
X131041287Y-95480500D01*
X131251243Y-95447246D01*
X131453412Y-95381557D01*
X131642816Y-95285051D01*
X131754787Y-95203700D01*
X131814786Y-95160109D01*
X131814788Y-95160106D01*
X131814792Y-95160104D01*
X131965104Y-95009792D01*
X131965106Y-95009788D01*
X131965109Y-95009786D01*
X132090048Y-94837820D01*
X132090047Y-94837820D01*
X132090051Y-94837816D01*
X132186557Y-94648412D01*
X132252246Y-94446243D01*
X132285500Y-94236287D01*
X132285500Y-94023713D01*
X132252246Y-93813757D01*
X132186557Y-93611588D01*
X132090051Y-93422184D01*
X132090049Y-93422181D01*
X132090048Y-93422179D01*
X131965109Y-93250213D01*
X131814792Y-93099896D01*
X131650204Y-92980316D01*
X131607540Y-92924989D01*
X131601561Y-92855376D01*
X131634166Y-92793580D01*
X131650199Y-92779686D01*
X131814792Y-92660104D01*
X131965104Y-92509792D01*
X131965106Y-92509788D01*
X131965109Y-92509786D01*
X132090048Y-92337820D01*
X132090047Y-92337820D01*
X132090051Y-92337816D01*
X132186557Y-92148412D01*
X132252246Y-91946243D01*
X132285500Y-91736287D01*
X132285500Y-91523713D01*
X132252246Y-91313757D01*
X132186557Y-91111588D01*
X132090051Y-90922184D01*
X132090049Y-90922181D01*
X132090048Y-90922179D01*
X131965109Y-90750213D01*
X131826294Y-90611398D01*
X131792809Y-90550075D01*
X131797793Y-90480383D01*
X131839665Y-90424450D01*
X131848879Y-90418178D01*
X131854331Y-90414814D01*
X131854334Y-90414814D01*
X132003656Y-90322712D01*
X132127712Y-90198656D01*
X132219814Y-90049334D01*
X132274999Y-89882797D01*
X132285500Y-89780009D01*
X132285499Y-88479992D01*
X132281013Y-88436081D01*
X132274999Y-88377203D01*
X132274998Y-88377200D01*
X132267155Y-88353531D01*
X132219814Y-88210666D01*
X132127712Y-88061344D01*
X132003656Y-87937288D01*
X131854334Y-87845186D01*
X131687797Y-87790001D01*
X131687795Y-87790000D01*
X131585010Y-87779500D01*
X130034998Y-87779500D01*
X130034981Y-87779501D01*
X129932203Y-87790000D01*
X129932200Y-87790001D01*
X129765668Y-87845185D01*
X129765663Y-87845187D01*
X129616342Y-87937289D01*
X129596957Y-87956675D01*
X129535634Y-87990160D01*
X129465942Y-87985176D01*
X129421595Y-87956675D01*
X126271479Y-84806559D01*
X126271459Y-84806537D01*
X126127785Y-84662863D01*
X126127781Y-84662860D01*
X125963920Y-84553371D01*
X125963907Y-84553364D01*
X125809723Y-84489500D01*
X125781837Y-84477949D01*
X125781829Y-84477947D01*
X125685188Y-84458724D01*
X125588544Y-84439500D01*
X125588541Y-84439500D01*
X124256464Y-84439500D01*
X124189425Y-84419815D01*
X124172479Y-84406728D01*
X124171794Y-84406098D01*
X124171784Y-84406087D01*
X124040025Y-84303535D01*
X123988628Y-84263531D01*
X123784504Y-84153064D01*
X123784495Y-84153061D01*
X123564984Y-84077702D01*
X123383421Y-84047405D01*
X123336049Y-84039500D01*
X123103951Y-84039500D01*
X123058164Y-84047140D01*
X122875015Y-84077702D01*
X122655504Y-84153061D01*
X122655495Y-84153064D01*
X122451371Y-84263531D01*
X122322114Y-84364136D01*
X122268216Y-84406087D01*
X122268210Y-84406092D01*
X122267521Y-84406728D01*
X122267172Y-84406899D01*
X122264170Y-84409237D01*
X122263689Y-84408619D01*
X122204867Y-84437652D01*
X122183536Y-84439500D01*
X118025891Y-84439500D01*
X117958852Y-84419815D01*
X117949729Y-84413354D01*
X117828903Y-84319312D01*
X117808626Y-84303530D01*
X117656387Y-84221142D01*
X117604504Y-84193064D01*
X117604495Y-84193061D01*
X117384984Y-84117702D01*
X117197818Y-84086470D01*
X117156049Y-84079500D01*
X116923951Y-84079500D01*
X116882182Y-84086470D01*
X116695015Y-84117702D01*
X116475504Y-84193061D01*
X116475495Y-84193064D01*
X116271371Y-84303531D01*
X116271365Y-84303535D01*
X116088222Y-84446081D01*
X116088219Y-84446084D01*
X115931016Y-84616852D01*
X115804075Y-84811151D01*
X115710842Y-85023699D01*
X115653866Y-85248691D01*
X115653864Y-85248702D01*
X115634700Y-85479993D01*
X115634700Y-85480006D01*
X115653864Y-85711297D01*
X115653866Y-85711308D01*
X115710842Y-85936300D01*
X115804075Y-86148848D01*
X115931016Y-86343147D01*
X115931019Y-86343151D01*
X115931021Y-86343153D01*
X116088216Y-86513913D01*
X116088219Y-86513915D01*
X116088222Y-86513918D01*
X116265818Y-86652147D01*
X116306631Y-86708857D01*
X116310306Y-86778630D01*
X116275674Y-86839313D01*
X116265818Y-86847853D01*
X116088222Y-86986081D01*
X116088219Y-86986084D01*
X115931016Y-87156852D01*
X115804075Y-87351151D01*
X115710842Y-87563699D01*
X115653866Y-87788691D01*
X115653864Y-87788702D01*
X115634700Y-88019993D01*
X115634700Y-88020006D01*
X115653864Y-88251297D01*
X115653866Y-88251308D01*
X115710842Y-88476300D01*
X115804075Y-88688848D01*
X115931016Y-88883147D01*
X115931019Y-88883151D01*
X115931021Y-88883153D01*
X116088216Y-89053913D01*
X116088219Y-89053915D01*
X116088222Y-89053918D01*
X116265818Y-89192147D01*
X116306631Y-89248857D01*
X116310306Y-89318630D01*
X116275674Y-89379313D01*
X116265818Y-89387853D01*
X116088222Y-89526081D01*
X116088219Y-89526084D01*
X116088216Y-89526086D01*
X116088216Y-89526087D01*
X116085090Y-89529483D01*
X115931016Y-89696852D01*
X115804075Y-89891151D01*
X115710842Y-90103699D01*
X115653866Y-90328691D01*
X115653864Y-90328702D01*
X115634700Y-90559993D01*
X115634700Y-90560006D01*
X115653864Y-90791297D01*
X115653866Y-90791308D01*
X115710842Y-91016300D01*
X115804075Y-91228848D01*
X115931016Y-91423147D01*
X115931019Y-91423151D01*
X115931021Y-91423153D01*
X116088216Y-91593913D01*
X116088219Y-91593915D01*
X116088222Y-91593918D01*
X116265818Y-91732147D01*
X116306631Y-91788857D01*
X116310306Y-91858630D01*
X116275674Y-91919313D01*
X116265818Y-91927853D01*
X116088222Y-92066081D01*
X116088219Y-92066084D01*
X116088216Y-92066086D01*
X116088216Y-92066087D01*
X116085090Y-92069483D01*
X115931016Y-92236852D01*
X115804075Y-92431151D01*
X115710842Y-92643699D01*
X115653866Y-92868691D01*
X115653864Y-92868702D01*
X115634700Y-93099993D01*
X115634700Y-93100006D01*
X115653864Y-93331297D01*
X115653866Y-93331308D01*
X115710842Y-93556300D01*
X115804075Y-93768848D01*
X115931016Y-93963147D01*
X115931019Y-93963151D01*
X115931021Y-93963153D01*
X116088216Y-94133913D01*
X116088219Y-94133915D01*
X116088222Y-94133918D01*
X116265818Y-94272147D01*
X116306631Y-94328857D01*
X116310306Y-94398630D01*
X116275674Y-94459313D01*
X116265818Y-94467853D01*
X116088222Y-94606081D01*
X116088219Y-94606084D01*
X116088216Y-94606086D01*
X116088216Y-94606087D01*
X116085090Y-94609483D01*
X115931016Y-94776852D01*
X115804075Y-94971151D01*
X115710842Y-95183699D01*
X115653866Y-95408691D01*
X115653864Y-95408702D01*
X115634700Y-95639993D01*
X115634700Y-95640006D01*
X102790500Y-95640006D01*
X102790500Y-90901456D01*
X102776743Y-90832299D01*
X102776743Y-90832298D01*
X102752052Y-90708165D01*
X102707205Y-90599896D01*
X102701016Y-90584954D01*
X102676635Y-90526092D01*
X102676628Y-90526079D01*
X102567140Y-90362219D01*
X102503612Y-90298691D01*
X102427782Y-90222861D01*
X102427781Y-90222860D01*
X96016208Y-83811288D01*
X130919500Y-83811288D01*
X130950584Y-84047405D01*
X130951162Y-84051789D01*
X130972694Y-84132145D01*
X131013947Y-84286104D01*
X131093411Y-84477947D01*
X131106776Y-84510212D01*
X131228064Y-84720289D01*
X131228066Y-84720292D01*
X131228067Y-84720293D01*
X131375733Y-84912736D01*
X131375739Y-84912743D01*
X131547256Y-85084260D01*
X131547262Y-85084265D01*
X131739711Y-85231936D01*
X131949788Y-85353224D01*
X132173900Y-85446054D01*
X132408211Y-85508838D01*
X132588586Y-85532584D01*
X132648711Y-85540500D01*
X132648712Y-85540500D01*
X132891289Y-85540500D01*
X132939388Y-85534167D01*
X133131789Y-85508838D01*
X133366100Y-85446054D01*
X133590212Y-85353224D01*
X133800289Y-85231936D01*
X133992738Y-85084265D01*
X134164265Y-84912738D01*
X134311936Y-84720289D01*
X134433224Y-84510212D01*
X134526054Y-84286100D01*
X134588838Y-84051789D01*
X134620500Y-83811288D01*
X134620500Y-83568712D01*
X134617744Y-83547781D01*
X134612584Y-83508586D01*
X134588838Y-83328211D01*
X134526054Y-83093900D01*
X134433224Y-82869788D01*
X134311936Y-82659711D01*
X134164265Y-82467262D01*
X134164260Y-82467256D01*
X133992743Y-82295739D01*
X133992736Y-82295733D01*
X133800293Y-82148067D01*
X133800292Y-82148066D01*
X133800289Y-82148064D01*
X133590212Y-82026776D01*
X133581992Y-82023371D01*
X133366104Y-81933947D01*
X133131785Y-81871161D01*
X132891289Y-81839500D01*
X132891288Y-81839500D01*
X132648712Y-81839500D01*
X132648711Y-81839500D01*
X132408214Y-81871161D01*
X132173895Y-81933947D01*
X131949794Y-82026773D01*
X131949785Y-82026777D01*
X131739706Y-82148067D01*
X131547263Y-82295733D01*
X131547256Y-82295739D01*
X131375739Y-82467256D01*
X131375733Y-82467263D01*
X131228067Y-82659706D01*
X131106777Y-82869785D01*
X131106773Y-82869794D01*
X131013947Y-83093895D01*
X130951161Y-83328214D01*
X130919500Y-83568711D01*
X130919500Y-83811288D01*
X96016208Y-83811288D01*
X94484208Y-82279288D01*
X94484206Y-82279285D01*
X94484206Y-82279286D01*
X94477139Y-82272219D01*
X94477139Y-82272218D01*
X94337782Y-82132861D01*
X94337781Y-82132860D01*
X94337780Y-82132859D01*
X94173920Y-82023371D01*
X94173907Y-82023364D01*
X94019723Y-81959500D01*
X93991837Y-81947949D01*
X93991829Y-81947947D01*
X93895188Y-81928724D01*
X93798544Y-81909500D01*
X93798541Y-81909500D01*
X93486464Y-81909500D01*
X93419425Y-81889815D01*
X93402479Y-81876728D01*
X93401794Y-81876098D01*
X93401784Y-81876087D01*
X93272524Y-81775480D01*
X93218628Y-81733531D01*
X93014504Y-81623064D01*
X93014495Y-81623061D01*
X92794984Y-81547702D01*
X92623282Y-81519050D01*
X92566049Y-81509500D01*
X92333951Y-81509500D01*
X92288164Y-81517140D01*
X92105015Y-81547702D01*
X91885504Y-81623061D01*
X91885495Y-81623064D01*
X91681371Y-81733531D01*
X91617132Y-81783531D01*
X91498216Y-81876087D01*
X91458266Y-81919484D01*
X91398381Y-81955473D01*
X91367038Y-81959500D01*
X87156464Y-81959500D01*
X87089425Y-81939815D01*
X87072479Y-81926728D01*
X87071794Y-81926098D01*
X87071784Y-81926087D01*
X86942524Y-81825480D01*
X86888628Y-81783531D01*
X86684504Y-81673064D01*
X86684495Y-81673061D01*
X86464984Y-81597702D01*
X86293282Y-81569050D01*
X86236049Y-81559500D01*
X86003951Y-81559500D01*
X85958164Y-81567140D01*
X85775015Y-81597702D01*
X85555504Y-81673061D01*
X85555495Y-81673064D01*
X85351371Y-81783531D01*
X85232456Y-81876087D01*
X85168216Y-81926087D01*
X85168210Y-81926092D01*
X85167521Y-81926728D01*
X85167172Y-81926899D01*
X85164170Y-81929237D01*
X85163689Y-81928619D01*
X85104867Y-81957652D01*
X85083536Y-81959500D01*
X83771455Y-81959500D01*
X83674812Y-81978724D01*
X83578167Y-81997947D01*
X83578161Y-81997949D01*
X83524834Y-82020037D01*
X83524834Y-82020038D01*
X83508565Y-82026777D01*
X83396084Y-82073368D01*
X83396083Y-82073368D01*
X83273045Y-82155579D01*
X83273046Y-82155580D01*
X83232218Y-82182859D01*
X83232215Y-82182862D01*
X82321184Y-83093895D01*
X82292220Y-83122859D01*
X82292218Y-83122861D01*
X82222538Y-83192540D01*
X82152859Y-83262219D01*
X82043371Y-83426080D01*
X82043366Y-83426089D01*
X81992961Y-83547780D01*
X81967949Y-83608163D01*
X81967947Y-83608170D01*
X81952240Y-83687138D01*
X81952240Y-83687139D01*
X81929500Y-83801456D01*
X81929500Y-88415500D01*
X81909815Y-88482539D01*
X81857011Y-88528294D01*
X81805500Y-88539500D01*
X81246140Y-88539500D01*
X81179101Y-88519815D01*
X81154907Y-88499479D01*
X81151790Y-88496093D01*
X81151777Y-88496081D01*
X80968634Y-88353535D01*
X80968628Y-88353531D01*
X80764504Y-88243064D01*
X80764495Y-88243061D01*
X80544984Y-88167702D01*
X80373282Y-88139050D01*
X80316049Y-88129500D01*
X80083951Y-88129500D01*
X80038164Y-88137140D01*
X79855015Y-88167702D01*
X79635504Y-88243061D01*
X79635495Y-88243064D01*
X79431371Y-88353531D01*
X79431365Y-88353535D01*
X79315968Y-88443353D01*
X79250974Y-88468996D01*
X79239806Y-88469500D01*
X76786464Y-88469500D01*
X76719425Y-88449815D01*
X76702479Y-88436728D01*
X76701794Y-88436098D01*
X76701784Y-88436087D01*
X76572524Y-88335480D01*
X76518628Y-88293531D01*
X76314504Y-88183064D01*
X76314495Y-88183061D01*
X76094984Y-88107702D01*
X75923282Y-88079050D01*
X75866049Y-88069500D01*
X75633951Y-88069500D01*
X75588164Y-88077140D01*
X75405015Y-88107702D01*
X75185504Y-88183061D01*
X75185495Y-88183064D01*
X74981371Y-88293531D01*
X74981365Y-88293535D01*
X74798222Y-88436081D01*
X74798219Y-88436084D01*
X74798216Y-88436086D01*
X74798216Y-88436087D01*
X74757809Y-88479981D01*
X74641016Y-88606852D01*
X74514075Y-88801151D01*
X74420842Y-89013699D01*
X74363866Y-89238691D01*
X74363864Y-89238702D01*
X74344700Y-89469993D01*
X74344700Y-89470006D01*
X74363864Y-89701297D01*
X74363866Y-89701308D01*
X74420842Y-89926300D01*
X74514075Y-90138848D01*
X74641016Y-90333147D01*
X74641019Y-90333151D01*
X74641021Y-90333153D01*
X74798216Y-90503913D01*
X74798219Y-90503915D01*
X74798222Y-90503918D01*
X74981365Y-90646464D01*
X74981371Y-90646468D01*
X74981374Y-90646470D01*
X75185497Y-90756936D01*
X75285619Y-90791308D01*
X75405015Y-90832297D01*
X75405017Y-90832297D01*
X75405019Y-90832298D01*
X75633951Y-90870500D01*
X75633952Y-90870500D01*
X75866048Y-90870500D01*
X75866049Y-90870500D01*
X76094981Y-90832298D01*
X76314503Y-90756936D01*
X76518626Y-90646470D01*
X76701784Y-90503913D01*
X76701800Y-90503895D01*
X76702479Y-90503272D01*
X76702827Y-90503100D01*
X76705830Y-90500763D01*
X76706310Y-90501380D01*
X76765133Y-90472348D01*
X76786464Y-90470500D01*
X79107832Y-90470500D01*
X79174871Y-90490185D01*
X79199061Y-90510516D01*
X79244619Y-90560006D01*
X79248218Y-90563915D01*
X79248222Y-90563918D01*
X79431365Y-90706464D01*
X79431371Y-90706468D01*
X79431374Y-90706470D01*
X79635497Y-90816936D01*
X79749487Y-90856068D01*
X79855015Y-90892297D01*
X79855017Y-90892297D01*
X79855019Y-90892298D01*
X80083951Y-90930500D01*
X80083952Y-90930500D01*
X80316048Y-90930500D01*
X80316049Y-90930500D01*
X80544981Y-90892298D01*
X80764503Y-90816936D01*
X80968626Y-90706470D01*
X80968634Y-90706464D01*
X81148272Y-90566647D01*
X81213266Y-90541004D01*
X81224434Y-90540500D01*
X81893536Y-90540500D01*
X81960575Y-90560185D01*
X81977521Y-90573272D01*
X81978204Y-90573901D01*
X81978216Y-90573913D01*
X82071438Y-90646470D01*
X82150703Y-90708165D01*
X82161374Y-90716470D01*
X82365497Y-90826936D01*
X82479487Y-90866068D01*
X82585015Y-90902297D01*
X82585017Y-90902297D01*
X82585019Y-90902298D01*
X82813951Y-90940500D01*
X82813952Y-90940500D01*
X83046048Y-90940500D01*
X83046049Y-90940500D01*
X83274981Y-90902298D01*
X83494503Y-90826936D01*
X83698626Y-90716470D01*
X83709297Y-90708165D01*
X83788570Y-90646464D01*
X83881784Y-90573913D01*
X84038979Y-90403153D01*
X84041065Y-90399961D01*
X84065723Y-90362218D01*
X84165924Y-90208849D01*
X84259157Y-89996300D01*
X84316134Y-89771305D01*
X84316426Y-89767782D01*
X84335300Y-89540006D01*
X84335300Y-89539993D01*
X84316135Y-89308702D01*
X84316133Y-89308691D01*
X84259157Y-89083699D01*
X84165924Y-88871151D01*
X84038979Y-88676846D01*
X84038977Y-88676844D01*
X83963270Y-88594603D01*
X83932348Y-88531948D01*
X83930500Y-88510621D01*
X83930500Y-84365782D01*
X83950185Y-84298743D01*
X83966819Y-84278101D01*
X84248102Y-83996819D01*
X84309425Y-83963334D01*
X84335783Y-83960500D01*
X85083536Y-83960500D01*
X85150575Y-83980185D01*
X85167521Y-83993272D01*
X85168207Y-83993903D01*
X85168216Y-83993913D01*
X85250013Y-84057578D01*
X85345818Y-84132146D01*
X85386631Y-84188856D01*
X85390306Y-84258629D01*
X85355674Y-84319312D01*
X85345819Y-84327852D01*
X85168218Y-84466085D01*
X85011016Y-84636852D01*
X84884075Y-84831151D01*
X84790842Y-85043699D01*
X84733866Y-85268691D01*
X84733864Y-85268702D01*
X84714700Y-85499993D01*
X84714700Y-85500006D01*
X84733864Y-85731297D01*
X84733866Y-85731308D01*
X84790842Y-85956300D01*
X84884075Y-86168848D01*
X85011016Y-86363147D01*
X85011019Y-86363151D01*
X85011021Y-86363153D01*
X85168216Y-86533913D01*
X85168219Y-86533915D01*
X85168222Y-86533918D01*
X85345818Y-86672147D01*
X85386631Y-86728857D01*
X85390306Y-86798630D01*
X85355674Y-86859313D01*
X85345818Y-86867853D01*
X85168222Y-87006081D01*
X85168219Y-87006084D01*
X85168216Y-87006086D01*
X85168216Y-87006087D01*
X85137457Y-87039500D01*
X85011016Y-87176852D01*
X84884075Y-87371151D01*
X84790842Y-87583699D01*
X84733866Y-87808691D01*
X84733864Y-87808702D01*
X84714700Y-88039993D01*
X84714700Y-88040006D01*
X84733864Y-88271297D01*
X84733866Y-88271308D01*
X84790842Y-88496300D01*
X84884075Y-88708848D01*
X85011016Y-88903147D01*
X85011019Y-88903151D01*
X85011021Y-88903153D01*
X85168216Y-89073913D01*
X85168219Y-89073915D01*
X85168222Y-89073918D01*
X85345818Y-89212147D01*
X85386631Y-89268857D01*
X85390306Y-89338630D01*
X85355674Y-89399313D01*
X85345818Y-89407853D01*
X85168222Y-89546081D01*
X85168219Y-89546084D01*
X85168216Y-89546086D01*
X85168216Y-89546087D01*
X85137457Y-89579500D01*
X85011016Y-89716852D01*
X84884075Y-89911151D01*
X84790842Y-90123699D01*
X84733866Y-90348691D01*
X84733864Y-90348702D01*
X84714700Y-90579993D01*
X84714700Y-90580006D01*
X84733864Y-90811297D01*
X84733866Y-90811308D01*
X84790842Y-91036300D01*
X84884075Y-91248848D01*
X85011016Y-91443147D01*
X85011019Y-91443151D01*
X85011021Y-91443153D01*
X85168216Y-91613913D01*
X85168219Y-91613915D01*
X85168222Y-91613918D01*
X85345818Y-91752147D01*
X85386631Y-91808857D01*
X85390306Y-91878630D01*
X85355674Y-91939313D01*
X85345818Y-91947853D01*
X85168222Y-92086081D01*
X85168219Y-92086084D01*
X85168216Y-92086086D01*
X85168216Y-92086087D01*
X85137457Y-92119500D01*
X85011016Y-92256852D01*
X84884075Y-92451151D01*
X84790842Y-92663699D01*
X84733866Y-92888691D01*
X84733864Y-92888702D01*
X84714700Y-93119993D01*
X84714700Y-93120006D01*
X84733864Y-93351297D01*
X84733866Y-93351308D01*
X84790842Y-93576300D01*
X84884075Y-93788848D01*
X85011016Y-93983147D01*
X85011019Y-93983151D01*
X85011021Y-93983153D01*
X85168216Y-94153913D01*
X85168219Y-94153915D01*
X85168222Y-94153918D01*
X85345818Y-94292147D01*
X85386631Y-94348857D01*
X85390306Y-94418630D01*
X85355674Y-94479313D01*
X85345818Y-94487853D01*
X85168222Y-94626081D01*
X85168219Y-94626084D01*
X85168216Y-94626086D01*
X85168216Y-94626087D01*
X85137457Y-94659500D01*
X85011016Y-94796852D01*
X84884075Y-94991151D01*
X84790842Y-95203699D01*
X84733866Y-95428691D01*
X84733864Y-95428702D01*
X84714700Y-95659993D01*
X84714700Y-95660006D01*
X84733864Y-95891297D01*
X84733866Y-95891308D01*
X84790842Y-96116300D01*
X84884075Y-96328848D01*
X85011016Y-96523147D01*
X85011019Y-96523151D01*
X85011021Y-96523153D01*
X85168216Y-96693913D01*
X85168219Y-96693915D01*
X85168222Y-96693918D01*
X85345818Y-96832147D01*
X85386631Y-96888857D01*
X85390306Y-96958630D01*
X85355674Y-97019313D01*
X85345819Y-97027853D01*
X85269457Y-97087288D01*
X85168216Y-97166087D01*
X85168210Y-97166092D01*
X85167521Y-97166728D01*
X85167172Y-97166899D01*
X85164170Y-97169237D01*
X85163689Y-97168619D01*
X85104867Y-97197652D01*
X85083536Y-97199500D01*
X85081457Y-97199500D01*
X85021916Y-97211344D01*
X85021915Y-97211344D01*
X84888171Y-97237947D01*
X84888163Y-97237949D01*
X84869323Y-97245753D01*
X84858922Y-97250061D01*
X84811471Y-97259500D01*
X79125822Y-97259500D01*
X79058783Y-97239815D01*
X79032910Y-97216359D01*
X79032819Y-97216451D01*
X79030956Y-97214588D01*
X79028559Y-97212415D01*
X79027712Y-97211344D01*
X78903657Y-97087289D01*
X78903656Y-97087288D01*
X78793450Y-97019313D01*
X78754336Y-96995187D01*
X78754331Y-96995185D01*
X78752862Y-96994698D01*
X78587797Y-96940001D01*
X78587795Y-96940000D01*
X78485010Y-96929500D01*
X76934998Y-96929500D01*
X76934981Y-96929501D01*
X76832203Y-96940000D01*
X76832200Y-96940001D01*
X76665668Y-96995185D01*
X76665663Y-96995187D01*
X76516342Y-97087289D01*
X76392289Y-97211342D01*
X76300187Y-97360663D01*
X76300186Y-97360666D01*
X76245001Y-97527203D01*
X76245001Y-97527204D01*
X76245000Y-97527204D01*
X76234500Y-97629983D01*
X76234500Y-98930001D01*
X76234501Y-98930018D01*
X76245000Y-99032796D01*
X76245001Y-99032799D01*
X76295076Y-99183913D01*
X76300186Y-99199334D01*
X76349632Y-99279500D01*
X76392289Y-99348657D01*
X76516344Y-99472712D01*
X76671120Y-99568178D01*
X76717845Y-99620126D01*
X76729068Y-99689088D01*
X76701224Y-99753171D01*
X76693706Y-99761398D01*
X76554889Y-99900215D01*
X76429951Y-100072179D01*
X76333444Y-100261585D01*
X76267753Y-100463760D01*
X76263804Y-100488695D01*
X76234500Y-100673713D01*
X76234500Y-100886287D01*
X76267754Y-101096243D01*
X76293766Y-101176300D01*
X76333444Y-101298414D01*
X76429951Y-101487820D01*
X76554890Y-101659786D01*
X76705209Y-101810105D01*
X76705214Y-101810109D01*
X76869793Y-101929682D01*
X76912459Y-101985011D01*
X76918438Y-102054625D01*
X76885833Y-102116420D01*
X76869793Y-102130318D01*
X76705214Y-102249890D01*
X76705209Y-102249894D01*
X76554890Y-102400213D01*
X76429951Y-102572179D01*
X76333444Y-102761585D01*
X76267753Y-102963760D01*
X76234500Y-103173713D01*
X76234500Y-103386286D01*
X76246380Y-103461297D01*
X76267754Y-103596243D01*
X76297015Y-103686300D01*
X76333444Y-103798414D01*
X76429951Y-103987820D01*
X76554890Y-104159786D01*
X76705213Y-104310109D01*
X76877179Y-104435048D01*
X76877181Y-104435049D01*
X76877184Y-104435051D01*
X77066588Y-104531557D01*
X77268757Y-104597246D01*
X77478713Y-104630500D01*
X77478714Y-104630500D01*
X77941286Y-104630500D01*
X77941287Y-104630500D01*
X78151243Y-104597246D01*
X78353412Y-104531557D01*
X78542816Y-104435051D01*
X78557769Y-104424186D01*
X78718734Y-104307241D01*
X78719364Y-104308108D01*
X78778419Y-104281641D01*
X78795200Y-104280500D01*
X85083536Y-104280500D01*
X85150575Y-104300185D01*
X85167521Y-104313272D01*
X85168204Y-104313901D01*
X85168216Y-104313913D01*
X85274286Y-104396470D01*
X85345819Y-104452147D01*
X85386632Y-104508857D01*
X85390306Y-104578630D01*
X85355674Y-104639313D01*
X85345819Y-104647853D01*
X85342651Y-104650319D01*
X85168216Y-104786087D01*
X85168210Y-104786092D01*
X85167521Y-104786728D01*
X85167172Y-104786899D01*
X85164170Y-104789237D01*
X85163689Y-104788619D01*
X85104867Y-104817652D01*
X85083536Y-104819500D01*
X83181456Y-104819500D01*
X82988171Y-104857946D01*
X82988167Y-104857948D01*
X82988165Y-104857948D01*
X82988164Y-104857949D01*
X82912745Y-104889188D01*
X82912743Y-104889189D01*
X82806089Y-104933366D01*
X82806079Y-104933371D01*
X82687116Y-105012861D01*
X82687115Y-105012861D01*
X82642222Y-105042857D01*
X82642214Y-105042863D01*
X78863691Y-108821387D01*
X78802368Y-108854872D01*
X78732676Y-108849888D01*
X78710917Y-108839246D01*
X78704334Y-108835186D01*
X78537797Y-108780001D01*
X78537795Y-108780000D01*
X78435010Y-108769500D01*
X76884998Y-108769500D01*
X76884981Y-108769501D01*
X76782203Y-108780000D01*
X76782200Y-108780001D01*
X76615668Y-108835185D01*
X76615663Y-108835187D01*
X76466342Y-108927289D01*
X76342289Y-109051342D01*
X76250187Y-109200663D01*
X76250186Y-109200666D01*
X76195001Y-109367203D01*
X76195001Y-109367204D01*
X76195000Y-109367204D01*
X76184500Y-109469983D01*
X76184500Y-110770001D01*
X76184501Y-110770018D01*
X76195000Y-110872796D01*
X76195001Y-110872799D01*
X76250185Y-111039331D01*
X76250187Y-111039336D01*
X76342289Y-111188657D01*
X76466344Y-111312712D01*
X76621120Y-111408178D01*
X76667845Y-111460126D01*
X76679068Y-111529088D01*
X76651224Y-111593171D01*
X76643706Y-111601398D01*
X76504889Y-111740215D01*
X76379951Y-111912179D01*
X76283444Y-112101585D01*
X76217753Y-112303760D01*
X76187723Y-112493364D01*
X76184500Y-112513713D01*
X76184500Y-112726287D01*
X76217754Y-112936243D01*
X76275119Y-113112795D01*
X76283444Y-113138414D01*
X76379951Y-113327820D01*
X76504890Y-113499786D01*
X76655209Y-113650105D01*
X76655214Y-113650109D01*
X76819793Y-113769682D01*
X76862459Y-113825011D01*
X76868438Y-113894625D01*
X76835833Y-113956420D01*
X76819793Y-113970318D01*
X76655214Y-114089890D01*
X76655209Y-114089894D01*
X76504890Y-114240213D01*
X76379951Y-114412179D01*
X76283444Y-114601585D01*
X76217753Y-114803760D01*
X76184500Y-115013713D01*
X76184500Y-115226286D01*
X76214354Y-115414781D01*
X76217754Y-115436243D01*
X76282219Y-115634646D01*
X76283444Y-115638414D01*
X76379951Y-115827820D01*
X76504890Y-115999786D01*
X76655213Y-116150109D01*
X76827179Y-116275048D01*
X76827181Y-116275049D01*
X76827184Y-116275051D01*
X77016588Y-116371557D01*
X77218757Y-116437246D01*
X77428713Y-116470500D01*
X77428714Y-116470500D01*
X77891286Y-116470500D01*
X77891287Y-116470500D01*
X78101243Y-116437246D01*
X78303412Y-116371557D01*
X78492816Y-116275051D01*
X78507769Y-116264186D01*
X78668734Y-116147241D01*
X78669364Y-116148108D01*
X78728419Y-116121641D01*
X78745200Y-116120500D01*
X80058543Y-116120500D01*
X80142329Y-116103833D01*
X80184223Y-116095500D01*
X80251836Y-116082051D01*
X80309871Y-116058012D01*
X80309872Y-116058012D01*
X80433907Y-116006635D01*
X80433907Y-116006634D01*
X80433914Y-116006632D01*
X80597782Y-115897139D01*
X80737139Y-115757782D01*
X80737140Y-115757780D01*
X80744206Y-115750714D01*
X80744209Y-115750710D01*
X81167819Y-115327100D01*
X81229142Y-115293615D01*
X81298834Y-115298599D01*
X81354767Y-115340471D01*
X81379184Y-115405935D01*
X81379500Y-115414781D01*
X81379500Y-117464217D01*
X81359815Y-117531256D01*
X81343181Y-117551898D01*
X78311897Y-120583181D01*
X78250574Y-120616666D01*
X78224216Y-120619500D01*
X76804998Y-120619500D01*
X76804981Y-120619501D01*
X76702203Y-120630000D01*
X76702200Y-120630001D01*
X76535668Y-120685185D01*
X76535663Y-120685187D01*
X76386342Y-120777289D01*
X76262289Y-120901342D01*
X76170187Y-121050663D01*
X76170186Y-121050666D01*
X76115001Y-121217203D01*
X76115001Y-121217204D01*
X76115000Y-121217204D01*
X76104500Y-121319983D01*
X76104500Y-122620001D01*
X76104501Y-122620018D01*
X76115000Y-122722796D01*
X76115001Y-122722799D01*
X76170185Y-122889331D01*
X76170189Y-122889340D01*
X76257198Y-123030404D01*
X76275638Y-123097796D01*
X76254715Y-123164459D01*
X76201073Y-123209229D01*
X76151659Y-123219500D01*
X73811578Y-123219500D01*
X73617173Y-123250290D01*
X73429970Y-123311117D01*
X73254594Y-123400476D01*
X73200338Y-123439896D01*
X73095354Y-123516172D01*
X73095352Y-123516174D01*
X73095351Y-123516174D01*
X72956174Y-123655351D01*
X72956174Y-123655352D01*
X72956172Y-123655354D01*
X72906485Y-123723741D01*
X72840476Y-123814594D01*
X72751117Y-123989970D01*
X72690290Y-124177173D01*
X72659500Y-124371577D01*
X72659500Y-124568422D01*
X72690290Y-124762826D01*
X72751117Y-124950029D01*
X72837628Y-125119815D01*
X72840476Y-125125405D01*
X72956172Y-125284646D01*
X73095354Y-125423828D01*
X73254595Y-125539524D01*
X73326521Y-125576172D01*
X73429970Y-125628882D01*
X73429972Y-125628882D01*
X73429975Y-125628884D01*
X73530317Y-125661487D01*
X73617173Y-125689709D01*
X73811578Y-125720500D01*
X73811583Y-125720500D01*
X76913694Y-125720500D01*
X76952012Y-125726569D01*
X77024788Y-125750215D01*
X77138757Y-125787246D01*
X77348713Y-125820500D01*
X77348714Y-125820500D01*
X77811286Y-125820500D01*
X77811287Y-125820500D01*
X78021243Y-125787246D01*
X78223412Y-125721557D01*
X78412816Y-125625051D01*
X78480093Y-125576172D01*
X78584786Y-125500109D01*
X78584788Y-125500106D01*
X78584792Y-125500104D01*
X78735104Y-125349792D01*
X78735106Y-125349788D01*
X78735109Y-125349786D01*
X78854038Y-125186092D01*
X78860051Y-125177816D01*
X78956557Y-124988412D01*
X79022246Y-124786243D01*
X79055500Y-124576287D01*
X79055500Y-124363713D01*
X79022246Y-124153757D01*
X78956557Y-123951588D01*
X78860051Y-123762184D01*
X78860049Y-123762181D01*
X78860048Y-123762179D01*
X78735109Y-123590213D01*
X78596294Y-123451398D01*
X78562809Y-123390075D01*
X78567793Y-123320383D01*
X78609665Y-123264450D01*
X78618879Y-123258178D01*
X78624331Y-123254814D01*
X78624334Y-123254814D01*
X78773656Y-123162712D01*
X78897712Y-123038656D01*
X78989814Y-122889334D01*
X79044999Y-122722797D01*
X79045393Y-122718938D01*
X79046301Y-122716711D01*
X79046415Y-122716181D01*
X79046509Y-122716201D01*
X79071781Y-122654247D01*
X79081072Y-122643848D01*
X79085106Y-122639815D01*
X79117139Y-122607782D01*
X79117139Y-122607781D01*
X79124197Y-122600724D01*
X79124208Y-122600710D01*
X79607819Y-122117100D01*
X79669142Y-122083615D01*
X79738834Y-122088599D01*
X79794767Y-122130471D01*
X79819184Y-122195935D01*
X79819500Y-122204781D01*
X79819500Y-132214217D01*
X79799815Y-132281256D01*
X79783181Y-132301898D01*
X79115081Y-132969997D01*
X79053758Y-133003482D01*
X78988396Y-133000022D01*
X78897798Y-132970001D01*
X78795010Y-132959500D01*
X77244998Y-132959500D01*
X77244981Y-132959501D01*
X77142203Y-132970000D01*
X77142200Y-132970001D01*
X76975668Y-133025185D01*
X76975663Y-133025187D01*
X76826342Y-133117289D01*
X76702289Y-133241342D01*
X76610187Y-133390663D01*
X76610185Y-133390668D01*
X76588159Y-133457139D01*
X76555001Y-133557203D01*
X76555001Y-133557204D01*
X76555000Y-133557204D01*
X76544500Y-133659983D01*
X76544500Y-134960001D01*
X76544501Y-134960018D01*
X76555000Y-135062796D01*
X76555001Y-135062799D01*
X76610185Y-135229331D01*
X76610187Y-135229336D01*
X76628750Y-135259432D01*
X76682421Y-135346447D01*
X76702289Y-135378657D01*
X76721451Y-135397819D01*
X76754936Y-135459142D01*
X76749952Y-135528834D01*
X76708080Y-135584767D01*
X76642616Y-135609184D01*
X76633770Y-135609500D01*
X73781578Y-135609500D01*
X73587173Y-135640290D01*
X73399970Y-135701117D01*
X73224594Y-135790476D01*
X73133741Y-135856485D01*
X73065354Y-135906172D01*
X73065352Y-135906174D01*
X73065351Y-135906174D01*
X72926174Y-136045351D01*
X72926174Y-136045352D01*
X72926172Y-136045354D01*
X72905357Y-136074003D01*
X72810476Y-136204594D01*
X72721117Y-136379970D01*
X72660290Y-136567173D01*
X72629500Y-136761577D01*
X72629500Y-136958422D01*
X72180500Y-136958422D01*
X72180500Y-83811288D01*
X74869500Y-83811288D01*
X74900584Y-84047405D01*
X74901162Y-84051789D01*
X74922694Y-84132145D01*
X74963947Y-84286104D01*
X75043411Y-84477947D01*
X75056776Y-84510212D01*
X75178064Y-84720289D01*
X75178066Y-84720292D01*
X75178067Y-84720293D01*
X75325733Y-84912736D01*
X75325739Y-84912743D01*
X75497256Y-85084260D01*
X75497262Y-85084265D01*
X75689711Y-85231936D01*
X75899788Y-85353224D01*
X76123900Y-85446054D01*
X76358211Y-85508838D01*
X76538586Y-85532584D01*
X76598711Y-85540500D01*
X76598712Y-85540500D01*
X76841289Y-85540500D01*
X76889388Y-85534167D01*
X77081789Y-85508838D01*
X77316100Y-85446054D01*
X77540212Y-85353224D01*
X77750289Y-85231936D01*
X77942738Y-85084265D01*
X78114265Y-84912738D01*
X78261936Y-84720289D01*
X78383224Y-84510212D01*
X78476054Y-84286100D01*
X78538838Y-84051789D01*
X78570500Y-83811288D01*
X78570500Y-83568712D01*
X78567744Y-83547781D01*
X78562584Y-83508586D01*
X78538838Y-83328211D01*
X78476054Y-83093900D01*
X78383224Y-82869788D01*
X78261936Y-82659711D01*
X78114265Y-82467262D01*
X78114260Y-82467256D01*
X77942743Y-82295739D01*
X77942736Y-82295733D01*
X77750293Y-82148067D01*
X77750292Y-82148066D01*
X77750289Y-82148064D01*
X77540212Y-82026776D01*
X77531992Y-82023371D01*
X77316104Y-81933947D01*
X77081785Y-81871161D01*
X76841289Y-81839500D01*
X76841288Y-81839500D01*
X76598712Y-81839500D01*
X76598711Y-81839500D01*
X76358214Y-81871161D01*
X76123895Y-81933947D01*
X75899794Y-82026773D01*
X75899785Y-82026777D01*
X75689706Y-82148067D01*
X75497263Y-82295733D01*
X75497256Y-82295739D01*
X75325739Y-82467256D01*
X75325733Y-82467263D01*
X75178067Y-82659706D01*
X75056777Y-82869785D01*
X75056773Y-82869794D01*
X74963947Y-83093895D01*
X74901161Y-83328214D01*
X74869500Y-83568711D01*
X74869500Y-83811288D01*
X72180500Y-83811288D01*
X72180500Y-80974500D01*
X72200185Y-80907461D01*
X72252989Y-80861706D01*
X72304500Y-80850500D01*
X135985500Y-80850500D01*
X136052539Y-80870185D01*
G37*
%TD.AperFunction*%
%TD*%
M02*
