%TF.GenerationSoftware,KiCad,Pcbnew,8.0.1*%
%TF.CreationDate,2025-03-07T04:36:46+02:00*%
%TF.ProjectId,robosoccer2,726f626f-736f-4636-9365-72322e6b6963,rev?*%
%TF.SameCoordinates,Original*%
%TF.FileFunction,Soldermask,Top*%
%TF.FilePolarity,Negative*%
%FSLAX46Y46*%
G04 Gerber Fmt 4.6, Leading zero omitted, Abs format (unit mm)*
G04 Created by KiCad (PCBNEW 8.0.1) date 2025-03-07 04:36:46*
%MOMM*%
%LPD*%
G01*
G04 APERTURE LIST*
G04 Aperture macros list*
%AMRoundRect*
0 Rectangle with rounded corners*
0 $1 Rounding radius*
0 $2 $3 $4 $5 $6 $7 $8 $9 X,Y pos of 4 corners*
0 Add a 4 corners polygon primitive as box body*
4,1,4,$2,$3,$4,$5,$6,$7,$8,$9,$2,$3,0*
0 Add four circle primitives for the rounded corners*
1,1,$1+$1,$2,$3*
1,1,$1+$1,$4,$5*
1,1,$1+$1,$6,$7*
1,1,$1+$1,$8,$9*
0 Add four rect primitives between the rounded corners*
20,1,$1+$1,$2,$3,$4,$5,0*
20,1,$1+$1,$4,$5,$6,$7,0*
20,1,$1+$1,$6,$7,$8,$9,0*
20,1,$1+$1,$8,$9,$2,$3,0*%
G04 Aperture macros list end*
%ADD10C,3.200000*%
%ADD11R,2.000000X1.905000*%
%ADD12O,2.000000X1.905000*%
%ADD13C,1.600000*%
%ADD14RoundRect,0.250000X-0.750000X0.600000X-0.750000X-0.600000X0.750000X-0.600000X0.750000X0.600000X0*%
%ADD15O,2.000000X1.700000*%
%ADD16R,2.600000X2.600000*%
%ADD17C,2.600000*%
%ADD18C,1.800000*%
%ADD19RoundRect,0.250000X-0.725000X0.600000X-0.725000X-0.600000X0.725000X-0.600000X0.725000X0.600000X0*%
%ADD20O,1.950000X1.700000*%
%ADD21RoundRect,0.250000X-0.600000X-0.750000X0.600000X-0.750000X0.600000X0.750000X-0.600000X0.750000X0*%
%ADD22O,1.700000X2.000000*%
%ADD23R,1.800000X1.800000*%
%ADD24O,1.800000X1.800000*%
%ADD25R,1.800000X1.700000*%
%ADD26R,1.905000X2.000000*%
%ADD27O,1.905000X2.000000*%
G04 APERTURE END LIST*
D10*
%TO.C,H4*%
X132770000Y-165130000D03*
%TD*%
%TO.C,H3*%
X76720000Y-165080000D03*
%TD*%
%TO.C,H2*%
X76720000Y-83690000D03*
%TD*%
D11*
%TO.C,U3*%
X88750000Y-144750000D03*
D12*
X88750000Y-142210000D03*
X88750000Y-139670000D03*
%TD*%
D13*
%TO.C,C2*%
X87550000Y-135020000D03*
X85050000Y-135020000D03*
%TD*%
%TO.C,C1*%
X92540000Y-144720000D03*
X92540000Y-142220000D03*
%TD*%
D14*
%TO.C,J15*%
X118050000Y-150190000D03*
D15*
X118050000Y-152690000D03*
%TD*%
D16*
%TO.C,J18*%
X99110000Y-163055000D03*
D17*
X104110000Y-163055000D03*
%TD*%
D16*
%TO.C,J7*%
X129615000Y-157120000D03*
D17*
X129615000Y-152120000D03*
X129615000Y-147120000D03*
%TD*%
D16*
%TO.C,J4*%
X78565000Y-158610000D03*
D17*
X78565000Y-153610000D03*
X78565000Y-148610000D03*
%TD*%
D14*
%TO.C,J21*%
X89340000Y-151820000D03*
D15*
X89340000Y-154320000D03*
%TD*%
D13*
%TO.C,C7*%
X105720000Y-136650000D03*
X103220000Y-136650000D03*
%TD*%
D18*
%TO.C,C9*%
X82930000Y-89540000D03*
X82930000Y-92040000D03*
%TD*%
D19*
%TO.C,J8*%
X130840000Y-100800000D03*
D20*
X130840000Y-103300000D03*
X130840000Y-105800000D03*
%TD*%
D10*
%TO.C,H1*%
X132770000Y-83690000D03*
%TD*%
D21*
%TO.C,J16*%
X109270000Y-132620000D03*
D22*
X111770000Y-132620000D03*
%TD*%
D23*
%TO.C,J14*%
X86120000Y-128680000D03*
D24*
X86120000Y-126140000D03*
X86120000Y-123600000D03*
X86120000Y-121060000D03*
X86120000Y-118520000D03*
X86120000Y-115980000D03*
X86120000Y-113440000D03*
X86120000Y-110900000D03*
X86120000Y-108360000D03*
X86120000Y-105820000D03*
X86120000Y-103280000D03*
X86120000Y-100740000D03*
X86120000Y-98200000D03*
X86120000Y-95660000D03*
X86120000Y-93120000D03*
X86120000Y-90580000D03*
X86120000Y-88040000D03*
X86120000Y-85500000D03*
X86120000Y-82960000D03*
%TD*%
D25*
%TO.C,J1*%
X117040000Y-82940000D03*
D24*
X117040000Y-85480000D03*
X117040000Y-88020000D03*
X117040000Y-90560000D03*
X117040000Y-93100000D03*
X117040000Y-95640000D03*
X117040000Y-98180000D03*
X117040000Y-100720000D03*
X117040000Y-103260000D03*
X117040000Y-105800000D03*
X117040000Y-108340000D03*
X117040000Y-110880000D03*
X117040000Y-113420000D03*
X117040000Y-115960000D03*
X117040000Y-118500000D03*
X117040000Y-121040000D03*
X117040000Y-123580000D03*
X117040000Y-126120000D03*
X117040000Y-128660000D03*
%TD*%
D19*
%TO.C,J6*%
X77660000Y-110120000D03*
D20*
X77660000Y-112620000D03*
X77660000Y-115120000D03*
%TD*%
D19*
%TO.C,J19*%
X77580000Y-121970000D03*
D20*
X77580000Y-124470000D03*
X77580000Y-126970000D03*
%TD*%
D19*
%TO.C,J5*%
X77710000Y-98280000D03*
D20*
X77710000Y-100780000D03*
X77710000Y-103280000D03*
%TD*%
D19*
%TO.C,J12*%
X78020000Y-134310000D03*
D20*
X78020000Y-136810000D03*
X78020000Y-139310000D03*
%TD*%
D13*
%TO.C,C12*%
X92590000Y-134990000D03*
X90090000Y-134990000D03*
%TD*%
%TO.C,C13*%
X92540000Y-132340000D03*
X90040000Y-132340000D03*
%TD*%
D26*
%TO.C,U2*%
X105680000Y-139800000D03*
D27*
X103140000Y-139800000D03*
X100600000Y-139800000D03*
%TD*%
D11*
%TO.C,U1*%
X119990000Y-135740000D03*
D12*
X119990000Y-138280000D03*
X119990000Y-140820000D03*
%TD*%
D13*
%TO.C,C5*%
X119890000Y-131830000D03*
X122390000Y-131830000D03*
%TD*%
%TO.C,C6*%
X119990000Y-144800000D03*
X117490000Y-144800000D03*
%TD*%
D19*
%TO.C,J10*%
X130650000Y-124010000D03*
D20*
X130650000Y-126510000D03*
X130650000Y-129010000D03*
%TD*%
D13*
%TO.C,C11*%
X97310000Y-133410000D03*
X97310000Y-135910000D03*
%TD*%
D18*
%TO.C,C4*%
X80200000Y-89530000D03*
X80200000Y-92030000D03*
%TD*%
D23*
%TO.C,J13*%
X123220000Y-82900000D03*
D24*
X123220000Y-85440000D03*
X123220000Y-87980000D03*
X123220000Y-90520000D03*
X123220000Y-93060000D03*
X123220000Y-95600000D03*
X123220000Y-98140000D03*
X123220000Y-100680000D03*
X123220000Y-103220000D03*
X123220000Y-105760000D03*
X123220000Y-108300000D03*
X123220000Y-110840000D03*
X123220000Y-113380000D03*
X123220000Y-115920000D03*
X123220000Y-118460000D03*
X123220000Y-121000000D03*
X123220000Y-123540000D03*
X123220000Y-126080000D03*
X123220000Y-128620000D03*
%TD*%
D19*
%TO.C,J9*%
X130810000Y-89130000D03*
D20*
X130810000Y-91630000D03*
X130810000Y-94130000D03*
%TD*%
D13*
%TO.C,C8*%
X94960000Y-139770000D03*
X92460000Y-139770000D03*
%TD*%
D19*
%TO.C,J20*%
X130650000Y-112360000D03*
D20*
X130650000Y-114860000D03*
X130650000Y-117360000D03*
%TD*%
D16*
%TO.C,J3*%
X111580000Y-163015000D03*
D17*
X116580000Y-163015000D03*
%TD*%
D23*
%TO.C,J2*%
X92450000Y-128630000D03*
D24*
X92450000Y-126090000D03*
X92450000Y-123550000D03*
X92450000Y-121010000D03*
X92450000Y-118470000D03*
X92450000Y-115930000D03*
X92450000Y-113390000D03*
X92450000Y-110850000D03*
X92450000Y-108310000D03*
X92450000Y-105770000D03*
X92450000Y-103230000D03*
X92450000Y-100690000D03*
X92450000Y-98150000D03*
X92450000Y-95610000D03*
X92450000Y-93070000D03*
X92450000Y-90530000D03*
X92450000Y-87990000D03*
X92450000Y-85450000D03*
X92450000Y-82910000D03*
%TD*%
D22*
%TO.C,J17*%
X125580000Y-165370000D03*
D21*
X123080000Y-165370000D03*
%TD*%
D19*
%TO.C,J11*%
X130600000Y-135670000D03*
D20*
X130600000Y-138170000D03*
X130600000Y-140670000D03*
%TD*%
D18*
%TO.C,C10*%
X75750000Y-89470000D03*
X75750000Y-91970000D03*
%TD*%
M02*
