%TF.GenerationSoftware,KiCad,Pcbnew,8.0.1*%
%TF.CreationDate,2025-03-07T04:36:46+02:00*%
%TF.ProjectId,robosoccer2,726f626f-736f-4636-9365-72322e6b6963,rev?*%
%TF.SameCoordinates,Original*%
%TF.FileFunction,Copper,L1,Top*%
%TF.FilePolarity,Positive*%
%FSLAX46Y46*%
G04 Gerber Fmt 4.6, Leading zero omitted, Abs format (unit mm)*
G04 Created by KiCad (PCBNEW 8.0.1) date 2025-03-07 04:36:46*
%MOMM*%
%LPD*%
G01*
G04 APERTURE LIST*
G04 Aperture macros list*
%AMRoundRect*
0 Rectangle with rounded corners*
0 $1 Rounding radius*
0 $2 $3 $4 $5 $6 $7 $8 $9 X,Y pos of 4 corners*
0 Add a 4 corners polygon primitive as box body*
4,1,4,$2,$3,$4,$5,$6,$7,$8,$9,$2,$3,0*
0 Add four circle primitives for the rounded corners*
1,1,$1+$1,$2,$3*
1,1,$1+$1,$4,$5*
1,1,$1+$1,$6,$7*
1,1,$1+$1,$8,$9*
0 Add four rect primitives between the rounded corners*
20,1,$1+$1,$2,$3,$4,$5,0*
20,1,$1+$1,$4,$5,$6,$7,0*
20,1,$1+$1,$6,$7,$8,$9,0*
20,1,$1+$1,$8,$9,$2,$3,0*%
G04 Aperture macros list end*
%TA.AperFunction,ComponentPad*%
%ADD10R,2.000000X1.905000*%
%TD*%
%TA.AperFunction,ComponentPad*%
%ADD11O,2.000000X1.905000*%
%TD*%
%TA.AperFunction,ComponentPad*%
%ADD12C,1.600000*%
%TD*%
%TA.AperFunction,ComponentPad*%
%ADD13RoundRect,0.250000X-0.750000X0.600000X-0.750000X-0.600000X0.750000X-0.600000X0.750000X0.600000X0*%
%TD*%
%TA.AperFunction,ComponentPad*%
%ADD14O,2.000000X1.700000*%
%TD*%
%TA.AperFunction,ComponentPad*%
%ADD15R,2.600000X2.600000*%
%TD*%
%TA.AperFunction,ComponentPad*%
%ADD16C,2.600000*%
%TD*%
%TA.AperFunction,ComponentPad*%
%ADD17C,1.800000*%
%TD*%
%TA.AperFunction,ComponentPad*%
%ADD18RoundRect,0.250000X-0.725000X0.600000X-0.725000X-0.600000X0.725000X-0.600000X0.725000X0.600000X0*%
%TD*%
%TA.AperFunction,ComponentPad*%
%ADD19O,1.950000X1.700000*%
%TD*%
%TA.AperFunction,ComponentPad*%
%ADD20RoundRect,0.250000X-0.600000X-0.750000X0.600000X-0.750000X0.600000X0.750000X-0.600000X0.750000X0*%
%TD*%
%TA.AperFunction,ComponentPad*%
%ADD21O,1.700000X2.000000*%
%TD*%
%TA.AperFunction,ComponentPad*%
%ADD22R,1.800000X1.800000*%
%TD*%
%TA.AperFunction,ComponentPad*%
%ADD23O,1.800000X1.800000*%
%TD*%
%TA.AperFunction,ComponentPad*%
%ADD24R,1.800000X1.700000*%
%TD*%
%TA.AperFunction,ComponentPad*%
%ADD25R,1.905000X2.000000*%
%TD*%
%TA.AperFunction,ComponentPad*%
%ADD26O,1.905000X2.000000*%
%TD*%
%TA.AperFunction,ViaPad*%
%ADD27C,1.400000*%
%TD*%
%TA.AperFunction,Conductor*%
%ADD28C,1.500000*%
%TD*%
%TA.AperFunction,Conductor*%
%ADD29C,1.000000*%
%TD*%
G04 APERTURE END LIST*
D10*
%TO.P,U3,1,IN*%
%TO.N,12v*%
X88750000Y-144750000D03*
D11*
%TO.P,U3,2,GND*%
%TO.N,GND*%
X88750000Y-142210000D03*
%TO.P,U3,3,OUT*%
%TO.N,5v-3 4*%
X88750000Y-139670000D03*
%TD*%
D12*
%TO.P,C2,1*%
%TO.N,5v-3 4*%
X87550000Y-135020000D03*
%TO.P,C2,2*%
%TO.N,GND*%
X85050000Y-135020000D03*
%TD*%
%TO.P,C1,1*%
%TO.N,12v*%
X92540000Y-144720000D03*
%TO.P,C1,2*%
%TO.N,GND*%
X92540000Y-142220000D03*
%TD*%
D13*
%TO.P,J15,1,Pin_1*%
%TO.N,5v-d1*%
X118050000Y-150190000D03*
D14*
%TO.P,J15,2,Pin_2*%
%TO.N,GND*%
X118050000Y-152690000D03*
%TD*%
D15*
%TO.P,J18,1,Pin_1*%
%TO.N,12v*%
X99110000Y-163055000D03*
D16*
%TO.P,J18,2,Pin_2*%
%TO.N,GND*%
X104110000Y-163055000D03*
%TD*%
D15*
%TO.P,J7,1,Pin_1*%
%TO.N,12v*%
X129615000Y-157120000D03*
D16*
%TO.P,J7,2,Pin_2*%
%TO.N,GND*%
X129615000Y-152120000D03*
%TO.P,J7,3,Pin_3*%
%TO.N,5v-d1*%
X129615000Y-147120000D03*
%TD*%
D15*
%TO.P,J4,1,Pin_1*%
%TO.N,12v*%
X78565000Y-158610000D03*
D16*
%TO.P,J4,2,Pin_2*%
%TO.N,GND*%
X78565000Y-153610000D03*
%TO.P,J4,3,Pin_3*%
%TO.N,5v-d2*%
X78565000Y-148610000D03*
%TD*%
D13*
%TO.P,J21,1,Pin_1*%
%TO.N,5v-d2*%
X89340000Y-151820000D03*
D14*
%TO.P,J21,2,Pin_2*%
%TO.N,GND*%
X89340000Y-154320000D03*
%TD*%
D12*
%TO.P,C7,1*%
%TO.N,12v*%
X105720000Y-136650000D03*
%TO.P,C7,2*%
%TO.N,GND*%
X103220000Y-136650000D03*
%TD*%
D17*
%TO.P,C9,1*%
%TO.N,3.3V*%
X82930000Y-89540000D03*
%TO.P,C9,2*%
%TO.N,GND*%
X82930000Y-92040000D03*
%TD*%
D18*
%TO.P,J8,1,Pin_1*%
%TO.N,19*%
X130840000Y-100800000D03*
D19*
%TO.P,J8,2,Pin_2*%
%TO.N,18*%
X130840000Y-103300000D03*
%TO.P,J8,3,Pin_3*%
%TO.N,5*%
X130840000Y-105800000D03*
%TD*%
D20*
%TO.P,J16,1,Pin_1*%
%TO.N,3.3V*%
X109270000Y-132620000D03*
D21*
%TO.P,J16,2,Pin_2*%
%TO.N,GND*%
X111770000Y-132620000D03*
%TD*%
D22*
%TO.P,J14,1,Pin_1*%
%TO.N,5v-ESP*%
X86120000Y-128680000D03*
D23*
%TO.P,J14,2,Pin_2*%
%TO.N,CMD*%
X86120000Y-126140000D03*
%TO.P,J14,3,Pin_3*%
%TO.N,SD3*%
X86120000Y-123600000D03*
%TO.P,J14,4,Pin_4*%
%TO.N,SD2*%
X86120000Y-121060000D03*
%TO.P,J14,5,Pin_5*%
%TO.N,13*%
X86120000Y-118520000D03*
%TO.P,J14,6,Pin_6*%
%TO.N,GND*%
X86120000Y-115980000D03*
%TO.P,J14,7,Pin_7*%
%TO.N,12*%
X86120000Y-113440000D03*
%TO.P,J14,8,Pin_8*%
%TO.N,14*%
X86120000Y-110900000D03*
%TO.P,J14,9,Pin_9*%
%TO.N,27*%
X86120000Y-108360000D03*
%TO.P,J14,10,Pin_10*%
%TO.N,26*%
X86120000Y-105820000D03*
%TO.P,J14,11,Pin_11*%
%TO.N,25*%
X86120000Y-103280000D03*
%TO.P,J14,12,Pin_12*%
%TO.N,33*%
X86120000Y-100740000D03*
%TO.P,J14,13,Pin_13*%
%TO.N,32*%
X86120000Y-98200000D03*
%TO.P,J14,14,Pin_14*%
%TO.N,35*%
X86120000Y-95660000D03*
%TO.P,J14,15,Pin_15*%
%TO.N,34*%
X86120000Y-93120000D03*
%TO.P,J14,16,Pin_16*%
%TO.N,39*%
X86120000Y-90580000D03*
%TO.P,J14,17,Pin_17*%
%TO.N,36*%
X86120000Y-88040000D03*
%TO.P,J14,18,Pin_18*%
%TO.N,EN*%
X86120000Y-85500000D03*
%TO.P,J14,19,Pin_19*%
%TO.N,3.3V*%
X86120000Y-82960000D03*
%TD*%
D24*
%TO.P,J1,1,Pin_1*%
%TO.N,GND*%
X117040000Y-82940000D03*
D23*
%TO.P,J1,2,Pin_2*%
%TO.N,23*%
X117040000Y-85480000D03*
%TO.P,J1,3,Pin_3*%
%TO.N,22*%
X117040000Y-88020000D03*
%TO.P,J1,4,Pin_4*%
%TO.N,TX*%
X117040000Y-90560000D03*
%TO.P,J1,5,Pin_5*%
%TO.N,RX*%
X117040000Y-93100000D03*
%TO.P,J1,6,Pin_6*%
%TO.N,21*%
X117040000Y-95640000D03*
%TO.P,J1,7,Pin_7*%
%TO.N,GND*%
X117040000Y-98180000D03*
%TO.P,J1,8,Pin_8*%
%TO.N,19*%
X117040000Y-100720000D03*
%TO.P,J1,9,Pin_9*%
%TO.N,18*%
X117040000Y-103260000D03*
%TO.P,J1,10,Pin_10*%
%TO.N,5*%
X117040000Y-105800000D03*
%TO.P,J1,11,Pin_11*%
%TO.N,17*%
X117040000Y-108340000D03*
%TO.P,J1,12,Pin_12*%
%TO.N,16*%
X117040000Y-110880000D03*
%TO.P,J1,13,Pin_13*%
%TO.N,4*%
X117040000Y-113420000D03*
%TO.P,J1,14,Pin_14*%
%TO.N,0*%
X117040000Y-115960000D03*
%TO.P,J1,15,Pin_15*%
%TO.N,2*%
X117040000Y-118500000D03*
%TO.P,J1,16,Pin_16*%
%TO.N,15*%
X117040000Y-121040000D03*
%TO.P,J1,17,Pin_17*%
%TO.N,SD1*%
X117040000Y-123580000D03*
%TO.P,J1,18,Pin_18*%
%TO.N,SD0*%
X117040000Y-126120000D03*
%TO.P,J1,19,Pin_19*%
%TO.N,CLK*%
X117040000Y-128660000D03*
%TD*%
D18*
%TO.P,J6,1,Pin_1*%
%TO.N,26*%
X77660000Y-110120000D03*
D19*
%TO.P,J6,2,Pin_2*%
%TO.N,27*%
X77660000Y-112620000D03*
%TO.P,J6,3,Pin_3*%
%TO.N,14*%
X77660000Y-115120000D03*
%TD*%
D18*
%TO.P,J19,1,Pin_1*%
%TO.N,12*%
X77580000Y-121970000D03*
D19*
%TO.P,J19,2,Pin_2*%
%TO.N,5v-3 4*%
X77580000Y-124470000D03*
%TO.P,J19,3,Pin_3*%
%TO.N,GND*%
X77580000Y-126970000D03*
%TD*%
D18*
%TO.P,J5,1,Pin_1*%
%TO.N,32*%
X77710000Y-98280000D03*
D19*
%TO.P,J5,2,Pin_2*%
%TO.N,33*%
X77710000Y-100780000D03*
%TO.P,J5,3,Pin_3*%
%TO.N,25*%
X77710000Y-103280000D03*
%TD*%
D18*
%TO.P,J12,1,Pin_1*%
%TO.N,13*%
X78020000Y-134310000D03*
D19*
%TO.P,J12,2,Pin_2*%
%TO.N,5v-3 4*%
X78020000Y-136810000D03*
%TO.P,J12,3,Pin_3*%
%TO.N,GND*%
X78020000Y-139310000D03*
%TD*%
D12*
%TO.P,C12,1*%
%TO.N,5v-ESP*%
X92590000Y-134990000D03*
%TO.P,C12,2*%
%TO.N,GND*%
X90090000Y-134990000D03*
%TD*%
%TO.P,C13,1*%
%TO.N,5v-ESP*%
X92540000Y-132340000D03*
%TO.P,C13,2*%
%TO.N,GND*%
X90040000Y-132340000D03*
%TD*%
D25*
%TO.P,U2,1,IN*%
%TO.N,12v*%
X105680000Y-139800000D03*
D26*
%TO.P,U2,2,GND*%
%TO.N,GND*%
X103140000Y-139800000D03*
%TO.P,U2,3,OUT*%
%TO.N,5v-ESP*%
X100600000Y-139800000D03*
%TD*%
D10*
%TO.P,U1,1,IN*%
%TO.N,12v*%
X119990000Y-135740000D03*
D11*
%TO.P,U1,2,GND*%
%TO.N,GND*%
X119990000Y-138280000D03*
%TO.P,U1,3,OUT*%
%TO.N,5v-1 2 5*%
X119990000Y-140820000D03*
%TD*%
D12*
%TO.P,C5,1*%
%TO.N,12v*%
X119890000Y-131830000D03*
%TO.P,C5,2*%
%TO.N,GND*%
X122390000Y-131830000D03*
%TD*%
%TO.P,C6,1*%
%TO.N,5v-1 2 5*%
X119990000Y-144800000D03*
%TO.P,C6,2*%
%TO.N,GND*%
X117490000Y-144800000D03*
%TD*%
D18*
%TO.P,J10,1,Pin_1*%
%TO.N,16*%
X130650000Y-124010000D03*
D19*
%TO.P,J10,2,Pin_2*%
%TO.N,5v-1 2 5*%
X130650000Y-126510000D03*
%TO.P,J10,3,Pin_3*%
%TO.N,GND*%
X130650000Y-129010000D03*
%TD*%
D12*
%TO.P,C11,1*%
%TO.N,5v-ESP*%
X97310000Y-133410000D03*
%TO.P,C11,2*%
%TO.N,GND*%
X97310000Y-135910000D03*
%TD*%
D17*
%TO.P,C4,1*%
%TO.N,3.3V*%
X80200000Y-89530000D03*
%TO.P,C4,2*%
%TO.N,GND*%
X80200000Y-92030000D03*
%TD*%
D22*
%TO.P,J13,1,Pin_1*%
%TO.N,GND*%
X123220000Y-82900000D03*
D23*
%TO.P,J13,2,Pin_2*%
%TO.N,23*%
X123220000Y-85440000D03*
%TO.P,J13,3,Pin_3*%
%TO.N,22*%
X123220000Y-87980000D03*
%TO.P,J13,4,Pin_4*%
%TO.N,TX*%
X123220000Y-90520000D03*
%TO.P,J13,5,Pin_5*%
%TO.N,RX*%
X123220000Y-93060000D03*
%TO.P,J13,6,Pin_6*%
%TO.N,21*%
X123220000Y-95600000D03*
%TO.P,J13,7,Pin_7*%
%TO.N,GND*%
X123220000Y-98140000D03*
%TO.P,J13,8,Pin_8*%
%TO.N,19*%
X123220000Y-100680000D03*
%TO.P,J13,9,Pin_9*%
%TO.N,18*%
X123220000Y-103220000D03*
%TO.P,J13,10,Pin_10*%
%TO.N,5*%
X123220000Y-105760000D03*
%TO.P,J13,11,Pin_11*%
%TO.N,17*%
X123220000Y-108300000D03*
%TO.P,J13,12,Pin_12*%
%TO.N,16*%
X123220000Y-110840000D03*
%TO.P,J13,13,Pin_13*%
%TO.N,4*%
X123220000Y-113380000D03*
%TO.P,J13,14,Pin_14*%
%TO.N,0*%
X123220000Y-115920000D03*
%TO.P,J13,15,Pin_15*%
%TO.N,2*%
X123220000Y-118460000D03*
%TO.P,J13,16,Pin_16*%
%TO.N,15*%
X123220000Y-121000000D03*
%TO.P,J13,17,Pin_17*%
%TO.N,SD1*%
X123220000Y-123540000D03*
%TO.P,J13,18,Pin_18*%
%TO.N,SD0*%
X123220000Y-126080000D03*
%TO.P,J13,19,Pin_19*%
%TO.N,CLK*%
X123220000Y-128620000D03*
%TD*%
D18*
%TO.P,J9,1,Pin_1*%
%TO.N,23*%
X130810000Y-89130000D03*
D19*
%TO.P,J9,2,Pin_2*%
%TO.N,22*%
X130810000Y-91630000D03*
%TO.P,J9,3,Pin_3*%
%TO.N,21*%
X130810000Y-94130000D03*
%TD*%
D12*
%TO.P,C8,1*%
%TO.N,5v-ESP*%
X94960000Y-139770000D03*
%TO.P,C8,2*%
%TO.N,GND*%
X92460000Y-139770000D03*
%TD*%
D18*
%TO.P,J20,1,Pin_1*%
%TO.N,17*%
X130650000Y-112360000D03*
D19*
%TO.P,J20,2,Pin_2*%
%TO.N,5v-1 2 5*%
X130650000Y-114860000D03*
%TO.P,J20,3,Pin_3*%
%TO.N,GND*%
X130650000Y-117360000D03*
%TD*%
D15*
%TO.P,J3,1,Pin_1*%
%TO.N,12v*%
X111580000Y-163015000D03*
D16*
%TO.P,J3,2,Pin_2*%
%TO.N,GND*%
X116580000Y-163015000D03*
%TD*%
D22*
%TO.P,J2,1,Pin_1*%
%TO.N,5v-ESP*%
X92450000Y-128630000D03*
D23*
%TO.P,J2,2,Pin_2*%
%TO.N,CMD*%
X92450000Y-126090000D03*
%TO.P,J2,3,Pin_3*%
%TO.N,SD3*%
X92450000Y-123550000D03*
%TO.P,J2,4,Pin_4*%
%TO.N,SD2*%
X92450000Y-121010000D03*
%TO.P,J2,5,Pin_5*%
%TO.N,13*%
X92450000Y-118470000D03*
%TO.P,J2,6,Pin_6*%
%TO.N,GND*%
X92450000Y-115930000D03*
%TO.P,J2,7,Pin_7*%
%TO.N,12*%
X92450000Y-113390000D03*
%TO.P,J2,8,Pin_8*%
%TO.N,14*%
X92450000Y-110850000D03*
%TO.P,J2,9,Pin_9*%
%TO.N,27*%
X92450000Y-108310000D03*
%TO.P,J2,10,Pin_10*%
%TO.N,26*%
X92450000Y-105770000D03*
%TO.P,J2,11,Pin_11*%
%TO.N,25*%
X92450000Y-103230000D03*
%TO.P,J2,12,Pin_12*%
%TO.N,33*%
X92450000Y-100690000D03*
%TO.P,J2,13,Pin_13*%
%TO.N,32*%
X92450000Y-98150000D03*
%TO.P,J2,14,Pin_14*%
%TO.N,35*%
X92450000Y-95610000D03*
%TO.P,J2,15,Pin_15*%
%TO.N,34*%
X92450000Y-93070000D03*
%TO.P,J2,16,Pin_16*%
%TO.N,39*%
X92450000Y-90530000D03*
%TO.P,J2,17,Pin_17*%
%TO.N,36*%
X92450000Y-87990000D03*
%TO.P,J2,18,Pin_18*%
%TO.N,EN*%
X92450000Y-85450000D03*
%TO.P,J2,19,Pin_19*%
%TO.N,3.3V*%
X92450000Y-82910000D03*
%TD*%
D21*
%TO.P,J17,2,Pin_2*%
%TO.N,GND*%
X125580000Y-165370000D03*
D20*
%TO.P,J17,1,Pin_1*%
%TO.N,12v*%
X123080000Y-165370000D03*
%TD*%
D18*
%TO.P,J11,1,Pin_1*%
%TO.N,4*%
X130600000Y-135670000D03*
D19*
%TO.P,J11,2,Pin_2*%
%TO.N,5v-1 2 5*%
X130600000Y-138170000D03*
%TO.P,J11,3,Pin_3*%
%TO.N,GND*%
X130600000Y-140670000D03*
%TD*%
D17*
%TO.P,C10,1*%
%TO.N,3.3V*%
X75750000Y-89470000D03*
%TO.P,C10,2*%
%TO.N,GND*%
X75750000Y-91970000D03*
%TD*%
D27*
%TO.N,5v-3 4*%
X73880000Y-136860000D03*
X73880000Y-124500000D03*
%TO.N,5v-1 2 5*%
X134070000Y-138170000D03*
X134060000Y-126530000D03*
X134090000Y-114820000D03*
X134070000Y-138170000D03*
%TD*%
D28*
%TO.N,5v-3 4*%
X73840000Y-136820000D02*
X73880000Y-136860000D01*
X73840000Y-124540000D02*
X73840000Y-136820000D01*
X73880000Y-124500000D02*
X73840000Y-124540000D01*
X77970000Y-136860000D02*
X78020000Y-136810000D01*
X73910000Y-124470000D02*
X73880000Y-124500000D01*
%TO.N,5v-1 2 5*%
X134060000Y-138160000D02*
X134070000Y-138170000D01*
X134060000Y-126530000D02*
X134060000Y-138160000D01*
D29*
X134070000Y-137990000D02*
X134070000Y-138170000D01*
X134140000Y-137920000D02*
X134070000Y-137990000D01*
D28*
X134090000Y-126500000D02*
X134060000Y-126530000D01*
X134090000Y-114820000D02*
X134090000Y-126500000D01*
D29*
%TO.N,GND*%
X92130000Y-115980000D02*
X92160000Y-115950000D01*
%TO.N,14*%
X92130000Y-110900000D02*
X92160000Y-110870000D01*
%TO.N,SD2*%
X92130000Y-121060000D02*
X92160000Y-121030000D01*
%TO.N,CMD*%
X92130000Y-126140000D02*
X92160000Y-126110000D01*
%TO.N,13*%
X92130000Y-118520000D02*
X92160000Y-118490000D01*
%TO.N,27*%
X92130000Y-108360000D02*
X92160000Y-108330000D01*
%TO.N,12*%
X92130000Y-113440000D02*
X92160000Y-113410000D01*
%TO.N,SD3*%
X92130000Y-123600000D02*
X92160000Y-123570000D01*
%TO.N,5v-ESP*%
X92130000Y-128680000D02*
X92160000Y-128650000D01*
%TD*%
M02*
