%TF.GenerationSoftware,KiCad,Pcbnew,8.0.1*%
%TF.CreationDate,2025-03-07T15:45:46+02:00*%
%TF.ProjectId,robosoccer 3,726f626f-736f-4636-9365-7220332e6b69,rev?*%
%TF.SameCoordinates,Original*%
%TF.FileFunction,Drillmap*%
%TF.FilePolarity,Positive*%
%FSLAX45Y45*%
G04 Gerber Fmt 4.5, Leading zero omitted, Abs format (unit mm)*
G04 Created by KiCad (PCBNEW 8.0.1) date 2025-03-07 15:45:46*
%MOMM*%
%LPD*%
G01*
G04 APERTURE LIST*
%ADD10C,0.050000*%
%ADD11C,0.200000*%
%ADD12C,0.320000*%
G04 APERTURE END LIST*
D10*
X7168000Y-8035000D02*
X13661000Y-8035000D01*
X13661000Y-16898000D01*
X7168000Y-16898000D01*
X7168000Y-8035000D01*
D11*
D12*
X7512000Y-8209000D02*
X7832000Y-8529000D01*
X7832000Y-8209000D02*
X7512000Y-8529000D01*
X7512000Y-16348000D02*
X7832000Y-16668000D01*
X7832000Y-16348000D02*
X7512000Y-16668000D01*
X13117000Y-8209000D02*
X13437000Y-8529000D01*
X13437000Y-8209000D02*
X13117000Y-8529000D01*
X13117000Y-16353000D02*
X13437000Y-16673000D01*
X13437000Y-16353000D02*
X13117000Y-16673000D01*
D11*
X7426277Y-17211984D02*
X7426277Y-17011984D01*
X7426277Y-17011984D02*
X7473896Y-17011984D01*
X7473896Y-17011984D02*
X7502467Y-17021508D01*
X7502467Y-17021508D02*
X7521515Y-17040555D01*
X7521515Y-17040555D02*
X7531039Y-17059603D01*
X7531039Y-17059603D02*
X7540562Y-17097698D01*
X7540562Y-17097698D02*
X7540562Y-17126270D01*
X7540562Y-17126270D02*
X7531039Y-17164365D01*
X7531039Y-17164365D02*
X7521515Y-17183412D01*
X7521515Y-17183412D02*
X7502467Y-17202460D01*
X7502467Y-17202460D02*
X7473896Y-17211984D01*
X7473896Y-17211984D02*
X7426277Y-17211984D01*
X7626277Y-17211984D02*
X7626277Y-17078650D01*
X7626277Y-17116746D02*
X7635801Y-17097698D01*
X7635801Y-17097698D02*
X7645324Y-17088174D01*
X7645324Y-17088174D02*
X7664372Y-17078650D01*
X7664372Y-17078650D02*
X7683420Y-17078650D01*
X7750086Y-17211984D02*
X7750086Y-17078650D01*
X7750086Y-17011984D02*
X7740562Y-17021508D01*
X7740562Y-17021508D02*
X7750086Y-17031031D01*
X7750086Y-17031031D02*
X7759610Y-17021508D01*
X7759610Y-17021508D02*
X7750086Y-17011984D01*
X7750086Y-17011984D02*
X7750086Y-17031031D01*
X7873896Y-17211984D02*
X7854848Y-17202460D01*
X7854848Y-17202460D02*
X7845324Y-17183412D01*
X7845324Y-17183412D02*
X7845324Y-17011984D01*
X7978658Y-17211984D02*
X7959610Y-17202460D01*
X7959610Y-17202460D02*
X7950086Y-17183412D01*
X7950086Y-17183412D02*
X7950086Y-17011984D01*
X8207229Y-17211984D02*
X8207229Y-17011984D01*
X8207229Y-17011984D02*
X8273896Y-17154841D01*
X8273896Y-17154841D02*
X8340562Y-17011984D01*
X8340562Y-17011984D02*
X8340562Y-17211984D01*
X8521515Y-17211984D02*
X8521515Y-17107222D01*
X8521515Y-17107222D02*
X8511991Y-17088174D01*
X8511991Y-17088174D02*
X8492944Y-17078650D01*
X8492944Y-17078650D02*
X8454848Y-17078650D01*
X8454848Y-17078650D02*
X8435801Y-17088174D01*
X8521515Y-17202460D02*
X8502467Y-17211984D01*
X8502467Y-17211984D02*
X8454848Y-17211984D01*
X8454848Y-17211984D02*
X8435801Y-17202460D01*
X8435801Y-17202460D02*
X8426277Y-17183412D01*
X8426277Y-17183412D02*
X8426277Y-17164365D01*
X8426277Y-17164365D02*
X8435801Y-17145317D01*
X8435801Y-17145317D02*
X8454848Y-17135793D01*
X8454848Y-17135793D02*
X8502467Y-17135793D01*
X8502467Y-17135793D02*
X8521515Y-17126270D01*
X8616753Y-17078650D02*
X8616753Y-17278650D01*
X8616753Y-17088174D02*
X8635801Y-17078650D01*
X8635801Y-17078650D02*
X8673896Y-17078650D01*
X8673896Y-17078650D02*
X8692944Y-17088174D01*
X8692944Y-17088174D02*
X8702467Y-17097698D01*
X8702467Y-17097698D02*
X8711991Y-17116746D01*
X8711991Y-17116746D02*
X8711991Y-17173889D01*
X8711991Y-17173889D02*
X8702467Y-17192936D01*
X8702467Y-17192936D02*
X8692944Y-17202460D01*
X8692944Y-17202460D02*
X8673896Y-17211984D01*
X8673896Y-17211984D02*
X8635801Y-17211984D01*
X8635801Y-17211984D02*
X8616753Y-17202460D01*
X8797705Y-17192936D02*
X8807229Y-17202460D01*
X8807229Y-17202460D02*
X8797705Y-17211984D01*
X8797705Y-17211984D02*
X8788182Y-17202460D01*
X8788182Y-17202460D02*
X8797705Y-17192936D01*
X8797705Y-17192936D02*
X8797705Y-17211984D01*
X8797705Y-17088174D02*
X8807229Y-17097698D01*
X8807229Y-17097698D02*
X8797705Y-17107222D01*
X8797705Y-17107222D02*
X8788182Y-17097698D01*
X8788182Y-17097698D02*
X8797705Y-17088174D01*
X8797705Y-17088174D02*
X8797705Y-17107222D01*
X6965500Y-17440500D02*
X7165500Y-17640500D01*
X7165500Y-17440500D02*
X6965500Y-17640500D01*
X7407229Y-17431984D02*
X7531039Y-17431984D01*
X7531039Y-17431984D02*
X7464372Y-17508174D01*
X7464372Y-17508174D02*
X7492943Y-17508174D01*
X7492943Y-17508174D02*
X7511991Y-17517698D01*
X7511991Y-17517698D02*
X7521515Y-17527222D01*
X7521515Y-17527222D02*
X7531039Y-17546270D01*
X7531039Y-17546270D02*
X7531039Y-17593889D01*
X7531039Y-17593889D02*
X7521515Y-17612936D01*
X7521515Y-17612936D02*
X7511991Y-17622460D01*
X7511991Y-17622460D02*
X7492943Y-17631984D01*
X7492943Y-17631984D02*
X7435801Y-17631984D01*
X7435801Y-17631984D02*
X7416753Y-17622460D01*
X7416753Y-17622460D02*
X7407229Y-17612936D01*
X7616753Y-17612936D02*
X7626277Y-17622460D01*
X7626277Y-17622460D02*
X7616753Y-17631984D01*
X7616753Y-17631984D02*
X7607229Y-17622460D01*
X7607229Y-17622460D02*
X7616753Y-17612936D01*
X7616753Y-17612936D02*
X7616753Y-17631984D01*
X7702467Y-17451031D02*
X7711991Y-17441508D01*
X7711991Y-17441508D02*
X7731039Y-17431984D01*
X7731039Y-17431984D02*
X7778658Y-17431984D01*
X7778658Y-17431984D02*
X7797705Y-17441508D01*
X7797705Y-17441508D02*
X7807229Y-17451031D01*
X7807229Y-17451031D02*
X7816753Y-17470079D01*
X7816753Y-17470079D02*
X7816753Y-17489127D01*
X7816753Y-17489127D02*
X7807229Y-17517698D01*
X7807229Y-17517698D02*
X7692943Y-17631984D01*
X7692943Y-17631984D02*
X7816753Y-17631984D01*
X7940562Y-17431984D02*
X7959610Y-17431984D01*
X7959610Y-17431984D02*
X7978658Y-17441508D01*
X7978658Y-17441508D02*
X7988182Y-17451031D01*
X7988182Y-17451031D02*
X7997705Y-17470079D01*
X7997705Y-17470079D02*
X8007229Y-17508174D01*
X8007229Y-17508174D02*
X8007229Y-17555793D01*
X8007229Y-17555793D02*
X7997705Y-17593889D01*
X7997705Y-17593889D02*
X7988182Y-17612936D01*
X7988182Y-17612936D02*
X7978658Y-17622460D01*
X7978658Y-17622460D02*
X7959610Y-17631984D01*
X7959610Y-17631984D02*
X7940562Y-17631984D01*
X7940562Y-17631984D02*
X7921515Y-17622460D01*
X7921515Y-17622460D02*
X7911991Y-17612936D01*
X7911991Y-17612936D02*
X7902467Y-17593889D01*
X7902467Y-17593889D02*
X7892943Y-17555793D01*
X7892943Y-17555793D02*
X7892943Y-17508174D01*
X7892943Y-17508174D02*
X7902467Y-17470079D01*
X7902467Y-17470079D02*
X7911991Y-17451031D01*
X7911991Y-17451031D02*
X7921515Y-17441508D01*
X7921515Y-17441508D02*
X7940562Y-17431984D01*
X8131039Y-17431984D02*
X8150086Y-17431984D01*
X8150086Y-17431984D02*
X8169134Y-17441508D01*
X8169134Y-17441508D02*
X8178658Y-17451031D01*
X8178658Y-17451031D02*
X8188182Y-17470079D01*
X8188182Y-17470079D02*
X8197705Y-17508174D01*
X8197705Y-17508174D02*
X8197705Y-17555793D01*
X8197705Y-17555793D02*
X8188182Y-17593889D01*
X8188182Y-17593889D02*
X8178658Y-17612936D01*
X8178658Y-17612936D02*
X8169134Y-17622460D01*
X8169134Y-17622460D02*
X8150086Y-17631984D01*
X8150086Y-17631984D02*
X8131039Y-17631984D01*
X8131039Y-17631984D02*
X8111991Y-17622460D01*
X8111991Y-17622460D02*
X8102467Y-17612936D01*
X8102467Y-17612936D02*
X8092943Y-17593889D01*
X8092943Y-17593889D02*
X8083420Y-17555793D01*
X8083420Y-17555793D02*
X8083420Y-17508174D01*
X8083420Y-17508174D02*
X8092943Y-17470079D01*
X8092943Y-17470079D02*
X8102467Y-17451031D01*
X8102467Y-17451031D02*
X8111991Y-17441508D01*
X8111991Y-17441508D02*
X8131039Y-17431984D01*
X8283420Y-17631984D02*
X8283420Y-17498650D01*
X8283420Y-17517698D02*
X8292943Y-17508174D01*
X8292943Y-17508174D02*
X8311991Y-17498650D01*
X8311991Y-17498650D02*
X8340563Y-17498650D01*
X8340563Y-17498650D02*
X8359610Y-17508174D01*
X8359610Y-17508174D02*
X8369134Y-17527222D01*
X8369134Y-17527222D02*
X8369134Y-17631984D01*
X8369134Y-17527222D02*
X8378658Y-17508174D01*
X8378658Y-17508174D02*
X8397705Y-17498650D01*
X8397705Y-17498650D02*
X8426277Y-17498650D01*
X8426277Y-17498650D02*
X8445325Y-17508174D01*
X8445325Y-17508174D02*
X8454848Y-17527222D01*
X8454848Y-17527222D02*
X8454848Y-17631984D01*
X8550086Y-17631984D02*
X8550086Y-17498650D01*
X8550086Y-17517698D02*
X8559610Y-17508174D01*
X8559610Y-17508174D02*
X8578658Y-17498650D01*
X8578658Y-17498650D02*
X8607229Y-17498650D01*
X8607229Y-17498650D02*
X8626277Y-17508174D01*
X8626277Y-17508174D02*
X8635801Y-17527222D01*
X8635801Y-17527222D02*
X8635801Y-17631984D01*
X8635801Y-17527222D02*
X8645325Y-17508174D01*
X8645325Y-17508174D02*
X8664372Y-17498650D01*
X8664372Y-17498650D02*
X8692944Y-17498650D01*
X8692944Y-17498650D02*
X8711991Y-17508174D01*
X8711991Y-17508174D02*
X8721515Y-17527222D01*
X8721515Y-17527222D02*
X8721515Y-17631984D01*
X9111991Y-17422460D02*
X8940563Y-17679603D01*
X9369134Y-17431984D02*
X9388182Y-17431984D01*
X9388182Y-17431984D02*
X9407229Y-17441508D01*
X9407229Y-17441508D02*
X9416753Y-17451031D01*
X9416753Y-17451031D02*
X9426277Y-17470079D01*
X9426277Y-17470079D02*
X9435801Y-17508174D01*
X9435801Y-17508174D02*
X9435801Y-17555793D01*
X9435801Y-17555793D02*
X9426277Y-17593889D01*
X9426277Y-17593889D02*
X9416753Y-17612936D01*
X9416753Y-17612936D02*
X9407229Y-17622460D01*
X9407229Y-17622460D02*
X9388182Y-17631984D01*
X9388182Y-17631984D02*
X9369134Y-17631984D01*
X9369134Y-17631984D02*
X9350087Y-17622460D01*
X9350087Y-17622460D02*
X9340563Y-17612936D01*
X9340563Y-17612936D02*
X9331039Y-17593889D01*
X9331039Y-17593889D02*
X9321515Y-17555793D01*
X9321515Y-17555793D02*
X9321515Y-17508174D01*
X9321515Y-17508174D02*
X9331039Y-17470079D01*
X9331039Y-17470079D02*
X9340563Y-17451031D01*
X9340563Y-17451031D02*
X9350087Y-17441508D01*
X9350087Y-17441508D02*
X9369134Y-17431984D01*
X9521515Y-17612936D02*
X9531039Y-17622460D01*
X9531039Y-17622460D02*
X9521515Y-17631984D01*
X9521515Y-17631984D02*
X9511991Y-17622460D01*
X9511991Y-17622460D02*
X9521515Y-17612936D01*
X9521515Y-17612936D02*
X9521515Y-17631984D01*
X9721515Y-17631984D02*
X9607229Y-17631984D01*
X9664372Y-17631984D02*
X9664372Y-17431984D01*
X9664372Y-17431984D02*
X9645325Y-17460555D01*
X9645325Y-17460555D02*
X9626277Y-17479603D01*
X9626277Y-17479603D02*
X9607229Y-17489127D01*
X9797706Y-17451031D02*
X9807229Y-17441508D01*
X9807229Y-17441508D02*
X9826277Y-17431984D01*
X9826277Y-17431984D02*
X9873896Y-17431984D01*
X9873896Y-17431984D02*
X9892944Y-17441508D01*
X9892944Y-17441508D02*
X9902468Y-17451031D01*
X9902468Y-17451031D02*
X9911991Y-17470079D01*
X9911991Y-17470079D02*
X9911991Y-17489127D01*
X9911991Y-17489127D02*
X9902468Y-17517698D01*
X9902468Y-17517698D02*
X9788182Y-17631984D01*
X9788182Y-17631984D02*
X9911991Y-17631984D01*
X10083420Y-17431984D02*
X10045325Y-17431984D01*
X10045325Y-17431984D02*
X10026277Y-17441508D01*
X10026277Y-17441508D02*
X10016753Y-17451031D01*
X10016753Y-17451031D02*
X9997706Y-17479603D01*
X9997706Y-17479603D02*
X9988182Y-17517698D01*
X9988182Y-17517698D02*
X9988182Y-17593889D01*
X9988182Y-17593889D02*
X9997706Y-17612936D01*
X9997706Y-17612936D02*
X10007229Y-17622460D01*
X10007229Y-17622460D02*
X10026277Y-17631984D01*
X10026277Y-17631984D02*
X10064372Y-17631984D01*
X10064372Y-17631984D02*
X10083420Y-17622460D01*
X10083420Y-17622460D02*
X10092944Y-17612936D01*
X10092944Y-17612936D02*
X10102468Y-17593889D01*
X10102468Y-17593889D02*
X10102468Y-17546270D01*
X10102468Y-17546270D02*
X10092944Y-17527222D01*
X10092944Y-17527222D02*
X10083420Y-17517698D01*
X10083420Y-17517698D02*
X10064372Y-17508174D01*
X10064372Y-17508174D02*
X10026277Y-17508174D01*
X10026277Y-17508174D02*
X10007229Y-17517698D01*
X10007229Y-17517698D02*
X9997706Y-17527222D01*
X9997706Y-17527222D02*
X9988182Y-17546270D01*
X10226277Y-17431984D02*
X10245325Y-17431984D01*
X10245325Y-17431984D02*
X10264372Y-17441508D01*
X10264372Y-17441508D02*
X10273896Y-17451031D01*
X10273896Y-17451031D02*
X10283420Y-17470079D01*
X10283420Y-17470079D02*
X10292944Y-17508174D01*
X10292944Y-17508174D02*
X10292944Y-17555793D01*
X10292944Y-17555793D02*
X10283420Y-17593889D01*
X10283420Y-17593889D02*
X10273896Y-17612936D01*
X10273896Y-17612936D02*
X10264372Y-17622460D01*
X10264372Y-17622460D02*
X10245325Y-17631984D01*
X10245325Y-17631984D02*
X10226277Y-17631984D01*
X10226277Y-17631984D02*
X10207229Y-17622460D01*
X10207229Y-17622460D02*
X10197706Y-17612936D01*
X10197706Y-17612936D02*
X10188182Y-17593889D01*
X10188182Y-17593889D02*
X10178658Y-17555793D01*
X10178658Y-17555793D02*
X10178658Y-17508174D01*
X10178658Y-17508174D02*
X10188182Y-17470079D01*
X10188182Y-17470079D02*
X10197706Y-17451031D01*
X10197706Y-17451031D02*
X10207229Y-17441508D01*
X10207229Y-17441508D02*
X10226277Y-17431984D01*
X10369134Y-17431984D02*
X10369134Y-17470079D01*
X10445325Y-17431984D02*
X10445325Y-17470079D01*
X10740563Y-17708174D02*
X10731039Y-17698650D01*
X10731039Y-17698650D02*
X10711991Y-17670079D01*
X10711991Y-17670079D02*
X10702468Y-17651031D01*
X10702468Y-17651031D02*
X10692944Y-17622460D01*
X10692944Y-17622460D02*
X10683420Y-17574841D01*
X10683420Y-17574841D02*
X10683420Y-17536746D01*
X10683420Y-17536746D02*
X10692944Y-17489127D01*
X10692944Y-17489127D02*
X10702468Y-17460555D01*
X10702468Y-17460555D02*
X10711991Y-17441508D01*
X10711991Y-17441508D02*
X10731039Y-17412936D01*
X10731039Y-17412936D02*
X10740563Y-17403412D01*
X10902468Y-17498650D02*
X10902468Y-17631984D01*
X10854849Y-17422460D02*
X10807230Y-17565317D01*
X10807230Y-17565317D02*
X10931039Y-17565317D01*
X11159611Y-17631984D02*
X11159611Y-17431984D01*
X11245325Y-17631984D02*
X11245325Y-17527222D01*
X11245325Y-17527222D02*
X11235801Y-17508174D01*
X11235801Y-17508174D02*
X11216753Y-17498650D01*
X11216753Y-17498650D02*
X11188182Y-17498650D01*
X11188182Y-17498650D02*
X11169134Y-17508174D01*
X11169134Y-17508174D02*
X11159611Y-17517698D01*
X11369134Y-17631984D02*
X11350087Y-17622460D01*
X11350087Y-17622460D02*
X11340563Y-17612936D01*
X11340563Y-17612936D02*
X11331039Y-17593889D01*
X11331039Y-17593889D02*
X11331039Y-17536746D01*
X11331039Y-17536746D02*
X11340563Y-17517698D01*
X11340563Y-17517698D02*
X11350087Y-17508174D01*
X11350087Y-17508174D02*
X11369134Y-17498650D01*
X11369134Y-17498650D02*
X11397706Y-17498650D01*
X11397706Y-17498650D02*
X11416753Y-17508174D01*
X11416753Y-17508174D02*
X11426277Y-17517698D01*
X11426277Y-17517698D02*
X11435801Y-17536746D01*
X11435801Y-17536746D02*
X11435801Y-17593889D01*
X11435801Y-17593889D02*
X11426277Y-17612936D01*
X11426277Y-17612936D02*
X11416753Y-17622460D01*
X11416753Y-17622460D02*
X11397706Y-17631984D01*
X11397706Y-17631984D02*
X11369134Y-17631984D01*
X11550087Y-17631984D02*
X11531039Y-17622460D01*
X11531039Y-17622460D02*
X11521515Y-17603412D01*
X11521515Y-17603412D02*
X11521515Y-17431984D01*
X11702468Y-17622460D02*
X11683420Y-17631984D01*
X11683420Y-17631984D02*
X11645325Y-17631984D01*
X11645325Y-17631984D02*
X11626277Y-17622460D01*
X11626277Y-17622460D02*
X11616753Y-17603412D01*
X11616753Y-17603412D02*
X11616753Y-17527222D01*
X11616753Y-17527222D02*
X11626277Y-17508174D01*
X11626277Y-17508174D02*
X11645325Y-17498650D01*
X11645325Y-17498650D02*
X11683420Y-17498650D01*
X11683420Y-17498650D02*
X11702468Y-17508174D01*
X11702468Y-17508174D02*
X11711991Y-17527222D01*
X11711991Y-17527222D02*
X11711991Y-17546270D01*
X11711991Y-17546270D02*
X11616753Y-17565317D01*
X11788182Y-17622460D02*
X11807230Y-17631984D01*
X11807230Y-17631984D02*
X11845325Y-17631984D01*
X11845325Y-17631984D02*
X11864372Y-17622460D01*
X11864372Y-17622460D02*
X11873896Y-17603412D01*
X11873896Y-17603412D02*
X11873896Y-17593889D01*
X11873896Y-17593889D02*
X11864372Y-17574841D01*
X11864372Y-17574841D02*
X11845325Y-17565317D01*
X11845325Y-17565317D02*
X11816753Y-17565317D01*
X11816753Y-17565317D02*
X11797706Y-17555793D01*
X11797706Y-17555793D02*
X11788182Y-17536746D01*
X11788182Y-17536746D02*
X11788182Y-17527222D01*
X11788182Y-17527222D02*
X11797706Y-17508174D01*
X11797706Y-17508174D02*
X11816753Y-17498650D01*
X11816753Y-17498650D02*
X11845325Y-17498650D01*
X11845325Y-17498650D02*
X11864372Y-17508174D01*
X11940563Y-17708174D02*
X11950087Y-17698650D01*
X11950087Y-17698650D02*
X11969134Y-17670079D01*
X11969134Y-17670079D02*
X11978658Y-17651031D01*
X11978658Y-17651031D02*
X11988182Y-17622460D01*
X11988182Y-17622460D02*
X11997706Y-17574841D01*
X11997706Y-17574841D02*
X11997706Y-17536746D01*
X11997706Y-17536746D02*
X11988182Y-17489127D01*
X11988182Y-17489127D02*
X11978658Y-17460555D01*
X11978658Y-17460555D02*
X11969134Y-17441508D01*
X11969134Y-17441508D02*
X11950087Y-17412936D01*
X11950087Y-17412936D02*
X11940563Y-17403412D01*
X12302468Y-17708174D02*
X12292944Y-17698650D01*
X12292944Y-17698650D02*
X12273896Y-17670079D01*
X12273896Y-17670079D02*
X12264372Y-17651031D01*
X12264372Y-17651031D02*
X12254849Y-17622460D01*
X12254849Y-17622460D02*
X12245325Y-17574841D01*
X12245325Y-17574841D02*
X12245325Y-17536746D01*
X12245325Y-17536746D02*
X12254849Y-17489127D01*
X12254849Y-17489127D02*
X12264372Y-17460555D01*
X12264372Y-17460555D02*
X12273896Y-17441508D01*
X12273896Y-17441508D02*
X12292944Y-17412936D01*
X12292944Y-17412936D02*
X12302468Y-17403412D01*
X12378658Y-17498650D02*
X12378658Y-17631984D01*
X12378658Y-17517698D02*
X12388182Y-17508174D01*
X12388182Y-17508174D02*
X12407230Y-17498650D01*
X12407230Y-17498650D02*
X12435801Y-17498650D01*
X12435801Y-17498650D02*
X12454849Y-17508174D01*
X12454849Y-17508174D02*
X12464372Y-17527222D01*
X12464372Y-17527222D02*
X12464372Y-17631984D01*
X12588182Y-17631984D02*
X12569134Y-17622460D01*
X12569134Y-17622460D02*
X12559611Y-17612936D01*
X12559611Y-17612936D02*
X12550087Y-17593889D01*
X12550087Y-17593889D02*
X12550087Y-17536746D01*
X12550087Y-17536746D02*
X12559611Y-17517698D01*
X12559611Y-17517698D02*
X12569134Y-17508174D01*
X12569134Y-17508174D02*
X12588182Y-17498650D01*
X12588182Y-17498650D02*
X12616753Y-17498650D01*
X12616753Y-17498650D02*
X12635801Y-17508174D01*
X12635801Y-17508174D02*
X12645325Y-17517698D01*
X12645325Y-17517698D02*
X12654849Y-17536746D01*
X12654849Y-17536746D02*
X12654849Y-17593889D01*
X12654849Y-17593889D02*
X12645325Y-17612936D01*
X12645325Y-17612936D02*
X12635801Y-17622460D01*
X12635801Y-17622460D02*
X12616753Y-17631984D01*
X12616753Y-17631984D02*
X12588182Y-17631984D01*
X12711992Y-17498650D02*
X12788182Y-17498650D01*
X12740563Y-17431984D02*
X12740563Y-17603412D01*
X12740563Y-17603412D02*
X12750087Y-17622460D01*
X12750087Y-17622460D02*
X12769134Y-17631984D01*
X12769134Y-17631984D02*
X12788182Y-17631984D01*
X13007230Y-17498650D02*
X13007230Y-17698650D01*
X13007230Y-17508174D02*
X13026277Y-17498650D01*
X13026277Y-17498650D02*
X13064373Y-17498650D01*
X13064373Y-17498650D02*
X13083420Y-17508174D01*
X13083420Y-17508174D02*
X13092944Y-17517698D01*
X13092944Y-17517698D02*
X13102468Y-17536746D01*
X13102468Y-17536746D02*
X13102468Y-17593889D01*
X13102468Y-17593889D02*
X13092944Y-17612936D01*
X13092944Y-17612936D02*
X13083420Y-17622460D01*
X13083420Y-17622460D02*
X13064373Y-17631984D01*
X13064373Y-17631984D02*
X13026277Y-17631984D01*
X13026277Y-17631984D02*
X13007230Y-17622460D01*
X13216753Y-17631984D02*
X13197706Y-17622460D01*
X13197706Y-17622460D02*
X13188182Y-17603412D01*
X13188182Y-17603412D02*
X13188182Y-17431984D01*
X13378658Y-17631984D02*
X13378658Y-17527222D01*
X13378658Y-17527222D02*
X13369134Y-17508174D01*
X13369134Y-17508174D02*
X13350087Y-17498650D01*
X13350087Y-17498650D02*
X13311992Y-17498650D01*
X13311992Y-17498650D02*
X13292944Y-17508174D01*
X13378658Y-17622460D02*
X13359611Y-17631984D01*
X13359611Y-17631984D02*
X13311992Y-17631984D01*
X13311992Y-17631984D02*
X13292944Y-17622460D01*
X13292944Y-17622460D02*
X13283420Y-17603412D01*
X13283420Y-17603412D02*
X13283420Y-17584365D01*
X13283420Y-17584365D02*
X13292944Y-17565317D01*
X13292944Y-17565317D02*
X13311992Y-17555793D01*
X13311992Y-17555793D02*
X13359611Y-17555793D01*
X13359611Y-17555793D02*
X13378658Y-17546270D01*
X13445325Y-17498650D02*
X13521515Y-17498650D01*
X13473896Y-17431984D02*
X13473896Y-17603412D01*
X13473896Y-17603412D02*
X13483420Y-17622460D01*
X13483420Y-17622460D02*
X13502468Y-17631984D01*
X13502468Y-17631984D02*
X13521515Y-17631984D01*
X13664373Y-17622460D02*
X13645325Y-17631984D01*
X13645325Y-17631984D02*
X13607230Y-17631984D01*
X13607230Y-17631984D02*
X13588182Y-17622460D01*
X13588182Y-17622460D02*
X13578658Y-17603412D01*
X13578658Y-17603412D02*
X13578658Y-17527222D01*
X13578658Y-17527222D02*
X13588182Y-17508174D01*
X13588182Y-17508174D02*
X13607230Y-17498650D01*
X13607230Y-17498650D02*
X13645325Y-17498650D01*
X13645325Y-17498650D02*
X13664373Y-17508174D01*
X13664373Y-17508174D02*
X13673896Y-17527222D01*
X13673896Y-17527222D02*
X13673896Y-17546270D01*
X13673896Y-17546270D02*
X13578658Y-17565317D01*
X13845325Y-17631984D02*
X13845325Y-17431984D01*
X13845325Y-17622460D02*
X13826277Y-17631984D01*
X13826277Y-17631984D02*
X13788182Y-17631984D01*
X13788182Y-17631984D02*
X13769134Y-17622460D01*
X13769134Y-17622460D02*
X13759611Y-17612936D01*
X13759611Y-17612936D02*
X13750087Y-17593889D01*
X13750087Y-17593889D02*
X13750087Y-17536746D01*
X13750087Y-17536746D02*
X13759611Y-17517698D01*
X13759611Y-17517698D02*
X13769134Y-17508174D01*
X13769134Y-17508174D02*
X13788182Y-17498650D01*
X13788182Y-17498650D02*
X13826277Y-17498650D01*
X13826277Y-17498650D02*
X13845325Y-17508174D01*
X13921515Y-17708174D02*
X13931039Y-17698650D01*
X13931039Y-17698650D02*
X13950087Y-17670079D01*
X13950087Y-17670079D02*
X13959611Y-17651031D01*
X13959611Y-17651031D02*
X13969134Y-17622460D01*
X13969134Y-17622460D02*
X13978658Y-17574841D01*
X13978658Y-17574841D02*
X13978658Y-17536746D01*
X13978658Y-17536746D02*
X13969134Y-17489127D01*
X13969134Y-17489127D02*
X13959611Y-17460555D01*
X13959611Y-17460555D02*
X13950087Y-17441508D01*
X13950087Y-17441508D02*
X13931039Y-17412936D01*
X13931039Y-17412936D02*
X13921515Y-17403412D01*
M02*
