%TF.GenerationSoftware,KiCad,Pcbnew,8.0.1*%
%TF.CreationDate,2025-03-07T15:45:43+02:00*%
%TF.ProjectId,robosoccer 3,726f626f-736f-4636-9365-7220332e6b69,rev?*%
%TF.SameCoordinates,Original*%
%TF.FileFunction,Copper,L2,Bot*%
%TF.FilePolarity,Positive*%
%FSLAX46Y46*%
G04 Gerber Fmt 4.6, Leading zero omitted, Abs format (unit mm)*
G04 Created by KiCad (PCBNEW 8.0.1) date 2025-03-07 15:45:43*
%MOMM*%
%LPD*%
G01*
G04 APERTURE LIST*
G04 Aperture macros list*
%AMRoundRect*
0 Rectangle with rounded corners*
0 $1 Rounding radius*
0 $2 $3 $4 $5 $6 $7 $8 $9 X,Y pos of 4 corners*
0 Add a 4 corners polygon primitive as box body*
4,1,4,$2,$3,$4,$5,$6,$7,$8,$9,$2,$3,0*
0 Add four circle primitives for the rounded corners*
1,1,$1+$1,$2,$3*
1,1,$1+$1,$4,$5*
1,1,$1+$1,$6,$7*
1,1,$1+$1,$8,$9*
0 Add four rect primitives between the rounded corners*
20,1,$1+$1,$2,$3,$4,$5,0*
20,1,$1+$1,$4,$5,$6,$7,0*
20,1,$1+$1,$6,$7,$8,$9,0*
20,1,$1+$1,$8,$9,$2,$3,0*%
G04 Aperture macros list end*
%TA.AperFunction,ComponentPad*%
%ADD10RoundRect,0.250000X-0.750000X0.600000X-0.750000X-0.600000X0.750000X-0.600000X0.750000X0.600000X0*%
%TD*%
%TA.AperFunction,ComponentPad*%
%ADD11O,2.000000X1.700000*%
%TD*%
%TA.AperFunction,ComponentPad*%
%ADD12C,1.600000*%
%TD*%
%TA.AperFunction,ComponentPad*%
%ADD13C,1.800000*%
%TD*%
%TA.AperFunction,ComponentPad*%
%ADD14RoundRect,0.250000X-0.600000X-0.750000X0.600000X-0.750000X0.600000X0.750000X-0.600000X0.750000X0*%
%TD*%
%TA.AperFunction,ComponentPad*%
%ADD15O,1.700000X2.000000*%
%TD*%
%TA.AperFunction,ComponentPad*%
%ADD16R,2.600000X2.600000*%
%TD*%
%TA.AperFunction,ComponentPad*%
%ADD17C,2.600000*%
%TD*%
%TA.AperFunction,ComponentPad*%
%ADD18R,1.800000X1.800000*%
%TD*%
%TA.AperFunction,ComponentPad*%
%ADD19O,1.800000X1.800000*%
%TD*%
%TA.AperFunction,ComponentPad*%
%ADD20R,1.800000X1.700000*%
%TD*%
%TA.AperFunction,ComponentPad*%
%ADD21RoundRect,0.250000X-0.725000X0.600000X-0.725000X-0.600000X0.725000X-0.600000X0.725000X0.600000X0*%
%TD*%
%TA.AperFunction,ComponentPad*%
%ADD22O,1.950000X1.700000*%
%TD*%
%TA.AperFunction,ComponentPad*%
%ADD23R,2.000000X1.905000*%
%TD*%
%TA.AperFunction,ComponentPad*%
%ADD24O,2.000000X1.905000*%
%TD*%
%TA.AperFunction,ComponentPad*%
%ADD25R,1.905000X2.000000*%
%TD*%
%TA.AperFunction,ComponentPad*%
%ADD26O,1.905000X2.000000*%
%TD*%
%TA.AperFunction,ComponentPad*%
%ADD27RoundRect,0.250000X0.600000X0.750000X-0.600000X0.750000X-0.600000X-0.750000X0.600000X-0.750000X0*%
%TD*%
%TA.AperFunction,ViaPad*%
%ADD28C,1.400000*%
%TD*%
%TA.AperFunction,ViaPad*%
%ADD29C,2.000000*%
%TD*%
%TA.AperFunction,Conductor*%
%ADD30C,1.000000*%
%TD*%
%TA.AperFunction,Conductor*%
%ADD31C,2.000000*%
%TD*%
%TA.AperFunction,Conductor*%
%ADD32C,2.500000*%
%TD*%
%TA.AperFunction,Conductor*%
%ADD33C,1.500000*%
%TD*%
G04 APERTURE END LIST*
D10*
%TO.P,J21,1,Pin_1*%
%TO.N,5v-d2*%
X89340000Y-151820000D03*
D11*
%TO.P,J21,2,Pin_2*%
%TO.N,GND*%
X89340000Y-154320000D03*
%TD*%
D12*
%TO.P,C7,1*%
%TO.N,12v*%
X105720000Y-136650000D03*
%TO.P,C7,2*%
%TO.N,GND*%
X103220000Y-136650000D03*
%TD*%
D13*
%TO.P,C9,1*%
%TO.N,3.3V*%
X82930000Y-89540000D03*
%TO.P,C9,2*%
%TO.N,GND*%
X82930000Y-92040000D03*
%TD*%
D12*
%TO.P,C1,1*%
%TO.N,12v*%
X92540000Y-144720000D03*
%TO.P,C1,2*%
%TO.N,GND*%
X92540000Y-142220000D03*
%TD*%
D14*
%TO.P,J7,1,Pin_1*%
%TO.N,5v-d1*%
X129580000Y-147290000D03*
D15*
%TO.P,J7,2,Pin_2*%
%TO.N,GND*%
X132080000Y-147290000D03*
%TD*%
D14*
%TO.P,J16,1,Pin_1*%
%TO.N,3.3V*%
X109270000Y-132620000D03*
D15*
%TO.P,J16,2,Pin_2*%
%TO.N,GND*%
X111770000Y-132620000D03*
%TD*%
D16*
%TO.P,J22,1,Pin_1*%
%TO.N,12v*%
X130800000Y-158490000D03*
D17*
%TO.P,J22,2,Pin_2*%
%TO.N,GND*%
X130800000Y-153490000D03*
%TD*%
D10*
%TO.P,J8,1,Pin_1*%
%TO.N,23*%
X132580000Y-89420000D03*
D11*
%TO.P,J8,2,Pin_2*%
%TO.N,22*%
X132580000Y-91920000D03*
%TD*%
D10*
%TO.P,J6,1,Pin_1*%
%TO.N,27*%
X77540000Y-115050000D03*
D11*
%TO.P,J6,2,Pin_2*%
%TO.N,14*%
X77540000Y-117550000D03*
%TD*%
D10*
%TO.P,J25,1,Pin_1*%
%TO.N,21*%
X132540000Y-98550000D03*
D11*
%TO.P,J25,2,Pin_2*%
%TO.N,19*%
X132540000Y-101050000D03*
%TD*%
D18*
%TO.P,J14,1,Pin_1*%
%TO.N,5v-ESP*%
X86120000Y-128680000D03*
D19*
%TO.P,J14,2,Pin_2*%
%TO.N,CMD*%
X86120000Y-126140000D03*
%TO.P,J14,3,Pin_3*%
%TO.N,SD3*%
X86120000Y-123600000D03*
%TO.P,J14,4,Pin_4*%
%TO.N,SD2*%
X86120000Y-121060000D03*
%TO.P,J14,5,Pin_5*%
%TO.N,13*%
X86120000Y-118520000D03*
%TO.P,J14,6,Pin_6*%
%TO.N,GND*%
X86120000Y-115980000D03*
%TO.P,J14,7,Pin_7*%
%TO.N,12*%
X86120000Y-113440000D03*
%TO.P,J14,8,Pin_8*%
%TO.N,14*%
X86120000Y-110900000D03*
%TO.P,J14,9,Pin_9*%
%TO.N,27*%
X86120000Y-108360000D03*
%TO.P,J14,10,Pin_10*%
%TO.N,26*%
X86120000Y-105820000D03*
%TO.P,J14,11,Pin_11*%
%TO.N,25*%
X86120000Y-103280000D03*
%TO.P,J14,12,Pin_12*%
%TO.N,33*%
X86120000Y-100740000D03*
%TO.P,J14,13,Pin_13*%
%TO.N,32*%
X86120000Y-98200000D03*
%TO.P,J14,14,Pin_14*%
%TO.N,35*%
X86120000Y-95660000D03*
%TO.P,J14,15,Pin_15*%
%TO.N,34*%
X86120000Y-93120000D03*
%TO.P,J14,16,Pin_16*%
%TO.N,39*%
X86120000Y-90580000D03*
%TO.P,J14,17,Pin_17*%
%TO.N,36*%
X86120000Y-88040000D03*
%TO.P,J14,18,Pin_18*%
%TO.N,EN*%
X86120000Y-85500000D03*
%TO.P,J14,19,Pin_19*%
%TO.N,3.3V*%
X86120000Y-82960000D03*
%TD*%
D20*
%TO.P,J1,1,Pin_1*%
%TO.N,GND*%
X117040000Y-82940000D03*
D19*
%TO.P,J1,2,Pin_2*%
%TO.N,23*%
X117040000Y-85480000D03*
%TO.P,J1,3,Pin_3*%
%TO.N,22*%
X117040000Y-88020000D03*
%TO.P,J1,4,Pin_4*%
%TO.N,TX*%
X117040000Y-90560000D03*
%TO.P,J1,5,Pin_5*%
%TO.N,RX*%
X117040000Y-93100000D03*
%TO.P,J1,6,Pin_6*%
%TO.N,21*%
X117040000Y-95640000D03*
%TO.P,J1,7,Pin_7*%
%TO.N,GND*%
X117040000Y-98180000D03*
%TO.P,J1,8,Pin_8*%
%TO.N,19*%
X117040000Y-100720000D03*
%TO.P,J1,9,Pin_9*%
%TO.N,18*%
X117040000Y-103260000D03*
%TO.P,J1,10,Pin_10*%
%TO.N,5*%
X117040000Y-105800000D03*
%TO.P,J1,11,Pin_11*%
%TO.N,17*%
X117040000Y-108340000D03*
%TO.P,J1,12,Pin_12*%
%TO.N,16*%
X117040000Y-110880000D03*
%TO.P,J1,13,Pin_13*%
%TO.N,4*%
X117040000Y-113420000D03*
%TO.P,J1,14,Pin_14*%
%TO.N,0*%
X117040000Y-115960000D03*
%TO.P,J1,15,Pin_15*%
%TO.N,2*%
X117040000Y-118500000D03*
%TO.P,J1,16,Pin_16*%
%TO.N,15*%
X117040000Y-121040000D03*
%TO.P,J1,17,Pin_17*%
%TO.N,SD1*%
X117040000Y-123580000D03*
%TO.P,J1,18,Pin_18*%
%TO.N,SD0*%
X117040000Y-126120000D03*
%TO.P,J1,19,Pin_19*%
%TO.N,CLK*%
X117040000Y-128660000D03*
%TD*%
D21*
%TO.P,J19,1,Pin_1*%
%TO.N,12*%
X77940000Y-123660000D03*
D22*
%TO.P,J19,2,Pin_2*%
%TO.N,5v-3 4*%
X77940000Y-126160000D03*
%TO.P,J19,3,Pin_3*%
%TO.N,GND*%
X77940000Y-128660000D03*
%TD*%
D12*
%TO.P,C2,1*%
%TO.N,5v-3 4*%
X87550000Y-135020000D03*
%TO.P,C2,2*%
%TO.N,GND*%
X85050000Y-135020000D03*
%TD*%
D23*
%TO.P,U3,1,IN*%
%TO.N,12v*%
X88750000Y-144750000D03*
D24*
%TO.P,U3,2,GND*%
%TO.N,GND*%
X88750000Y-142210000D03*
%TO.P,U3,3,OUT*%
%TO.N,5v-3 4*%
X88750000Y-139670000D03*
%TD*%
D14*
%TO.P,J9,1,Pin_1*%
%TO.N,5*%
X130410000Y-107700000D03*
D15*
%TO.P,J9,2,Pin_2*%
%TO.N,18*%
X132910000Y-107700000D03*
%TD*%
D21*
%TO.P,J12,1,Pin_1*%
%TO.N,13*%
X77900000Y-135020000D03*
D22*
%TO.P,J12,2,Pin_2*%
%TO.N,5v-3 4*%
X77900000Y-137520000D03*
%TO.P,J12,3,Pin_3*%
%TO.N,GND*%
X77900000Y-140020000D03*
%TD*%
D12*
%TO.P,C12,1*%
%TO.N,5v-ESP*%
X92590000Y-134990000D03*
%TO.P,C12,2*%
%TO.N,GND*%
X90090000Y-134990000D03*
%TD*%
%TO.P,C13,1*%
%TO.N,5v-ESP*%
X92540000Y-132340000D03*
%TO.P,C13,2*%
%TO.N,GND*%
X90040000Y-132340000D03*
%TD*%
D25*
%TO.P,U2,1,IN*%
%TO.N,12v*%
X105680000Y-139800000D03*
D26*
%TO.P,U2,2,GND*%
%TO.N,GND*%
X103140000Y-139800000D03*
%TO.P,U2,3,OUT*%
%TO.N,5v-ESP*%
X100600000Y-139800000D03*
%TD*%
D23*
%TO.P,U1,1,IN*%
%TO.N,12v*%
X119990000Y-135740000D03*
D24*
%TO.P,U1,2,GND*%
%TO.N,GND*%
X119990000Y-138280000D03*
%TO.P,U1,3,OUT*%
%TO.N,5v-1 2 5*%
X119990000Y-140820000D03*
%TD*%
D12*
%TO.P,C5,1*%
%TO.N,12v*%
X119890000Y-131830000D03*
%TO.P,C5,2*%
%TO.N,GND*%
X122390000Y-131830000D03*
%TD*%
%TO.P,C6,1*%
%TO.N,5v-1 2 5*%
X119990000Y-144800000D03*
%TO.P,C6,2*%
%TO.N,GND*%
X117490000Y-144800000D03*
%TD*%
D10*
%TO.P,J5,1,Pin_1*%
%TO.N,32*%
X77500000Y-97490000D03*
D11*
%TO.P,J5,2,Pin_2*%
%TO.N,33*%
X77500000Y-99990000D03*
%TD*%
D21*
%TO.P,J10,1,Pin_1*%
%TO.N,16*%
X130600000Y-125580000D03*
D22*
%TO.P,J10,2,Pin_2*%
%TO.N,5v-1 2 5*%
X130600000Y-128080000D03*
%TO.P,J10,3,Pin_3*%
%TO.N,GND*%
X130600000Y-130580000D03*
%TD*%
D10*
%TO.P,J15,1,Pin_1*%
%TO.N,5v-d1*%
X118050000Y-150190000D03*
D11*
%TO.P,J15,2,Pin_2*%
%TO.N,GND*%
X118050000Y-152690000D03*
%TD*%
D12*
%TO.P,C11,1*%
%TO.N,5v-ESP*%
X97310000Y-133410000D03*
%TO.P,C11,2*%
%TO.N,GND*%
X97310000Y-135910000D03*
%TD*%
D16*
%TO.P,J23,1,Pin_1*%
%TO.N,GND*%
X77340000Y-153550000D03*
D17*
%TO.P,J23,2,Pin_2*%
%TO.N,12v*%
X77340000Y-158550000D03*
%TD*%
D10*
%TO.P,J24,1,Pin_1*%
%TO.N,25*%
X77500000Y-106410000D03*
D11*
%TO.P,J24,2,Pin_2*%
%TO.N,26*%
X77500000Y-108910000D03*
%TD*%
D27*
%TO.P,J4,1,Pin_1*%
%TO.N,5v-d2*%
X78580000Y-146040000D03*
D15*
%TO.P,J4,2,Pin_2*%
%TO.N,GND*%
X76080000Y-146040000D03*
%TD*%
D13*
%TO.P,C4,1*%
%TO.N,3.3V*%
X80200000Y-89530000D03*
%TO.P,C4,2*%
%TO.N,GND*%
X80200000Y-92030000D03*
%TD*%
D14*
%TO.P,J26,1,Pin_1*%
%TO.N,GND*%
X99380000Y-150660000D03*
D15*
%TO.P,J26,2,Pin_2*%
X101880000Y-150660000D03*
%TD*%
D18*
%TO.P,J13,1,Pin_1*%
%TO.N,GND*%
X123220000Y-82900000D03*
D19*
%TO.P,J13,2,Pin_2*%
%TO.N,23*%
X123220000Y-85440000D03*
%TO.P,J13,3,Pin_3*%
%TO.N,22*%
X123220000Y-87980000D03*
%TO.P,J13,4,Pin_4*%
%TO.N,TX*%
X123220000Y-90520000D03*
%TO.P,J13,5,Pin_5*%
%TO.N,RX*%
X123220000Y-93060000D03*
%TO.P,J13,6,Pin_6*%
%TO.N,21*%
X123220000Y-95600000D03*
%TO.P,J13,7,Pin_7*%
%TO.N,GND*%
X123220000Y-98140000D03*
%TO.P,J13,8,Pin_8*%
%TO.N,19*%
X123220000Y-100680000D03*
%TO.P,J13,9,Pin_9*%
%TO.N,18*%
X123220000Y-103220000D03*
%TO.P,J13,10,Pin_10*%
%TO.N,5*%
X123220000Y-105760000D03*
%TO.P,J13,11,Pin_11*%
%TO.N,17*%
X123220000Y-108300000D03*
%TO.P,J13,12,Pin_12*%
%TO.N,16*%
X123220000Y-110840000D03*
%TO.P,J13,13,Pin_13*%
%TO.N,4*%
X123220000Y-113380000D03*
%TO.P,J13,14,Pin_14*%
%TO.N,0*%
X123220000Y-115920000D03*
%TO.P,J13,15,Pin_15*%
%TO.N,2*%
X123220000Y-118460000D03*
%TO.P,J13,16,Pin_16*%
%TO.N,15*%
X123220000Y-121000000D03*
%TO.P,J13,17,Pin_17*%
%TO.N,SD1*%
X123220000Y-123540000D03*
%TO.P,J13,18,Pin_18*%
%TO.N,SD0*%
X123220000Y-126080000D03*
%TO.P,J13,19,Pin_19*%
%TO.N,CLK*%
X123220000Y-128620000D03*
%TD*%
D12*
%TO.P,C8,1*%
%TO.N,5v-ESP*%
X94960000Y-139770000D03*
%TO.P,C8,2*%
%TO.N,GND*%
X92460000Y-139770000D03*
%TD*%
D21*
%TO.P,J20,1,Pin_1*%
%TO.N,17*%
X130640000Y-114380000D03*
D22*
%TO.P,J20,2,Pin_2*%
%TO.N,5v-1 2 5*%
X130640000Y-116880000D03*
%TO.P,J20,3,Pin_3*%
%TO.N,GND*%
X130640000Y-119380000D03*
%TD*%
D16*
%TO.P,J3,1,Pin_1*%
%TO.N,12v*%
X111580000Y-163015000D03*
D17*
%TO.P,J3,2,Pin_2*%
%TO.N,GND*%
X116580000Y-163015000D03*
%TD*%
D16*
%TO.P,J18,1,Pin_1*%
%TO.N,12v*%
X99110000Y-163055000D03*
D17*
%TO.P,J18,2,Pin_2*%
%TO.N,GND*%
X104110000Y-163055000D03*
%TD*%
D18*
%TO.P,J2,1,Pin_1*%
%TO.N,5v-ESP*%
X92450000Y-128630000D03*
D19*
%TO.P,J2,2,Pin_2*%
%TO.N,CMD*%
X92450000Y-126090000D03*
%TO.P,J2,3,Pin_3*%
%TO.N,SD3*%
X92450000Y-123550000D03*
%TO.P,J2,4,Pin_4*%
%TO.N,SD2*%
X92450000Y-121010000D03*
%TO.P,J2,5,Pin_5*%
%TO.N,13*%
X92450000Y-118470000D03*
%TO.P,J2,6,Pin_6*%
%TO.N,GND*%
X92450000Y-115930000D03*
%TO.P,J2,7,Pin_7*%
%TO.N,12*%
X92450000Y-113390000D03*
%TO.P,J2,8,Pin_8*%
%TO.N,14*%
X92450000Y-110850000D03*
%TO.P,J2,9,Pin_9*%
%TO.N,27*%
X92450000Y-108310000D03*
%TO.P,J2,10,Pin_10*%
%TO.N,26*%
X92450000Y-105770000D03*
%TO.P,J2,11,Pin_11*%
%TO.N,25*%
X92450000Y-103230000D03*
%TO.P,J2,12,Pin_12*%
%TO.N,33*%
X92450000Y-100690000D03*
%TO.P,J2,13,Pin_13*%
%TO.N,32*%
X92450000Y-98150000D03*
%TO.P,J2,14,Pin_14*%
%TO.N,35*%
X92450000Y-95610000D03*
%TO.P,J2,15,Pin_15*%
%TO.N,34*%
X92450000Y-93070000D03*
%TO.P,J2,16,Pin_16*%
%TO.N,39*%
X92450000Y-90530000D03*
%TO.P,J2,17,Pin_17*%
%TO.N,36*%
X92450000Y-87990000D03*
%TO.P,J2,18,Pin_18*%
%TO.N,EN*%
X92450000Y-85450000D03*
%TO.P,J2,19,Pin_19*%
%TO.N,3.3V*%
X92450000Y-82910000D03*
%TD*%
D14*
%TO.P,J17,1,Pin_1*%
%TO.N,12v*%
X123080000Y-165370000D03*
D15*
%TO.P,J17,2,Pin_2*%
%TO.N,GND*%
X125580000Y-165370000D03*
%TD*%
D21*
%TO.P,J11,1,Pin_1*%
%TO.N,4*%
X130640000Y-136860000D03*
D22*
%TO.P,J11,2,Pin_2*%
%TO.N,5v-1 2 5*%
X130640000Y-139360000D03*
%TO.P,J11,3,Pin_3*%
%TO.N,GND*%
X130640000Y-141860000D03*
%TD*%
D13*
%TO.P,C10,1*%
%TO.N,3.3V*%
X75750000Y-89470000D03*
%TO.P,C10,2*%
%TO.N,GND*%
X75750000Y-91970000D03*
%TD*%
D28*
%TO.N,5v-3 4*%
X73960000Y-137690000D03*
X73840000Y-126180000D03*
D29*
%TO.N,5v-1 2 5*%
X133940000Y-139260000D03*
X133940000Y-116890000D03*
X133940000Y-128090000D03*
%TD*%
D30*
%TO.N,GND*%
X92430000Y-115950000D02*
X86150000Y-115950000D01*
X117260000Y-82950000D02*
X123170000Y-82950000D01*
X92450000Y-115930000D02*
X92430000Y-115950000D01*
X123170000Y-98190000D02*
X123220000Y-98140000D01*
X123170000Y-82950000D02*
X123220000Y-82900000D01*
X117040000Y-98180000D02*
X117050000Y-98190000D01*
X117050000Y-98190000D02*
X123170000Y-98190000D01*
X86150000Y-115950000D02*
X86120000Y-115980000D01*
D31*
%TO.N,12v*%
X111580000Y-144720000D02*
X111580000Y-159970000D01*
D32*
X99200000Y-158610000D02*
X77400000Y-158610000D01*
D31*
X109870000Y-139800000D02*
X111580000Y-141510000D01*
X117350000Y-135740000D02*
X119990000Y-135740000D01*
X105720000Y-136650000D02*
X105720000Y-139760000D01*
X92510000Y-144750000D02*
X92540000Y-144720000D01*
X123080000Y-158730000D02*
X123080000Y-165370000D01*
X123200000Y-158610000D02*
X123080000Y-158730000D01*
D32*
X111580000Y-159970000D02*
X111580000Y-158670000D01*
X130680000Y-158610000D02*
X111520000Y-158610000D01*
X77400000Y-158610000D02*
X77340000Y-158550000D01*
D33*
X119890000Y-131830000D02*
X119890000Y-135640000D01*
D31*
X111580000Y-141510000D02*
X117350000Y-135740000D01*
D32*
X99110000Y-158700000D02*
X99200000Y-158610000D01*
D31*
X88750000Y-144750000D02*
X92510000Y-144750000D01*
D33*
X119890000Y-135640000D02*
X119990000Y-135740000D01*
D32*
X111580000Y-163015000D02*
X111580000Y-159970000D01*
D31*
X105720000Y-139760000D02*
X105680000Y-139800000D01*
X92540000Y-144720000D02*
X111580000Y-144720000D01*
D32*
X111520000Y-158610000D02*
X99200000Y-158610000D01*
X130800000Y-158490000D02*
X130680000Y-158610000D01*
D31*
X111580000Y-141510000D02*
X111580000Y-144720000D01*
D30*
X119800000Y-135550000D02*
X119990000Y-135740000D01*
D31*
X105680000Y-139800000D02*
X109870000Y-139800000D01*
D32*
X111580000Y-158670000D02*
X111520000Y-158610000D01*
X99110000Y-163055000D02*
X99110000Y-158700000D01*
D30*
%TO.N,3.3V*%
X93700000Y-82910000D02*
X101790000Y-91000000D01*
X92450000Y-82910000D02*
X93700000Y-82910000D01*
X101790000Y-91000000D02*
X101790000Y-118160000D01*
X86120000Y-82960000D02*
X83870000Y-82960000D01*
X83870000Y-82960000D02*
X82930000Y-83900000D01*
X82930000Y-83900000D02*
X82930000Y-89540000D01*
X92400000Y-82960000D02*
X92450000Y-82910000D01*
X80140000Y-89470000D02*
X75750000Y-89470000D01*
X86120000Y-82960000D02*
X92400000Y-82960000D01*
X109290000Y-132600000D02*
X109270000Y-132620000D01*
X82930000Y-89540000D02*
X80210000Y-89540000D01*
X80200000Y-89530000D02*
X80140000Y-89470000D01*
X109290000Y-125660000D02*
X109290000Y-132600000D01*
X101790000Y-118160000D02*
X109290000Y-125660000D01*
X80210000Y-89540000D02*
X80200000Y-89530000D01*
%TO.N,18*%
X117040000Y-103260000D02*
X117050000Y-103270000D01*
X117050000Y-103270000D02*
X123170000Y-103270000D01*
X132910000Y-107700000D02*
X132910000Y-106039570D01*
X129400430Y-102530000D02*
X123910000Y-102530000D01*
X123170000Y-103270000D02*
X123220000Y-103220000D01*
X123910000Y-102530000D02*
X123220000Y-103220000D01*
X132910000Y-106039570D02*
X129400430Y-102530000D01*
%TO.N,2*%
X123170000Y-118510000D02*
X123220000Y-118460000D01*
X117040000Y-118500000D02*
X117050000Y-118510000D01*
X117050000Y-118510000D02*
X123170000Y-118510000D01*
%TO.N,RX*%
X117050000Y-93110000D02*
X123170000Y-93110000D01*
X117040000Y-93100000D02*
X117050000Y-93110000D01*
X123170000Y-93110000D02*
X123220000Y-93060000D01*
%TO.N,21*%
X117040000Y-95640000D02*
X117050000Y-95650000D01*
X128620000Y-98040000D02*
X126180000Y-95600000D01*
X132030000Y-98040000D02*
X128620000Y-98040000D01*
X126180000Y-95600000D02*
X123220000Y-95600000D01*
X123170000Y-95650000D02*
X123220000Y-95600000D01*
X117050000Y-95650000D02*
X123170000Y-95650000D01*
X132540000Y-98550000D02*
X132030000Y-98040000D01*
%TO.N,TX*%
X117050000Y-90570000D02*
X123170000Y-90570000D01*
X123170000Y-90570000D02*
X123220000Y-90520000D01*
X117040000Y-90560000D02*
X117050000Y-90570000D01*
%TO.N,SD1*%
X117260000Y-123590000D02*
X123170000Y-123590000D01*
X123170000Y-123590000D02*
X123220000Y-123540000D01*
%TO.N,0*%
X117050000Y-115970000D02*
X123170000Y-115970000D01*
X117040000Y-115960000D02*
X117050000Y-115970000D01*
X123170000Y-115970000D02*
X123220000Y-115920000D01*
%TO.N,SD0*%
X117040000Y-126120000D02*
X117050000Y-126130000D01*
X123170000Y-126130000D02*
X123220000Y-126080000D01*
X117050000Y-126130000D02*
X123170000Y-126130000D01*
%TO.N,22*%
X117080000Y-87980000D02*
X117040000Y-88020000D01*
X123220000Y-87980000D02*
X125050000Y-87980000D01*
X117040000Y-88020000D02*
X117050000Y-88030000D01*
X125050000Y-87980000D02*
X128700000Y-91630000D01*
X117050000Y-88030000D02*
X117260000Y-88030000D01*
X123220000Y-87980000D02*
X117080000Y-87980000D01*
X132290000Y-91630000D02*
X132580000Y-91920000D01*
X128700000Y-91630000D02*
X132290000Y-91630000D01*
%TO.N,4*%
X129090000Y-136860000D02*
X126270000Y-134040000D01*
X123170000Y-113430000D02*
X123220000Y-113380000D01*
X126270000Y-114990000D02*
X124660000Y-113380000D01*
X130640000Y-136860000D02*
X129090000Y-136860000D01*
X124660000Y-113380000D02*
X123220000Y-113380000D01*
X117050000Y-113430000D02*
X123170000Y-113430000D01*
X126270000Y-134040000D02*
X126270000Y-114990000D01*
X117040000Y-113420000D02*
X117050000Y-113430000D01*
%TO.N,15*%
X123170000Y-121050000D02*
X123220000Y-121000000D01*
X117040000Y-121040000D02*
X117050000Y-121050000D01*
X117050000Y-121050000D02*
X123170000Y-121050000D01*
%TO.N,5*%
X130410000Y-107700000D02*
X130410000Y-106240000D01*
X117040000Y-105800000D02*
X117050000Y-105810000D01*
X129280000Y-105110000D02*
X123870000Y-105110000D01*
X123870000Y-105110000D02*
X123220000Y-105760000D01*
X117050000Y-105810000D02*
X123170000Y-105810000D01*
X123170000Y-105810000D02*
X123220000Y-105760000D01*
X130410000Y-106240000D02*
X129280000Y-105110000D01*
%TO.N,17*%
X126590000Y-108300000D02*
X123220000Y-108300000D01*
X130640000Y-112350000D02*
X126590000Y-108300000D01*
X117040000Y-108340000D02*
X117050000Y-108350000D01*
X117050000Y-108350000D02*
X117260000Y-108350000D01*
X130640000Y-114380000D02*
X130640000Y-112350000D01*
X123220000Y-108300000D02*
X117080000Y-108300000D01*
X117080000Y-108300000D02*
X117040000Y-108340000D01*
%TO.N,CLK*%
X117040000Y-128660000D02*
X117050000Y-128670000D01*
X123170000Y-128670000D02*
X123220000Y-128620000D01*
X117050000Y-128670000D02*
X123170000Y-128670000D01*
%TO.N,19*%
X117040000Y-100720000D02*
X117050000Y-100730000D01*
X123170000Y-100730000D02*
X123220000Y-100680000D01*
X117050000Y-100730000D02*
X123170000Y-100730000D01*
X132290000Y-100800000D02*
X132540000Y-101050000D01*
X123340000Y-100800000D02*
X132290000Y-100800000D01*
X123220000Y-100680000D02*
X123340000Y-100800000D01*
%TO.N,16*%
X123170000Y-110890000D02*
X123220000Y-110840000D01*
X117050000Y-110890000D02*
X123170000Y-110890000D01*
X130600000Y-125580000D02*
X130600000Y-123960000D01*
X127820000Y-121180000D02*
X127820000Y-112630000D01*
X130600000Y-123960000D02*
X127820000Y-121180000D01*
X127820000Y-112630000D02*
X126030000Y-110840000D01*
X117040000Y-110880000D02*
X117050000Y-110890000D01*
X126030000Y-110840000D02*
X123220000Y-110840000D01*
%TO.N,14*%
X84100000Y-110900000D02*
X80570000Y-114430000D01*
X80570000Y-115930000D02*
X78950000Y-117550000D01*
X86120000Y-110900000D02*
X84100000Y-110900000D01*
X80570000Y-114430000D02*
X80570000Y-115930000D01*
X92190000Y-110900000D02*
X92160000Y-110870000D01*
X78950000Y-117550000D02*
X77540000Y-117550000D01*
X86120000Y-110900000D02*
X92190000Y-110900000D01*
%TO.N,SD2*%
X92190000Y-121060000D02*
X92160000Y-121030000D01*
X86120000Y-121060000D02*
X92190000Y-121060000D01*
%TO.N,26*%
X78570000Y-108910000D02*
X77500000Y-108910000D01*
X92190000Y-105820000D02*
X92160000Y-105790000D01*
X81660000Y-105820000D02*
X78570000Y-108910000D01*
X86120000Y-105820000D02*
X81660000Y-105820000D01*
X86120000Y-105820000D02*
X92190000Y-105820000D01*
%TO.N,33*%
X86120000Y-100740000D02*
X92190000Y-100740000D01*
X92190000Y-100740000D02*
X92160000Y-100710000D01*
X81980000Y-100740000D02*
X81230000Y-99990000D01*
X86120000Y-100740000D02*
X81980000Y-100740000D01*
X81230000Y-99990000D02*
X77500000Y-99990000D01*
%TO.N,32*%
X86120000Y-98200000D02*
X92190000Y-98200000D01*
X81730000Y-98200000D02*
X81020000Y-97490000D01*
X81020000Y-97490000D02*
X77500000Y-97490000D01*
X92190000Y-98200000D02*
X92160000Y-98170000D01*
X86120000Y-98200000D02*
X81730000Y-98200000D01*
%TO.N,CMD*%
X86120000Y-126140000D02*
X92190000Y-126140000D01*
X92190000Y-126140000D02*
X92160000Y-126110000D01*
%TO.N,25*%
X77500000Y-106410000D02*
X80630000Y-103280000D01*
X86120000Y-103280000D02*
X92190000Y-103280000D01*
X92190000Y-103280000D02*
X92160000Y-103250000D01*
X80630000Y-103280000D02*
X86120000Y-103280000D01*
%TO.N,13*%
X84580000Y-118520000D02*
X86120000Y-118520000D01*
X82000000Y-121100000D02*
X84580000Y-118520000D01*
X79300000Y-135020000D02*
X82000000Y-132320000D01*
X77900000Y-135020000D02*
X79300000Y-135020000D01*
X86120000Y-118520000D02*
X92190000Y-118520000D01*
X82000000Y-132320000D02*
X82000000Y-121100000D01*
X92190000Y-118520000D02*
X92160000Y-118490000D01*
%TO.N,27*%
X92190000Y-108360000D02*
X92160000Y-108330000D01*
X83240000Y-108360000D02*
X77540000Y-114060000D01*
X86120000Y-108360000D02*
X83240000Y-108360000D01*
X77540000Y-114060000D02*
X77540000Y-115050000D01*
X86120000Y-108360000D02*
X92190000Y-108360000D01*
%TO.N,35*%
X86120000Y-95660000D02*
X92190000Y-95660000D01*
X92190000Y-95660000D02*
X92160000Y-95630000D01*
%TO.N,39*%
X92190000Y-90580000D02*
X92160000Y-90550000D01*
X86120000Y-90580000D02*
X92190000Y-90580000D01*
%TO.N,EN*%
X92450000Y-85450000D02*
X92430000Y-85470000D01*
X92430000Y-85470000D02*
X86150000Y-85470000D01*
X86150000Y-85470000D02*
X86120000Y-85500000D01*
%TO.N,34*%
X92190000Y-93120000D02*
X92160000Y-93090000D01*
X86120000Y-93120000D02*
X92190000Y-93120000D01*
%TO.N,12*%
X84440000Y-113440000D02*
X86120000Y-113440000D01*
X82380000Y-115500000D02*
X84440000Y-113440000D01*
X77940000Y-123660000D02*
X77940000Y-122370000D01*
X77940000Y-122370000D02*
X82380000Y-117930000D01*
X86120000Y-113440000D02*
X92190000Y-113440000D01*
X82380000Y-117930000D02*
X82380000Y-115500000D01*
X92190000Y-113440000D02*
X92160000Y-113410000D01*
%TO.N,36*%
X86120000Y-88040000D02*
X92190000Y-88040000D01*
X92190000Y-88040000D02*
X92160000Y-88010000D01*
%TO.N,SD3*%
X92190000Y-123600000D02*
X92160000Y-123570000D01*
X86120000Y-123600000D02*
X92190000Y-123600000D01*
%TO.N,23*%
X117040000Y-85480000D02*
X117050000Y-85490000D01*
X123220000Y-85440000D02*
X117080000Y-85440000D01*
X117080000Y-85440000D02*
X117040000Y-85480000D01*
X117050000Y-85490000D02*
X117260000Y-85490000D01*
X125490000Y-85440000D02*
X123220000Y-85440000D01*
X129450000Y-89400000D02*
X125490000Y-85440000D01*
X130410000Y-89400000D02*
X129450000Y-89400000D01*
X130430000Y-89420000D02*
X130410000Y-89400000D01*
X132580000Y-89420000D02*
X130430000Y-89420000D01*
%TO.N,5v-ESP*%
X92560000Y-132360000D02*
X92540000Y-132340000D01*
X93720000Y-132340000D02*
X94790000Y-133410000D01*
X86120000Y-128680000D02*
X92400000Y-128680000D01*
X92190000Y-128680000D02*
X92160000Y-128650000D01*
X94790000Y-133410000D02*
X97310000Y-133410000D01*
X92590000Y-136340000D02*
X92590000Y-134990000D01*
X92450000Y-132250000D02*
X92540000Y-132340000D01*
X94990000Y-139800000D02*
X94960000Y-139770000D01*
X94960000Y-139770000D02*
X94960000Y-138710000D01*
X100600000Y-139800000D02*
X94990000Y-139800000D01*
X92540000Y-132340000D02*
X92540000Y-134940000D01*
X92400000Y-128680000D02*
X92450000Y-128630000D01*
X92540000Y-132340000D02*
X93720000Y-132340000D01*
X100540000Y-139860000D02*
X100600000Y-139800000D01*
X92540000Y-134940000D02*
X92590000Y-134990000D01*
X92450000Y-128630000D02*
X92450000Y-132250000D01*
X94960000Y-138710000D02*
X92590000Y-136340000D01*
D31*
%TO.N,5v-3 4*%
X82970000Y-137520000D02*
X77900000Y-137520000D01*
D33*
X73960000Y-137690000D02*
X77730000Y-137690000D01*
D31*
X85120000Y-139670000D02*
X88750000Y-139670000D01*
X85120000Y-139670000D02*
X82970000Y-137520000D01*
D30*
X87550000Y-136640000D02*
X88750000Y-137840000D01*
D33*
X77940000Y-126160000D02*
X73860000Y-126160000D01*
X73860000Y-126160000D02*
X73840000Y-126180000D01*
X77730000Y-137690000D02*
X77900000Y-137520000D01*
D30*
X88750000Y-137840000D02*
X88750000Y-139670000D01*
X87550000Y-135020000D02*
X87550000Y-136640000D01*
D33*
%TO.N,5v-1 2 5*%
X130740000Y-139260000D02*
X130640000Y-139360000D01*
X133930000Y-116880000D02*
X133940000Y-116890000D01*
X124060000Y-140820000D02*
X125520000Y-139360000D01*
X130600000Y-128080000D02*
X133930000Y-128080000D01*
X119990000Y-140820000D02*
X124060000Y-140820000D01*
X119990000Y-140820000D02*
X119990000Y-144800000D01*
X125520000Y-139360000D02*
X130640000Y-139360000D01*
X133930000Y-128080000D02*
X133940000Y-128090000D01*
X133940000Y-139260000D02*
X130740000Y-139260000D01*
X130640000Y-116880000D02*
X133930000Y-116880000D01*
D31*
%TO.N,5v-d1*%
X118070000Y-150210000D02*
X121650000Y-150210000D01*
X129530000Y-147240000D02*
X129580000Y-147290000D01*
X121650000Y-150210000D02*
X124620000Y-147240000D01*
X124620000Y-147240000D02*
X129530000Y-147240000D01*
X118050000Y-150190000D02*
X118070000Y-150210000D01*
%TO.N,5v-d2*%
X78580000Y-146040000D02*
X85710000Y-146040000D01*
X89340000Y-149670000D02*
X89340000Y-151820000D01*
X85710000Y-146040000D02*
X89340000Y-149670000D01*
%TD*%
%TA.AperFunction,Conductor*%
%TO.N,GND*%
G36*
X136052539Y-80870185D02*
G01*
X136098294Y-80922989D01*
X136109500Y-80974500D01*
X136109500Y-168355500D01*
X136089815Y-168422539D01*
X136037011Y-168468294D01*
X135985500Y-168479500D01*
X72304500Y-168479500D01*
X72237461Y-168459815D01*
X72191706Y-168407011D01*
X72180500Y-168355500D01*
X72180500Y-165201288D01*
X74869500Y-165201288D01*
X74901161Y-165441785D01*
X74963947Y-165676104D01*
X74984658Y-165726104D01*
X75056776Y-165900212D01*
X75178064Y-166110289D01*
X75178066Y-166110292D01*
X75178067Y-166110293D01*
X75325733Y-166302736D01*
X75325739Y-166302743D01*
X75497256Y-166474260D01*
X75497262Y-166474265D01*
X75689711Y-166621936D01*
X75899788Y-166743224D01*
X76123900Y-166836054D01*
X76358211Y-166898838D01*
X76538586Y-166922584D01*
X76598711Y-166930500D01*
X76598712Y-166930500D01*
X76841289Y-166930500D01*
X76889388Y-166924167D01*
X77081789Y-166898838D01*
X77316100Y-166836054D01*
X77540212Y-166743224D01*
X77750289Y-166621936D01*
X77942738Y-166474265D01*
X78114265Y-166302738D01*
X78261936Y-166110289D01*
X78383224Y-165900212D01*
X78476054Y-165676100D01*
X78538838Y-165441789D01*
X78570500Y-165201288D01*
X78570500Y-164958712D01*
X78538838Y-164718211D01*
X78476054Y-164483900D01*
X78383224Y-164259788D01*
X78261936Y-164049711D01*
X78114265Y-163857262D01*
X78114260Y-163857256D01*
X77942743Y-163685739D01*
X77942736Y-163685733D01*
X77750293Y-163538067D01*
X77750292Y-163538066D01*
X77750289Y-163538064D01*
X77540212Y-163416776D01*
X77540205Y-163416773D01*
X77316104Y-163323947D01*
X77081785Y-163261161D01*
X76841289Y-163229500D01*
X76841288Y-163229500D01*
X76598712Y-163229500D01*
X76598711Y-163229500D01*
X76358214Y-163261161D01*
X76123895Y-163323947D01*
X75899794Y-163416773D01*
X75899785Y-163416777D01*
X75689706Y-163538067D01*
X75497263Y-163685733D01*
X75497256Y-163685739D01*
X75325739Y-163857256D01*
X75325733Y-163857263D01*
X75178067Y-164049706D01*
X75056777Y-164259785D01*
X75056773Y-164259794D01*
X74963947Y-164483895D01*
X74901161Y-164718214D01*
X74869500Y-164958711D01*
X74869500Y-165201288D01*
X72180500Y-165201288D01*
X72180500Y-158550004D01*
X75534451Y-158550004D01*
X75554616Y-158819101D01*
X75614664Y-159082188D01*
X75614666Y-159082195D01*
X75713257Y-159333398D01*
X75848185Y-159567102D01*
X75984080Y-159737509D01*
X76016442Y-159778089D01*
X76203183Y-159951358D01*
X76214259Y-159961635D01*
X76437226Y-160113651D01*
X76680359Y-160230738D01*
X76938228Y-160310280D01*
X77031655Y-160324361D01*
X77045265Y-160327200D01*
X77057761Y-160330549D01*
X77174711Y-160345944D01*
X77176899Y-160346253D01*
X77205071Y-160350500D01*
X77205087Y-160350500D01*
X77209703Y-160350847D01*
X77209687Y-160351057D01*
X77217366Y-160351561D01*
X77285265Y-160360500D01*
X77285266Y-160360500D01*
X77514734Y-160360500D01*
X97235500Y-160360500D01*
X97302539Y-160380185D01*
X97348294Y-160432989D01*
X97359500Y-160484500D01*
X97359500Y-161508271D01*
X97351682Y-161551604D01*
X97315908Y-161647517D01*
X97309501Y-161707116D01*
X97309501Y-161707123D01*
X97309500Y-161707135D01*
X97309500Y-164402870D01*
X97309501Y-164402876D01*
X97315908Y-164462483D01*
X97366202Y-164597328D01*
X97366206Y-164597335D01*
X97452452Y-164712544D01*
X97452455Y-164712547D01*
X97567664Y-164798793D01*
X97567671Y-164798797D01*
X97702517Y-164849091D01*
X97702516Y-164849091D01*
X97709444Y-164849835D01*
X97762127Y-164855500D01*
X100457872Y-164855499D01*
X100517483Y-164849091D01*
X100652331Y-164798796D01*
X100767546Y-164712546D01*
X100853796Y-164597331D01*
X100904091Y-164462483D01*
X100910500Y-164402873D01*
X100910499Y-161707128D01*
X100904091Y-161647517D01*
X100868318Y-161551604D01*
X100860500Y-161508271D01*
X100860500Y-160484500D01*
X100880185Y-160417461D01*
X100932989Y-160371706D01*
X100984500Y-160360500D01*
X109705500Y-160360500D01*
X109772539Y-160380185D01*
X109818294Y-160432989D01*
X109829500Y-160484500D01*
X109829500Y-161468271D01*
X109821682Y-161511604D01*
X109785908Y-161607517D01*
X109781608Y-161647516D01*
X109779501Y-161667123D01*
X109779500Y-161667135D01*
X109779500Y-164362870D01*
X109779501Y-164362876D01*
X109785908Y-164422483D01*
X109836202Y-164557328D01*
X109836206Y-164557335D01*
X109922452Y-164672544D01*
X109922455Y-164672547D01*
X110037664Y-164758793D01*
X110037671Y-164758797D01*
X110172517Y-164809091D01*
X110172516Y-164809091D01*
X110179444Y-164809835D01*
X110232127Y-164815500D01*
X112927872Y-164815499D01*
X112987483Y-164809091D01*
X113122331Y-164758796D01*
X113237546Y-164672546D01*
X113323796Y-164557331D01*
X113374091Y-164422483D01*
X113380500Y-164362873D01*
X113380499Y-161667128D01*
X113374091Y-161607517D01*
X113338318Y-161511604D01*
X113330500Y-161468271D01*
X113330500Y-160484500D01*
X113350185Y-160417461D01*
X113402989Y-160371706D01*
X113454500Y-160360500D01*
X121455500Y-160360500D01*
X121522539Y-160380185D01*
X121568294Y-160432989D01*
X121579500Y-160484500D01*
X121579500Y-165488097D01*
X121616447Y-165721369D01*
X121616447Y-165721372D01*
X121689430Y-165945988D01*
X121689430Y-165945989D01*
X121715985Y-165998106D01*
X121729500Y-166054399D01*
X121729500Y-166170000D01*
X121729501Y-166170019D01*
X121740000Y-166272796D01*
X121740001Y-166272799D01*
X121795185Y-166439331D01*
X121795186Y-166439334D01*
X121887288Y-166588656D01*
X122011344Y-166712712D01*
X122160666Y-166804814D01*
X122327203Y-166859999D01*
X122429991Y-166870500D01*
X122951905Y-166870499D01*
X122951919Y-166870500D01*
X122961908Y-166870500D01*
X123208082Y-166870500D01*
X123208094Y-166870499D01*
X123730002Y-166870499D01*
X123730008Y-166870499D01*
X123832797Y-166859999D01*
X123999334Y-166804814D01*
X124148656Y-166712712D01*
X124272712Y-166588656D01*
X124364814Y-166439334D01*
X124419999Y-166272797D01*
X124430500Y-166170009D01*
X124430499Y-166054399D01*
X124444014Y-165998105D01*
X124470568Y-165945992D01*
X124543553Y-165721368D01*
X124550723Y-165676100D01*
X124580500Y-165488097D01*
X124580500Y-165251288D01*
X130919500Y-165251288D01*
X130951161Y-165491785D01*
X131013947Y-165726104D01*
X131086062Y-165900205D01*
X131106776Y-165950212D01*
X131228064Y-166160289D01*
X131228066Y-166160292D01*
X131228067Y-166160293D01*
X131375733Y-166352736D01*
X131375739Y-166352743D01*
X131547256Y-166524260D01*
X131547262Y-166524265D01*
X131739711Y-166671936D01*
X131949788Y-166793224D01*
X132173900Y-166886054D01*
X132408211Y-166948838D01*
X132588586Y-166972584D01*
X132648711Y-166980500D01*
X132648712Y-166980500D01*
X132891289Y-166980500D01*
X132939388Y-166974167D01*
X133131789Y-166948838D01*
X133366100Y-166886054D01*
X133590212Y-166793224D01*
X133800289Y-166671936D01*
X133992738Y-166524265D01*
X134164265Y-166352738D01*
X134311936Y-166160289D01*
X134433224Y-165950212D01*
X134526054Y-165726100D01*
X134588838Y-165491789D01*
X134620500Y-165251288D01*
X134620500Y-165008712D01*
X134613917Y-164958712D01*
X134612584Y-164948586D01*
X134588838Y-164768211D01*
X134526054Y-164533900D01*
X134433224Y-164309788D01*
X134311936Y-164099711D01*
X134164265Y-163907262D01*
X134164260Y-163907256D01*
X133992743Y-163735739D01*
X133992736Y-163735733D01*
X133800293Y-163588067D01*
X133800292Y-163588066D01*
X133800289Y-163588064D01*
X133590212Y-163466776D01*
X133590205Y-163466773D01*
X133366104Y-163373947D01*
X133131785Y-163311161D01*
X132891289Y-163279500D01*
X132891288Y-163279500D01*
X132648712Y-163279500D01*
X132648711Y-163279500D01*
X132408214Y-163311161D01*
X132173895Y-163373947D01*
X131949794Y-163466773D01*
X131949785Y-163466777D01*
X131739706Y-163588067D01*
X131547263Y-163735733D01*
X131547256Y-163735739D01*
X131375739Y-163907256D01*
X131375733Y-163907263D01*
X131228067Y-164099706D01*
X131106777Y-164309785D01*
X131106773Y-164309794D01*
X131013947Y-164533895D01*
X130951161Y-164768214D01*
X130919500Y-165008711D01*
X130919500Y-165251288D01*
X124580500Y-165251288D01*
X124580500Y-160484500D01*
X124600185Y-160417461D01*
X124652989Y-160371706D01*
X124704500Y-160360500D01*
X130794727Y-160360500D01*
X130794734Y-160360500D01*
X131017605Y-160331158D01*
X131017605Y-160331163D01*
X131017625Y-160331155D01*
X131022239Y-160330548D01*
X131155935Y-160294723D01*
X131188029Y-160290499D01*
X132147871Y-160290499D01*
X132147872Y-160290499D01*
X132207483Y-160284091D01*
X132342331Y-160233796D01*
X132457546Y-160147546D01*
X132543796Y-160032331D01*
X132594091Y-159897483D01*
X132600500Y-159837873D01*
X132600499Y-157142128D01*
X132594091Y-157082517D01*
X132543796Y-156947669D01*
X132543795Y-156947668D01*
X132543793Y-156947664D01*
X132457547Y-156832455D01*
X132457544Y-156832452D01*
X132342335Y-156746206D01*
X132342328Y-156746202D01*
X132207482Y-156695908D01*
X132207483Y-156695908D01*
X132147883Y-156689501D01*
X132147881Y-156689500D01*
X132147873Y-156689500D01*
X132147864Y-156689500D01*
X129452129Y-156689500D01*
X129452123Y-156689501D01*
X129392516Y-156695908D01*
X129257671Y-156746202D01*
X129257664Y-156746206D01*
X129139365Y-156834766D01*
X129073901Y-156859184D01*
X129065054Y-156859500D01*
X113204500Y-156859500D01*
X113137461Y-156839815D01*
X113091706Y-156787011D01*
X113080500Y-156735500D01*
X113080500Y-150840001D01*
X116549500Y-150840001D01*
X116549501Y-150840019D01*
X116560000Y-150942796D01*
X116560001Y-150942799D01*
X116615185Y-151109331D01*
X116615186Y-151109334D01*
X116707288Y-151258656D01*
X116831344Y-151382712D01*
X116980666Y-151474814D01*
X117147203Y-151529999D01*
X117249991Y-151540500D01*
X117346346Y-151540499D01*
X117402640Y-151554013D01*
X117494008Y-151600568D01*
X117674393Y-151659179D01*
X117718631Y-151673553D01*
X117951903Y-151710500D01*
X117951908Y-151710500D01*
X121768097Y-151710500D01*
X122001368Y-151673553D01*
X122225992Y-151600568D01*
X122436434Y-151493343D01*
X122627510Y-151354517D01*
X125205208Y-148776819D01*
X125266531Y-148743334D01*
X125292889Y-148740500D01*
X128687993Y-148740500D01*
X128726997Y-148746794D01*
X128827203Y-148779999D01*
X128929991Y-148790500D01*
X129451905Y-148790499D01*
X129451919Y-148790500D01*
X129461908Y-148790500D01*
X129708082Y-148790500D01*
X129708094Y-148790499D01*
X130230002Y-148790499D01*
X130230008Y-148790499D01*
X130332797Y-148779999D01*
X130499334Y-148724814D01*
X130648656Y-148632712D01*
X130772712Y-148508656D01*
X130864814Y-148359334D01*
X130919999Y-148192797D01*
X130930500Y-148090009D01*
X130930499Y-147974399D01*
X130944014Y-147918105D01*
X130970568Y-147865992D01*
X131043553Y-147641369D01*
X131061192Y-147529998D01*
X131080500Y-147408097D01*
X131080500Y-147171902D01*
X131043553Y-146938631D01*
X130970565Y-146714000D01*
X130944014Y-146661891D01*
X130930499Y-146605597D01*
X130930499Y-146489998D01*
X130930498Y-146489981D01*
X130919999Y-146387203D01*
X130919998Y-146387200D01*
X130864814Y-146220666D01*
X130772712Y-146071344D01*
X130648656Y-145947288D01*
X130499334Y-145855186D01*
X130332797Y-145800001D01*
X130332795Y-145800000D01*
X130230016Y-145789500D01*
X130230009Y-145789500D01*
X129941181Y-145789500D01*
X129902861Y-145783430D01*
X129881375Y-145776448D01*
X129881369Y-145776447D01*
X129648097Y-145739500D01*
X129648092Y-145739500D01*
X124501908Y-145739500D01*
X124501903Y-145739500D01*
X124268631Y-145776446D01*
X124044003Y-145849433D01*
X123833565Y-145956657D01*
X123642488Y-146095484D01*
X123642487Y-146095485D01*
X121064792Y-148673181D01*
X121003469Y-148706666D01*
X120977111Y-148709500D01*
X118304125Y-148709500D01*
X118284727Y-148707973D01*
X118264736Y-148704806D01*
X118168096Y-148689500D01*
X118168092Y-148689500D01*
X117931908Y-148689500D01*
X117931903Y-148689500D01*
X117698630Y-148726447D01*
X117698627Y-148726447D01*
X117474009Y-148799431D01*
X117474007Y-148799431D01*
X117421889Y-148825986D01*
X117365598Y-148839500D01*
X117249999Y-148839500D01*
X117249980Y-148839501D01*
X117147203Y-148850000D01*
X117147200Y-148850001D01*
X116980668Y-148905185D01*
X116980663Y-148905187D01*
X116831342Y-148997289D01*
X116707289Y-149121342D01*
X116615187Y-149270663D01*
X116615185Y-149270668D01*
X116587349Y-149354670D01*
X116560001Y-149437203D01*
X116560001Y-149437204D01*
X116560000Y-149437204D01*
X116549500Y-149539983D01*
X116549500Y-150840001D01*
X113080500Y-150840001D01*
X113080500Y-142182889D01*
X113100185Y-142115850D01*
X113116819Y-142095208D01*
X117935208Y-137276819D01*
X117996531Y-137243334D01*
X118022889Y-137240500D01*
X120108097Y-137240500D01*
X120214126Y-137223705D01*
X120341368Y-137203553D01*
X120355168Y-137199068D01*
X120393488Y-137192999D01*
X121037871Y-137192999D01*
X121037872Y-137192999D01*
X121097483Y-137186591D01*
X121232331Y-137136296D01*
X121347546Y-137050046D01*
X121433796Y-136934831D01*
X121484091Y-136799983D01*
X121490500Y-136740373D01*
X121490500Y-135749500D01*
X121490500Y-135621908D01*
X121490500Y-135614313D01*
X121490499Y-135614295D01*
X121490499Y-134739629D01*
X121490498Y-134739623D01*
X121484091Y-134680016D01*
X121433797Y-134545171D01*
X121433793Y-134545164D01*
X121347547Y-134429955D01*
X121347544Y-134429952D01*
X121232335Y-134343706D01*
X121232332Y-134343705D01*
X121232331Y-134343704D01*
X121221161Y-134339538D01*
X121165231Y-134297666D01*
X121140816Y-134232201D01*
X121140500Y-134223358D01*
X121140500Y-132204142D01*
X121144724Y-132172052D01*
X121175635Y-132056692D01*
X121195468Y-131830000D01*
X121194592Y-131819992D01*
X121189801Y-131765230D01*
X121175635Y-131603308D01*
X121116739Y-131383504D01*
X121020568Y-131177266D01*
X120890047Y-130990861D01*
X120890045Y-130990858D01*
X120729141Y-130829954D01*
X120542734Y-130699432D01*
X120542732Y-130699431D01*
X120336497Y-130603261D01*
X120336488Y-130603258D01*
X120116697Y-130544366D01*
X120116693Y-130544365D01*
X120116692Y-130544365D01*
X120116691Y-130544364D01*
X120116686Y-130544364D01*
X119890002Y-130524532D01*
X119889998Y-130524532D01*
X119663313Y-130544364D01*
X119663302Y-130544366D01*
X119443511Y-130603258D01*
X119443502Y-130603261D01*
X119237267Y-130699431D01*
X119237265Y-130699432D01*
X119050858Y-130829954D01*
X118889954Y-130990858D01*
X118759432Y-131177265D01*
X118759431Y-131177267D01*
X118663261Y-131383502D01*
X118663258Y-131383511D01*
X118604366Y-131603302D01*
X118604364Y-131603313D01*
X118584532Y-131829998D01*
X118584532Y-131830001D01*
X118594321Y-131941897D01*
X118604365Y-132056692D01*
X118635275Y-132172052D01*
X118639500Y-132204142D01*
X118639500Y-134115500D01*
X118619815Y-134182539D01*
X118567011Y-134228294D01*
X118515500Y-134239500D01*
X117231903Y-134239500D01*
X116998631Y-134276446D01*
X116861738Y-134320926D01*
X116828166Y-134331835D01*
X116828165Y-134331835D01*
X116774012Y-134349429D01*
X116563565Y-134456657D01*
X116372488Y-134595484D01*
X116372487Y-134595485D01*
X111667681Y-139300292D01*
X111606358Y-139333777D01*
X111536666Y-139328793D01*
X111492319Y-139300292D01*
X110847511Y-138655484D01*
X110831999Y-138644214D01*
X110656434Y-138516657D01*
X110618073Y-138497111D01*
X110445996Y-138409433D01*
X110221368Y-138336446D01*
X109988097Y-138299500D01*
X109988092Y-138299500D01*
X107344500Y-138299500D01*
X107277461Y-138279815D01*
X107231706Y-138227011D01*
X107220500Y-138175500D01*
X107220500Y-136531902D01*
X107183553Y-136298631D01*
X107128576Y-136129432D01*
X107110568Y-136074008D01*
X107110566Y-136074005D01*
X107110566Y-136074003D01*
X107034940Y-135925580D01*
X107003343Y-135863567D01*
X106864517Y-135672490D01*
X106697510Y-135505483D01*
X106506433Y-135366657D01*
X106295996Y-135259433D01*
X106071368Y-135186446D01*
X105838097Y-135149500D01*
X105838092Y-135149500D01*
X105601908Y-135149500D01*
X105601903Y-135149500D01*
X105368631Y-135186446D01*
X105144003Y-135259433D01*
X104933566Y-135366657D01*
X104837453Y-135436488D01*
X104742490Y-135505483D01*
X104742488Y-135505485D01*
X104742487Y-135505485D01*
X104575485Y-135672487D01*
X104575485Y-135672488D01*
X104575483Y-135672490D01*
X104530535Y-135734356D01*
X104436657Y-135863566D01*
X104329433Y-136074003D01*
X104256446Y-136298631D01*
X104219500Y-136531902D01*
X104219500Y-139421240D01*
X104216834Y-139443761D01*
X104217209Y-139443821D01*
X104179500Y-139681902D01*
X104179500Y-139918097D01*
X104216446Y-140151367D01*
X104220931Y-140165168D01*
X104227000Y-140203487D01*
X104227000Y-140847870D01*
X104227001Y-140847876D01*
X104233408Y-140907483D01*
X104283702Y-141042328D01*
X104283706Y-141042335D01*
X104369952Y-141157544D01*
X104369955Y-141157547D01*
X104485164Y-141243793D01*
X104485171Y-141243797D01*
X104620017Y-141294091D01*
X104620016Y-141294091D01*
X104626944Y-141294835D01*
X104679627Y-141300500D01*
X105551905Y-141300499D01*
X105551919Y-141300500D01*
X105561908Y-141300500D01*
X109197111Y-141300500D01*
X109264150Y-141320185D01*
X109284792Y-141336819D01*
X110043181Y-142095208D01*
X110076666Y-142156531D01*
X110079500Y-142182889D01*
X110079500Y-143095500D01*
X110059815Y-143162539D01*
X110007011Y-143208294D01*
X109955500Y-143219500D01*
X92421903Y-143219500D01*
X92242135Y-143247973D01*
X92222737Y-143249500D01*
X88631903Y-143249500D01*
X88398632Y-143286446D01*
X88384824Y-143290933D01*
X88346511Y-143297000D01*
X87702129Y-143297000D01*
X87702123Y-143297001D01*
X87642516Y-143303408D01*
X87507671Y-143353702D01*
X87507664Y-143353706D01*
X87392455Y-143439952D01*
X87392452Y-143439955D01*
X87306206Y-143555164D01*
X87306202Y-143555171D01*
X87255908Y-143690017D01*
X87249501Y-143749616D01*
X87249500Y-143749635D01*
X87249500Y-145158111D01*
X87229815Y-145225150D01*
X87177011Y-145270905D01*
X87107853Y-145280849D01*
X87044297Y-145251824D01*
X87037819Y-145245792D01*
X86687511Y-144895484D01*
X86585464Y-144821342D01*
X86496434Y-144756657D01*
X86285996Y-144649433D01*
X86061368Y-144576446D01*
X85828097Y-144539500D01*
X85828092Y-144539500D01*
X78461908Y-144539500D01*
X78461904Y-144539500D01*
X77929998Y-144539500D01*
X77929980Y-144539501D01*
X77827203Y-144550000D01*
X77827200Y-144550001D01*
X77660668Y-144605185D01*
X77660663Y-144605187D01*
X77511342Y-144697289D01*
X77387289Y-144821342D01*
X77295187Y-144970663D01*
X77295186Y-144970666D01*
X77240001Y-145137203D01*
X77240001Y-145137204D01*
X77240000Y-145137204D01*
X77229500Y-145239983D01*
X77229500Y-145355599D01*
X77215985Y-145411893D01*
X77189430Y-145464009D01*
X77189430Y-145464011D01*
X77116447Y-145688627D01*
X77116447Y-145688630D01*
X77079500Y-145921902D01*
X77079500Y-146158097D01*
X77116447Y-146391369D01*
X77116447Y-146391372D01*
X77189430Y-146615988D01*
X77189430Y-146615989D01*
X77215985Y-146668106D01*
X77229500Y-146724399D01*
X77229500Y-146840000D01*
X77229501Y-146840019D01*
X77240000Y-146942796D01*
X77240001Y-146942799D01*
X77295185Y-147109331D01*
X77295186Y-147109334D01*
X77387288Y-147258656D01*
X77511344Y-147382712D01*
X77660666Y-147474814D01*
X77827203Y-147529999D01*
X77929991Y-147540500D01*
X78451905Y-147540499D01*
X78451919Y-147540500D01*
X78461908Y-147540500D01*
X85037111Y-147540500D01*
X85104150Y-147560185D01*
X85124792Y-147576819D01*
X87803181Y-150255208D01*
X87836666Y-150316531D01*
X87839500Y-150342889D01*
X87839500Y-152470001D01*
X87839501Y-152470019D01*
X87850000Y-152572796D01*
X87850001Y-152572799D01*
X87905185Y-152739331D01*
X87905186Y-152739334D01*
X87997288Y-152888656D01*
X88121344Y-153012712D01*
X88270666Y-153104814D01*
X88437203Y-153159999D01*
X88539991Y-153170500D01*
X88655598Y-153170499D01*
X88711893Y-153184014D01*
X88764008Y-153210568D01*
X88945059Y-153269395D01*
X88988631Y-153283553D01*
X89221903Y-153320500D01*
X89221908Y-153320500D01*
X89458097Y-153320500D01*
X89691368Y-153283553D01*
X89915992Y-153210568D01*
X89968107Y-153184014D01*
X90024401Y-153170499D01*
X90140002Y-153170499D01*
X90140008Y-153170499D01*
X90242797Y-153159999D01*
X90409334Y-153104814D01*
X90558656Y-153012712D01*
X90682712Y-152888656D01*
X90774814Y-152739334D01*
X90829999Y-152572797D01*
X90840500Y-152470009D01*
X90840500Y-151918541D01*
X90840500Y-149551908D01*
X90840500Y-149551902D01*
X90803553Y-149318631D01*
X90730566Y-149094003D01*
X90681287Y-148997288D01*
X90634359Y-148905187D01*
X90623343Y-148883566D01*
X90484517Y-148692490D01*
X88206707Y-146414680D01*
X88173222Y-146353357D01*
X88178206Y-146283665D01*
X88220078Y-146227732D01*
X88285542Y-146203315D01*
X88294388Y-146202999D01*
X88346512Y-146202999D01*
X88384831Y-146209068D01*
X88398632Y-146213553D01*
X88515270Y-146232026D01*
X88631903Y-146250500D01*
X88631908Y-146250500D01*
X92628097Y-146250500D01*
X92807865Y-146222027D01*
X92827263Y-146220500D01*
X109955500Y-146220500D01*
X110022539Y-146240185D01*
X110068294Y-146292989D01*
X110079500Y-146344500D01*
X110079500Y-156735500D01*
X110059815Y-156802539D01*
X110007011Y-156848294D01*
X109955500Y-156859500D01*
X77986683Y-156859500D01*
X77950133Y-156853991D01*
X77741773Y-156789720D01*
X77741767Y-156789718D01*
X77474936Y-156749500D01*
X77474929Y-156749500D01*
X77205071Y-156749500D01*
X77205063Y-156749500D01*
X76938232Y-156789718D01*
X76938226Y-156789720D01*
X76680358Y-156869262D01*
X76437230Y-156986346D01*
X76214258Y-157138365D01*
X76016442Y-157321910D01*
X75848185Y-157532898D01*
X75713258Y-157766599D01*
X75713256Y-157766603D01*
X75614666Y-158017804D01*
X75614664Y-158017811D01*
X75554616Y-158280898D01*
X75534451Y-158549995D01*
X75534451Y-158550004D01*
X72180500Y-158550004D01*
X72180500Y-126278422D01*
X72589500Y-126278422D01*
X72620290Y-126472826D01*
X72681117Y-126660030D01*
X72770476Y-126835405D01*
X72886172Y-126994646D01*
X73025354Y-127133828D01*
X73184595Y-127249524D01*
X73256005Y-127285909D01*
X73359969Y-127338882D01*
X73359971Y-127338882D01*
X73359974Y-127338884D01*
X73394186Y-127350000D01*
X73547173Y-127399709D01*
X73741578Y-127430500D01*
X73741583Y-127430500D01*
X73938422Y-127430500D01*
X74055053Y-127412027D01*
X74074451Y-127410500D01*
X77273694Y-127410500D01*
X77312012Y-127416569D01*
X77354888Y-127430500D01*
X77498757Y-127477246D01*
X77708713Y-127510500D01*
X77708714Y-127510500D01*
X78171286Y-127510500D01*
X78171287Y-127510500D01*
X78381243Y-127477246D01*
X78583412Y-127411557D01*
X78772816Y-127315051D01*
X78847642Y-127260687D01*
X78944786Y-127190109D01*
X78944788Y-127190106D01*
X78944792Y-127190104D01*
X79095104Y-127039792D01*
X79095106Y-127039788D01*
X79095109Y-127039786D01*
X79220048Y-126867820D01*
X79220047Y-126867820D01*
X79220051Y-126867816D01*
X79316557Y-126678412D01*
X79382246Y-126476243D01*
X79415500Y-126266287D01*
X79415500Y-126053713D01*
X79382246Y-125843757D01*
X79316557Y-125641588D01*
X79220051Y-125452184D01*
X79220049Y-125452181D01*
X79220048Y-125452179D01*
X79095109Y-125280213D01*
X78956294Y-125141398D01*
X78922809Y-125080075D01*
X78927793Y-125010383D01*
X78969665Y-124954450D01*
X78978879Y-124948178D01*
X78984331Y-124944814D01*
X78984334Y-124944814D01*
X79133656Y-124852712D01*
X79257712Y-124728656D01*
X79349814Y-124579334D01*
X79404999Y-124412797D01*
X79415500Y-124310009D01*
X79415499Y-123009992D01*
X79404999Y-122907203D01*
X79349814Y-122740666D01*
X79261824Y-122598010D01*
X79243385Y-122530621D01*
X79264308Y-122463958D01*
X79279678Y-122445241D01*
X80787819Y-120937099D01*
X80849142Y-120903615D01*
X80918834Y-120908599D01*
X80974767Y-120950471D01*
X80999184Y-121015935D01*
X80999500Y-121024781D01*
X80999500Y-131854216D01*
X80979815Y-131921255D01*
X80963181Y-131941897D01*
X79153171Y-133751906D01*
X79091848Y-133785391D01*
X79022156Y-133780407D01*
X79000399Y-133769767D01*
X78944334Y-133735186D01*
X78777797Y-133680001D01*
X78777795Y-133680000D01*
X78675010Y-133669500D01*
X77124998Y-133669500D01*
X77124981Y-133669501D01*
X77022203Y-133680000D01*
X77022200Y-133680001D01*
X76855668Y-133735185D01*
X76855663Y-133735187D01*
X76706342Y-133827289D01*
X76582289Y-133951342D01*
X76490187Y-134100663D01*
X76490185Y-134100668D01*
X76477636Y-134138540D01*
X76435001Y-134267203D01*
X76435001Y-134267204D01*
X76435000Y-134267204D01*
X76424500Y-134369983D01*
X76424500Y-135670001D01*
X76424501Y-135670018D01*
X76435000Y-135772796D01*
X76435001Y-135772799D01*
X76490185Y-135939331D01*
X76490187Y-135939336D01*
X76504104Y-135961899D01*
X76562421Y-136056447D01*
X76582289Y-136088657D01*
X76706343Y-136212711D01*
X76712011Y-136217193D01*
X76710315Y-136219337D01*
X76748606Y-136261901D01*
X76759833Y-136330863D01*
X76731994Y-136394947D01*
X76673928Y-136433807D01*
X76636788Y-136439500D01*
X73861578Y-136439500D01*
X73667173Y-136470290D01*
X73479970Y-136531117D01*
X73304594Y-136620476D01*
X73213741Y-136686485D01*
X73145354Y-136736172D01*
X73145352Y-136736174D01*
X73145351Y-136736174D01*
X73006174Y-136875351D01*
X73006174Y-136875352D01*
X73006172Y-136875354D01*
X72965141Y-136931828D01*
X72890476Y-137034594D01*
X72801117Y-137209970D01*
X72740290Y-137397173D01*
X72709500Y-137591577D01*
X72709500Y-137788422D01*
X72740290Y-137982826D01*
X72801117Y-138170029D01*
X72857056Y-138279815D01*
X72890476Y-138345405D01*
X73006172Y-138504646D01*
X73145354Y-138643828D01*
X73304595Y-138759524D01*
X73327350Y-138771118D01*
X73479970Y-138848882D01*
X73479972Y-138848882D01*
X73479975Y-138848884D01*
X73580317Y-138881487D01*
X73667173Y-138909709D01*
X73861578Y-138940500D01*
X73861583Y-138940500D01*
X77396489Y-138940500D01*
X77434806Y-138946568D01*
X77477951Y-138960587D01*
X77548631Y-138983553D01*
X77781903Y-139020500D01*
X77781908Y-139020500D01*
X82297111Y-139020500D01*
X82364150Y-139040185D01*
X82384792Y-139056819D01*
X84142490Y-140814517D01*
X84333566Y-140953343D01*
X84544008Y-141060568D01*
X84768631Y-141133553D01*
X84856109Y-141147408D01*
X85001903Y-141170500D01*
X85001908Y-141170500D01*
X88868097Y-141170500D01*
X89101368Y-141133553D01*
X89325992Y-141060568D01*
X89536433Y-140953343D01*
X89727510Y-140814517D01*
X89894517Y-140647510D01*
X90033343Y-140456433D01*
X90140568Y-140245992D01*
X90213553Y-140021368D01*
X90250500Y-139788097D01*
X90250500Y-139551902D01*
X90213553Y-139318631D01*
X90140566Y-139094003D01*
X90033342Y-138883566D01*
X90008144Y-138848884D01*
X89894517Y-138692490D01*
X89786819Y-138584792D01*
X89753334Y-138523469D01*
X89750500Y-138497111D01*
X89750500Y-137741456D01*
X89729702Y-137636903D01*
X89722770Y-137602051D01*
X89712051Y-137548164D01*
X89687602Y-137489139D01*
X89687602Y-137489138D01*
X89636635Y-137366092D01*
X89636628Y-137366079D01*
X89527140Y-137202219D01*
X89461214Y-137136293D01*
X89387782Y-137062861D01*
X89387781Y-137062860D01*
X88586819Y-136261898D01*
X88553334Y-136200575D01*
X88550500Y-136174217D01*
X88550500Y-135897588D01*
X88570185Y-135830549D01*
X88572925Y-135826465D01*
X88581445Y-135814297D01*
X88680568Y-135672734D01*
X88776739Y-135466496D01*
X88835635Y-135246692D01*
X88855468Y-135020000D01*
X88852843Y-134990001D01*
X88849801Y-134955230D01*
X88835635Y-134793308D01*
X88782629Y-134595485D01*
X88776741Y-134573511D01*
X88776738Y-134573502D01*
X88762749Y-134543502D01*
X88680568Y-134367266D01*
X88554444Y-134187140D01*
X88550045Y-134180858D01*
X88389141Y-134019954D01*
X88202734Y-133889432D01*
X88202732Y-133889431D01*
X87996497Y-133793261D01*
X87996488Y-133793258D01*
X87776697Y-133734366D01*
X87776693Y-133734365D01*
X87776692Y-133734365D01*
X87776691Y-133734364D01*
X87776686Y-133734364D01*
X87550002Y-133714532D01*
X87549998Y-133714532D01*
X87323313Y-133734364D01*
X87323302Y-133734366D01*
X87103511Y-133793258D01*
X87103502Y-133793261D01*
X86897267Y-133889431D01*
X86897265Y-133889432D01*
X86710858Y-134019954D01*
X86549954Y-134180858D01*
X86419432Y-134367265D01*
X86419431Y-134367267D01*
X86323261Y-134573502D01*
X86323258Y-134573511D01*
X86264366Y-134793302D01*
X86264364Y-134793313D01*
X86244532Y-135019998D01*
X86244532Y-135020001D01*
X86264364Y-135246686D01*
X86264366Y-135246697D01*
X86323258Y-135466488D01*
X86323261Y-135466497D01*
X86395729Y-135621904D01*
X86419432Y-135672734D01*
X86508928Y-135800549D01*
X86527075Y-135826465D01*
X86549402Y-135892671D01*
X86549500Y-135897588D01*
X86549500Y-136738539D01*
X86549891Y-136740505D01*
X86549890Y-136740505D01*
X86549891Y-136740508D01*
X86587946Y-136931828D01*
X86587948Y-136931834D01*
X86587949Y-136931836D01*
X86599010Y-136958540D01*
X86663364Y-137113907D01*
X86663371Y-137113920D01*
X86772859Y-137277780D01*
X86772860Y-137277781D01*
X86772861Y-137277782D01*
X86912218Y-137417139D01*
X86912219Y-137417139D01*
X86919286Y-137424206D01*
X86919285Y-137424206D01*
X86919289Y-137424209D01*
X87452898Y-137957819D01*
X87486383Y-138019142D01*
X87481399Y-138088834D01*
X87439527Y-138144767D01*
X87374063Y-138169184D01*
X87365217Y-138169500D01*
X85792889Y-138169500D01*
X85725850Y-138149815D01*
X85705208Y-138133181D01*
X83947511Y-136375484D01*
X83901639Y-136342156D01*
X83756434Y-136236657D01*
X83734692Y-136225579D01*
X83545996Y-136129433D01*
X83321368Y-136056446D01*
X83088097Y-136019500D01*
X83088092Y-136019500D01*
X80013392Y-136019500D01*
X79946353Y-135999815D01*
X79900598Y-135947011D01*
X79890654Y-135877853D01*
X79919679Y-135814297D01*
X79934725Y-135799648D01*
X79937776Y-135797142D01*
X79937782Y-135797139D01*
X80077139Y-135657782D01*
X80077139Y-135657780D01*
X80087347Y-135647573D01*
X80087348Y-135647570D01*
X82777140Y-132957781D01*
X82886632Y-132793914D01*
X82962052Y-132611835D01*
X83000501Y-132418540D01*
X83000501Y-132221459D01*
X83000501Y-132216349D01*
X83000500Y-132216323D01*
X83000500Y-121565782D01*
X83020185Y-121498743D01*
X83036819Y-121478101D01*
X84958101Y-119556819D01*
X85019424Y-119523334D01*
X85045782Y-119520500D01*
X85083536Y-119520500D01*
X85150575Y-119540185D01*
X85167521Y-119553272D01*
X85168207Y-119553903D01*
X85168216Y-119553913D01*
X85171950Y-119556819D01*
X85345818Y-119692146D01*
X85386631Y-119748856D01*
X85390306Y-119818629D01*
X85355674Y-119879312D01*
X85345819Y-119887852D01*
X85168218Y-120026085D01*
X85011016Y-120196852D01*
X84884075Y-120391151D01*
X84790842Y-120603699D01*
X84733866Y-120828691D01*
X84733864Y-120828702D01*
X84714700Y-121059993D01*
X84714700Y-121060006D01*
X84733864Y-121291297D01*
X84733866Y-121291308D01*
X84790842Y-121516300D01*
X84884075Y-121728848D01*
X85011016Y-121923147D01*
X85011019Y-121923151D01*
X85011021Y-121923153D01*
X85168216Y-122093913D01*
X85168219Y-122093915D01*
X85168222Y-122093918D01*
X85345818Y-122232147D01*
X85386631Y-122288857D01*
X85390306Y-122358630D01*
X85355674Y-122419313D01*
X85345818Y-122427853D01*
X85168222Y-122566081D01*
X85168219Y-122566084D01*
X85168216Y-122566086D01*
X85168216Y-122566087D01*
X85138825Y-122598014D01*
X85011016Y-122736852D01*
X84884075Y-122931151D01*
X84790842Y-123143699D01*
X84733866Y-123368691D01*
X84733864Y-123368702D01*
X84714700Y-123599993D01*
X84714700Y-123600006D01*
X84733864Y-123831297D01*
X84733866Y-123831308D01*
X84790842Y-124056300D01*
X84884075Y-124268848D01*
X85011016Y-124463147D01*
X85011019Y-124463151D01*
X85011021Y-124463153D01*
X85168216Y-124633913D01*
X85168219Y-124633915D01*
X85168222Y-124633918D01*
X85345818Y-124772147D01*
X85386631Y-124828857D01*
X85390306Y-124898630D01*
X85355674Y-124959313D01*
X85345818Y-124967853D01*
X85168222Y-125106081D01*
X85168219Y-125106084D01*
X85168216Y-125106086D01*
X85168216Y-125106087D01*
X85137457Y-125139500D01*
X85011016Y-125276852D01*
X84884075Y-125471151D01*
X84790842Y-125683699D01*
X84733866Y-125908691D01*
X84733864Y-125908702D01*
X84714700Y-126139993D01*
X84714700Y-126140006D01*
X84733864Y-126371297D01*
X84733866Y-126371308D01*
X84790842Y-126596300D01*
X84884075Y-126808848D01*
X85011016Y-127003147D01*
X85011019Y-127003151D01*
X85011021Y-127003153D01*
X85105803Y-127106114D01*
X85136724Y-127168767D01*
X85128864Y-127238193D01*
X85084716Y-127292348D01*
X85057906Y-127306277D01*
X84977669Y-127336203D01*
X84977664Y-127336206D01*
X84862455Y-127422452D01*
X84862452Y-127422455D01*
X84776206Y-127537664D01*
X84776202Y-127537671D01*
X84725908Y-127672517D01*
X84719501Y-127732116D01*
X84719500Y-127732135D01*
X84719500Y-129627870D01*
X84719501Y-129627876D01*
X84725908Y-129687483D01*
X84776202Y-129822328D01*
X84776206Y-129822335D01*
X84862452Y-129937544D01*
X84862455Y-129937547D01*
X84977664Y-130023793D01*
X84977671Y-130023797D01*
X85112517Y-130074091D01*
X85112516Y-130074091D01*
X85119444Y-130074835D01*
X85172127Y-130080500D01*
X87067872Y-130080499D01*
X87127483Y-130074091D01*
X87262331Y-130023796D01*
X87377546Y-129937546D01*
X87463796Y-129822331D01*
X87473444Y-129796464D01*
X87486609Y-129761167D01*
X87528480Y-129705233D01*
X87593944Y-129680816D01*
X87602791Y-129680500D01*
X90985859Y-129680500D01*
X91052898Y-129700185D01*
X91098653Y-129752989D01*
X91102030Y-129761140D01*
X91106204Y-129772331D01*
X91106205Y-129772332D01*
X91106206Y-129772335D01*
X91192452Y-129887544D01*
X91192455Y-129887547D01*
X91307664Y-129973793D01*
X91307669Y-129973796D01*
X91368833Y-129996608D01*
X91424766Y-130038478D01*
X91449184Y-130103942D01*
X91449500Y-130112790D01*
X91449500Y-131590945D01*
X91429815Y-131657984D01*
X91427075Y-131662068D01*
X91409434Y-131687262D01*
X91313261Y-131893502D01*
X91313258Y-131893511D01*
X91254366Y-132113302D01*
X91254364Y-132113313D01*
X91234532Y-132339998D01*
X91234532Y-132340001D01*
X91254364Y-132566686D01*
X91254366Y-132566697D01*
X91313258Y-132786488D01*
X91313261Y-132786497D01*
X91409431Y-132992732D01*
X91409432Y-132992734D01*
X91517075Y-133146465D01*
X91539402Y-133212671D01*
X91539500Y-133217588D01*
X91539500Y-134183819D01*
X91519815Y-134250858D01*
X91517076Y-134254941D01*
X91459431Y-134337267D01*
X91363261Y-134543502D01*
X91363258Y-134543511D01*
X91304366Y-134763302D01*
X91304364Y-134763313D01*
X91284532Y-134989998D01*
X91284532Y-134990001D01*
X91304364Y-135216686D01*
X91304366Y-135216697D01*
X91363258Y-135436488D01*
X91363261Y-135436497D01*
X91446179Y-135614313D01*
X91459432Y-135642734D01*
X91550502Y-135772797D01*
X91567075Y-135796465D01*
X91589402Y-135862671D01*
X91589500Y-135867588D01*
X91589500Y-136438543D01*
X91601155Y-136497135D01*
X91606983Y-136526433D01*
X91625689Y-136620476D01*
X91625690Y-136620480D01*
X91625689Y-136620480D01*
X91627948Y-136631834D01*
X91627949Y-136631838D01*
X91703364Y-136813907D01*
X91703371Y-136813920D01*
X91812860Y-136977781D01*
X91812863Y-136977785D01*
X91956537Y-137121459D01*
X91956559Y-137121479D01*
X93807141Y-138972061D01*
X93840626Y-139033384D01*
X93835642Y-139103076D01*
X93831364Y-139112194D01*
X93831720Y-139112360D01*
X93733261Y-139323502D01*
X93733258Y-139323511D01*
X93674366Y-139543302D01*
X93674364Y-139543313D01*
X93654532Y-139769998D01*
X93654532Y-139770001D01*
X93674364Y-139996686D01*
X93674366Y-139996697D01*
X93733258Y-140216488D01*
X93733261Y-140216497D01*
X93829431Y-140422732D01*
X93829432Y-140422734D01*
X93959954Y-140609141D01*
X94120858Y-140770045D01*
X94120861Y-140770047D01*
X94307266Y-140900568D01*
X94513504Y-140996739D01*
X94733308Y-141055635D01*
X94895230Y-141069801D01*
X94959998Y-141075468D01*
X94960000Y-141075468D01*
X94960002Y-141075468D01*
X95016673Y-141070509D01*
X95186692Y-141055635D01*
X95406496Y-140996739D01*
X95612734Y-140900568D01*
X95723621Y-140822924D01*
X95789826Y-140800598D01*
X95794743Y-140800500D01*
X99446786Y-140800500D01*
X99513825Y-140820185D01*
X99534467Y-140836819D01*
X99653434Y-140955786D01*
X99838462Y-141090217D01*
X100042242Y-141194048D01*
X100042244Y-141194049D01*
X100259751Y-141264721D01*
X100259752Y-141264721D01*
X100259755Y-141264722D01*
X100485646Y-141300500D01*
X100485647Y-141300500D01*
X100714353Y-141300500D01*
X100714354Y-141300500D01*
X100940245Y-141264722D01*
X100940248Y-141264721D01*
X100940249Y-141264721D01*
X101157755Y-141194049D01*
X101157755Y-141194048D01*
X101157758Y-141194048D01*
X101361538Y-141090217D01*
X101546566Y-140955786D01*
X101708286Y-140794066D01*
X101842717Y-140609038D01*
X101946548Y-140405258D01*
X101998295Y-140245996D01*
X102017221Y-140187749D01*
X102017221Y-140187748D01*
X102017222Y-140187745D01*
X102053000Y-139961854D01*
X102053000Y-139638146D01*
X102017222Y-139412255D01*
X102017221Y-139412251D01*
X102017221Y-139412250D01*
X101946549Y-139194744D01*
X101899842Y-139103076D01*
X101842717Y-138990962D01*
X101708286Y-138805934D01*
X101546566Y-138644214D01*
X101361538Y-138509783D01*
X101303490Y-138480206D01*
X101157755Y-138405950D01*
X100940248Y-138335278D01*
X100770826Y-138308444D01*
X100714354Y-138299500D01*
X100485646Y-138299500D01*
X100410349Y-138311426D01*
X100259753Y-138335278D01*
X100259750Y-138335278D01*
X100042244Y-138405950D01*
X99838461Y-138509783D01*
X99735221Y-138584792D01*
X99653434Y-138644214D01*
X99653432Y-138644216D01*
X99653431Y-138644216D01*
X99534467Y-138763181D01*
X99473144Y-138796666D01*
X99446786Y-138799500D01*
X96084500Y-138799500D01*
X96017461Y-138779815D01*
X95971706Y-138727011D01*
X95960500Y-138675500D01*
X95960500Y-138611456D01*
X95934392Y-138480208D01*
X95922051Y-138418164D01*
X95891913Y-138345405D01*
X95846632Y-138236086D01*
X95846631Y-138236084D01*
X95846630Y-138236082D01*
X95737139Y-138072218D01*
X95737136Y-138072214D01*
X95594686Y-137929764D01*
X95594655Y-137929735D01*
X93626819Y-135961899D01*
X93593334Y-135900576D01*
X93590500Y-135874218D01*
X93590500Y-135867588D01*
X93610185Y-135800549D01*
X93612925Y-135796465D01*
X93629496Y-135772799D01*
X93720568Y-135642734D01*
X93816739Y-135436496D01*
X93875635Y-135216692D01*
X93895468Y-134990000D01*
X93875635Y-134763308D01*
X93816739Y-134543504D01*
X93720568Y-134337266D01*
X93615450Y-134187140D01*
X93590045Y-134150858D01*
X93576819Y-134137632D01*
X93543334Y-134076309D01*
X93540500Y-134049951D01*
X93540500Y-133874782D01*
X93560185Y-133807743D01*
X93612989Y-133761988D01*
X93682147Y-133752044D01*
X93745703Y-133781069D01*
X93752181Y-133787101D01*
X94152215Y-134187137D01*
X94152219Y-134187140D01*
X94316079Y-134296628D01*
X94316085Y-134296631D01*
X94316086Y-134296632D01*
X94498165Y-134372052D01*
X94689168Y-134410045D01*
X94691455Y-134410500D01*
X94691458Y-134410501D01*
X94691460Y-134410501D01*
X94894655Y-134410501D01*
X94894675Y-134410500D01*
X96432412Y-134410500D01*
X96499451Y-134430185D01*
X96503523Y-134432917D01*
X96657266Y-134540568D01*
X96863504Y-134636739D01*
X97083308Y-134695635D01*
X97245230Y-134709801D01*
X97309998Y-134715468D01*
X97310000Y-134715468D01*
X97310002Y-134715468D01*
X97366673Y-134710509D01*
X97536692Y-134695635D01*
X97756496Y-134636739D01*
X97962734Y-134540568D01*
X98149139Y-134410047D01*
X98310047Y-134249139D01*
X98440568Y-134062734D01*
X98536739Y-133856496D01*
X98595635Y-133636692D01*
X98615468Y-133410000D01*
X98595635Y-133183308D01*
X98536739Y-132963504D01*
X98440568Y-132757266D01*
X98310047Y-132570861D01*
X98310045Y-132570858D01*
X98149141Y-132409954D01*
X97962734Y-132279432D01*
X97962732Y-132279431D01*
X97756497Y-132183261D01*
X97756488Y-132183258D01*
X97536697Y-132124366D01*
X97536693Y-132124365D01*
X97536692Y-132124365D01*
X97536691Y-132124364D01*
X97536686Y-132124364D01*
X97310002Y-132104532D01*
X97309998Y-132104532D01*
X97083313Y-132124364D01*
X97083302Y-132124366D01*
X96863511Y-132183258D01*
X96863502Y-132183261D01*
X96657267Y-132279431D01*
X96657265Y-132279432D01*
X96570768Y-132339998D01*
X96523378Y-132373181D01*
X96503535Y-132387075D01*
X96437329Y-132409402D01*
X96432412Y-132409500D01*
X95255783Y-132409500D01*
X95188744Y-132389815D01*
X95168102Y-132373181D01*
X94504209Y-131709289D01*
X94504206Y-131709285D01*
X94504206Y-131709286D01*
X94497139Y-131702219D01*
X94497139Y-131702218D01*
X94357782Y-131562861D01*
X94357781Y-131562860D01*
X94357780Y-131562859D01*
X94193920Y-131453371D01*
X94193911Y-131453366D01*
X94110683Y-131418892D01*
X94065165Y-131400038D01*
X94038500Y-131388993D01*
X94011837Y-131377949D01*
X94011833Y-131377948D01*
X93911284Y-131357948D01*
X93818543Y-131339500D01*
X93818541Y-131339500D01*
X93574500Y-131339500D01*
X93507461Y-131319815D01*
X93461706Y-131267011D01*
X93450500Y-131215500D01*
X93450500Y-130112790D01*
X93470185Y-130045751D01*
X93522989Y-129999996D01*
X93531146Y-129996616D01*
X93592331Y-129973796D01*
X93707546Y-129887546D01*
X93793796Y-129772331D01*
X93844091Y-129637483D01*
X93850500Y-129577873D01*
X93850499Y-127682128D01*
X93844475Y-127626087D01*
X93844091Y-127622516D01*
X93793797Y-127487671D01*
X93793793Y-127487664D01*
X93707547Y-127372455D01*
X93707544Y-127372452D01*
X93592335Y-127286206D01*
X93592328Y-127286202D01*
X93512094Y-127256277D01*
X93456160Y-127214406D01*
X93431743Y-127148941D01*
X93446595Y-127080668D01*
X93464190Y-127056121D01*
X93558979Y-126953153D01*
X93685924Y-126758849D01*
X93779157Y-126546300D01*
X93836134Y-126321305D01*
X93836135Y-126321297D01*
X93855300Y-126090006D01*
X93855300Y-126089993D01*
X93836135Y-125858702D01*
X93836133Y-125858691D01*
X93779157Y-125633699D01*
X93685924Y-125421151D01*
X93558983Y-125226852D01*
X93558980Y-125226849D01*
X93558979Y-125226847D01*
X93401784Y-125056087D01*
X93224180Y-124917853D01*
X93183368Y-124861143D01*
X93179693Y-124791370D01*
X93214324Y-124730687D01*
X93224181Y-124722146D01*
X93226056Y-124720687D01*
X93401784Y-124583913D01*
X93558979Y-124413153D01*
X93685924Y-124218849D01*
X93779157Y-124006300D01*
X93836134Y-123781305D01*
X93836135Y-123781297D01*
X93855300Y-123550006D01*
X93855300Y-123549993D01*
X93836135Y-123318702D01*
X93836133Y-123318691D01*
X93779157Y-123093699D01*
X93685924Y-122881151D01*
X93558983Y-122686852D01*
X93558980Y-122686849D01*
X93558979Y-122686847D01*
X93401784Y-122516087D01*
X93224180Y-122377853D01*
X93183368Y-122321143D01*
X93179693Y-122251370D01*
X93214324Y-122190687D01*
X93224181Y-122182146D01*
X93226056Y-122180687D01*
X93401784Y-122043913D01*
X93558979Y-121873153D01*
X93685924Y-121678849D01*
X93779157Y-121466300D01*
X93836134Y-121241305D01*
X93836135Y-121241297D01*
X93855300Y-121010006D01*
X93855300Y-121009993D01*
X93836135Y-120778702D01*
X93836133Y-120778691D01*
X93779157Y-120553699D01*
X93685924Y-120341151D01*
X93558983Y-120146852D01*
X93558980Y-120146849D01*
X93558979Y-120146847D01*
X93401784Y-119976087D01*
X93224180Y-119837853D01*
X93183368Y-119781143D01*
X93179693Y-119711370D01*
X93214324Y-119650687D01*
X93224181Y-119642146D01*
X93226056Y-119640687D01*
X93401784Y-119503913D01*
X93558979Y-119333153D01*
X93685924Y-119138849D01*
X93779157Y-118926300D01*
X93836134Y-118701305D01*
X93836135Y-118701297D01*
X93855300Y-118470006D01*
X93855300Y-118469993D01*
X93836135Y-118238702D01*
X93836133Y-118238691D01*
X93779157Y-118013699D01*
X93685924Y-117801151D01*
X93558983Y-117606852D01*
X93558980Y-117606849D01*
X93558979Y-117606847D01*
X93401784Y-117436087D01*
X93401779Y-117436083D01*
X93401777Y-117436081D01*
X93218634Y-117293535D01*
X93218628Y-117293531D01*
X93014504Y-117183064D01*
X93014495Y-117183061D01*
X92794984Y-117107702D01*
X92623282Y-117079050D01*
X92566049Y-117069500D01*
X92333951Y-117069500D01*
X92288164Y-117077140D01*
X92105015Y-117107702D01*
X91885504Y-117183061D01*
X91885495Y-117183064D01*
X91681371Y-117293531D01*
X91552114Y-117394136D01*
X91498216Y-117436087D01*
X91458266Y-117479484D01*
X91398381Y-117515473D01*
X91367038Y-117519500D01*
X87156464Y-117519500D01*
X87089425Y-117499815D01*
X87072479Y-117486728D01*
X87071794Y-117486098D01*
X87071784Y-117486087D01*
X86934045Y-117378881D01*
X86888628Y-117343531D01*
X86684504Y-117233064D01*
X86684495Y-117233061D01*
X86464984Y-117157702D01*
X86293282Y-117129050D01*
X86236049Y-117119500D01*
X86003951Y-117119500D01*
X85958164Y-117127140D01*
X85775015Y-117157702D01*
X85555504Y-117233061D01*
X85555495Y-117233064D01*
X85351371Y-117343531D01*
X85232456Y-117436087D01*
X85168216Y-117486087D01*
X85168210Y-117486092D01*
X85167521Y-117486728D01*
X85167172Y-117486899D01*
X85164170Y-117489237D01*
X85163689Y-117488619D01*
X85104867Y-117517652D01*
X85083536Y-117519500D01*
X84481457Y-117519500D01*
X84428153Y-117530103D01*
X84401500Y-117535405D01*
X84288171Y-117557947D01*
X84288159Y-117557950D01*
X84250938Y-117573367D01*
X84250939Y-117573368D01*
X84106088Y-117633366D01*
X84106079Y-117633371D01*
X83942219Y-117742859D01*
X83903181Y-117781898D01*
X83802861Y-117882218D01*
X83592181Y-118092898D01*
X83530858Y-118126383D01*
X83461166Y-118121399D01*
X83405233Y-118079527D01*
X83380816Y-118014063D01*
X83380500Y-118005217D01*
X83380500Y-115965782D01*
X83400185Y-115898743D01*
X83416819Y-115878101D01*
X84818101Y-114476819D01*
X84879424Y-114443334D01*
X84905782Y-114440500D01*
X85083536Y-114440500D01*
X85150575Y-114460185D01*
X85167521Y-114473272D01*
X85168204Y-114473901D01*
X85168216Y-114473913D01*
X85287134Y-114566470D01*
X85341592Y-114608857D01*
X85351374Y-114616470D01*
X85487245Y-114690000D01*
X85547961Y-114722858D01*
X85555497Y-114726936D01*
X85629371Y-114752297D01*
X85775015Y-114802297D01*
X85775017Y-114802297D01*
X85775019Y-114802298D01*
X86003951Y-114840500D01*
X86003952Y-114840500D01*
X86236048Y-114840500D01*
X86236049Y-114840500D01*
X86464981Y-114802298D01*
X86684503Y-114726936D01*
X86888626Y-114616470D01*
X87071784Y-114473913D01*
X87071800Y-114473895D01*
X87072479Y-114473272D01*
X87072827Y-114473100D01*
X87075830Y-114470763D01*
X87076310Y-114471380D01*
X87135133Y-114442348D01*
X87156464Y-114440500D01*
X91476958Y-114440500D01*
X91543997Y-114460185D01*
X91553120Y-114466647D01*
X91681365Y-114566464D01*
X91681371Y-114566468D01*
X91681374Y-114566470D01*
X91885497Y-114676936D01*
X91926878Y-114691142D01*
X92105015Y-114752297D01*
X92105017Y-114752297D01*
X92105019Y-114752298D01*
X92333951Y-114790500D01*
X92333952Y-114790500D01*
X92566048Y-114790500D01*
X92566049Y-114790500D01*
X92794981Y-114752298D01*
X93014503Y-114676936D01*
X93218626Y-114566470D01*
X93226058Y-114560686D01*
X93333810Y-114476819D01*
X93401784Y-114423913D01*
X93558979Y-114253153D01*
X93685924Y-114058849D01*
X93779157Y-113846300D01*
X93836134Y-113621305D01*
X93839052Y-113586089D01*
X93855300Y-113390006D01*
X93855300Y-113389993D01*
X93836135Y-113158702D01*
X93836133Y-113158691D01*
X93779157Y-112933699D01*
X93685924Y-112721151D01*
X93558983Y-112526852D01*
X93558980Y-112526849D01*
X93558979Y-112526847D01*
X93401784Y-112356087D01*
X93224180Y-112217853D01*
X93183368Y-112161143D01*
X93179693Y-112091370D01*
X93214324Y-112030687D01*
X93224181Y-112022146D01*
X93226056Y-112020687D01*
X93401784Y-111883913D01*
X93558979Y-111713153D01*
X93685924Y-111518849D01*
X93779157Y-111306300D01*
X93836134Y-111081305D01*
X93852814Y-110880006D01*
X93855300Y-110850006D01*
X93855300Y-110849993D01*
X93836135Y-110618702D01*
X93836133Y-110618691D01*
X93779157Y-110393699D01*
X93685924Y-110181151D01*
X93558983Y-109986852D01*
X93558980Y-109986849D01*
X93558979Y-109986847D01*
X93401784Y-109816087D01*
X93224180Y-109677853D01*
X93183368Y-109621143D01*
X93179693Y-109551370D01*
X93214324Y-109490687D01*
X93224181Y-109482146D01*
X93226056Y-109480687D01*
X93401784Y-109343913D01*
X93558979Y-109173153D01*
X93685924Y-108978849D01*
X93779157Y-108766300D01*
X93836134Y-108541305D01*
X93839556Y-108500008D01*
X93855300Y-108310006D01*
X93855300Y-108309993D01*
X93836135Y-108078702D01*
X93836133Y-108078691D01*
X93779157Y-107853699D01*
X93685924Y-107641151D01*
X93558983Y-107446852D01*
X93558980Y-107446849D01*
X93558979Y-107446847D01*
X93401784Y-107276087D01*
X93224180Y-107137853D01*
X93183368Y-107081143D01*
X93179693Y-107011370D01*
X93214324Y-106950687D01*
X93224181Y-106942146D01*
X93226056Y-106940687D01*
X93401784Y-106803913D01*
X93558979Y-106633153D01*
X93685924Y-106438849D01*
X93779157Y-106226300D01*
X93836134Y-106001305D01*
X93836135Y-106001297D01*
X93855300Y-105770006D01*
X93855300Y-105769993D01*
X93836135Y-105538702D01*
X93836133Y-105538691D01*
X93779157Y-105313699D01*
X93685924Y-105101151D01*
X93558983Y-104906852D01*
X93558980Y-104906849D01*
X93558979Y-104906847D01*
X93401784Y-104736087D01*
X93224180Y-104597853D01*
X93183368Y-104541143D01*
X93179693Y-104471370D01*
X93214324Y-104410687D01*
X93224181Y-104402146D01*
X93401784Y-104263913D01*
X93558979Y-104093153D01*
X93685924Y-103898849D01*
X93779157Y-103686300D01*
X93836134Y-103461305D01*
X93852814Y-103260006D01*
X93855300Y-103230006D01*
X93855300Y-103229993D01*
X93836135Y-102998702D01*
X93836133Y-102998691D01*
X93779157Y-102773699D01*
X93685924Y-102561151D01*
X93558983Y-102366852D01*
X93558980Y-102366849D01*
X93558979Y-102366847D01*
X93401784Y-102196087D01*
X93224180Y-102057853D01*
X93183368Y-102001143D01*
X93179693Y-101931370D01*
X93214324Y-101870687D01*
X93224181Y-101862146D01*
X93401784Y-101723913D01*
X93558979Y-101553153D01*
X93685924Y-101358849D01*
X93779157Y-101146300D01*
X93836134Y-100921305D01*
X93836135Y-100921297D01*
X93855300Y-100690006D01*
X93855300Y-100689993D01*
X93836135Y-100458702D01*
X93836133Y-100458691D01*
X93779157Y-100233699D01*
X93685924Y-100021151D01*
X93558983Y-99826852D01*
X93558980Y-99826849D01*
X93558979Y-99826847D01*
X93401784Y-99656087D01*
X93224180Y-99517853D01*
X93183368Y-99461143D01*
X93179693Y-99391370D01*
X93214324Y-99330687D01*
X93224181Y-99322146D01*
X93229891Y-99317702D01*
X93401784Y-99183913D01*
X93558979Y-99013153D01*
X93685924Y-98818849D01*
X93779157Y-98606300D01*
X93836134Y-98381305D01*
X93855300Y-98150000D01*
X93855300Y-98149993D01*
X93836135Y-97918702D01*
X93836133Y-97918691D01*
X93779157Y-97693699D01*
X93685924Y-97481151D01*
X93558983Y-97286852D01*
X93558980Y-97286849D01*
X93558979Y-97286847D01*
X93401784Y-97116087D01*
X93224180Y-96977853D01*
X93183368Y-96921143D01*
X93179693Y-96851370D01*
X93214324Y-96790687D01*
X93224181Y-96782146D01*
X93401784Y-96643913D01*
X93558979Y-96473153D01*
X93685924Y-96278849D01*
X93779157Y-96066300D01*
X93836134Y-95841305D01*
X93836135Y-95841297D01*
X93855300Y-95610006D01*
X93855300Y-95609993D01*
X93836135Y-95378702D01*
X93836133Y-95378691D01*
X93779157Y-95153699D01*
X93685924Y-94941151D01*
X93558983Y-94746852D01*
X93558980Y-94746849D01*
X93558979Y-94746847D01*
X93401784Y-94576087D01*
X93224180Y-94437853D01*
X93183368Y-94381143D01*
X93179693Y-94311370D01*
X93214324Y-94250687D01*
X93224181Y-94242146D01*
X93226056Y-94240687D01*
X93401784Y-94103913D01*
X93558979Y-93933153D01*
X93685924Y-93738849D01*
X93779157Y-93526300D01*
X93836134Y-93301305D01*
X93836135Y-93301297D01*
X93855300Y-93070006D01*
X93855300Y-93069993D01*
X93836135Y-92838702D01*
X93836133Y-92838691D01*
X93779157Y-92613699D01*
X93685924Y-92401151D01*
X93558983Y-92206852D01*
X93558980Y-92206849D01*
X93558979Y-92206847D01*
X93401784Y-92036087D01*
X93224180Y-91897853D01*
X93183368Y-91841143D01*
X93179693Y-91771370D01*
X93214324Y-91710687D01*
X93224181Y-91702146D01*
X93226056Y-91700687D01*
X93401784Y-91563913D01*
X93558979Y-91393153D01*
X93685924Y-91198849D01*
X93779157Y-90986300D01*
X93836134Y-90761305D01*
X93836135Y-90761297D01*
X93855300Y-90530006D01*
X93855300Y-90529993D01*
X93836135Y-90298702D01*
X93836133Y-90298691D01*
X93779157Y-90073699D01*
X93685924Y-89861151D01*
X93558983Y-89666852D01*
X93558980Y-89666849D01*
X93558979Y-89666847D01*
X93401784Y-89496087D01*
X93224180Y-89357853D01*
X93183368Y-89301143D01*
X93179693Y-89231370D01*
X93214324Y-89170687D01*
X93224181Y-89162146D01*
X93226057Y-89160686D01*
X93401784Y-89023913D01*
X93558979Y-88853153D01*
X93685924Y-88658849D01*
X93779157Y-88446300D01*
X93836134Y-88221305D01*
X93843741Y-88129500D01*
X93855300Y-87990006D01*
X93855300Y-87989993D01*
X93836135Y-87758702D01*
X93836133Y-87758691D01*
X93779157Y-87533699D01*
X93685924Y-87321151D01*
X93558983Y-87126852D01*
X93558980Y-87126849D01*
X93558979Y-87126847D01*
X93401784Y-86956087D01*
X93224180Y-86817853D01*
X93183368Y-86761143D01*
X93179693Y-86691370D01*
X93214324Y-86630687D01*
X93224181Y-86622146D01*
X93226056Y-86620687D01*
X93401784Y-86483913D01*
X93558979Y-86313153D01*
X93685924Y-86118849D01*
X93779157Y-85906300D01*
X93836134Y-85681305D01*
X93836135Y-85681297D01*
X93855300Y-85450006D01*
X93855300Y-85449993D01*
X93836135Y-85218702D01*
X93836133Y-85218691D01*
X93779157Y-84993699D01*
X93685924Y-84781151D01*
X93558983Y-84586852D01*
X93558980Y-84586849D01*
X93558979Y-84586847D01*
X93401784Y-84416087D01*
X93224179Y-84277852D01*
X93183367Y-84221142D01*
X93179692Y-84151369D01*
X93214323Y-84090686D01*
X93224165Y-84082158D01*
X93268817Y-84047404D01*
X93333810Y-84021763D01*
X93402350Y-84035330D01*
X93432658Y-84057578D01*
X100753181Y-91378101D01*
X100786666Y-91439424D01*
X100789500Y-91465782D01*
X100789500Y-118258544D01*
X100815939Y-118391461D01*
X100827946Y-118451827D01*
X100827949Y-118451837D01*
X100903364Y-118633907D01*
X100903371Y-118633920D01*
X101012859Y-118797780D01*
X101012860Y-118797781D01*
X101012861Y-118797782D01*
X101152218Y-118937139D01*
X101152219Y-118937139D01*
X101159286Y-118944206D01*
X101159285Y-118944206D01*
X101159289Y-118944209D01*
X108253181Y-126038101D01*
X108286666Y-126099424D01*
X108289500Y-126125782D01*
X108289500Y-131153705D01*
X108269815Y-131220744D01*
X108230599Y-131259242D01*
X108201347Y-131277285D01*
X108201343Y-131277288D01*
X108077289Y-131401342D01*
X107985187Y-131550663D01*
X107985185Y-131550668D01*
X107981145Y-131562861D01*
X107930001Y-131717203D01*
X107930001Y-131717204D01*
X107930000Y-131717204D01*
X107919500Y-131819983D01*
X107919500Y-133420001D01*
X107919501Y-133420018D01*
X107930000Y-133522796D01*
X107930001Y-133522799D01*
X107955774Y-133600576D01*
X107985186Y-133689334D01*
X108077288Y-133838656D01*
X108201344Y-133962712D01*
X108350666Y-134054814D01*
X108517203Y-134109999D01*
X108619991Y-134120500D01*
X109920008Y-134120499D01*
X110022797Y-134109999D01*
X110189334Y-134054814D01*
X110338656Y-133962712D01*
X110462712Y-133838656D01*
X110554814Y-133689334D01*
X110609999Y-133522797D01*
X110620500Y-133420009D01*
X110620499Y-131819992D01*
X110609999Y-131717203D01*
X110554814Y-131550666D01*
X110462712Y-131401344D01*
X110338656Y-131277288D01*
X110338655Y-131277287D01*
X110337585Y-131276441D01*
X110337041Y-131275673D01*
X110333549Y-131272181D01*
X110334146Y-131271583D01*
X110297211Y-131219418D01*
X110290500Y-131179178D01*
X110290500Y-128660006D01*
X115634700Y-128660006D01*
X115653864Y-128891297D01*
X115653866Y-128891308D01*
X115710842Y-129116300D01*
X115804075Y-129328848D01*
X115931016Y-129523147D01*
X115931019Y-129523151D01*
X115931021Y-129523153D01*
X116088216Y-129693913D01*
X116088219Y-129693915D01*
X116088222Y-129693918D01*
X116271365Y-129836464D01*
X116271371Y-129836468D01*
X116271374Y-129836470D01*
X116475497Y-129946936D01*
X116553729Y-129973793D01*
X116695015Y-130022297D01*
X116695017Y-130022297D01*
X116695019Y-130022298D01*
X116923951Y-130060500D01*
X116923952Y-130060500D01*
X117156048Y-130060500D01*
X117156049Y-130060500D01*
X117384981Y-130022298D01*
X117604503Y-129946936D01*
X117808626Y-129836470D01*
X117826796Y-129822328D01*
X117988272Y-129696647D01*
X118053266Y-129671004D01*
X118064434Y-129670500D01*
X122246958Y-129670500D01*
X122313997Y-129690185D01*
X122323120Y-129696647D01*
X122451365Y-129796464D01*
X122451371Y-129796468D01*
X122451374Y-129796470D01*
X122655497Y-129906936D01*
X122744655Y-129937544D01*
X122875015Y-129982297D01*
X122875017Y-129982297D01*
X122875019Y-129982298D01*
X123103951Y-130020500D01*
X123103952Y-130020500D01*
X123336048Y-130020500D01*
X123336049Y-130020500D01*
X123564981Y-129982298D01*
X123784503Y-129906936D01*
X123988626Y-129796470D01*
X124033984Y-129761167D01*
X124120389Y-129693915D01*
X124171784Y-129653913D01*
X124328979Y-129483153D01*
X124455924Y-129288849D01*
X124549157Y-129076300D01*
X124606134Y-128851305D01*
X124609838Y-128806606D01*
X124625300Y-128620006D01*
X124625300Y-128619993D01*
X124606135Y-128388702D01*
X124606133Y-128388691D01*
X124549157Y-128163699D01*
X124455924Y-127951151D01*
X124328983Y-127756852D01*
X124328980Y-127756849D01*
X124328979Y-127756847D01*
X124171784Y-127586087D01*
X123994180Y-127447853D01*
X123953368Y-127391143D01*
X123949693Y-127321370D01*
X123984324Y-127260687D01*
X123994181Y-127252146D01*
X123997550Y-127249524D01*
X124171784Y-127113913D01*
X124328979Y-126943153D01*
X124455924Y-126748849D01*
X124549157Y-126536300D01*
X124606134Y-126311305D01*
X124608859Y-126278417D01*
X124625300Y-126080006D01*
X124625300Y-126079993D01*
X124606135Y-125848702D01*
X124606133Y-125848691D01*
X124549157Y-125623699D01*
X124455924Y-125411151D01*
X124328983Y-125216852D01*
X124328980Y-125216849D01*
X124328979Y-125216847D01*
X124171784Y-125046087D01*
X123994180Y-124907853D01*
X123953368Y-124851143D01*
X123949693Y-124781370D01*
X123984324Y-124720687D01*
X123994181Y-124712146D01*
X124171784Y-124573913D01*
X124328979Y-124403153D01*
X124455924Y-124208849D01*
X124549157Y-123996300D01*
X124606134Y-123771305D01*
X124614680Y-123668172D01*
X124625300Y-123540006D01*
X124625300Y-123539993D01*
X124606135Y-123308702D01*
X124606133Y-123308691D01*
X124549157Y-123083699D01*
X124455924Y-122871151D01*
X124328983Y-122676852D01*
X124328980Y-122676849D01*
X124328979Y-122676847D01*
X124171784Y-122506087D01*
X123994180Y-122367853D01*
X123953368Y-122311143D01*
X123949693Y-122241370D01*
X123984324Y-122180687D01*
X123994181Y-122172146D01*
X124032846Y-122142052D01*
X124171784Y-122033913D01*
X124328979Y-121863153D01*
X124455924Y-121668849D01*
X124549157Y-121456300D01*
X124606134Y-121231305D01*
X124620328Y-121060006D01*
X124625300Y-121000006D01*
X124625300Y-120999993D01*
X124606135Y-120768702D01*
X124606133Y-120768691D01*
X124549157Y-120543699D01*
X124455924Y-120331151D01*
X124328983Y-120136852D01*
X124328980Y-120136849D01*
X124328979Y-120136847D01*
X124171784Y-119966087D01*
X123994180Y-119827853D01*
X123953368Y-119771143D01*
X123949693Y-119701370D01*
X123984324Y-119640687D01*
X123994181Y-119632146D01*
X124171784Y-119493913D01*
X124328979Y-119323153D01*
X124455924Y-119128849D01*
X124549157Y-118916300D01*
X124606134Y-118691305D01*
X124610889Y-118633920D01*
X124625300Y-118460006D01*
X124625300Y-118459993D01*
X124606135Y-118228702D01*
X124606133Y-118228691D01*
X124549157Y-118003699D01*
X124455924Y-117791151D01*
X124328983Y-117596852D01*
X124328980Y-117596849D01*
X124328979Y-117596847D01*
X124171784Y-117426087D01*
X123994180Y-117287853D01*
X123953368Y-117231143D01*
X123949693Y-117161370D01*
X123984324Y-117100687D01*
X123994181Y-117092146D01*
X124171784Y-116953913D01*
X124328979Y-116783153D01*
X124455924Y-116588849D01*
X124549157Y-116376300D01*
X124606134Y-116151305D01*
X124606135Y-116151297D01*
X124625300Y-115920006D01*
X124625300Y-115919993D01*
X124606135Y-115688702D01*
X124606133Y-115688691D01*
X124549157Y-115463699D01*
X124455924Y-115251151D01*
X124328983Y-115056852D01*
X124328980Y-115056849D01*
X124328979Y-115056847D01*
X124171784Y-114886087D01*
X124171779Y-114886083D01*
X124171777Y-114886081D01*
X123994181Y-114747852D01*
X123953368Y-114691142D01*
X123949693Y-114621369D01*
X123984325Y-114560686D01*
X123994165Y-114552158D01*
X124145660Y-114434245D01*
X124210651Y-114408605D01*
X124279191Y-114422172D01*
X124309500Y-114444420D01*
X125233181Y-115368101D01*
X125266666Y-115429424D01*
X125269500Y-115455782D01*
X125269500Y-134138544D01*
X125307947Y-134331828D01*
X125307949Y-134331836D01*
X125315238Y-134349432D01*
X125323754Y-134369992D01*
X125323754Y-134369993D01*
X125383364Y-134513907D01*
X125383371Y-134513920D01*
X125492860Y-134677781D01*
X125492863Y-134677785D01*
X125636537Y-134821459D01*
X125636559Y-134821479D01*
X128309735Y-137494655D01*
X128309764Y-137494686D01*
X128452217Y-137637139D01*
X128608340Y-137741456D01*
X128616086Y-137746632D01*
X128716965Y-137788417D01*
X128798164Y-137822051D01*
X128865777Y-137835500D01*
X128897197Y-137841750D01*
X128991456Y-137860500D01*
X128991459Y-137860500D01*
X128991460Y-137860500D01*
X129188540Y-137860500D01*
X129211042Y-137860500D01*
X129278081Y-137880185D01*
X129316571Y-137919388D01*
X129317188Y-137920388D01*
X129335638Y-137987778D01*
X129314725Y-138054445D01*
X129261090Y-138099222D01*
X129211659Y-138109500D01*
X125421578Y-138109500D01*
X125227173Y-138140290D01*
X125039969Y-138201117D01*
X124864594Y-138290476D01*
X124788992Y-138345405D01*
X124705354Y-138406172D01*
X124705352Y-138406174D01*
X124705351Y-138406174D01*
X123578345Y-139533181D01*
X123517022Y-139566666D01*
X123490664Y-139569500D01*
X120813533Y-139569500D01*
X120757238Y-139555985D01*
X120749236Y-139551908D01*
X120662711Y-139507821D01*
X120595255Y-139473450D01*
X120377748Y-139402778D01*
X120208326Y-139375944D01*
X120151854Y-139367000D01*
X119828146Y-139367000D01*
X119752849Y-139378926D01*
X119602253Y-139402778D01*
X119602250Y-139402778D01*
X119384744Y-139473450D01*
X119180961Y-139577283D01*
X119097191Y-139638146D01*
X118995934Y-139711714D01*
X118995932Y-139711716D01*
X118995931Y-139711716D01*
X118834216Y-139873431D01*
X118834216Y-139873432D01*
X118834214Y-139873434D01*
X118776480Y-139952896D01*
X118699783Y-140058461D01*
X118595950Y-140262244D01*
X118525278Y-140479750D01*
X118525278Y-140479753D01*
X118500084Y-140638824D01*
X118489500Y-140705646D01*
X118489500Y-140934354D01*
X118492508Y-140953343D01*
X118525278Y-141160246D01*
X118525278Y-141160249D01*
X118595950Y-141377755D01*
X118595952Y-141377758D01*
X118699783Y-141581538D01*
X118699787Y-141581543D01*
X118715818Y-141603608D01*
X118739298Y-141669414D01*
X118739500Y-141676493D01*
X118739500Y-144425856D01*
X118735275Y-144457949D01*
X118704366Y-144573302D01*
X118704364Y-144573313D01*
X118684532Y-144799998D01*
X118684532Y-144800001D01*
X118704364Y-145026686D01*
X118704366Y-145026697D01*
X118763258Y-145246488D01*
X118763261Y-145246497D01*
X118859431Y-145452732D01*
X118859432Y-145452734D01*
X118989954Y-145639141D01*
X119150858Y-145800045D01*
X119150861Y-145800047D01*
X119337266Y-145930568D01*
X119543504Y-146026739D01*
X119763308Y-146085635D01*
X119925230Y-146099801D01*
X119989998Y-146105468D01*
X119990000Y-146105468D01*
X119990002Y-146105468D01*
X120046673Y-146100509D01*
X120216692Y-146085635D01*
X120436496Y-146026739D01*
X120642734Y-145930568D01*
X120829139Y-145800047D01*
X120990047Y-145639139D01*
X121120568Y-145452734D01*
X121216739Y-145246496D01*
X121275635Y-145026692D01*
X121295468Y-144800000D01*
X121275635Y-144573308D01*
X121244725Y-144457949D01*
X121240500Y-144425856D01*
X121240500Y-142194500D01*
X121260185Y-142127461D01*
X121312989Y-142081706D01*
X121364500Y-142070500D01*
X124158422Y-142070500D01*
X124352826Y-142039709D01*
X124540026Y-141978884D01*
X124715405Y-141889524D01*
X124874646Y-141773828D01*
X126001655Y-140646819D01*
X126062978Y-140613334D01*
X126089336Y-140610500D01*
X129973694Y-140610500D01*
X130012012Y-140616569D01*
X130080507Y-140638824D01*
X130198757Y-140677246D01*
X130408713Y-140710500D01*
X130408714Y-140710500D01*
X130871286Y-140710500D01*
X130871287Y-140710500D01*
X131081243Y-140677246D01*
X131283412Y-140611557D01*
X131455223Y-140524014D01*
X131511518Y-140510500D01*
X133066659Y-140510500D01*
X133125676Y-140525445D01*
X133252636Y-140594152D01*
X133335190Y-140638828D01*
X133570386Y-140719571D01*
X133815665Y-140760500D01*
X134064335Y-140760500D01*
X134309614Y-140719571D01*
X134544810Y-140638828D01*
X134763509Y-140520474D01*
X134959744Y-140367738D01*
X135128164Y-140184785D01*
X135264173Y-139976607D01*
X135364063Y-139748881D01*
X135425108Y-139507821D01*
X135430791Y-139439235D01*
X135445643Y-139260005D01*
X135445643Y-139259994D01*
X135425109Y-139012187D01*
X135425107Y-139012175D01*
X135364063Y-138771118D01*
X135264173Y-138543393D01*
X135128166Y-138335217D01*
X135036909Y-138236086D01*
X134959744Y-138152262D01*
X134763509Y-137999526D01*
X134763507Y-137999525D01*
X134763506Y-137999524D01*
X134544811Y-137881172D01*
X134544802Y-137881169D01*
X134309616Y-137800429D01*
X134064335Y-137759500D01*
X133815665Y-137759500D01*
X133570383Y-137800429D01*
X133335197Y-137881169D01*
X133335183Y-137881175D01*
X133125676Y-137994555D01*
X133066659Y-138009500D01*
X132130021Y-138009500D01*
X132062982Y-137989815D01*
X132017227Y-137937011D01*
X132007283Y-137867853D01*
X132024481Y-137820405D01*
X132049814Y-137779334D01*
X132104999Y-137612797D01*
X132115500Y-137510009D01*
X132115499Y-136209992D01*
X132104999Y-136107203D01*
X132049814Y-135940666D01*
X131957712Y-135791344D01*
X131833656Y-135667288D01*
X131684334Y-135575186D01*
X131517797Y-135520001D01*
X131517795Y-135520000D01*
X131415010Y-135509500D01*
X129864998Y-135509500D01*
X129864981Y-135509501D01*
X129762203Y-135520000D01*
X129762200Y-135520001D01*
X129595668Y-135575185D01*
X129595659Y-135575189D01*
X129446828Y-135666989D01*
X129379436Y-135685429D01*
X129312772Y-135664506D01*
X129294051Y-135649131D01*
X127306819Y-133661899D01*
X127273334Y-133600576D01*
X127270500Y-133574218D01*
X127270500Y-122344782D01*
X127290185Y-122277743D01*
X127342989Y-122231988D01*
X127412147Y-122222044D01*
X127475703Y-122251069D01*
X127482181Y-122257101D01*
X129422878Y-124197799D01*
X129456363Y-124259122D01*
X129451379Y-124328814D01*
X129411470Y-124382123D01*
X129412011Y-124382807D01*
X129406343Y-124387288D01*
X129282289Y-124511342D01*
X129190187Y-124660663D01*
X129190185Y-124660668D01*
X129169813Y-124722147D01*
X129135001Y-124827203D01*
X129135001Y-124827204D01*
X129135000Y-124827204D01*
X129124500Y-124929983D01*
X129124500Y-126230001D01*
X129124501Y-126230018D01*
X129135000Y-126332796D01*
X129135001Y-126332799D01*
X129190185Y-126499331D01*
X129190187Y-126499336D01*
X129212987Y-126536300D01*
X129277198Y-126640404D01*
X129282289Y-126648657D01*
X129406344Y-126772712D01*
X129561120Y-126868178D01*
X129607845Y-126920126D01*
X129619068Y-126989088D01*
X129591224Y-127053171D01*
X129583706Y-127061398D01*
X129444889Y-127200215D01*
X129319951Y-127372179D01*
X129223444Y-127561585D01*
X129157753Y-127763760D01*
X129124500Y-127973713D01*
X129124500Y-128186286D01*
X129156559Y-128388702D01*
X129157754Y-128396243D01*
X129168298Y-128428695D01*
X129223444Y-128598414D01*
X129319951Y-128787820D01*
X129444890Y-128959786D01*
X129595213Y-129110109D01*
X129767179Y-129235048D01*
X129767181Y-129235049D01*
X129767184Y-129235051D01*
X129956588Y-129331557D01*
X130158757Y-129397246D01*
X130368713Y-129430500D01*
X130368714Y-129430500D01*
X130831286Y-129430500D01*
X130831287Y-129430500D01*
X131041243Y-129397246D01*
X131186081Y-129350185D01*
X131227988Y-129336569D01*
X131266306Y-129330500D01*
X133049002Y-129330500D01*
X133111532Y-129348861D01*
X133111981Y-129348033D01*
X133115858Y-129350131D01*
X133116041Y-129350185D01*
X133116467Y-129350460D01*
X133116486Y-129350470D01*
X133116491Y-129350474D01*
X133335190Y-129468828D01*
X133570386Y-129549571D01*
X133815665Y-129590500D01*
X134064335Y-129590500D01*
X134309614Y-129549571D01*
X134544810Y-129468828D01*
X134763509Y-129350474D01*
X134959744Y-129197738D01*
X135128164Y-129014785D01*
X135264173Y-128806607D01*
X135364063Y-128578881D01*
X135425108Y-128337821D01*
X135436222Y-128203699D01*
X135445643Y-128090005D01*
X135445643Y-128089994D01*
X135425109Y-127842187D01*
X135425107Y-127842175D01*
X135364063Y-127601118D01*
X135264173Y-127373393D01*
X135128166Y-127165217D01*
X135050333Y-127080668D01*
X134959744Y-126982262D01*
X134763509Y-126829526D01*
X134763507Y-126829525D01*
X134763506Y-126829524D01*
X134544811Y-126711172D01*
X134544802Y-126711169D01*
X134309616Y-126630429D01*
X134064335Y-126589500D01*
X133815665Y-126589500D01*
X133570383Y-126630429D01*
X133335197Y-126711169D01*
X133335188Y-126711172D01*
X133221474Y-126772712D01*
X133144154Y-126814555D01*
X133085138Y-126829500D01*
X132028341Y-126829500D01*
X131961302Y-126809815D01*
X131915547Y-126757011D01*
X131905603Y-126687853D01*
X131922802Y-126640404D01*
X132009810Y-126499340D01*
X132009814Y-126499334D01*
X132064999Y-126332797D01*
X132075500Y-126230009D01*
X132075499Y-124929992D01*
X132073237Y-124907853D01*
X132064999Y-124827203D01*
X132064998Y-124827200D01*
X132049585Y-124780687D01*
X132009814Y-124660666D01*
X131917712Y-124511344D01*
X131793656Y-124387288D01*
X131659402Y-124304480D01*
X131612679Y-124252533D01*
X131600500Y-124198942D01*
X131600500Y-123861457D01*
X131590524Y-123811308D01*
X131582567Y-123771305D01*
X131582565Y-123771297D01*
X131562053Y-123668172D01*
X131562052Y-123668165D01*
X131486632Y-123486086D01*
X131486631Y-123486085D01*
X131486628Y-123486079D01*
X131377140Y-123322219D01*
X131377137Y-123322215D01*
X128856819Y-120801897D01*
X128823334Y-120740574D01*
X128820500Y-120714216D01*
X128820500Y-112531456D01*
X128782052Y-112338170D01*
X128782051Y-112338169D01*
X128782051Y-112338165D01*
X128715711Y-112178006D01*
X128708243Y-112108538D01*
X128739518Y-112046059D01*
X128799607Y-112010407D01*
X128869432Y-112012901D01*
X128917954Y-112042874D01*
X129603181Y-112728101D01*
X129636666Y-112789424D01*
X129639500Y-112815782D01*
X129639500Y-112998942D01*
X129619815Y-113065981D01*
X129580598Y-113104479D01*
X129494209Y-113157764D01*
X129446342Y-113187289D01*
X129322289Y-113311342D01*
X129230187Y-113460663D01*
X129230186Y-113460666D01*
X129175001Y-113627203D01*
X129175001Y-113627204D01*
X129175000Y-113627204D01*
X129164500Y-113729983D01*
X129164500Y-115030001D01*
X129164501Y-115030018D01*
X129175000Y-115132796D01*
X129175001Y-115132799D01*
X129230185Y-115299331D01*
X129230187Y-115299336D01*
X129265069Y-115355888D01*
X129317198Y-115440404D01*
X129322289Y-115448657D01*
X129446344Y-115572712D01*
X129601120Y-115668178D01*
X129647845Y-115720126D01*
X129659068Y-115789088D01*
X129631224Y-115853171D01*
X129623706Y-115861398D01*
X129484889Y-116000215D01*
X129359951Y-116172179D01*
X129263444Y-116361585D01*
X129197753Y-116563760D01*
X129175044Y-116707139D01*
X129164500Y-116773713D01*
X129164500Y-116986287D01*
X129165708Y-116993913D01*
X129195666Y-117183064D01*
X129197754Y-117196243D01*
X129240517Y-117327854D01*
X129263444Y-117398414D01*
X129359951Y-117587820D01*
X129484890Y-117759786D01*
X129635213Y-117910109D01*
X129807179Y-118035048D01*
X129807181Y-118035049D01*
X129807184Y-118035051D01*
X129996588Y-118131557D01*
X130198757Y-118197246D01*
X130408713Y-118230500D01*
X130408714Y-118230500D01*
X130871286Y-118230500D01*
X130871287Y-118230500D01*
X131081243Y-118197246D01*
X131226081Y-118150185D01*
X131267988Y-118136569D01*
X131306306Y-118130500D01*
X133049002Y-118130500D01*
X133111532Y-118148861D01*
X133111981Y-118148033D01*
X133115858Y-118150131D01*
X133116041Y-118150185D01*
X133116467Y-118150460D01*
X133116486Y-118150470D01*
X133116491Y-118150474D01*
X133335190Y-118268828D01*
X133570386Y-118349571D01*
X133815665Y-118390500D01*
X134064335Y-118390500D01*
X134309614Y-118349571D01*
X134544810Y-118268828D01*
X134763509Y-118150474D01*
X134959744Y-117997738D01*
X135128164Y-117814785D01*
X135264173Y-117606607D01*
X135364063Y-117378881D01*
X135425108Y-117137821D01*
X135425578Y-117132147D01*
X135445643Y-116890005D01*
X135445643Y-116889994D01*
X135425109Y-116642187D01*
X135425107Y-116642175D01*
X135364063Y-116401118D01*
X135264173Y-116173393D01*
X135128166Y-115965217D01*
X135036668Y-115865824D01*
X134959744Y-115782262D01*
X134763509Y-115629526D01*
X134763507Y-115629525D01*
X134763506Y-115629524D01*
X134544811Y-115511172D01*
X134544802Y-115511169D01*
X134309616Y-115430429D01*
X134064335Y-115389500D01*
X133815665Y-115389500D01*
X133570383Y-115430429D01*
X133335197Y-115511169D01*
X133335188Y-115511172D01*
X133221474Y-115572712D01*
X133144154Y-115614555D01*
X133085138Y-115629500D01*
X132068341Y-115629500D01*
X132001302Y-115609815D01*
X131955547Y-115557011D01*
X131945603Y-115487853D01*
X131962802Y-115440404D01*
X132049810Y-115299340D01*
X132049814Y-115299334D01*
X132104999Y-115132797D01*
X132115500Y-115030009D01*
X132115499Y-113729992D01*
X132114836Y-113723506D01*
X132104999Y-113627203D01*
X132104998Y-113627200D01*
X132091372Y-113586080D01*
X132049814Y-113460666D01*
X131957712Y-113311344D01*
X131833656Y-113187288D01*
X131699402Y-113104480D01*
X131652679Y-113052533D01*
X131640500Y-112998942D01*
X131640500Y-112251456D01*
X131626013Y-112178630D01*
X131602051Y-112058165D01*
X131601859Y-112057702D01*
X131569467Y-111979500D01*
X131550587Y-111933918D01*
X131526635Y-111876093D01*
X131526634Y-111876092D01*
X131526632Y-111876086D01*
X131524752Y-111873272D01*
X131417139Y-111712217D01*
X131274686Y-111569764D01*
X131274655Y-111569735D01*
X127371479Y-107666559D01*
X127371459Y-107666537D01*
X127227785Y-107522863D01*
X127227781Y-107522860D01*
X127063920Y-107413371D01*
X127063907Y-107413364D01*
X126909723Y-107349500D01*
X126881837Y-107337949D01*
X126881829Y-107337947D01*
X126785188Y-107318724D01*
X126688544Y-107299500D01*
X126688541Y-107299500D01*
X124256464Y-107299500D01*
X124189425Y-107279815D01*
X124172479Y-107266728D01*
X124171792Y-107266095D01*
X124171784Y-107266087D01*
X124071269Y-107187853D01*
X123994181Y-107127853D01*
X123953368Y-107071143D01*
X123949693Y-107001370D01*
X123984325Y-106940687D01*
X123994181Y-106932146D01*
X124035494Y-106899991D01*
X124171784Y-106793913D01*
X124328979Y-106623153D01*
X124455924Y-106428849D01*
X124549157Y-106216300D01*
X124549158Y-106216297D01*
X124552258Y-106204058D01*
X124587798Y-106143902D01*
X124650219Y-106112511D01*
X124672463Y-106110500D01*
X128814218Y-106110500D01*
X128881257Y-106130185D01*
X128901898Y-106146818D01*
X129155259Y-106400180D01*
X129188744Y-106461502D01*
X129183760Y-106531194D01*
X129173117Y-106552956D01*
X129125189Y-106630659D01*
X129125186Y-106630666D01*
X129070001Y-106797203D01*
X129070001Y-106797204D01*
X129070000Y-106797204D01*
X129059500Y-106899983D01*
X129059500Y-108500001D01*
X129059501Y-108500018D01*
X129070000Y-108602796D01*
X129070001Y-108602799D01*
X129115894Y-108741294D01*
X129125186Y-108769334D01*
X129217288Y-108918656D01*
X129341344Y-109042712D01*
X129490666Y-109134814D01*
X129657203Y-109189999D01*
X129759991Y-109200500D01*
X131060008Y-109200499D01*
X131162797Y-109189999D01*
X131329334Y-109134814D01*
X131478656Y-109042712D01*
X131602712Y-108918656D01*
X131694814Y-108769334D01*
X131694814Y-108769331D01*
X131698178Y-108763879D01*
X131750126Y-108717154D01*
X131819088Y-108705931D01*
X131883170Y-108733774D01*
X131891398Y-108741294D01*
X132030213Y-108880109D01*
X132202179Y-109005048D01*
X132202181Y-109005049D01*
X132202184Y-109005051D01*
X132391588Y-109101557D01*
X132593757Y-109167246D01*
X132803713Y-109200500D01*
X132803714Y-109200500D01*
X133016286Y-109200500D01*
X133016287Y-109200500D01*
X133226243Y-109167246D01*
X133428412Y-109101557D01*
X133617816Y-109005051D01*
X133653882Y-108978848D01*
X133789786Y-108880109D01*
X133789788Y-108880106D01*
X133789792Y-108880104D01*
X133940104Y-108729792D01*
X133940106Y-108729788D01*
X133940109Y-108729786D01*
X134065048Y-108557820D01*
X134065047Y-108557820D01*
X134065051Y-108557816D01*
X134161557Y-108368412D01*
X134227246Y-108166243D01*
X134260500Y-107956287D01*
X134260500Y-107443713D01*
X134227246Y-107233757D01*
X134161557Y-107031588D01*
X134065051Y-106842184D01*
X134065049Y-106842181D01*
X134065048Y-106842179D01*
X133937241Y-106666266D01*
X133938108Y-106665635D01*
X133911641Y-106606581D01*
X133910500Y-106589800D01*
X133910500Y-105941027D01*
X133900059Y-105888541D01*
X133900059Y-105888539D01*
X133890637Y-105841174D01*
X133872051Y-105747734D01*
X133806175Y-105588695D01*
X133806175Y-105588694D01*
X133796635Y-105565661D01*
X133796628Y-105565649D01*
X133687140Y-105401789D01*
X133626693Y-105341342D01*
X133547782Y-105262431D01*
X133547781Y-105262430D01*
X130297530Y-102012180D01*
X130264046Y-101950858D01*
X130269030Y-101881166D01*
X130310902Y-101825233D01*
X130376366Y-101800816D01*
X130385212Y-101800500D01*
X131202779Y-101800500D01*
X131269818Y-101820185D01*
X131303097Y-101851615D01*
X131359892Y-101929788D01*
X131510213Y-102080109D01*
X131682179Y-102205048D01*
X131682181Y-102205049D01*
X131682184Y-102205051D01*
X131871588Y-102301557D01*
X132073757Y-102367246D01*
X132283713Y-102400500D01*
X132283714Y-102400500D01*
X132796286Y-102400500D01*
X132796287Y-102400500D01*
X133006243Y-102367246D01*
X133208412Y-102301557D01*
X133397816Y-102205051D01*
X133537549Y-102103530D01*
X133569786Y-102080109D01*
X133569788Y-102080106D01*
X133569792Y-102080104D01*
X133720104Y-101929792D01*
X133720106Y-101929788D01*
X133720109Y-101929786D01*
X133835196Y-101771380D01*
X133845051Y-101757816D01*
X133941557Y-101568412D01*
X134007246Y-101366243D01*
X134040500Y-101156287D01*
X134040500Y-100943713D01*
X134007246Y-100733757D01*
X133941557Y-100531588D01*
X133845051Y-100342184D01*
X133845049Y-100342181D01*
X133845048Y-100342179D01*
X133720109Y-100170213D01*
X133581294Y-100031398D01*
X133547809Y-99970075D01*
X133552793Y-99900383D01*
X133594665Y-99844450D01*
X133603879Y-99838178D01*
X133609331Y-99834814D01*
X133609334Y-99834814D01*
X133758656Y-99742712D01*
X133882712Y-99618656D01*
X133974814Y-99469334D01*
X134029999Y-99302797D01*
X134040500Y-99200009D01*
X134040499Y-97899992D01*
X134029999Y-97797203D01*
X133974814Y-97630666D01*
X133882712Y-97481344D01*
X133758656Y-97357288D01*
X133665888Y-97300069D01*
X133609336Y-97265187D01*
X133609331Y-97265185D01*
X133607862Y-97264698D01*
X133442797Y-97210001D01*
X133442795Y-97210000D01*
X133340016Y-97199500D01*
X133340009Y-97199500D01*
X132610571Y-97199500D01*
X132543532Y-97179815D01*
X132541681Y-97178603D01*
X132526739Y-97168619D01*
X132503914Y-97153368D01*
X132375165Y-97100038D01*
X132321836Y-97077949D01*
X132321832Y-97077948D01*
X132321828Y-97077946D01*
X132225188Y-97058724D01*
X132128544Y-97039500D01*
X132128541Y-97039500D01*
X129085782Y-97039500D01*
X129018743Y-97019815D01*
X128998101Y-97003181D01*
X126961479Y-94966559D01*
X126961459Y-94966537D01*
X126817785Y-94822863D01*
X126817781Y-94822860D01*
X126653920Y-94713371D01*
X126653907Y-94713364D01*
X126499723Y-94649500D01*
X126471837Y-94637949D01*
X126471829Y-94637947D01*
X126375188Y-94618724D01*
X126278544Y-94599500D01*
X126278541Y-94599500D01*
X124256464Y-94599500D01*
X124189425Y-94579815D01*
X124172479Y-94566728D01*
X124171792Y-94566095D01*
X124171784Y-94566087D01*
X124071269Y-94487853D01*
X123994181Y-94427853D01*
X123953368Y-94371143D01*
X123949693Y-94301370D01*
X123984325Y-94240687D01*
X123994181Y-94232146D01*
X124171784Y-94093913D01*
X124328979Y-93923153D01*
X124455924Y-93728849D01*
X124549157Y-93516300D01*
X124606134Y-93291305D01*
X124607858Y-93270500D01*
X124625300Y-93060006D01*
X124625300Y-93059993D01*
X124606135Y-92828702D01*
X124606133Y-92828691D01*
X124549157Y-92603699D01*
X124455924Y-92391151D01*
X124328983Y-92196852D01*
X124328980Y-92196849D01*
X124328979Y-92196847D01*
X124171784Y-92026087D01*
X123994180Y-91887853D01*
X123953368Y-91831143D01*
X123949693Y-91761370D01*
X123984324Y-91700687D01*
X123994181Y-91692146D01*
X124171784Y-91553913D01*
X124328979Y-91383153D01*
X124455924Y-91188849D01*
X124549157Y-90976300D01*
X124606134Y-90751305D01*
X124606135Y-90751297D01*
X124625300Y-90520006D01*
X124625300Y-90519993D01*
X124606135Y-90288702D01*
X124606133Y-90288691D01*
X124549157Y-90063699D01*
X124455924Y-89851151D01*
X124328983Y-89656852D01*
X124328980Y-89656849D01*
X124328979Y-89656847D01*
X124171784Y-89486087D01*
X124171779Y-89486083D01*
X124171777Y-89486081D01*
X123994181Y-89347852D01*
X123953368Y-89291142D01*
X123949693Y-89221369D01*
X123984325Y-89160686D01*
X123994165Y-89152158D01*
X124171784Y-89013913D01*
X124171795Y-89013900D01*
X124172479Y-89013272D01*
X124172826Y-89013100D01*
X124175831Y-89010762D01*
X124176312Y-89011380D01*
X124235133Y-88982348D01*
X124256464Y-88980500D01*
X124584218Y-88980500D01*
X124651257Y-89000185D01*
X124671899Y-89016819D01*
X128062215Y-92407137D01*
X128062219Y-92407140D01*
X128226079Y-92516628D01*
X128226085Y-92516631D01*
X128226086Y-92516632D01*
X128408165Y-92592052D01*
X128587962Y-92627816D01*
X128601455Y-92630500D01*
X128601458Y-92630501D01*
X128601460Y-92630501D01*
X128804655Y-92630501D01*
X128804675Y-92630500D01*
X131213718Y-92630500D01*
X131280757Y-92650185D01*
X131314037Y-92681616D01*
X131399892Y-92799788D01*
X131550213Y-92950109D01*
X131722179Y-93075048D01*
X131722181Y-93075049D01*
X131722184Y-93075051D01*
X131911588Y-93171557D01*
X132113757Y-93237246D01*
X132323713Y-93270500D01*
X132323714Y-93270500D01*
X132836286Y-93270500D01*
X132836287Y-93270500D01*
X133046243Y-93237246D01*
X133248412Y-93171557D01*
X133437816Y-93075051D01*
X133459789Y-93059086D01*
X133609786Y-92950109D01*
X133609788Y-92950106D01*
X133609792Y-92950104D01*
X133760104Y-92799792D01*
X133760106Y-92799788D01*
X133760109Y-92799786D01*
X133885048Y-92627820D01*
X133885047Y-92627820D01*
X133885051Y-92627816D01*
X133981557Y-92438412D01*
X134047246Y-92236243D01*
X134080500Y-92026287D01*
X134080500Y-91813713D01*
X134047246Y-91603757D01*
X133981557Y-91401588D01*
X133885051Y-91212184D01*
X133885049Y-91212181D01*
X133885048Y-91212179D01*
X133760109Y-91040213D01*
X133621294Y-90901398D01*
X133587809Y-90840075D01*
X133592793Y-90770383D01*
X133634665Y-90714450D01*
X133643879Y-90708178D01*
X133649331Y-90704814D01*
X133649334Y-90704814D01*
X133798656Y-90612712D01*
X133922712Y-90488656D01*
X134014814Y-90339334D01*
X134069999Y-90172797D01*
X134080500Y-90070009D01*
X134080499Y-88769992D01*
X134069999Y-88667203D01*
X134014814Y-88500666D01*
X133922712Y-88351344D01*
X133798656Y-88227288D01*
X133649334Y-88135186D01*
X133482797Y-88080001D01*
X133482795Y-88080000D01*
X133380010Y-88069500D01*
X131779998Y-88069500D01*
X131779981Y-88069501D01*
X131677203Y-88080000D01*
X131677200Y-88080001D01*
X131510668Y-88135185D01*
X131510663Y-88135187D01*
X131361342Y-88227289D01*
X131237287Y-88351344D01*
X131231580Y-88360598D01*
X131179632Y-88407322D01*
X131126042Y-88419500D01*
X130621302Y-88419500D01*
X130597111Y-88417117D01*
X130508545Y-88399500D01*
X130508541Y-88399500D01*
X129915783Y-88399500D01*
X129848744Y-88379815D01*
X129828102Y-88363181D01*
X126274209Y-84809289D01*
X126274206Y-84809285D01*
X126274206Y-84809286D01*
X126267139Y-84802219D01*
X126267139Y-84802218D01*
X126127782Y-84662861D01*
X126127781Y-84662860D01*
X126127780Y-84662859D01*
X125963920Y-84553371D01*
X125963907Y-84553364D01*
X125809723Y-84489500D01*
X125781837Y-84477949D01*
X125781829Y-84477947D01*
X125685188Y-84458724D01*
X125588544Y-84439500D01*
X125588541Y-84439500D01*
X124256464Y-84439500D01*
X124189425Y-84419815D01*
X124172479Y-84406728D01*
X124171794Y-84406098D01*
X124171784Y-84406087D01*
X124040025Y-84303535D01*
X123988628Y-84263531D01*
X123784504Y-84153064D01*
X123784495Y-84153061D01*
X123564984Y-84077702D01*
X123383421Y-84047405D01*
X123336049Y-84039500D01*
X123103951Y-84039500D01*
X123058164Y-84047140D01*
X122875015Y-84077702D01*
X122655504Y-84153061D01*
X122655495Y-84153064D01*
X122451371Y-84263531D01*
X122322114Y-84364136D01*
X122268216Y-84406087D01*
X122268210Y-84406092D01*
X122267521Y-84406728D01*
X122267172Y-84406899D01*
X122264170Y-84409237D01*
X122263689Y-84408619D01*
X122204867Y-84437652D01*
X122183536Y-84439500D01*
X118025891Y-84439500D01*
X117958852Y-84419815D01*
X117949729Y-84413354D01*
X117828903Y-84319312D01*
X117808626Y-84303530D01*
X117656387Y-84221142D01*
X117604504Y-84193064D01*
X117604495Y-84193061D01*
X117384984Y-84117702D01*
X117197818Y-84086470D01*
X117156049Y-84079500D01*
X116923951Y-84079500D01*
X116882182Y-84086470D01*
X116695015Y-84117702D01*
X116475504Y-84193061D01*
X116475495Y-84193064D01*
X116271371Y-84303531D01*
X116271365Y-84303535D01*
X116088222Y-84446081D01*
X116088219Y-84446084D01*
X115931016Y-84616852D01*
X115804075Y-84811151D01*
X115710842Y-85023699D01*
X115653866Y-85248691D01*
X115653864Y-85248702D01*
X115634700Y-85479993D01*
X115634700Y-85480006D01*
X115653864Y-85711297D01*
X115653866Y-85711308D01*
X115710842Y-85936300D01*
X115804075Y-86148848D01*
X115931016Y-86343147D01*
X115931019Y-86343151D01*
X115931021Y-86343153D01*
X116088216Y-86513913D01*
X116088219Y-86513915D01*
X116088222Y-86513918D01*
X116265818Y-86652147D01*
X116306631Y-86708857D01*
X116310306Y-86778630D01*
X116275674Y-86839313D01*
X116265818Y-86847853D01*
X116088222Y-86986081D01*
X116088219Y-86986084D01*
X115931016Y-87156852D01*
X115804075Y-87351151D01*
X115710842Y-87563699D01*
X115653866Y-87788691D01*
X115653864Y-87788702D01*
X115634700Y-88019993D01*
X115634700Y-88020006D01*
X115653864Y-88251297D01*
X115653866Y-88251308D01*
X115710842Y-88476300D01*
X115804075Y-88688848D01*
X115931016Y-88883147D01*
X115931019Y-88883151D01*
X115931021Y-88883153D01*
X116088216Y-89053913D01*
X116088219Y-89053915D01*
X116088222Y-89053918D01*
X116265818Y-89192147D01*
X116306631Y-89248857D01*
X116310306Y-89318630D01*
X116275674Y-89379313D01*
X116265818Y-89387853D01*
X116088222Y-89526081D01*
X116088219Y-89526084D01*
X116088216Y-89526086D01*
X116088216Y-89526087D01*
X116085090Y-89529483D01*
X115931016Y-89696852D01*
X115804075Y-89891151D01*
X115710842Y-90103699D01*
X115653866Y-90328691D01*
X115653864Y-90328702D01*
X115634700Y-90559993D01*
X115634700Y-90560006D01*
X115653864Y-90791297D01*
X115653866Y-90791308D01*
X115710842Y-91016300D01*
X115804075Y-91228848D01*
X115931016Y-91423147D01*
X115931019Y-91423151D01*
X115931021Y-91423153D01*
X116088216Y-91593913D01*
X116088219Y-91593915D01*
X116088222Y-91593918D01*
X116265818Y-91732147D01*
X116306631Y-91788857D01*
X116310306Y-91858630D01*
X116275674Y-91919313D01*
X116265818Y-91927853D01*
X116088222Y-92066081D01*
X116088219Y-92066084D01*
X116088216Y-92066086D01*
X116088216Y-92066087D01*
X116085090Y-92069483D01*
X115931016Y-92236852D01*
X115804075Y-92431151D01*
X115710842Y-92643699D01*
X115653866Y-92868691D01*
X115653864Y-92868702D01*
X115634700Y-93099993D01*
X115634700Y-93100006D01*
X115653864Y-93331297D01*
X115653866Y-93331308D01*
X115710842Y-93556300D01*
X115804075Y-93768848D01*
X115931016Y-93963147D01*
X115931019Y-93963151D01*
X115931021Y-93963153D01*
X116088216Y-94133913D01*
X116088219Y-94133915D01*
X116088222Y-94133918D01*
X116265818Y-94272147D01*
X116306631Y-94328857D01*
X116310306Y-94398630D01*
X116275674Y-94459313D01*
X116265818Y-94467853D01*
X116088222Y-94606081D01*
X116088219Y-94606084D01*
X116088216Y-94606086D01*
X116088216Y-94606087D01*
X116085090Y-94609483D01*
X115931016Y-94776852D01*
X115804075Y-94971151D01*
X115710842Y-95183699D01*
X115653866Y-95408691D01*
X115653864Y-95408702D01*
X115634700Y-95639993D01*
X115634700Y-95640006D01*
X115653864Y-95871297D01*
X115653866Y-95871308D01*
X115710842Y-96096300D01*
X115804075Y-96308848D01*
X115931016Y-96503147D01*
X115931019Y-96503151D01*
X115931021Y-96503153D01*
X116088216Y-96673913D01*
X116088219Y-96673915D01*
X116088222Y-96673918D01*
X116271365Y-96816464D01*
X116271371Y-96816468D01*
X116271374Y-96816470D01*
X116475497Y-96926936D01*
X116578500Y-96962297D01*
X116695015Y-97002297D01*
X116695017Y-97002297D01*
X116695019Y-97002298D01*
X116923951Y-97040500D01*
X116923952Y-97040500D01*
X117156048Y-97040500D01*
X117156049Y-97040500D01*
X117384981Y-97002298D01*
X117604503Y-96926936D01*
X117808626Y-96816470D01*
X117841752Y-96790687D01*
X117988272Y-96676647D01*
X118053266Y-96651004D01*
X118064434Y-96650500D01*
X122246958Y-96650500D01*
X122313997Y-96670185D01*
X122323120Y-96676647D01*
X122451365Y-96776464D01*
X122451371Y-96776468D01*
X122451374Y-96776470D01*
X122655497Y-96886936D01*
X122755139Y-96921143D01*
X122875015Y-96962297D01*
X122875017Y-96962297D01*
X122875019Y-96962298D01*
X123103951Y-97000500D01*
X123103952Y-97000500D01*
X123336048Y-97000500D01*
X123336049Y-97000500D01*
X123564981Y-96962298D01*
X123784503Y-96886936D01*
X123988626Y-96776470D01*
X124171784Y-96633913D01*
X124171800Y-96633895D01*
X124172479Y-96633272D01*
X124172827Y-96633100D01*
X124175830Y-96630763D01*
X124176310Y-96631380D01*
X124235133Y-96602348D01*
X124256464Y-96600500D01*
X125714218Y-96600500D01*
X125781257Y-96620185D01*
X125801899Y-96636819D01*
X127839735Y-98674655D01*
X127839764Y-98674686D01*
X127982217Y-98817139D01*
X128104863Y-98899088D01*
X128146086Y-98926632D01*
X128146088Y-98926633D01*
X128146092Y-98926635D01*
X128203120Y-98950256D01*
X128268022Y-98977139D01*
X128328164Y-99002051D01*
X128424812Y-99021275D01*
X128473135Y-99030887D01*
X128521458Y-99040500D01*
X128521459Y-99040500D01*
X128521460Y-99040500D01*
X128718540Y-99040500D01*
X130915501Y-99040500D01*
X130982540Y-99060185D01*
X131028295Y-99112989D01*
X131039501Y-99164500D01*
X131039501Y-99200018D01*
X131050000Y-99302796D01*
X131050001Y-99302799D01*
X131105185Y-99469331D01*
X131105189Y-99469340D01*
X131192198Y-99610404D01*
X131210638Y-99677796D01*
X131189715Y-99744459D01*
X131136073Y-99789229D01*
X131086659Y-99799500D01*
X124367402Y-99799500D01*
X124300363Y-99779815D01*
X124276172Y-99759483D01*
X124239655Y-99719815D01*
X124171784Y-99646087D01*
X124171783Y-99646086D01*
X124171781Y-99646084D01*
X124171777Y-99646081D01*
X123988634Y-99503535D01*
X123988628Y-99503531D01*
X123784504Y-99393064D01*
X123784495Y-99393061D01*
X123564984Y-99317702D01*
X123352103Y-99282179D01*
X123336049Y-99279500D01*
X123103951Y-99279500D01*
X123087897Y-99282179D01*
X122875015Y-99317702D01*
X122655504Y-99393061D01*
X122655495Y-99393064D01*
X122451371Y-99503531D01*
X122368731Y-99567853D01*
X122268216Y-99646087D01*
X122228266Y-99689484D01*
X122168381Y-99725473D01*
X122137038Y-99729500D01*
X118086140Y-99729500D01*
X118019101Y-99709815D01*
X117994907Y-99689479D01*
X117991790Y-99686093D01*
X117991777Y-99686081D01*
X117808634Y-99543535D01*
X117808628Y-99543531D01*
X117604504Y-99433064D01*
X117604495Y-99433061D01*
X117384984Y-99357702D01*
X117197818Y-99326470D01*
X117156049Y-99319500D01*
X116923951Y-99319500D01*
X116882182Y-99326470D01*
X116695015Y-99357702D01*
X116475504Y-99433061D01*
X116475495Y-99433064D01*
X116271371Y-99543531D01*
X116271365Y-99543535D01*
X116088222Y-99686081D01*
X116088219Y-99686084D01*
X116088216Y-99686086D01*
X116088216Y-99686087D01*
X116085090Y-99689483D01*
X115931016Y-99856852D01*
X115804075Y-100051151D01*
X115710842Y-100263699D01*
X115653866Y-100488691D01*
X115653864Y-100488702D01*
X115634700Y-100719993D01*
X115634700Y-100720006D01*
X115653864Y-100951297D01*
X115653866Y-100951308D01*
X115710842Y-101176300D01*
X115804075Y-101388848D01*
X115931016Y-101583147D01*
X115931019Y-101583151D01*
X115931021Y-101583153D01*
X116088216Y-101753913D01*
X116088219Y-101753915D01*
X116088222Y-101753918D01*
X116265818Y-101892147D01*
X116306631Y-101948857D01*
X116310306Y-102018630D01*
X116275674Y-102079313D01*
X116265818Y-102087853D01*
X116088222Y-102226081D01*
X116088219Y-102226084D01*
X116088216Y-102226086D01*
X116088216Y-102226087D01*
X116085090Y-102229483D01*
X115931016Y-102396852D01*
X115804075Y-102591151D01*
X115710842Y-102803699D01*
X115653866Y-103028691D01*
X115653864Y-103028702D01*
X115634700Y-103259993D01*
X115634700Y-103260006D01*
X115653864Y-103491297D01*
X115653866Y-103491308D01*
X115710842Y-103716300D01*
X115804075Y-103928848D01*
X115931016Y-104123147D01*
X115931019Y-104123151D01*
X115931021Y-104123153D01*
X116088216Y-104293913D01*
X116088219Y-104293915D01*
X116088222Y-104293918D01*
X116265818Y-104432147D01*
X116306631Y-104488857D01*
X116310306Y-104558630D01*
X116275674Y-104619313D01*
X116265818Y-104627853D01*
X116088222Y-104766081D01*
X116088219Y-104766084D01*
X116088216Y-104766086D01*
X116088216Y-104766087D01*
X116085090Y-104769483D01*
X115931016Y-104936852D01*
X115804075Y-105131151D01*
X115710842Y-105343699D01*
X115653866Y-105568691D01*
X115653864Y-105568702D01*
X115634700Y-105799993D01*
X115634700Y-105800006D01*
X115653864Y-106031297D01*
X115653866Y-106031308D01*
X115710842Y-106256300D01*
X115804075Y-106468848D01*
X115931016Y-106663147D01*
X115931019Y-106663151D01*
X115931021Y-106663153D01*
X116088216Y-106833913D01*
X116088219Y-106833915D01*
X116088222Y-106833918D01*
X116265818Y-106972147D01*
X116306631Y-107028857D01*
X116310306Y-107098630D01*
X116275674Y-107159313D01*
X116265818Y-107167853D01*
X116088222Y-107306081D01*
X116088219Y-107306084D01*
X116088216Y-107306086D01*
X116088216Y-107306087D01*
X116066816Y-107329334D01*
X115931016Y-107476852D01*
X115804075Y-107671151D01*
X115710842Y-107883699D01*
X115653866Y-108108691D01*
X115653864Y-108108702D01*
X115634700Y-108339993D01*
X115634700Y-108340006D01*
X115653864Y-108571297D01*
X115653866Y-108571308D01*
X115710842Y-108796300D01*
X115804075Y-109008848D01*
X115931016Y-109203147D01*
X115931019Y-109203151D01*
X115931021Y-109203153D01*
X116088216Y-109373913D01*
X116088219Y-109373915D01*
X116088222Y-109373918D01*
X116265818Y-109512147D01*
X116306631Y-109568857D01*
X116310306Y-109638630D01*
X116275674Y-109699313D01*
X116265818Y-109707853D01*
X116088222Y-109846081D01*
X116088219Y-109846084D01*
X116088216Y-109846086D01*
X116088216Y-109846087D01*
X116064315Y-109872051D01*
X115931016Y-110016852D01*
X115804075Y-110211151D01*
X115710842Y-110423699D01*
X115653866Y-110648691D01*
X115653864Y-110648702D01*
X115634700Y-110879993D01*
X115634700Y-110880006D01*
X115653864Y-111111297D01*
X115653866Y-111111308D01*
X115710842Y-111336300D01*
X115804075Y-111548848D01*
X115931016Y-111743147D01*
X115931019Y-111743151D01*
X115931021Y-111743153D01*
X116088216Y-111913913D01*
X116088219Y-111913915D01*
X116088222Y-111913918D01*
X116265818Y-112052147D01*
X116306631Y-112108857D01*
X116310306Y-112178630D01*
X116275674Y-112239313D01*
X116265818Y-112247853D01*
X116088222Y-112386081D01*
X116088219Y-112386084D01*
X116088216Y-112386086D01*
X116088216Y-112386087D01*
X116085090Y-112389483D01*
X115931016Y-112556852D01*
X115804075Y-112751151D01*
X115710842Y-112963699D01*
X115653866Y-113188691D01*
X115653864Y-113188702D01*
X115634700Y-113419993D01*
X115634700Y-113420006D01*
X115653864Y-113651297D01*
X115653866Y-113651308D01*
X115710842Y-113876300D01*
X115804075Y-114088848D01*
X115931016Y-114283147D01*
X115931019Y-114283151D01*
X115931021Y-114283153D01*
X116088216Y-114453913D01*
X116088219Y-114453915D01*
X116088222Y-114453918D01*
X116265818Y-114592147D01*
X116306631Y-114648857D01*
X116310306Y-114718630D01*
X116275674Y-114779313D01*
X116265818Y-114787853D01*
X116088222Y-114926081D01*
X116088219Y-114926084D01*
X116088216Y-114926086D01*
X116088216Y-114926087D01*
X116085090Y-114929483D01*
X115931016Y-115096852D01*
X115804075Y-115291151D01*
X115710842Y-115503699D01*
X115653866Y-115728691D01*
X115653864Y-115728702D01*
X115634700Y-115959993D01*
X115634700Y-115960006D01*
X115653864Y-116191297D01*
X115653866Y-116191308D01*
X115710842Y-116416300D01*
X115804075Y-116628848D01*
X115931016Y-116823147D01*
X115931019Y-116823151D01*
X115931021Y-116823153D01*
X116088216Y-116993913D01*
X116088219Y-116993915D01*
X116088222Y-116993918D01*
X116265818Y-117132147D01*
X116306631Y-117188857D01*
X116310306Y-117258630D01*
X116275674Y-117319313D01*
X116265818Y-117327853D01*
X116088222Y-117466081D01*
X116088219Y-117466084D01*
X116088216Y-117466086D01*
X116088216Y-117466087D01*
X116085090Y-117469483D01*
X115931016Y-117636852D01*
X115804075Y-117831151D01*
X115710842Y-118043699D01*
X115653866Y-118268691D01*
X115653864Y-118268702D01*
X115634700Y-118499993D01*
X115634700Y-118500006D01*
X115653864Y-118731297D01*
X115653866Y-118731308D01*
X115710842Y-118956300D01*
X115804075Y-119168848D01*
X115931016Y-119363147D01*
X115931019Y-119363151D01*
X115931021Y-119363153D01*
X116088216Y-119533913D01*
X116088219Y-119533915D01*
X116088222Y-119533918D01*
X116265818Y-119672147D01*
X116306631Y-119728857D01*
X116310306Y-119798630D01*
X116275674Y-119859313D01*
X116265818Y-119867853D01*
X116088222Y-120006081D01*
X116088219Y-120006084D01*
X116088216Y-120006086D01*
X116088216Y-120006087D01*
X116085090Y-120009483D01*
X115931016Y-120176852D01*
X115804075Y-120371151D01*
X115710842Y-120583699D01*
X115653866Y-120808691D01*
X115653864Y-120808702D01*
X115634700Y-121039993D01*
X115634700Y-121040006D01*
X115653864Y-121271297D01*
X115653866Y-121271308D01*
X115710842Y-121496300D01*
X115804075Y-121708848D01*
X115931016Y-121903147D01*
X115931019Y-121903151D01*
X115931021Y-121903153D01*
X116088216Y-122073913D01*
X116088219Y-122073915D01*
X116088222Y-122073918D01*
X116265818Y-122212147D01*
X116306631Y-122268857D01*
X116310306Y-122338630D01*
X116275674Y-122399313D01*
X116265818Y-122407853D01*
X116088222Y-122546081D01*
X116088219Y-122546084D01*
X116088216Y-122546086D01*
X116088216Y-122546087D01*
X116085090Y-122549483D01*
X115931016Y-122716852D01*
X115804075Y-122911151D01*
X115710842Y-123123699D01*
X115653866Y-123348691D01*
X115653864Y-123348702D01*
X115634700Y-123579993D01*
X115634700Y-123580006D01*
X115653864Y-123811297D01*
X115653866Y-123811308D01*
X115710842Y-124036300D01*
X115804075Y-124248848D01*
X115931016Y-124443147D01*
X115931019Y-124443151D01*
X115931021Y-124443153D01*
X116088216Y-124613913D01*
X116088219Y-124613915D01*
X116088222Y-124613918D01*
X116265818Y-124752147D01*
X116306631Y-124808857D01*
X116310306Y-124878630D01*
X116275674Y-124939313D01*
X116265818Y-124947853D01*
X116088222Y-125086081D01*
X116088219Y-125086084D01*
X116088216Y-125086086D01*
X116088216Y-125086087D01*
X116085090Y-125089483D01*
X115931016Y-125256852D01*
X115804075Y-125451151D01*
X115710842Y-125663699D01*
X115653866Y-125888691D01*
X115653864Y-125888702D01*
X115634700Y-126119993D01*
X115634700Y-126120006D01*
X115653864Y-126351297D01*
X115653866Y-126351308D01*
X115710842Y-126576300D01*
X115804075Y-126788848D01*
X115931016Y-126983147D01*
X115931019Y-126983151D01*
X115931021Y-126983153D01*
X116088216Y-127153913D01*
X116088219Y-127153915D01*
X116088222Y-127153918D01*
X116265818Y-127292147D01*
X116306631Y-127348857D01*
X116310306Y-127418630D01*
X116275674Y-127479313D01*
X116265818Y-127487853D01*
X116088222Y-127626081D01*
X116088219Y-127626084D01*
X116088216Y-127626086D01*
X116088216Y-127626087D01*
X116085090Y-127629483D01*
X115931016Y-127796852D01*
X115804075Y-127991151D01*
X115710842Y-128203699D01*
X115653866Y-128428691D01*
X115653864Y-128428702D01*
X115634700Y-128659993D01*
X115634700Y-128660006D01*
X110290500Y-128660006D01*
X110290500Y-125561456D01*
X110272749Y-125472221D01*
X110272749Y-125472216D01*
X110252053Y-125368172D01*
X110252052Y-125368165D01*
X110204501Y-125253368D01*
X110184952Y-125206172D01*
X110176635Y-125186092D01*
X110176628Y-125186079D01*
X110067140Y-125022219D01*
X109999371Y-124954450D01*
X109927782Y-124882861D01*
X109927781Y-124882860D01*
X102826819Y-117781898D01*
X102793334Y-117720575D01*
X102790500Y-117694217D01*
X102790500Y-90901456D01*
X102776743Y-90832299D01*
X102776743Y-90832298D01*
X102752052Y-90708165D01*
X102708389Y-90602754D01*
X102696445Y-90573918D01*
X102676633Y-90526088D01*
X102676628Y-90526079D01*
X102567140Y-90362219D01*
X102503612Y-90298691D01*
X102427782Y-90222861D01*
X102427781Y-90222860D01*
X96016208Y-83811288D01*
X130919500Y-83811288D01*
X130950584Y-84047405D01*
X130951162Y-84051789D01*
X130972694Y-84132145D01*
X131013947Y-84286104D01*
X131093411Y-84477947D01*
X131106776Y-84510212D01*
X131228064Y-84720289D01*
X131228066Y-84720292D01*
X131228067Y-84720293D01*
X131375733Y-84912736D01*
X131375739Y-84912743D01*
X131547256Y-85084260D01*
X131547262Y-85084265D01*
X131739711Y-85231936D01*
X131949788Y-85353224D01*
X132173900Y-85446054D01*
X132408211Y-85508838D01*
X132588586Y-85532584D01*
X132648711Y-85540500D01*
X132648712Y-85540500D01*
X132891289Y-85540500D01*
X132939388Y-85534167D01*
X133131789Y-85508838D01*
X133366100Y-85446054D01*
X133590212Y-85353224D01*
X133800289Y-85231936D01*
X133992738Y-85084265D01*
X134164265Y-84912738D01*
X134311936Y-84720289D01*
X134433224Y-84510212D01*
X134526054Y-84286100D01*
X134588838Y-84051789D01*
X134620500Y-83811288D01*
X134620500Y-83568712D01*
X134617744Y-83547781D01*
X134612584Y-83508586D01*
X134588838Y-83328211D01*
X134526054Y-83093900D01*
X134433224Y-82869788D01*
X134311936Y-82659711D01*
X134164265Y-82467262D01*
X134164260Y-82467256D01*
X133992743Y-82295739D01*
X133992736Y-82295733D01*
X133800293Y-82148067D01*
X133800292Y-82148066D01*
X133800289Y-82148064D01*
X133590212Y-82026776D01*
X133581992Y-82023371D01*
X133366104Y-81933947D01*
X133131785Y-81871161D01*
X132891289Y-81839500D01*
X132891288Y-81839500D01*
X132648712Y-81839500D01*
X132648711Y-81839500D01*
X132408214Y-81871161D01*
X132173895Y-81933947D01*
X131949794Y-82026773D01*
X131949785Y-82026777D01*
X131739706Y-82148067D01*
X131547263Y-82295733D01*
X131547256Y-82295739D01*
X131375739Y-82467256D01*
X131375733Y-82467263D01*
X131228067Y-82659706D01*
X131106777Y-82869785D01*
X131106773Y-82869794D01*
X131013947Y-83093895D01*
X130951161Y-83328214D01*
X130919500Y-83568711D01*
X130919500Y-83811288D01*
X96016208Y-83811288D01*
X94484208Y-82279288D01*
X94484206Y-82279285D01*
X94484206Y-82279286D01*
X94477139Y-82272219D01*
X94477139Y-82272218D01*
X94337782Y-82132861D01*
X94337781Y-82132860D01*
X94337780Y-82132859D01*
X94173920Y-82023371D01*
X94173907Y-82023364D01*
X94019723Y-81959500D01*
X93991837Y-81947949D01*
X93991829Y-81947947D01*
X93895188Y-81928724D01*
X93798544Y-81909500D01*
X93798541Y-81909500D01*
X93486464Y-81909500D01*
X93419425Y-81889815D01*
X93402479Y-81876728D01*
X93401794Y-81876098D01*
X93401784Y-81876087D01*
X93272524Y-81775480D01*
X93218628Y-81733531D01*
X93014504Y-81623064D01*
X93014495Y-81623061D01*
X92794984Y-81547702D01*
X92623282Y-81519050D01*
X92566049Y-81509500D01*
X92333951Y-81509500D01*
X92288164Y-81517140D01*
X92105015Y-81547702D01*
X91885504Y-81623061D01*
X91885495Y-81623064D01*
X91681371Y-81733531D01*
X91617132Y-81783531D01*
X91498216Y-81876087D01*
X91458266Y-81919484D01*
X91398381Y-81955473D01*
X91367038Y-81959500D01*
X87156464Y-81959500D01*
X87089425Y-81939815D01*
X87072479Y-81926728D01*
X87071794Y-81926098D01*
X87071784Y-81926087D01*
X86942524Y-81825480D01*
X86888628Y-81783531D01*
X86684504Y-81673064D01*
X86684495Y-81673061D01*
X86464984Y-81597702D01*
X86293282Y-81569050D01*
X86236049Y-81559500D01*
X86003951Y-81559500D01*
X85958164Y-81567140D01*
X85775015Y-81597702D01*
X85555504Y-81673061D01*
X85555495Y-81673064D01*
X85351371Y-81783531D01*
X85232456Y-81876087D01*
X85168216Y-81926087D01*
X85168210Y-81926092D01*
X85167521Y-81926728D01*
X85167172Y-81926899D01*
X85164170Y-81929237D01*
X85163689Y-81928619D01*
X85104867Y-81957652D01*
X85083536Y-81959500D01*
X83771455Y-81959500D01*
X83674812Y-81978724D01*
X83578167Y-81997947D01*
X83578161Y-81997949D01*
X83524834Y-82020037D01*
X83524834Y-82020038D01*
X83508565Y-82026777D01*
X83396084Y-82073368D01*
X83396083Y-82073368D01*
X83273045Y-82155579D01*
X83273046Y-82155580D01*
X83232218Y-82182859D01*
X83232215Y-82182862D01*
X82321184Y-83093895D01*
X82292220Y-83122859D01*
X82292218Y-83122861D01*
X82222538Y-83192540D01*
X82152859Y-83262219D01*
X82043371Y-83426080D01*
X82043366Y-83426089D01*
X81992961Y-83547780D01*
X81967949Y-83608163D01*
X81967947Y-83608170D01*
X81952240Y-83687138D01*
X81952240Y-83687139D01*
X81929500Y-83801456D01*
X81929500Y-88415500D01*
X81909815Y-88482539D01*
X81857011Y-88528294D01*
X81805500Y-88539500D01*
X81246140Y-88539500D01*
X81179101Y-88519815D01*
X81154907Y-88499479D01*
X81151790Y-88496093D01*
X81151777Y-88496081D01*
X80968634Y-88353535D01*
X80968628Y-88353531D01*
X80764504Y-88243064D01*
X80764495Y-88243061D01*
X80544984Y-88167702D01*
X80350117Y-88135185D01*
X80316049Y-88129500D01*
X80083951Y-88129500D01*
X80049883Y-88135185D01*
X79855015Y-88167702D01*
X79635504Y-88243061D01*
X79635495Y-88243064D01*
X79431371Y-88353531D01*
X79431365Y-88353535D01*
X79315968Y-88443353D01*
X79250974Y-88468996D01*
X79239806Y-88469500D01*
X76786464Y-88469500D01*
X76719425Y-88449815D01*
X76702479Y-88436728D01*
X76701794Y-88436098D01*
X76701784Y-88436087D01*
X76572524Y-88335480D01*
X76518628Y-88293531D01*
X76314504Y-88183064D01*
X76314495Y-88183061D01*
X76094984Y-88107702D01*
X75923282Y-88079050D01*
X75866049Y-88069500D01*
X75633951Y-88069500D01*
X75588164Y-88077140D01*
X75405015Y-88107702D01*
X75185504Y-88183061D01*
X75185495Y-88183064D01*
X74981371Y-88293531D01*
X74981365Y-88293535D01*
X74798222Y-88436081D01*
X74798219Y-88436084D01*
X74798216Y-88436086D01*
X74798216Y-88436087D01*
X74755454Y-88482539D01*
X74641016Y-88606852D01*
X74514075Y-88801151D01*
X74420842Y-89013699D01*
X74363866Y-89238691D01*
X74363864Y-89238702D01*
X74344700Y-89469993D01*
X74344700Y-89470006D01*
X74363864Y-89701297D01*
X74363866Y-89701308D01*
X74420842Y-89926300D01*
X74514075Y-90138848D01*
X74641016Y-90333147D01*
X74641019Y-90333151D01*
X74641021Y-90333153D01*
X74798216Y-90503913D01*
X74798219Y-90503915D01*
X74798222Y-90503918D01*
X74981365Y-90646464D01*
X74981371Y-90646468D01*
X74981374Y-90646470D01*
X75185497Y-90756936D01*
X75285619Y-90791308D01*
X75405015Y-90832297D01*
X75405017Y-90832297D01*
X75405019Y-90832298D01*
X75633951Y-90870500D01*
X75633952Y-90870500D01*
X75866048Y-90870500D01*
X75866049Y-90870500D01*
X76094981Y-90832298D01*
X76314503Y-90756936D01*
X76518626Y-90646470D01*
X76701784Y-90503913D01*
X76701800Y-90503895D01*
X76702479Y-90503272D01*
X76702827Y-90503100D01*
X76705830Y-90500763D01*
X76706310Y-90501380D01*
X76765133Y-90472348D01*
X76786464Y-90470500D01*
X79107832Y-90470500D01*
X79174871Y-90490185D01*
X79199061Y-90510516D01*
X79244619Y-90560006D01*
X79248218Y-90563915D01*
X79248222Y-90563918D01*
X79431365Y-90706464D01*
X79431371Y-90706468D01*
X79431374Y-90706470D01*
X79635497Y-90816936D01*
X79702899Y-90840075D01*
X79855015Y-90892297D01*
X79855017Y-90892297D01*
X79855019Y-90892298D01*
X80083951Y-90930500D01*
X80083952Y-90930500D01*
X80316048Y-90930500D01*
X80316049Y-90930500D01*
X80544981Y-90892298D01*
X80764503Y-90816936D01*
X80968626Y-90706470D01*
X80970754Y-90704814D01*
X81148272Y-90566647D01*
X81213266Y-90541004D01*
X81224434Y-90540500D01*
X81893536Y-90540500D01*
X81960575Y-90560185D01*
X81977521Y-90573272D01*
X81978204Y-90573901D01*
X81978216Y-90573913D01*
X82071438Y-90646470D01*
X82158778Y-90714450D01*
X82161374Y-90716470D01*
X82365497Y-90826936D01*
X82403770Y-90840075D01*
X82585015Y-90902297D01*
X82585017Y-90902297D01*
X82585019Y-90902298D01*
X82813951Y-90940500D01*
X82813952Y-90940500D01*
X83046048Y-90940500D01*
X83046049Y-90940500D01*
X83274981Y-90902298D01*
X83494503Y-90826936D01*
X83698626Y-90716470D01*
X83701222Y-90714450D01*
X83788570Y-90646464D01*
X83881784Y-90573913D01*
X84038979Y-90403153D01*
X84165924Y-90208849D01*
X84259157Y-89996300D01*
X84316134Y-89771305D01*
X84320646Y-89716852D01*
X84335300Y-89540006D01*
X84335300Y-89539993D01*
X84316135Y-89308702D01*
X84316133Y-89308691D01*
X84259157Y-89083699D01*
X84165924Y-88871151D01*
X84038979Y-88676846D01*
X84038977Y-88676844D01*
X83963270Y-88594603D01*
X83932348Y-88531948D01*
X83930500Y-88510621D01*
X83930500Y-84365782D01*
X83950185Y-84298743D01*
X83966819Y-84278101D01*
X84248102Y-83996819D01*
X84309425Y-83963334D01*
X84335783Y-83960500D01*
X85083536Y-83960500D01*
X85150575Y-83980185D01*
X85167521Y-83993272D01*
X85168207Y-83993903D01*
X85168216Y-83993913D01*
X85250013Y-84057578D01*
X85345818Y-84132146D01*
X85386631Y-84188856D01*
X85390306Y-84258629D01*
X85355674Y-84319312D01*
X85345819Y-84327852D01*
X85168218Y-84466085D01*
X85011016Y-84636852D01*
X84884075Y-84831151D01*
X84790842Y-85043699D01*
X84733866Y-85268691D01*
X84733864Y-85268702D01*
X84714700Y-85499993D01*
X84714700Y-85500006D01*
X84733864Y-85731297D01*
X84733866Y-85731308D01*
X84790842Y-85956300D01*
X84884075Y-86168848D01*
X85011016Y-86363147D01*
X85011019Y-86363151D01*
X85011021Y-86363153D01*
X85168216Y-86533913D01*
X85168219Y-86533915D01*
X85168222Y-86533918D01*
X85345818Y-86672147D01*
X85386631Y-86728857D01*
X85390306Y-86798630D01*
X85355674Y-86859313D01*
X85345818Y-86867853D01*
X85168222Y-87006081D01*
X85168219Y-87006084D01*
X85168216Y-87006086D01*
X85168216Y-87006087D01*
X85137457Y-87039500D01*
X85011016Y-87176852D01*
X84884075Y-87371151D01*
X84790842Y-87583699D01*
X84733866Y-87808691D01*
X84733864Y-87808702D01*
X84714700Y-88039993D01*
X84714700Y-88040006D01*
X84733864Y-88271297D01*
X84733866Y-88271308D01*
X84790842Y-88496300D01*
X84884075Y-88708848D01*
X85011016Y-88903147D01*
X85011019Y-88903151D01*
X85011021Y-88903153D01*
X85168216Y-89073913D01*
X85168219Y-89073915D01*
X85168222Y-89073918D01*
X85345818Y-89212147D01*
X85386631Y-89268857D01*
X85390306Y-89338630D01*
X85355674Y-89399313D01*
X85345818Y-89407853D01*
X85168222Y-89546081D01*
X85168219Y-89546084D01*
X85168216Y-89546086D01*
X85168216Y-89546087D01*
X85137457Y-89579500D01*
X85011016Y-89716852D01*
X84884075Y-89911151D01*
X84790842Y-90123699D01*
X84733866Y-90348691D01*
X84733864Y-90348702D01*
X84714700Y-90579993D01*
X84714700Y-90580006D01*
X84733864Y-90811297D01*
X84733866Y-90811308D01*
X84790842Y-91036300D01*
X84884075Y-91248848D01*
X85011016Y-91443147D01*
X85011019Y-91443151D01*
X85011021Y-91443153D01*
X85168216Y-91613913D01*
X85168219Y-91613915D01*
X85168222Y-91613918D01*
X85345818Y-91752147D01*
X85386631Y-91808857D01*
X85390306Y-91878630D01*
X85355674Y-91939313D01*
X85345818Y-91947853D01*
X85168222Y-92086081D01*
X85168219Y-92086084D01*
X85168216Y-92086086D01*
X85168216Y-92086087D01*
X85137457Y-92119500D01*
X85011016Y-92256852D01*
X84884075Y-92451151D01*
X84790842Y-92663699D01*
X84733866Y-92888691D01*
X84733864Y-92888702D01*
X84714700Y-93119993D01*
X84714700Y-93120006D01*
X84733864Y-93351297D01*
X84733866Y-93351308D01*
X84790842Y-93576300D01*
X84884075Y-93788848D01*
X85011016Y-93983147D01*
X85011019Y-93983151D01*
X85011021Y-93983153D01*
X85168216Y-94153913D01*
X85168219Y-94153915D01*
X85168222Y-94153918D01*
X85345818Y-94292147D01*
X85386631Y-94348857D01*
X85390306Y-94418630D01*
X85355674Y-94479313D01*
X85345818Y-94487853D01*
X85168222Y-94626081D01*
X85168219Y-94626084D01*
X85168216Y-94626086D01*
X85168216Y-94626087D01*
X85137457Y-94659500D01*
X85011016Y-94796852D01*
X84884075Y-94991151D01*
X84790842Y-95203699D01*
X84733866Y-95428691D01*
X84733864Y-95428702D01*
X84714700Y-95659993D01*
X84714700Y-95660006D01*
X84733864Y-95891297D01*
X84733866Y-95891308D01*
X84790842Y-96116300D01*
X84884075Y-96328848D01*
X85011016Y-96523147D01*
X85011019Y-96523151D01*
X85011021Y-96523153D01*
X85168216Y-96693913D01*
X85168219Y-96693915D01*
X85168222Y-96693918D01*
X85345818Y-96832147D01*
X85386631Y-96888857D01*
X85390306Y-96958630D01*
X85355674Y-97019313D01*
X85345819Y-97027853D01*
X85281460Y-97077946D01*
X85168216Y-97166087D01*
X85168210Y-97166092D01*
X85167521Y-97166728D01*
X85167172Y-97166899D01*
X85164170Y-97169237D01*
X85163689Y-97168619D01*
X85104867Y-97197652D01*
X85083536Y-97199500D01*
X82195783Y-97199500D01*
X82128744Y-97179815D01*
X82108102Y-97163181D01*
X81804209Y-96859289D01*
X81804206Y-96859285D01*
X81804206Y-96859286D01*
X81797139Y-96852219D01*
X81797139Y-96852218D01*
X81657782Y-96712861D01*
X81657781Y-96712860D01*
X81657780Y-96712859D01*
X81493920Y-96603371D01*
X81493907Y-96603364D01*
X81332799Y-96536632D01*
X81311839Y-96527950D01*
X81311829Y-96527947D01*
X81187178Y-96503153D01*
X81118543Y-96489500D01*
X81118541Y-96489500D01*
X78953958Y-96489500D01*
X78886919Y-96469815D01*
X78848420Y-96430598D01*
X78842712Y-96421344D01*
X78718657Y-96297289D01*
X78718656Y-96297288D01*
X78569334Y-96205186D01*
X78402797Y-96150001D01*
X78402795Y-96150000D01*
X78300010Y-96139500D01*
X76699998Y-96139500D01*
X76699981Y-96139501D01*
X76597203Y-96150000D01*
X76597200Y-96150001D01*
X76430668Y-96205185D01*
X76430663Y-96205187D01*
X76281342Y-96297289D01*
X76157289Y-96421342D01*
X76065187Y-96570663D01*
X76065185Y-96570668D01*
X76048777Y-96620185D01*
X76010001Y-96737203D01*
X76010001Y-96737204D01*
X76010000Y-96737204D01*
X75999500Y-96839983D01*
X75999500Y-98140001D01*
X75999501Y-98140018D01*
X76010000Y-98242796D01*
X76010001Y-98242799D01*
X76055895Y-98381297D01*
X76065186Y-98409334D01*
X76157287Y-98558655D01*
X76157289Y-98558657D01*
X76281344Y-98682712D01*
X76436120Y-98778178D01*
X76482845Y-98830126D01*
X76494068Y-98899088D01*
X76466224Y-98963171D01*
X76458706Y-98971398D01*
X76319889Y-99110215D01*
X76194951Y-99282179D01*
X76098444Y-99471585D01*
X76032753Y-99673760D01*
X75999500Y-99883713D01*
X75999500Y-100096286D01*
X76026015Y-100263699D01*
X76032754Y-100306243D01*
X76092035Y-100488691D01*
X76098444Y-100508414D01*
X76194951Y-100697820D01*
X76319890Y-100869786D01*
X76470213Y-101020109D01*
X76642179Y-101145048D01*
X76642181Y-101145049D01*
X76642184Y-101145051D01*
X76831588Y-101241557D01*
X77033757Y-101307246D01*
X77243713Y-101340500D01*
X77243714Y-101340500D01*
X77756286Y-101340500D01*
X77756287Y-101340500D01*
X77966243Y-101307246D01*
X78168412Y-101241557D01*
X78357816Y-101145051D01*
X78372769Y-101134186D01*
X78533734Y-101017241D01*
X78534364Y-101018108D01*
X78593419Y-100991641D01*
X78610200Y-100990500D01*
X80764218Y-100990500D01*
X80831257Y-101010185D01*
X80851899Y-101026819D01*
X81199735Y-101374655D01*
X81199764Y-101374686D01*
X81342214Y-101517136D01*
X81342218Y-101517139D01*
X81506079Y-101626628D01*
X81506092Y-101626635D01*
X81634833Y-101679961D01*
X81688159Y-101702049D01*
X81688164Y-101702051D01*
X81780913Y-101720500D01*
X81798071Y-101723913D01*
X81881456Y-101740500D01*
X81881459Y-101740500D01*
X81881460Y-101740500D01*
X82078540Y-101740500D01*
X85083536Y-101740500D01*
X85150575Y-101760185D01*
X85167521Y-101773272D01*
X85168204Y-101773901D01*
X85168216Y-101773913D01*
X85274286Y-101856470D01*
X85345819Y-101912147D01*
X85386632Y-101968857D01*
X85390306Y-102038630D01*
X85355674Y-102099313D01*
X85345819Y-102107853D01*
X85252809Y-102180245D01*
X85168216Y-102246087D01*
X85168210Y-102246092D01*
X85167521Y-102246728D01*
X85167172Y-102246899D01*
X85164170Y-102249237D01*
X85163689Y-102248619D01*
X85104867Y-102277652D01*
X85083536Y-102279500D01*
X80531456Y-102279500D01*
X80338171Y-102317946D01*
X80338167Y-102317948D01*
X80338165Y-102317948D01*
X80338164Y-102317949D01*
X80262745Y-102349188D01*
X80262743Y-102349189D01*
X80156089Y-102393366D01*
X80156079Y-102393371D01*
X80037116Y-102472861D01*
X80037115Y-102472861D01*
X79992222Y-102502857D01*
X79992214Y-102502863D01*
X77471897Y-105023181D01*
X77410574Y-105056666D01*
X77384216Y-105059500D01*
X76699998Y-105059500D01*
X76699980Y-105059501D01*
X76597203Y-105070000D01*
X76597200Y-105070001D01*
X76430668Y-105125185D01*
X76430663Y-105125187D01*
X76281342Y-105217289D01*
X76157289Y-105341342D01*
X76065187Y-105490663D01*
X76065186Y-105490666D01*
X76010001Y-105657203D01*
X76010001Y-105657204D01*
X76010000Y-105657204D01*
X75999500Y-105759983D01*
X75999500Y-107060001D01*
X75999501Y-107060018D01*
X76010000Y-107162796D01*
X76010001Y-107162799D01*
X76065185Y-107329331D01*
X76065187Y-107329336D01*
X76083792Y-107359500D01*
X76156175Y-107476852D01*
X76157289Y-107478657D01*
X76281344Y-107602712D01*
X76436120Y-107698178D01*
X76482845Y-107750126D01*
X76494068Y-107819088D01*
X76466224Y-107883171D01*
X76458706Y-107891398D01*
X76319889Y-108030215D01*
X76194951Y-108202179D01*
X76098444Y-108391585D01*
X76032753Y-108593760D01*
X75999500Y-108803713D01*
X75999500Y-109016286D01*
X76028676Y-109200500D01*
X76032754Y-109226243D01*
X76087235Y-109393918D01*
X76098444Y-109428414D01*
X76194951Y-109617820D01*
X76319890Y-109789786D01*
X76470213Y-109940109D01*
X76642179Y-110065048D01*
X76642181Y-110065049D01*
X76642184Y-110065051D01*
X76831588Y-110161557D01*
X77033757Y-110227246D01*
X77243713Y-110260500D01*
X77243714Y-110260500D01*
X77756286Y-110260500D01*
X77756287Y-110260500D01*
X77966243Y-110227246D01*
X78168412Y-110161557D01*
X78357816Y-110065051D01*
X78428948Y-110013371D01*
X78533734Y-109937241D01*
X78534364Y-109938108D01*
X78593419Y-109911641D01*
X78610200Y-109910500D01*
X78668543Y-109910500D01*
X78794359Y-109885473D01*
X78824387Y-109879500D01*
X78861836Y-109872051D01*
X78924518Y-109846087D01*
X79043914Y-109796632D01*
X79207782Y-109687139D01*
X79347139Y-109547782D01*
X79347140Y-109547780D01*
X79354206Y-109540714D01*
X79354208Y-109540710D01*
X82038101Y-106856819D01*
X82099424Y-106823334D01*
X82125782Y-106820500D01*
X85083536Y-106820500D01*
X85150575Y-106840185D01*
X85167521Y-106853272D01*
X85168204Y-106853901D01*
X85168216Y-106853913D01*
X85274286Y-106936470D01*
X85345819Y-106992147D01*
X85386632Y-107048857D01*
X85390306Y-107118630D01*
X85355674Y-107179313D01*
X85345819Y-107187853D01*
X85286842Y-107233757D01*
X85168216Y-107326087D01*
X85168210Y-107326092D01*
X85167521Y-107326728D01*
X85167172Y-107326899D01*
X85164170Y-107329237D01*
X85163689Y-107328619D01*
X85104867Y-107357652D01*
X85083536Y-107359500D01*
X83141457Y-107359500D01*
X83078362Y-107372051D01*
X83078361Y-107372051D01*
X82948167Y-107397947D01*
X82948159Y-107397950D01*
X82894834Y-107420037D01*
X82894834Y-107420038D01*
X82849315Y-107438892D01*
X82766089Y-107473366D01*
X82766079Y-107473371D01*
X82632150Y-107562861D01*
X82632149Y-107562862D01*
X82602215Y-107582862D01*
X82602214Y-107582863D01*
X78324894Y-111860185D01*
X76902220Y-113282859D01*
X76902218Y-113282861D01*
X76832538Y-113352540D01*
X76762859Y-113422219D01*
X76653371Y-113586080D01*
X76653366Y-113586089D01*
X76618156Y-113671096D01*
X76574315Y-113725499D01*
X76542601Y-113741348D01*
X76470671Y-113765184D01*
X76470663Y-113765187D01*
X76321342Y-113857289D01*
X76197289Y-113981342D01*
X76105187Y-114130663D01*
X76105185Y-114130668D01*
X76102701Y-114138165D01*
X76050001Y-114297203D01*
X76050001Y-114297204D01*
X76050000Y-114297204D01*
X76039500Y-114399983D01*
X76039500Y-115700001D01*
X76039501Y-115700018D01*
X76050000Y-115802796D01*
X76050001Y-115802799D01*
X76105185Y-115969331D01*
X76105187Y-115969336D01*
X76197289Y-116118657D01*
X76321344Y-116242712D01*
X76476120Y-116338178D01*
X76522845Y-116390126D01*
X76534068Y-116459088D01*
X76506224Y-116523171D01*
X76498706Y-116531398D01*
X76359889Y-116670215D01*
X76234951Y-116842179D01*
X76138444Y-117031585D01*
X76072753Y-117233760D01*
X76039500Y-117443713D01*
X76039500Y-117656286D01*
X76060860Y-117791151D01*
X76072754Y-117866243D01*
X76131188Y-118046085D01*
X76138444Y-118068414D01*
X76234951Y-118257820D01*
X76359890Y-118429786D01*
X76510213Y-118580109D01*
X76682179Y-118705048D01*
X76682181Y-118705049D01*
X76682184Y-118705051D01*
X76871588Y-118801557D01*
X77073757Y-118867246D01*
X77283713Y-118900500D01*
X77283714Y-118900500D01*
X77796286Y-118900500D01*
X77796287Y-118900500D01*
X78006243Y-118867246D01*
X78208412Y-118801557D01*
X78397816Y-118705051D01*
X78416747Y-118691297D01*
X78573734Y-118577241D01*
X78574364Y-118578108D01*
X78633419Y-118551641D01*
X78650200Y-118550500D01*
X79048542Y-118550500D01*
X79067870Y-118546655D01*
X79145188Y-118531275D01*
X79241836Y-118512051D01*
X79295165Y-118489961D01*
X79423914Y-118436632D01*
X79587782Y-118327139D01*
X79727139Y-118187782D01*
X79727140Y-118187779D01*
X79734206Y-118180714D01*
X79734209Y-118180710D01*
X81167819Y-116747100D01*
X81229142Y-116713615D01*
X81298834Y-116718599D01*
X81354767Y-116760471D01*
X81379184Y-116825935D01*
X81379500Y-116834781D01*
X81379500Y-117464217D01*
X81359815Y-117531256D01*
X81343181Y-117551898D01*
X79338260Y-119556819D01*
X77302221Y-121592858D01*
X77302218Y-121592861D01*
X77232538Y-121662540D01*
X77162859Y-121732219D01*
X77053371Y-121896080D01*
X77053364Y-121896093D01*
X77010119Y-122000499D01*
X77010119Y-122000500D01*
X76977949Y-122078162D01*
X76975443Y-122090763D01*
X76965241Y-122142051D01*
X76958805Y-122174403D01*
X76939500Y-122271456D01*
X76939500Y-122278942D01*
X76919815Y-122345981D01*
X76880598Y-122384479D01*
X76810279Y-122427853D01*
X76746342Y-122467289D01*
X76622289Y-122591342D01*
X76530187Y-122740663D01*
X76530186Y-122740666D01*
X76475001Y-122907203D01*
X76475001Y-122907204D01*
X76475000Y-122907204D01*
X76464500Y-123009983D01*
X76464500Y-124310001D01*
X76464501Y-124310018D01*
X76475000Y-124412796D01*
X76475001Y-124412799D01*
X76530185Y-124579331D01*
X76530189Y-124579340D01*
X76617198Y-124720404D01*
X76635638Y-124787796D01*
X76614715Y-124854459D01*
X76561073Y-124899229D01*
X76511659Y-124909500D01*
X73761578Y-124909500D01*
X73567172Y-124940291D01*
X73506348Y-124960053D01*
X73506348Y-124960054D01*
X73482346Y-124967853D01*
X73379970Y-125001117D01*
X73291714Y-125046087D01*
X73204594Y-125090476D01*
X73134507Y-125141398D01*
X73045354Y-125206172D01*
X73045352Y-125206174D01*
X73045351Y-125206174D01*
X72886174Y-125365351D01*
X72886174Y-125365352D01*
X72886172Y-125365354D01*
X72845633Y-125421151D01*
X72770476Y-125524594D01*
X72681117Y-125699969D01*
X72620290Y-125887173D01*
X72589500Y-126081577D01*
X72589500Y-126278422D01*
X72180500Y-126278422D01*
X72180500Y-83811288D01*
X74869500Y-83811288D01*
X74900584Y-84047405D01*
X74901162Y-84051789D01*
X74922694Y-84132145D01*
X74963947Y-84286104D01*
X75043411Y-84477947D01*
X75056776Y-84510212D01*
X75178064Y-84720289D01*
X75178066Y-84720292D01*
X75178067Y-84720293D01*
X75325733Y-84912736D01*
X75325739Y-84912743D01*
X75497256Y-85084260D01*
X75497262Y-85084265D01*
X75689711Y-85231936D01*
X75899788Y-85353224D01*
X76123900Y-85446054D01*
X76358211Y-85508838D01*
X76538586Y-85532584D01*
X76598711Y-85540500D01*
X76598712Y-85540500D01*
X76841289Y-85540500D01*
X76889388Y-85534167D01*
X77081789Y-85508838D01*
X77316100Y-85446054D01*
X77540212Y-85353224D01*
X77750289Y-85231936D01*
X77942738Y-85084265D01*
X78114265Y-84912738D01*
X78261936Y-84720289D01*
X78383224Y-84510212D01*
X78476054Y-84286100D01*
X78538838Y-84051789D01*
X78570500Y-83811288D01*
X78570500Y-83568712D01*
X78567744Y-83547781D01*
X78562584Y-83508586D01*
X78538838Y-83328211D01*
X78476054Y-83093900D01*
X78383224Y-82869788D01*
X78261936Y-82659711D01*
X78114265Y-82467262D01*
X78114260Y-82467256D01*
X77942743Y-82295739D01*
X77942736Y-82295733D01*
X77750293Y-82148067D01*
X77750292Y-82148066D01*
X77750289Y-82148064D01*
X77540212Y-82026776D01*
X77531992Y-82023371D01*
X77316104Y-81933947D01*
X77081785Y-81871161D01*
X76841289Y-81839500D01*
X76841288Y-81839500D01*
X76598712Y-81839500D01*
X76598711Y-81839500D01*
X76358214Y-81871161D01*
X76123895Y-81933947D01*
X75899794Y-82026773D01*
X75899785Y-82026777D01*
X75689706Y-82148067D01*
X75497263Y-82295733D01*
X75497256Y-82295739D01*
X75325739Y-82467256D01*
X75325733Y-82467263D01*
X75178067Y-82659706D01*
X75056777Y-82869785D01*
X75056773Y-82869794D01*
X74963947Y-83093895D01*
X74901161Y-83328214D01*
X74869500Y-83568711D01*
X74869500Y-83811288D01*
X72180500Y-83811288D01*
X72180500Y-80974500D01*
X72200185Y-80907461D01*
X72252989Y-80861706D01*
X72304500Y-80850500D01*
X135985500Y-80850500D01*
X136052539Y-80870185D01*
G37*
%TD.AperFunction*%
%TD*%
M02*
