%TF.GenerationSoftware,KiCad,Pcbnew,8.0.1*%
%TF.CreationDate,2025-03-07T15:45:46+02:00*%
%TF.ProjectId,robosoccer 3,726f626f-736f-4636-9365-7220332e6b69,rev?*%
%TF.SameCoordinates,Original*%
%TF.FileFunction,Drillmap*%
%TF.FilePolarity,Positive*%
%FSLAX45Y45*%
G04 Gerber Fmt 4.5, Leading zero omitted, Abs format (unit mm)*
G04 Created by KiCad (PCBNEW 8.0.1) date 2025-03-07 15:45:46*
%MOMM*%
%LPD*%
G01*
G04 APERTURE LIST*
%ADD10C,0.050000*%
%ADD11C,0.200000*%
%ADD12C,0.100000*%
%ADD13C,0.110000*%
%ADD14C,0.130000*%
G04 APERTURE END LIST*
D10*
X7168000Y-8035000D02*
X13661000Y-8035000D01*
X13661000Y-16898000D01*
X7168000Y-16898000D01*
X7168000Y-8035000D01*
D11*
D12*
X7354000Y-12588000D02*
X7414000Y-12648000D01*
X7414000Y-12588000D02*
X7354000Y-12648000D01*
X7366000Y-13739000D02*
X7426000Y-13799000D01*
X7426000Y-13739000D02*
X7366000Y-13799000D01*
X7615000Y-8947000D02*
G75*
G02*
X7535000Y-8947000I-40000J0D01*
G01*
X7535000Y-8947000D02*
G75*
G02*
X7615000Y-8947000I40000J0D01*
G01*
X7615000Y-9197000D02*
G75*
G02*
X7535000Y-9197000I-40000J0D01*
G01*
X7535000Y-9197000D02*
G75*
G02*
X7615000Y-9197000I40000J0D01*
G01*
X8060000Y-8953000D02*
G75*
G02*
X7980000Y-8953000I-40000J0D01*
G01*
X7980000Y-8953000D02*
G75*
G02*
X8060000Y-8953000I40000J0D01*
G01*
X8060000Y-9203000D02*
G75*
G02*
X7980000Y-9203000I-40000J0D01*
G01*
X7980000Y-9203000D02*
G75*
G02*
X8060000Y-9203000I40000J0D01*
G01*
X8333000Y-8954000D02*
G75*
G02*
X8253000Y-8954000I-40000J0D01*
G01*
X8253000Y-8954000D02*
G75*
G02*
X8333000Y-8954000I40000J0D01*
G01*
X8333000Y-9204000D02*
G75*
G02*
X8253000Y-9204000I-40000J0D01*
G01*
X8253000Y-9204000D02*
G75*
G02*
X8333000Y-9204000I40000J0D01*
G01*
X8545000Y-13502000D02*
G75*
G02*
X8465000Y-13502000I-40000J0D01*
G01*
X8465000Y-13502000D02*
G75*
G02*
X8545000Y-13502000I40000J0D01*
G01*
X8795000Y-13502000D02*
G75*
G02*
X8715000Y-13502000I-40000J0D01*
G01*
X8715000Y-13502000D02*
G75*
G02*
X8795000Y-13502000I40000J0D01*
G01*
X9044000Y-13234000D02*
G75*
G02*
X8964000Y-13234000I-40000J0D01*
G01*
X8964000Y-13234000D02*
G75*
G02*
X9044000Y-13234000I40000J0D01*
G01*
X9049000Y-13499000D02*
G75*
G02*
X8969000Y-13499000I-40000J0D01*
G01*
X8969000Y-13499000D02*
G75*
G02*
X9049000Y-13499000I40000J0D01*
G01*
X9286000Y-13977000D02*
G75*
G02*
X9206000Y-13977000I-40000J0D01*
G01*
X9206000Y-13977000D02*
G75*
G02*
X9286000Y-13977000I40000J0D01*
G01*
X9294000Y-13234000D02*
G75*
G02*
X9214000Y-13234000I-40000J0D01*
G01*
X9214000Y-13234000D02*
G75*
G02*
X9294000Y-13234000I40000J0D01*
G01*
X9294000Y-14222000D02*
G75*
G02*
X9214000Y-14222000I-40000J0D01*
G01*
X9214000Y-14222000D02*
G75*
G02*
X9294000Y-14222000I40000J0D01*
G01*
X9294000Y-14472000D02*
G75*
G02*
X9214000Y-14472000I-40000J0D01*
G01*
X9214000Y-14472000D02*
G75*
G02*
X9294000Y-14472000I40000J0D01*
G01*
X9299000Y-13499000D02*
G75*
G02*
X9219000Y-13499000I-40000J0D01*
G01*
X9219000Y-13499000D02*
G75*
G02*
X9299000Y-13499000I40000J0D01*
G01*
X9536000Y-13977000D02*
G75*
G02*
X9456000Y-13977000I-40000J0D01*
G01*
X9456000Y-13977000D02*
G75*
G02*
X9536000Y-13977000I40000J0D01*
G01*
X9771000Y-13341000D02*
G75*
G02*
X9691000Y-13341000I-40000J0D01*
G01*
X9691000Y-13341000D02*
G75*
G02*
X9771000Y-13341000I40000J0D01*
G01*
X9771000Y-13591000D02*
G75*
G02*
X9691000Y-13591000I-40000J0D01*
G01*
X9691000Y-13591000D02*
G75*
G02*
X9771000Y-13591000I40000J0D01*
G01*
X10362000Y-13665000D02*
G75*
G02*
X10282000Y-13665000I-40000J0D01*
G01*
X10282000Y-13665000D02*
G75*
G02*
X10362000Y-13665000I40000J0D01*
G01*
X10612000Y-13665000D02*
G75*
G02*
X10532000Y-13665000I-40000J0D01*
G01*
X10532000Y-13665000D02*
G75*
G02*
X10612000Y-13665000I40000J0D01*
G01*
X11789000Y-14480000D02*
G75*
G02*
X11709000Y-14480000I-40000J0D01*
G01*
X11709000Y-14480000D02*
G75*
G02*
X11789000Y-14480000I40000J0D01*
G01*
X12029000Y-13183000D02*
G75*
G02*
X11949000Y-13183000I-40000J0D01*
G01*
X11949000Y-13183000D02*
G75*
G02*
X12029000Y-13183000I40000J0D01*
G01*
X12039000Y-14480000D02*
G75*
G02*
X11959000Y-14480000I-40000J0D01*
G01*
X11959000Y-14480000D02*
G75*
G02*
X12039000Y-14480000I40000J0D01*
G01*
X12279000Y-13183000D02*
G75*
G02*
X12199000Y-13183000I-40000J0D01*
G01*
X12199000Y-13183000D02*
G75*
G02*
X12279000Y-13183000I40000J0D01*
G01*
X7790000Y-13454500D02*
X7790000Y-13549500D01*
X7742500Y-13502000D02*
X7837500Y-13502000D01*
X7790000Y-13704500D02*
X7790000Y-13799500D01*
X7742500Y-13752000D02*
X7837500Y-13752000D01*
X7790000Y-13954500D02*
X7790000Y-14049500D01*
X7742500Y-14002000D02*
X7837500Y-14002000D01*
X7794000Y-12318500D02*
X7794000Y-12413500D01*
X7746500Y-12366000D02*
X7841500Y-12366000D01*
X7794000Y-12568500D02*
X7794000Y-12663500D01*
X7746500Y-12616000D02*
X7841500Y-12616000D01*
X7794000Y-12818500D02*
X7794000Y-12913500D01*
X7746500Y-12866000D02*
X7841500Y-12866000D01*
X13060000Y-12510500D02*
X13060000Y-12605500D01*
X13012500Y-12558000D02*
X13107500Y-12558000D01*
X13060000Y-12760500D02*
X13060000Y-12855500D01*
X13012500Y-12808000D02*
X13107500Y-12808000D01*
X13060000Y-13010500D02*
X13060000Y-13105500D01*
X13012500Y-13058000D02*
X13107500Y-13058000D01*
X13064000Y-11390500D02*
X13064000Y-11485500D01*
X13016500Y-11438000D02*
X13111500Y-11438000D01*
X13064000Y-11640500D02*
X13064000Y-11735500D01*
X13016500Y-11688000D02*
X13111500Y-11688000D01*
X13064000Y-11890500D02*
X13064000Y-11985500D01*
X13016500Y-11938000D02*
X13111500Y-11938000D01*
X13064000Y-13638500D02*
X13064000Y-13733500D01*
X13016500Y-13686000D02*
X13111500Y-13686000D01*
X13064000Y-13888500D02*
X13064000Y-13983500D01*
X13016500Y-13936000D02*
X13111500Y-13936000D01*
X13064000Y-14138500D02*
X13064000Y-14233500D01*
X13016500Y-14186000D02*
X13111500Y-14186000D01*
X13429356Y-11724356D02*
X13429356Y-11653644D01*
X13358644Y-11653644D01*
X13358644Y-11724356D01*
X13429356Y-11724356D01*
X13429356Y-12844356D02*
X13429356Y-12773644D01*
X13358644Y-12773644D01*
X13358644Y-12844356D01*
X13429356Y-12844356D01*
X13429356Y-13961356D02*
X13429356Y-13890644D01*
X13358644Y-13890644D01*
X13358644Y-13961356D01*
X13429356Y-13961356D01*
X7608000Y-14654000D02*
X7658000Y-14604000D01*
X7608000Y-14554000D01*
X7558000Y-14604000D01*
X7608000Y-14654000D01*
X7750000Y-9799000D02*
X7800000Y-9749000D01*
X7750000Y-9699000D01*
X7700000Y-9749000D01*
X7750000Y-9799000D01*
X7750000Y-10049000D02*
X7800000Y-9999000D01*
X7750000Y-9949000D01*
X7700000Y-9999000D01*
X7750000Y-10049000D01*
X7750000Y-10691000D02*
X7800000Y-10641000D01*
X7750000Y-10591000D01*
X7700000Y-10641000D01*
X7750000Y-10691000D01*
X7750000Y-10941000D02*
X7800000Y-10891000D01*
X7750000Y-10841000D01*
X7700000Y-10891000D01*
X7750000Y-10941000D01*
X7754000Y-11555000D02*
X7804000Y-11505000D01*
X7754000Y-11455000D01*
X7704000Y-11505000D01*
X7754000Y-11555000D01*
X7754000Y-11805000D02*
X7804000Y-11755000D01*
X7754000Y-11705000D01*
X7704000Y-11755000D01*
X7754000Y-11805000D01*
X7858000Y-14654000D02*
X7908000Y-14604000D01*
X7858000Y-14554000D01*
X7808000Y-14604000D01*
X7858000Y-14654000D01*
X8612000Y-8346000D02*
X8662000Y-8296000D01*
X8612000Y-8246000D01*
X8562000Y-8296000D01*
X8612000Y-8346000D01*
X8612000Y-8600000D02*
X8662000Y-8550000D01*
X8612000Y-8500000D01*
X8562000Y-8550000D01*
X8612000Y-8600000D01*
X8612000Y-8854000D02*
X8662000Y-8804000D01*
X8612000Y-8754000D01*
X8562000Y-8804000D01*
X8612000Y-8854000D01*
X8612000Y-9108000D02*
X8662000Y-9058000D01*
X8612000Y-9008000D01*
X8562000Y-9058000D01*
X8612000Y-9108000D01*
X8612000Y-9362000D02*
X8662000Y-9312000D01*
X8612000Y-9262000D01*
X8562000Y-9312000D01*
X8612000Y-9362000D01*
X8612000Y-9616000D02*
X8662000Y-9566000D01*
X8612000Y-9516000D01*
X8562000Y-9566000D01*
X8612000Y-9616000D01*
X8612000Y-9870000D02*
X8662000Y-9820000D01*
X8612000Y-9770000D01*
X8562000Y-9820000D01*
X8612000Y-9870000D01*
X8612000Y-10124000D02*
X8662000Y-10074000D01*
X8612000Y-10024000D01*
X8562000Y-10074000D01*
X8612000Y-10124000D01*
X8612000Y-10378000D02*
X8662000Y-10328000D01*
X8612000Y-10278000D01*
X8562000Y-10328000D01*
X8612000Y-10378000D01*
X8612000Y-10632000D02*
X8662000Y-10582000D01*
X8612000Y-10532000D01*
X8562000Y-10582000D01*
X8612000Y-10632000D01*
X8612000Y-10886000D02*
X8662000Y-10836000D01*
X8612000Y-10786000D01*
X8562000Y-10836000D01*
X8612000Y-10886000D01*
X8612000Y-11140000D02*
X8662000Y-11090000D01*
X8612000Y-11040000D01*
X8562000Y-11090000D01*
X8612000Y-11140000D01*
X8612000Y-11394000D02*
X8662000Y-11344000D01*
X8612000Y-11294000D01*
X8562000Y-11344000D01*
X8612000Y-11394000D01*
X8612000Y-11648000D02*
X8662000Y-11598000D01*
X8612000Y-11548000D01*
X8562000Y-11598000D01*
X8612000Y-11648000D01*
X8612000Y-11902000D02*
X8662000Y-11852000D01*
X8612000Y-11802000D01*
X8562000Y-11852000D01*
X8612000Y-11902000D01*
X8612000Y-12156000D02*
X8662000Y-12106000D01*
X8612000Y-12056000D01*
X8562000Y-12106000D01*
X8612000Y-12156000D01*
X8612000Y-12410000D02*
X8662000Y-12360000D01*
X8612000Y-12310000D01*
X8562000Y-12360000D01*
X8612000Y-12410000D01*
X8612000Y-12664000D02*
X8662000Y-12614000D01*
X8612000Y-12564000D01*
X8562000Y-12614000D01*
X8612000Y-12664000D01*
X8612000Y-12918000D02*
X8662000Y-12868000D01*
X8612000Y-12818000D01*
X8562000Y-12868000D01*
X8612000Y-12918000D01*
X8934000Y-15232000D02*
X8984000Y-15182000D01*
X8934000Y-15132000D01*
X8884000Y-15182000D01*
X8934000Y-15232000D01*
X8934000Y-15482000D02*
X8984000Y-15432000D01*
X8934000Y-15382000D01*
X8884000Y-15432000D01*
X8934000Y-15482000D01*
X9245000Y-8341000D02*
X9295000Y-8291000D01*
X9245000Y-8241000D01*
X9195000Y-8291000D01*
X9245000Y-8341000D01*
X9245000Y-8595000D02*
X9295000Y-8545000D01*
X9245000Y-8495000D01*
X9195000Y-8545000D01*
X9245000Y-8595000D01*
X9245000Y-8849000D02*
X9295000Y-8799000D01*
X9245000Y-8749000D01*
X9195000Y-8799000D01*
X9245000Y-8849000D01*
X9245000Y-9103000D02*
X9295000Y-9053000D01*
X9245000Y-9003000D01*
X9195000Y-9053000D01*
X9245000Y-9103000D01*
X9245000Y-9357000D02*
X9295000Y-9307000D01*
X9245000Y-9257000D01*
X9195000Y-9307000D01*
X9245000Y-9357000D01*
X9245000Y-9611000D02*
X9295000Y-9561000D01*
X9245000Y-9511000D01*
X9195000Y-9561000D01*
X9245000Y-9611000D01*
X9245000Y-9865000D02*
X9295000Y-9815000D01*
X9245000Y-9765000D01*
X9195000Y-9815000D01*
X9245000Y-9865000D01*
X9245000Y-10119000D02*
X9295000Y-10069000D01*
X9245000Y-10019000D01*
X9195000Y-10069000D01*
X9245000Y-10119000D01*
X9245000Y-10373000D02*
X9295000Y-10323000D01*
X9245000Y-10273000D01*
X9195000Y-10323000D01*
X9245000Y-10373000D01*
X9245000Y-10627000D02*
X9295000Y-10577000D01*
X9245000Y-10527000D01*
X9195000Y-10577000D01*
X9245000Y-10627000D01*
X9245000Y-10881000D02*
X9295000Y-10831000D01*
X9245000Y-10781000D01*
X9195000Y-10831000D01*
X9245000Y-10881000D01*
X9245000Y-11135000D02*
X9295000Y-11085000D01*
X9245000Y-11035000D01*
X9195000Y-11085000D01*
X9245000Y-11135000D01*
X9245000Y-11389000D02*
X9295000Y-11339000D01*
X9245000Y-11289000D01*
X9195000Y-11339000D01*
X9245000Y-11389000D01*
X9245000Y-11643000D02*
X9295000Y-11593000D01*
X9245000Y-11543000D01*
X9195000Y-11593000D01*
X9245000Y-11643000D01*
X9245000Y-11897000D02*
X9295000Y-11847000D01*
X9245000Y-11797000D01*
X9195000Y-11847000D01*
X9245000Y-11897000D01*
X9245000Y-12151000D02*
X9295000Y-12101000D01*
X9245000Y-12051000D01*
X9195000Y-12101000D01*
X9245000Y-12151000D01*
X9245000Y-12405000D02*
X9295000Y-12355000D01*
X9245000Y-12305000D01*
X9195000Y-12355000D01*
X9245000Y-12405000D01*
X9245000Y-12659000D02*
X9295000Y-12609000D01*
X9245000Y-12559000D01*
X9195000Y-12609000D01*
X9245000Y-12659000D01*
X9245000Y-12913000D02*
X9295000Y-12863000D01*
X9245000Y-12813000D01*
X9195000Y-12863000D01*
X9245000Y-12913000D01*
X9938000Y-15116000D02*
X9988000Y-15066000D01*
X9938000Y-15016000D01*
X9888000Y-15066000D01*
X9938000Y-15116000D01*
X10188000Y-15116000D02*
X10238000Y-15066000D01*
X10188000Y-15016000D01*
X10138000Y-15066000D01*
X10188000Y-15116000D01*
X10927000Y-13312000D02*
X10977000Y-13262000D01*
X10927000Y-13212000D01*
X10877000Y-13262000D01*
X10927000Y-13312000D01*
X11177000Y-13312000D02*
X11227000Y-13262000D01*
X11177000Y-13212000D01*
X11127000Y-13262000D01*
X11177000Y-13312000D01*
X11704000Y-8344000D02*
X11754000Y-8294000D01*
X11704000Y-8244000D01*
X11654000Y-8294000D01*
X11704000Y-8344000D01*
X11704000Y-8598000D02*
X11754000Y-8548000D01*
X11704000Y-8498000D01*
X11654000Y-8548000D01*
X11704000Y-8598000D01*
X11704000Y-8852000D02*
X11754000Y-8802000D01*
X11704000Y-8752000D01*
X11654000Y-8802000D01*
X11704000Y-8852000D01*
X11704000Y-9106000D02*
X11754000Y-9056000D01*
X11704000Y-9006000D01*
X11654000Y-9056000D01*
X11704000Y-9106000D01*
X11704000Y-9360000D02*
X11754000Y-9310000D01*
X11704000Y-9260000D01*
X11654000Y-9310000D01*
X11704000Y-9360000D01*
X11704000Y-9614000D02*
X11754000Y-9564000D01*
X11704000Y-9514000D01*
X11654000Y-9564000D01*
X11704000Y-9614000D01*
X11704000Y-9868000D02*
X11754000Y-9818000D01*
X11704000Y-9768000D01*
X11654000Y-9818000D01*
X11704000Y-9868000D01*
X11704000Y-10122000D02*
X11754000Y-10072000D01*
X11704000Y-10022000D01*
X11654000Y-10072000D01*
X11704000Y-10122000D01*
X11704000Y-10376000D02*
X11754000Y-10326000D01*
X11704000Y-10276000D01*
X11654000Y-10326000D01*
X11704000Y-10376000D01*
X11704000Y-10630000D02*
X11754000Y-10580000D01*
X11704000Y-10530000D01*
X11654000Y-10580000D01*
X11704000Y-10630000D01*
X11704000Y-10884000D02*
X11754000Y-10834000D01*
X11704000Y-10784000D01*
X11654000Y-10834000D01*
X11704000Y-10884000D01*
X11704000Y-11138000D02*
X11754000Y-11088000D01*
X11704000Y-11038000D01*
X11654000Y-11088000D01*
X11704000Y-11138000D01*
X11704000Y-11392000D02*
X11754000Y-11342000D01*
X11704000Y-11292000D01*
X11654000Y-11342000D01*
X11704000Y-11392000D01*
X11704000Y-11646000D02*
X11754000Y-11596000D01*
X11704000Y-11546000D01*
X11654000Y-11596000D01*
X11704000Y-11646000D01*
X11704000Y-11900000D02*
X11754000Y-11850000D01*
X11704000Y-11800000D01*
X11654000Y-11850000D01*
X11704000Y-11900000D01*
X11704000Y-12154000D02*
X11754000Y-12104000D01*
X11704000Y-12054000D01*
X11654000Y-12104000D01*
X11704000Y-12154000D01*
X11704000Y-12408000D02*
X11754000Y-12358000D01*
X11704000Y-12308000D01*
X11654000Y-12358000D01*
X11704000Y-12408000D01*
X11704000Y-12662000D02*
X11754000Y-12612000D01*
X11704000Y-12562000D01*
X11654000Y-12612000D01*
X11704000Y-12662000D01*
X11704000Y-12916000D02*
X11754000Y-12866000D01*
X11704000Y-12816000D01*
X11654000Y-12866000D01*
X11704000Y-12916000D01*
X11805000Y-15069000D02*
X11855000Y-15019000D01*
X11805000Y-14969000D01*
X11755000Y-15019000D01*
X11805000Y-15069000D01*
X11805000Y-15319000D02*
X11855000Y-15269000D01*
X11805000Y-15219000D01*
X11755000Y-15269000D01*
X11805000Y-15319000D01*
X12308000Y-16587000D02*
X12358000Y-16537000D01*
X12308000Y-16487000D01*
X12258000Y-16537000D01*
X12308000Y-16587000D01*
X12322000Y-8340000D02*
X12372000Y-8290000D01*
X12322000Y-8240000D01*
X12272000Y-8290000D01*
X12322000Y-8340000D01*
X12322000Y-8594000D02*
X12372000Y-8544000D01*
X12322000Y-8494000D01*
X12272000Y-8544000D01*
X12322000Y-8594000D01*
X12322000Y-8848000D02*
X12372000Y-8798000D01*
X12322000Y-8748000D01*
X12272000Y-8798000D01*
X12322000Y-8848000D01*
X12322000Y-9102000D02*
X12372000Y-9052000D01*
X12322000Y-9002000D01*
X12272000Y-9052000D01*
X12322000Y-9102000D01*
X12322000Y-9356000D02*
X12372000Y-9306000D01*
X12322000Y-9256000D01*
X12272000Y-9306000D01*
X12322000Y-9356000D01*
X12322000Y-9610000D02*
X12372000Y-9560000D01*
X12322000Y-9510000D01*
X12272000Y-9560000D01*
X12322000Y-9610000D01*
X12322000Y-9864000D02*
X12372000Y-9814000D01*
X12322000Y-9764000D01*
X12272000Y-9814000D01*
X12322000Y-9864000D01*
X12322000Y-10118000D02*
X12372000Y-10068000D01*
X12322000Y-10018000D01*
X12272000Y-10068000D01*
X12322000Y-10118000D01*
X12322000Y-10372000D02*
X12372000Y-10322000D01*
X12322000Y-10272000D01*
X12272000Y-10322000D01*
X12322000Y-10372000D01*
X12322000Y-10626000D02*
X12372000Y-10576000D01*
X12322000Y-10526000D01*
X12272000Y-10576000D01*
X12322000Y-10626000D01*
X12322000Y-10880000D02*
X12372000Y-10830000D01*
X12322000Y-10780000D01*
X12272000Y-10830000D01*
X12322000Y-10880000D01*
X12322000Y-11134000D02*
X12372000Y-11084000D01*
X12322000Y-11034000D01*
X12272000Y-11084000D01*
X12322000Y-11134000D01*
X12322000Y-11388000D02*
X12372000Y-11338000D01*
X12322000Y-11288000D01*
X12272000Y-11338000D01*
X12322000Y-11388000D01*
X12322000Y-11642000D02*
X12372000Y-11592000D01*
X12322000Y-11542000D01*
X12272000Y-11592000D01*
X12322000Y-11642000D01*
X12322000Y-11896000D02*
X12372000Y-11846000D01*
X12322000Y-11796000D01*
X12272000Y-11846000D01*
X12322000Y-11896000D01*
X12322000Y-12150000D02*
X12372000Y-12100000D01*
X12322000Y-12050000D01*
X12272000Y-12100000D01*
X12322000Y-12150000D01*
X12322000Y-12404000D02*
X12372000Y-12354000D01*
X12322000Y-12304000D01*
X12272000Y-12354000D01*
X12322000Y-12404000D01*
X12322000Y-12658000D02*
X12372000Y-12608000D01*
X12322000Y-12558000D01*
X12272000Y-12608000D01*
X12322000Y-12658000D01*
X12322000Y-12912000D02*
X12372000Y-12862000D01*
X12322000Y-12812000D01*
X12272000Y-12862000D01*
X12322000Y-12912000D01*
X12558000Y-16587000D02*
X12608000Y-16537000D01*
X12558000Y-16487000D01*
X12508000Y-16537000D01*
X12558000Y-16587000D01*
X12958000Y-14779000D02*
X13008000Y-14729000D01*
X12958000Y-14679000D01*
X12908000Y-14729000D01*
X12958000Y-14779000D01*
X13041000Y-10820000D02*
X13091000Y-10770000D01*
X13041000Y-10720000D01*
X12991000Y-10770000D01*
X13041000Y-10820000D01*
X13208000Y-14779000D02*
X13258000Y-14729000D01*
X13208000Y-14679000D01*
X13158000Y-14729000D01*
X13208000Y-14779000D01*
X13254000Y-9905000D02*
X13304000Y-9855000D01*
X13254000Y-9805000D01*
X13204000Y-9855000D01*
X13254000Y-9905000D01*
X13254000Y-10155000D02*
X13304000Y-10105000D01*
X13254000Y-10055000D01*
X13204000Y-10105000D01*
X13254000Y-10155000D01*
X13258000Y-8992000D02*
X13308000Y-8942000D01*
X13258000Y-8892000D01*
X13208000Y-8942000D01*
X13258000Y-8992000D01*
X13258000Y-9242000D02*
X13308000Y-9192000D01*
X13258000Y-9142000D01*
X13208000Y-9192000D01*
X13258000Y-9242000D01*
X13291000Y-10820000D02*
X13341000Y-10770000D01*
X13291000Y-10720000D01*
X13241000Y-10770000D01*
X13291000Y-10820000D01*
D13*
X8820000Y-13912000D02*
X8930000Y-14022000D01*
X8930000Y-13912000D02*
X8820000Y-14022000D01*
X8930000Y-13967000D02*
G75*
G02*
X8820000Y-13967000I-55000J0D01*
G01*
X8820000Y-13967000D02*
G75*
G02*
X8930000Y-13967000I55000J0D01*
G01*
X8820000Y-14166000D02*
X8930000Y-14276000D01*
X8930000Y-14166000D02*
X8820000Y-14276000D01*
X8930000Y-14221000D02*
G75*
G02*
X8820000Y-14221000I-55000J0D01*
G01*
X8820000Y-14221000D02*
G75*
G02*
X8930000Y-14221000I55000J0D01*
G01*
X8820000Y-14420000D02*
X8930000Y-14530000D01*
X8930000Y-14420000D02*
X8820000Y-14530000D01*
X8930000Y-14475000D02*
G75*
G02*
X8820000Y-14475000I-55000J0D01*
G01*
X8820000Y-14475000D02*
G75*
G02*
X8930000Y-14475000I55000J0D01*
G01*
X10005000Y-13925000D02*
X10115000Y-14035000D01*
X10115000Y-13925000D02*
X10005000Y-14035000D01*
X10115000Y-13980000D02*
G75*
G02*
X10005000Y-13980000I-55000J0D01*
G01*
X10005000Y-13980000D02*
G75*
G02*
X10115000Y-13980000I55000J0D01*
G01*
X10259000Y-13925000D02*
X10369000Y-14035000D01*
X10369000Y-13925000D02*
X10259000Y-14035000D01*
X10369000Y-13980000D02*
G75*
G02*
X10259000Y-13980000I-55000J0D01*
G01*
X10259000Y-13980000D02*
G75*
G02*
X10369000Y-13980000I55000J0D01*
G01*
X10513000Y-13925000D02*
X10623000Y-14035000D01*
X10623000Y-13925000D02*
X10513000Y-14035000D01*
X10623000Y-13980000D02*
G75*
G02*
X10513000Y-13980000I-55000J0D01*
G01*
X10513000Y-13980000D02*
G75*
G02*
X10623000Y-13980000I55000J0D01*
G01*
X11944000Y-13519000D02*
X12054000Y-13629000D01*
X12054000Y-13519000D02*
X11944000Y-13629000D01*
X12054000Y-13574000D02*
G75*
G02*
X11944000Y-13574000I-55000J0D01*
G01*
X11944000Y-13574000D02*
G75*
G02*
X12054000Y-13574000I55000J0D01*
G01*
X11944000Y-13773000D02*
X12054000Y-13883000D01*
X12054000Y-13773000D02*
X11944000Y-13883000D01*
X12054000Y-13828000D02*
G75*
G02*
X11944000Y-13828000I-55000J0D01*
G01*
X11944000Y-13828000D02*
G75*
G02*
X12054000Y-13828000I55000J0D01*
G01*
X11944000Y-14027000D02*
X12054000Y-14137000D01*
X12054000Y-14027000D02*
X11944000Y-14137000D01*
X12054000Y-14082000D02*
G75*
G02*
X11944000Y-14082000I-55000J0D01*
G01*
X11944000Y-14082000D02*
G75*
G02*
X12054000Y-14082000I55000J0D01*
G01*
D14*
X7669000Y-15290000D02*
X7799000Y-15420000D01*
X7799000Y-15290000D02*
X7669000Y-15420000D01*
X7734000Y-15290000D02*
X7734000Y-15420000D01*
X7669000Y-15355000D02*
X7799000Y-15355000D01*
X7669000Y-15790000D02*
X7799000Y-15920000D01*
X7799000Y-15790000D02*
X7669000Y-15920000D01*
X7734000Y-15790000D02*
X7734000Y-15920000D01*
X7669000Y-15855000D02*
X7799000Y-15855000D01*
X9846000Y-16240500D02*
X9976000Y-16370500D01*
X9976000Y-16240500D02*
X9846000Y-16370500D01*
X9911000Y-16240500D02*
X9911000Y-16370500D01*
X9846000Y-16305500D02*
X9976000Y-16305500D01*
X10346000Y-16240500D02*
X10476000Y-16370500D01*
X10476000Y-16240500D02*
X10346000Y-16370500D01*
X10411000Y-16240500D02*
X10411000Y-16370500D01*
X10346000Y-16305500D02*
X10476000Y-16305500D01*
X11093000Y-16236500D02*
X11223000Y-16366500D01*
X11223000Y-16236500D02*
X11093000Y-16366500D01*
X11158000Y-16236500D02*
X11158000Y-16366500D01*
X11093000Y-16301500D02*
X11223000Y-16301500D01*
X11593000Y-16236500D02*
X11723000Y-16366500D01*
X11723000Y-16236500D02*
X11593000Y-16366500D01*
X11658000Y-16236500D02*
X11658000Y-16366500D01*
X11593000Y-16301500D02*
X11723000Y-16301500D01*
X13015000Y-15284000D02*
X13145000Y-15414000D01*
X13145000Y-15284000D02*
X13015000Y-15414000D01*
X13080000Y-15284000D02*
X13080000Y-15414000D01*
X13015000Y-15349000D02*
X13145000Y-15349000D01*
X13015000Y-15784000D02*
X13145000Y-15914000D01*
X13145000Y-15784000D02*
X13015000Y-15914000D01*
X13080000Y-15784000D02*
X13080000Y-15914000D01*
X13015000Y-15849000D02*
X13145000Y-15849000D01*
D11*
X7426277Y-17211984D02*
X7426277Y-17011984D01*
X7426277Y-17011984D02*
X7473896Y-17011984D01*
X7473896Y-17011984D02*
X7502467Y-17021508D01*
X7502467Y-17021508D02*
X7521515Y-17040555D01*
X7521515Y-17040555D02*
X7531039Y-17059603D01*
X7531039Y-17059603D02*
X7540562Y-17097698D01*
X7540562Y-17097698D02*
X7540562Y-17126270D01*
X7540562Y-17126270D02*
X7531039Y-17164365D01*
X7531039Y-17164365D02*
X7521515Y-17183412D01*
X7521515Y-17183412D02*
X7502467Y-17202460D01*
X7502467Y-17202460D02*
X7473896Y-17211984D01*
X7473896Y-17211984D02*
X7426277Y-17211984D01*
X7626277Y-17211984D02*
X7626277Y-17078650D01*
X7626277Y-17116746D02*
X7635801Y-17097698D01*
X7635801Y-17097698D02*
X7645324Y-17088174D01*
X7645324Y-17088174D02*
X7664372Y-17078650D01*
X7664372Y-17078650D02*
X7683420Y-17078650D01*
X7750086Y-17211984D02*
X7750086Y-17078650D01*
X7750086Y-17011984D02*
X7740562Y-17021508D01*
X7740562Y-17021508D02*
X7750086Y-17031031D01*
X7750086Y-17031031D02*
X7759610Y-17021508D01*
X7759610Y-17021508D02*
X7750086Y-17011984D01*
X7750086Y-17011984D02*
X7750086Y-17031031D01*
X7873896Y-17211984D02*
X7854848Y-17202460D01*
X7854848Y-17202460D02*
X7845324Y-17183412D01*
X7845324Y-17183412D02*
X7845324Y-17011984D01*
X7978658Y-17211984D02*
X7959610Y-17202460D01*
X7959610Y-17202460D02*
X7950086Y-17183412D01*
X7950086Y-17183412D02*
X7950086Y-17011984D01*
X8207229Y-17211984D02*
X8207229Y-17011984D01*
X8207229Y-17011984D02*
X8273896Y-17154841D01*
X8273896Y-17154841D02*
X8340562Y-17011984D01*
X8340562Y-17011984D02*
X8340562Y-17211984D01*
X8521515Y-17211984D02*
X8521515Y-17107222D01*
X8521515Y-17107222D02*
X8511991Y-17088174D01*
X8511991Y-17088174D02*
X8492944Y-17078650D01*
X8492944Y-17078650D02*
X8454848Y-17078650D01*
X8454848Y-17078650D02*
X8435801Y-17088174D01*
X8521515Y-17202460D02*
X8502467Y-17211984D01*
X8502467Y-17211984D02*
X8454848Y-17211984D01*
X8454848Y-17211984D02*
X8435801Y-17202460D01*
X8435801Y-17202460D02*
X8426277Y-17183412D01*
X8426277Y-17183412D02*
X8426277Y-17164365D01*
X8426277Y-17164365D02*
X8435801Y-17145317D01*
X8435801Y-17145317D02*
X8454848Y-17135793D01*
X8454848Y-17135793D02*
X8502467Y-17135793D01*
X8502467Y-17135793D02*
X8521515Y-17126270D01*
X8616753Y-17078650D02*
X8616753Y-17278650D01*
X8616753Y-17088174D02*
X8635801Y-17078650D01*
X8635801Y-17078650D02*
X8673896Y-17078650D01*
X8673896Y-17078650D02*
X8692944Y-17088174D01*
X8692944Y-17088174D02*
X8702467Y-17097698D01*
X8702467Y-17097698D02*
X8711991Y-17116746D01*
X8711991Y-17116746D02*
X8711991Y-17173889D01*
X8711991Y-17173889D02*
X8702467Y-17192936D01*
X8702467Y-17192936D02*
X8692944Y-17202460D01*
X8692944Y-17202460D02*
X8673896Y-17211984D01*
X8673896Y-17211984D02*
X8635801Y-17211984D01*
X8635801Y-17211984D02*
X8616753Y-17202460D01*
X8797705Y-17192936D02*
X8807229Y-17202460D01*
X8807229Y-17202460D02*
X8797705Y-17211984D01*
X8797705Y-17211984D02*
X8788182Y-17202460D01*
X8788182Y-17202460D02*
X8797705Y-17192936D01*
X8797705Y-17192936D02*
X8797705Y-17211984D01*
X8797705Y-17088174D02*
X8807229Y-17097698D01*
X8807229Y-17097698D02*
X8797705Y-17107222D01*
X8797705Y-17107222D02*
X8788182Y-17097698D01*
X8788182Y-17097698D02*
X8797705Y-17088174D01*
X8797705Y-17088174D02*
X8797705Y-17107222D01*
D12*
X7105500Y-17510500D02*
X7165500Y-17570500D01*
X7165500Y-17510500D02*
X7105500Y-17570500D01*
D11*
X7464372Y-17431984D02*
X7483420Y-17431984D01*
X7483420Y-17431984D02*
X7502467Y-17441508D01*
X7502467Y-17441508D02*
X7511991Y-17451031D01*
X7511991Y-17451031D02*
X7521515Y-17470079D01*
X7521515Y-17470079D02*
X7531039Y-17508174D01*
X7531039Y-17508174D02*
X7531039Y-17555793D01*
X7531039Y-17555793D02*
X7521515Y-17593889D01*
X7521515Y-17593889D02*
X7511991Y-17612936D01*
X7511991Y-17612936D02*
X7502467Y-17622460D01*
X7502467Y-17622460D02*
X7483420Y-17631984D01*
X7483420Y-17631984D02*
X7464372Y-17631984D01*
X7464372Y-17631984D02*
X7445324Y-17622460D01*
X7445324Y-17622460D02*
X7435801Y-17612936D01*
X7435801Y-17612936D02*
X7426277Y-17593889D01*
X7426277Y-17593889D02*
X7416753Y-17555793D01*
X7416753Y-17555793D02*
X7416753Y-17508174D01*
X7416753Y-17508174D02*
X7426277Y-17470079D01*
X7426277Y-17470079D02*
X7435801Y-17451031D01*
X7435801Y-17451031D02*
X7445324Y-17441508D01*
X7445324Y-17441508D02*
X7464372Y-17431984D01*
X7616753Y-17612936D02*
X7626277Y-17622460D01*
X7626277Y-17622460D02*
X7616753Y-17631984D01*
X7616753Y-17631984D02*
X7607229Y-17622460D01*
X7607229Y-17622460D02*
X7616753Y-17612936D01*
X7616753Y-17612936D02*
X7616753Y-17631984D01*
X7797705Y-17431984D02*
X7759610Y-17431984D01*
X7759610Y-17431984D02*
X7740562Y-17441508D01*
X7740562Y-17441508D02*
X7731039Y-17451031D01*
X7731039Y-17451031D02*
X7711991Y-17479603D01*
X7711991Y-17479603D02*
X7702467Y-17517698D01*
X7702467Y-17517698D02*
X7702467Y-17593889D01*
X7702467Y-17593889D02*
X7711991Y-17612936D01*
X7711991Y-17612936D02*
X7721515Y-17622460D01*
X7721515Y-17622460D02*
X7740562Y-17631984D01*
X7740562Y-17631984D02*
X7778658Y-17631984D01*
X7778658Y-17631984D02*
X7797705Y-17622460D01*
X7797705Y-17622460D02*
X7807229Y-17612936D01*
X7807229Y-17612936D02*
X7816753Y-17593889D01*
X7816753Y-17593889D02*
X7816753Y-17546270D01*
X7816753Y-17546270D02*
X7807229Y-17527222D01*
X7807229Y-17527222D02*
X7797705Y-17517698D01*
X7797705Y-17517698D02*
X7778658Y-17508174D01*
X7778658Y-17508174D02*
X7740562Y-17508174D01*
X7740562Y-17508174D02*
X7721515Y-17517698D01*
X7721515Y-17517698D02*
X7711991Y-17527222D01*
X7711991Y-17527222D02*
X7702467Y-17546270D01*
X7940562Y-17431984D02*
X7959610Y-17431984D01*
X7959610Y-17431984D02*
X7978658Y-17441508D01*
X7978658Y-17441508D02*
X7988182Y-17451031D01*
X7988182Y-17451031D02*
X7997705Y-17470079D01*
X7997705Y-17470079D02*
X8007229Y-17508174D01*
X8007229Y-17508174D02*
X8007229Y-17555793D01*
X8007229Y-17555793D02*
X7997705Y-17593889D01*
X7997705Y-17593889D02*
X7988182Y-17612936D01*
X7988182Y-17612936D02*
X7978658Y-17622460D01*
X7978658Y-17622460D02*
X7959610Y-17631984D01*
X7959610Y-17631984D02*
X7940562Y-17631984D01*
X7940562Y-17631984D02*
X7921515Y-17622460D01*
X7921515Y-17622460D02*
X7911991Y-17612936D01*
X7911991Y-17612936D02*
X7902467Y-17593889D01*
X7902467Y-17593889D02*
X7892943Y-17555793D01*
X7892943Y-17555793D02*
X7892943Y-17508174D01*
X7892943Y-17508174D02*
X7902467Y-17470079D01*
X7902467Y-17470079D02*
X7911991Y-17451031D01*
X7911991Y-17451031D02*
X7921515Y-17441508D01*
X7921515Y-17441508D02*
X7940562Y-17431984D01*
X8131039Y-17431984D02*
X8150086Y-17431984D01*
X8150086Y-17431984D02*
X8169134Y-17441508D01*
X8169134Y-17441508D02*
X8178658Y-17451031D01*
X8178658Y-17451031D02*
X8188182Y-17470079D01*
X8188182Y-17470079D02*
X8197705Y-17508174D01*
X8197705Y-17508174D02*
X8197705Y-17555793D01*
X8197705Y-17555793D02*
X8188182Y-17593889D01*
X8188182Y-17593889D02*
X8178658Y-17612936D01*
X8178658Y-17612936D02*
X8169134Y-17622460D01*
X8169134Y-17622460D02*
X8150086Y-17631984D01*
X8150086Y-17631984D02*
X8131039Y-17631984D01*
X8131039Y-17631984D02*
X8111991Y-17622460D01*
X8111991Y-17622460D02*
X8102467Y-17612936D01*
X8102467Y-17612936D02*
X8092943Y-17593889D01*
X8092943Y-17593889D02*
X8083420Y-17555793D01*
X8083420Y-17555793D02*
X8083420Y-17508174D01*
X8083420Y-17508174D02*
X8092943Y-17470079D01*
X8092943Y-17470079D02*
X8102467Y-17451031D01*
X8102467Y-17451031D02*
X8111991Y-17441508D01*
X8111991Y-17441508D02*
X8131039Y-17431984D01*
X8283420Y-17631984D02*
X8283420Y-17498650D01*
X8283420Y-17517698D02*
X8292943Y-17508174D01*
X8292943Y-17508174D02*
X8311991Y-17498650D01*
X8311991Y-17498650D02*
X8340563Y-17498650D01*
X8340563Y-17498650D02*
X8359610Y-17508174D01*
X8359610Y-17508174D02*
X8369134Y-17527222D01*
X8369134Y-17527222D02*
X8369134Y-17631984D01*
X8369134Y-17527222D02*
X8378658Y-17508174D01*
X8378658Y-17508174D02*
X8397705Y-17498650D01*
X8397705Y-17498650D02*
X8426277Y-17498650D01*
X8426277Y-17498650D02*
X8445325Y-17508174D01*
X8445325Y-17508174D02*
X8454848Y-17527222D01*
X8454848Y-17527222D02*
X8454848Y-17631984D01*
X8550086Y-17631984D02*
X8550086Y-17498650D01*
X8550086Y-17517698D02*
X8559610Y-17508174D01*
X8559610Y-17508174D02*
X8578658Y-17498650D01*
X8578658Y-17498650D02*
X8607229Y-17498650D01*
X8607229Y-17498650D02*
X8626277Y-17508174D01*
X8626277Y-17508174D02*
X8635801Y-17527222D01*
X8635801Y-17527222D02*
X8635801Y-17631984D01*
X8635801Y-17527222D02*
X8645325Y-17508174D01*
X8645325Y-17508174D02*
X8664372Y-17498650D01*
X8664372Y-17498650D02*
X8692944Y-17498650D01*
X8692944Y-17498650D02*
X8711991Y-17508174D01*
X8711991Y-17508174D02*
X8721515Y-17527222D01*
X8721515Y-17527222D02*
X8721515Y-17631984D01*
X9111991Y-17422460D02*
X8940563Y-17679603D01*
X9369134Y-17431984D02*
X9388182Y-17431984D01*
X9388182Y-17431984D02*
X9407229Y-17441508D01*
X9407229Y-17441508D02*
X9416753Y-17451031D01*
X9416753Y-17451031D02*
X9426277Y-17470079D01*
X9426277Y-17470079D02*
X9435801Y-17508174D01*
X9435801Y-17508174D02*
X9435801Y-17555793D01*
X9435801Y-17555793D02*
X9426277Y-17593889D01*
X9426277Y-17593889D02*
X9416753Y-17612936D01*
X9416753Y-17612936D02*
X9407229Y-17622460D01*
X9407229Y-17622460D02*
X9388182Y-17631984D01*
X9388182Y-17631984D02*
X9369134Y-17631984D01*
X9369134Y-17631984D02*
X9350087Y-17622460D01*
X9350087Y-17622460D02*
X9340563Y-17612936D01*
X9340563Y-17612936D02*
X9331039Y-17593889D01*
X9331039Y-17593889D02*
X9321515Y-17555793D01*
X9321515Y-17555793D02*
X9321515Y-17508174D01*
X9321515Y-17508174D02*
X9331039Y-17470079D01*
X9331039Y-17470079D02*
X9340563Y-17451031D01*
X9340563Y-17451031D02*
X9350087Y-17441508D01*
X9350087Y-17441508D02*
X9369134Y-17431984D01*
X9521515Y-17612936D02*
X9531039Y-17622460D01*
X9531039Y-17622460D02*
X9521515Y-17631984D01*
X9521515Y-17631984D02*
X9511991Y-17622460D01*
X9511991Y-17622460D02*
X9521515Y-17612936D01*
X9521515Y-17612936D02*
X9521515Y-17631984D01*
X9654848Y-17431984D02*
X9673896Y-17431984D01*
X9673896Y-17431984D02*
X9692944Y-17441508D01*
X9692944Y-17441508D02*
X9702468Y-17451031D01*
X9702468Y-17451031D02*
X9711991Y-17470079D01*
X9711991Y-17470079D02*
X9721515Y-17508174D01*
X9721515Y-17508174D02*
X9721515Y-17555793D01*
X9721515Y-17555793D02*
X9711991Y-17593889D01*
X9711991Y-17593889D02*
X9702468Y-17612936D01*
X9702468Y-17612936D02*
X9692944Y-17622460D01*
X9692944Y-17622460D02*
X9673896Y-17631984D01*
X9673896Y-17631984D02*
X9654848Y-17631984D01*
X9654848Y-17631984D02*
X9635801Y-17622460D01*
X9635801Y-17622460D02*
X9626277Y-17612936D01*
X9626277Y-17612936D02*
X9616753Y-17593889D01*
X9616753Y-17593889D02*
X9607229Y-17555793D01*
X9607229Y-17555793D02*
X9607229Y-17508174D01*
X9607229Y-17508174D02*
X9616753Y-17470079D01*
X9616753Y-17470079D02*
X9626277Y-17451031D01*
X9626277Y-17451031D02*
X9635801Y-17441508D01*
X9635801Y-17441508D02*
X9654848Y-17431984D01*
X9797706Y-17451031D02*
X9807229Y-17441508D01*
X9807229Y-17441508D02*
X9826277Y-17431984D01*
X9826277Y-17431984D02*
X9873896Y-17431984D01*
X9873896Y-17431984D02*
X9892944Y-17441508D01*
X9892944Y-17441508D02*
X9902468Y-17451031D01*
X9902468Y-17451031D02*
X9911991Y-17470079D01*
X9911991Y-17470079D02*
X9911991Y-17489127D01*
X9911991Y-17489127D02*
X9902468Y-17517698D01*
X9902468Y-17517698D02*
X9788182Y-17631984D01*
X9788182Y-17631984D02*
X9911991Y-17631984D01*
X9978658Y-17431984D02*
X10102468Y-17431984D01*
X10102468Y-17431984D02*
X10035801Y-17508174D01*
X10035801Y-17508174D02*
X10064372Y-17508174D01*
X10064372Y-17508174D02*
X10083420Y-17517698D01*
X10083420Y-17517698D02*
X10092944Y-17527222D01*
X10092944Y-17527222D02*
X10102468Y-17546270D01*
X10102468Y-17546270D02*
X10102468Y-17593889D01*
X10102468Y-17593889D02*
X10092944Y-17612936D01*
X10092944Y-17612936D02*
X10083420Y-17622460D01*
X10083420Y-17622460D02*
X10064372Y-17631984D01*
X10064372Y-17631984D02*
X10007229Y-17631984D01*
X10007229Y-17631984D02*
X9988182Y-17622460D01*
X9988182Y-17622460D02*
X9978658Y-17612936D01*
X10273896Y-17431984D02*
X10235801Y-17431984D01*
X10235801Y-17431984D02*
X10216753Y-17441508D01*
X10216753Y-17441508D02*
X10207229Y-17451031D01*
X10207229Y-17451031D02*
X10188182Y-17479603D01*
X10188182Y-17479603D02*
X10178658Y-17517698D01*
X10178658Y-17517698D02*
X10178658Y-17593889D01*
X10178658Y-17593889D02*
X10188182Y-17612936D01*
X10188182Y-17612936D02*
X10197706Y-17622460D01*
X10197706Y-17622460D02*
X10216753Y-17631984D01*
X10216753Y-17631984D02*
X10254849Y-17631984D01*
X10254849Y-17631984D02*
X10273896Y-17622460D01*
X10273896Y-17622460D02*
X10283420Y-17612936D01*
X10283420Y-17612936D02*
X10292944Y-17593889D01*
X10292944Y-17593889D02*
X10292944Y-17546270D01*
X10292944Y-17546270D02*
X10283420Y-17527222D01*
X10283420Y-17527222D02*
X10273896Y-17517698D01*
X10273896Y-17517698D02*
X10254849Y-17508174D01*
X10254849Y-17508174D02*
X10216753Y-17508174D01*
X10216753Y-17508174D02*
X10197706Y-17517698D01*
X10197706Y-17517698D02*
X10188182Y-17527222D01*
X10188182Y-17527222D02*
X10178658Y-17546270D01*
X10369134Y-17431984D02*
X10369134Y-17470079D01*
X10445325Y-17431984D02*
X10445325Y-17470079D01*
X10740563Y-17708174D02*
X10731039Y-17698650D01*
X10731039Y-17698650D02*
X10711991Y-17670079D01*
X10711991Y-17670079D02*
X10702468Y-17651031D01*
X10702468Y-17651031D02*
X10692944Y-17622460D01*
X10692944Y-17622460D02*
X10683420Y-17574841D01*
X10683420Y-17574841D02*
X10683420Y-17536746D01*
X10683420Y-17536746D02*
X10692944Y-17489127D01*
X10692944Y-17489127D02*
X10702468Y-17460555D01*
X10702468Y-17460555D02*
X10711991Y-17441508D01*
X10711991Y-17441508D02*
X10731039Y-17412936D01*
X10731039Y-17412936D02*
X10740563Y-17403412D01*
X10807230Y-17451031D02*
X10816753Y-17441508D01*
X10816753Y-17441508D02*
X10835801Y-17431984D01*
X10835801Y-17431984D02*
X10883420Y-17431984D01*
X10883420Y-17431984D02*
X10902468Y-17441508D01*
X10902468Y-17441508D02*
X10911991Y-17451031D01*
X10911991Y-17451031D02*
X10921515Y-17470079D01*
X10921515Y-17470079D02*
X10921515Y-17489127D01*
X10921515Y-17489127D02*
X10911991Y-17517698D01*
X10911991Y-17517698D02*
X10797706Y-17631984D01*
X10797706Y-17631984D02*
X10921515Y-17631984D01*
X11159611Y-17631984D02*
X11159611Y-17431984D01*
X11245325Y-17631984D02*
X11245325Y-17527222D01*
X11245325Y-17527222D02*
X11235801Y-17508174D01*
X11235801Y-17508174D02*
X11216753Y-17498650D01*
X11216753Y-17498650D02*
X11188182Y-17498650D01*
X11188182Y-17498650D02*
X11169134Y-17508174D01*
X11169134Y-17508174D02*
X11159611Y-17517698D01*
X11369134Y-17631984D02*
X11350087Y-17622460D01*
X11350087Y-17622460D02*
X11340563Y-17612936D01*
X11340563Y-17612936D02*
X11331039Y-17593889D01*
X11331039Y-17593889D02*
X11331039Y-17536746D01*
X11331039Y-17536746D02*
X11340563Y-17517698D01*
X11340563Y-17517698D02*
X11350087Y-17508174D01*
X11350087Y-17508174D02*
X11369134Y-17498650D01*
X11369134Y-17498650D02*
X11397706Y-17498650D01*
X11397706Y-17498650D02*
X11416753Y-17508174D01*
X11416753Y-17508174D02*
X11426277Y-17517698D01*
X11426277Y-17517698D02*
X11435801Y-17536746D01*
X11435801Y-17536746D02*
X11435801Y-17593889D01*
X11435801Y-17593889D02*
X11426277Y-17612936D01*
X11426277Y-17612936D02*
X11416753Y-17622460D01*
X11416753Y-17622460D02*
X11397706Y-17631984D01*
X11397706Y-17631984D02*
X11369134Y-17631984D01*
X11550087Y-17631984D02*
X11531039Y-17622460D01*
X11531039Y-17622460D02*
X11521515Y-17603412D01*
X11521515Y-17603412D02*
X11521515Y-17431984D01*
X11702468Y-17622460D02*
X11683420Y-17631984D01*
X11683420Y-17631984D02*
X11645325Y-17631984D01*
X11645325Y-17631984D02*
X11626277Y-17622460D01*
X11626277Y-17622460D02*
X11616753Y-17603412D01*
X11616753Y-17603412D02*
X11616753Y-17527222D01*
X11616753Y-17527222D02*
X11626277Y-17508174D01*
X11626277Y-17508174D02*
X11645325Y-17498650D01*
X11645325Y-17498650D02*
X11683420Y-17498650D01*
X11683420Y-17498650D02*
X11702468Y-17508174D01*
X11702468Y-17508174D02*
X11711991Y-17527222D01*
X11711991Y-17527222D02*
X11711991Y-17546270D01*
X11711991Y-17546270D02*
X11616753Y-17565317D01*
X11788182Y-17622460D02*
X11807230Y-17631984D01*
X11807230Y-17631984D02*
X11845325Y-17631984D01*
X11845325Y-17631984D02*
X11864372Y-17622460D01*
X11864372Y-17622460D02*
X11873896Y-17603412D01*
X11873896Y-17603412D02*
X11873896Y-17593889D01*
X11873896Y-17593889D02*
X11864372Y-17574841D01*
X11864372Y-17574841D02*
X11845325Y-17565317D01*
X11845325Y-17565317D02*
X11816753Y-17565317D01*
X11816753Y-17565317D02*
X11797706Y-17555793D01*
X11797706Y-17555793D02*
X11788182Y-17536746D01*
X11788182Y-17536746D02*
X11788182Y-17527222D01*
X11788182Y-17527222D02*
X11797706Y-17508174D01*
X11797706Y-17508174D02*
X11816753Y-17498650D01*
X11816753Y-17498650D02*
X11845325Y-17498650D01*
X11845325Y-17498650D02*
X11864372Y-17508174D01*
X11940563Y-17708174D02*
X11950087Y-17698650D01*
X11950087Y-17698650D02*
X11969134Y-17670079D01*
X11969134Y-17670079D02*
X11978658Y-17651031D01*
X11978658Y-17651031D02*
X11988182Y-17622460D01*
X11988182Y-17622460D02*
X11997706Y-17574841D01*
X11997706Y-17574841D02*
X11997706Y-17536746D01*
X11997706Y-17536746D02*
X11988182Y-17489127D01*
X11988182Y-17489127D02*
X11978658Y-17460555D01*
X11978658Y-17460555D02*
X11969134Y-17441508D01*
X11969134Y-17441508D02*
X11950087Y-17412936D01*
X11950087Y-17412936D02*
X11940563Y-17403412D01*
D12*
X7165500Y-17804500D02*
G75*
G02*
X7085500Y-17804500I-40000J0D01*
G01*
X7085500Y-17804500D02*
G75*
G02*
X7165500Y-17804500I40000J0D01*
G01*
D11*
X7464372Y-17695984D02*
X7483420Y-17695984D01*
X7483420Y-17695984D02*
X7502467Y-17705508D01*
X7502467Y-17705508D02*
X7511991Y-17715031D01*
X7511991Y-17715031D02*
X7521515Y-17734079D01*
X7521515Y-17734079D02*
X7531039Y-17772174D01*
X7531039Y-17772174D02*
X7531039Y-17819793D01*
X7531039Y-17819793D02*
X7521515Y-17857889D01*
X7521515Y-17857889D02*
X7511991Y-17876936D01*
X7511991Y-17876936D02*
X7502467Y-17886460D01*
X7502467Y-17886460D02*
X7483420Y-17895984D01*
X7483420Y-17895984D02*
X7464372Y-17895984D01*
X7464372Y-17895984D02*
X7445324Y-17886460D01*
X7445324Y-17886460D02*
X7435801Y-17876936D01*
X7435801Y-17876936D02*
X7426277Y-17857889D01*
X7426277Y-17857889D02*
X7416753Y-17819793D01*
X7416753Y-17819793D02*
X7416753Y-17772174D01*
X7416753Y-17772174D02*
X7426277Y-17734079D01*
X7426277Y-17734079D02*
X7435801Y-17715031D01*
X7435801Y-17715031D02*
X7445324Y-17705508D01*
X7445324Y-17705508D02*
X7464372Y-17695984D01*
X7616753Y-17876936D02*
X7626277Y-17886460D01*
X7626277Y-17886460D02*
X7616753Y-17895984D01*
X7616753Y-17895984D02*
X7607229Y-17886460D01*
X7607229Y-17886460D02*
X7616753Y-17876936D01*
X7616753Y-17876936D02*
X7616753Y-17895984D01*
X7740562Y-17781698D02*
X7721515Y-17772174D01*
X7721515Y-17772174D02*
X7711991Y-17762650D01*
X7711991Y-17762650D02*
X7702467Y-17743603D01*
X7702467Y-17743603D02*
X7702467Y-17734079D01*
X7702467Y-17734079D02*
X7711991Y-17715031D01*
X7711991Y-17715031D02*
X7721515Y-17705508D01*
X7721515Y-17705508D02*
X7740562Y-17695984D01*
X7740562Y-17695984D02*
X7778658Y-17695984D01*
X7778658Y-17695984D02*
X7797705Y-17705508D01*
X7797705Y-17705508D02*
X7807229Y-17715031D01*
X7807229Y-17715031D02*
X7816753Y-17734079D01*
X7816753Y-17734079D02*
X7816753Y-17743603D01*
X7816753Y-17743603D02*
X7807229Y-17762650D01*
X7807229Y-17762650D02*
X7797705Y-17772174D01*
X7797705Y-17772174D02*
X7778658Y-17781698D01*
X7778658Y-17781698D02*
X7740562Y-17781698D01*
X7740562Y-17781698D02*
X7721515Y-17791222D01*
X7721515Y-17791222D02*
X7711991Y-17800746D01*
X7711991Y-17800746D02*
X7702467Y-17819793D01*
X7702467Y-17819793D02*
X7702467Y-17857889D01*
X7702467Y-17857889D02*
X7711991Y-17876936D01*
X7711991Y-17876936D02*
X7721515Y-17886460D01*
X7721515Y-17886460D02*
X7740562Y-17895984D01*
X7740562Y-17895984D02*
X7778658Y-17895984D01*
X7778658Y-17895984D02*
X7797705Y-17886460D01*
X7797705Y-17886460D02*
X7807229Y-17876936D01*
X7807229Y-17876936D02*
X7816753Y-17857889D01*
X7816753Y-17857889D02*
X7816753Y-17819793D01*
X7816753Y-17819793D02*
X7807229Y-17800746D01*
X7807229Y-17800746D02*
X7797705Y-17791222D01*
X7797705Y-17791222D02*
X7778658Y-17781698D01*
X7940562Y-17695984D02*
X7959610Y-17695984D01*
X7959610Y-17695984D02*
X7978658Y-17705508D01*
X7978658Y-17705508D02*
X7988182Y-17715031D01*
X7988182Y-17715031D02*
X7997705Y-17734079D01*
X7997705Y-17734079D02*
X8007229Y-17772174D01*
X8007229Y-17772174D02*
X8007229Y-17819793D01*
X8007229Y-17819793D02*
X7997705Y-17857889D01*
X7997705Y-17857889D02*
X7988182Y-17876936D01*
X7988182Y-17876936D02*
X7978658Y-17886460D01*
X7978658Y-17886460D02*
X7959610Y-17895984D01*
X7959610Y-17895984D02*
X7940562Y-17895984D01*
X7940562Y-17895984D02*
X7921515Y-17886460D01*
X7921515Y-17886460D02*
X7911991Y-17876936D01*
X7911991Y-17876936D02*
X7902467Y-17857889D01*
X7902467Y-17857889D02*
X7892943Y-17819793D01*
X7892943Y-17819793D02*
X7892943Y-17772174D01*
X7892943Y-17772174D02*
X7902467Y-17734079D01*
X7902467Y-17734079D02*
X7911991Y-17715031D01*
X7911991Y-17715031D02*
X7921515Y-17705508D01*
X7921515Y-17705508D02*
X7940562Y-17695984D01*
X8131039Y-17695984D02*
X8150086Y-17695984D01*
X8150086Y-17695984D02*
X8169134Y-17705508D01*
X8169134Y-17705508D02*
X8178658Y-17715031D01*
X8178658Y-17715031D02*
X8188182Y-17734079D01*
X8188182Y-17734079D02*
X8197705Y-17772174D01*
X8197705Y-17772174D02*
X8197705Y-17819793D01*
X8197705Y-17819793D02*
X8188182Y-17857889D01*
X8188182Y-17857889D02*
X8178658Y-17876936D01*
X8178658Y-17876936D02*
X8169134Y-17886460D01*
X8169134Y-17886460D02*
X8150086Y-17895984D01*
X8150086Y-17895984D02*
X8131039Y-17895984D01*
X8131039Y-17895984D02*
X8111991Y-17886460D01*
X8111991Y-17886460D02*
X8102467Y-17876936D01*
X8102467Y-17876936D02*
X8092943Y-17857889D01*
X8092943Y-17857889D02*
X8083420Y-17819793D01*
X8083420Y-17819793D02*
X8083420Y-17772174D01*
X8083420Y-17772174D02*
X8092943Y-17734079D01*
X8092943Y-17734079D02*
X8102467Y-17715031D01*
X8102467Y-17715031D02*
X8111991Y-17705508D01*
X8111991Y-17705508D02*
X8131039Y-17695984D01*
X8283420Y-17895984D02*
X8283420Y-17762650D01*
X8283420Y-17781698D02*
X8292943Y-17772174D01*
X8292943Y-17772174D02*
X8311991Y-17762650D01*
X8311991Y-17762650D02*
X8340563Y-17762650D01*
X8340563Y-17762650D02*
X8359610Y-17772174D01*
X8359610Y-17772174D02*
X8369134Y-17791222D01*
X8369134Y-17791222D02*
X8369134Y-17895984D01*
X8369134Y-17791222D02*
X8378658Y-17772174D01*
X8378658Y-17772174D02*
X8397705Y-17762650D01*
X8397705Y-17762650D02*
X8426277Y-17762650D01*
X8426277Y-17762650D02*
X8445325Y-17772174D01*
X8445325Y-17772174D02*
X8454848Y-17791222D01*
X8454848Y-17791222D02*
X8454848Y-17895984D01*
X8550086Y-17895984D02*
X8550086Y-17762650D01*
X8550086Y-17781698D02*
X8559610Y-17772174D01*
X8559610Y-17772174D02*
X8578658Y-17762650D01*
X8578658Y-17762650D02*
X8607229Y-17762650D01*
X8607229Y-17762650D02*
X8626277Y-17772174D01*
X8626277Y-17772174D02*
X8635801Y-17791222D01*
X8635801Y-17791222D02*
X8635801Y-17895984D01*
X8635801Y-17791222D02*
X8645325Y-17772174D01*
X8645325Y-17772174D02*
X8664372Y-17762650D01*
X8664372Y-17762650D02*
X8692944Y-17762650D01*
X8692944Y-17762650D02*
X8711991Y-17772174D01*
X8711991Y-17772174D02*
X8721515Y-17791222D01*
X8721515Y-17791222D02*
X8721515Y-17895984D01*
X9111991Y-17686460D02*
X8940563Y-17943603D01*
X9369134Y-17695984D02*
X9388182Y-17695984D01*
X9388182Y-17695984D02*
X9407229Y-17705508D01*
X9407229Y-17705508D02*
X9416753Y-17715031D01*
X9416753Y-17715031D02*
X9426277Y-17734079D01*
X9426277Y-17734079D02*
X9435801Y-17772174D01*
X9435801Y-17772174D02*
X9435801Y-17819793D01*
X9435801Y-17819793D02*
X9426277Y-17857889D01*
X9426277Y-17857889D02*
X9416753Y-17876936D01*
X9416753Y-17876936D02*
X9407229Y-17886460D01*
X9407229Y-17886460D02*
X9388182Y-17895984D01*
X9388182Y-17895984D02*
X9369134Y-17895984D01*
X9369134Y-17895984D02*
X9350087Y-17886460D01*
X9350087Y-17886460D02*
X9340563Y-17876936D01*
X9340563Y-17876936D02*
X9331039Y-17857889D01*
X9331039Y-17857889D02*
X9321515Y-17819793D01*
X9321515Y-17819793D02*
X9321515Y-17772174D01*
X9321515Y-17772174D02*
X9331039Y-17734079D01*
X9331039Y-17734079D02*
X9340563Y-17715031D01*
X9340563Y-17715031D02*
X9350087Y-17705508D01*
X9350087Y-17705508D02*
X9369134Y-17695984D01*
X9521515Y-17876936D02*
X9531039Y-17886460D01*
X9531039Y-17886460D02*
X9521515Y-17895984D01*
X9521515Y-17895984D02*
X9511991Y-17886460D01*
X9511991Y-17886460D02*
X9521515Y-17876936D01*
X9521515Y-17876936D02*
X9521515Y-17895984D01*
X9654848Y-17695984D02*
X9673896Y-17695984D01*
X9673896Y-17695984D02*
X9692944Y-17705508D01*
X9692944Y-17705508D02*
X9702468Y-17715031D01*
X9702468Y-17715031D02*
X9711991Y-17734079D01*
X9711991Y-17734079D02*
X9721515Y-17772174D01*
X9721515Y-17772174D02*
X9721515Y-17819793D01*
X9721515Y-17819793D02*
X9711991Y-17857889D01*
X9711991Y-17857889D02*
X9702468Y-17876936D01*
X9702468Y-17876936D02*
X9692944Y-17886460D01*
X9692944Y-17886460D02*
X9673896Y-17895984D01*
X9673896Y-17895984D02*
X9654848Y-17895984D01*
X9654848Y-17895984D02*
X9635801Y-17886460D01*
X9635801Y-17886460D02*
X9626277Y-17876936D01*
X9626277Y-17876936D02*
X9616753Y-17857889D01*
X9616753Y-17857889D02*
X9607229Y-17819793D01*
X9607229Y-17819793D02*
X9607229Y-17772174D01*
X9607229Y-17772174D02*
X9616753Y-17734079D01*
X9616753Y-17734079D02*
X9626277Y-17715031D01*
X9626277Y-17715031D02*
X9635801Y-17705508D01*
X9635801Y-17705508D02*
X9654848Y-17695984D01*
X9788182Y-17695984D02*
X9911991Y-17695984D01*
X9911991Y-17695984D02*
X9845325Y-17772174D01*
X9845325Y-17772174D02*
X9873896Y-17772174D01*
X9873896Y-17772174D02*
X9892944Y-17781698D01*
X9892944Y-17781698D02*
X9902468Y-17791222D01*
X9902468Y-17791222D02*
X9911991Y-17810270D01*
X9911991Y-17810270D02*
X9911991Y-17857889D01*
X9911991Y-17857889D02*
X9902468Y-17876936D01*
X9902468Y-17876936D02*
X9892944Y-17886460D01*
X9892944Y-17886460D02*
X9873896Y-17895984D01*
X9873896Y-17895984D02*
X9816753Y-17895984D01*
X9816753Y-17895984D02*
X9797706Y-17886460D01*
X9797706Y-17886460D02*
X9788182Y-17876936D01*
X10102468Y-17895984D02*
X9988182Y-17895984D01*
X10045325Y-17895984D02*
X10045325Y-17695984D01*
X10045325Y-17695984D02*
X10026277Y-17724555D01*
X10026277Y-17724555D02*
X10007229Y-17743603D01*
X10007229Y-17743603D02*
X9988182Y-17753127D01*
X10283420Y-17695984D02*
X10188182Y-17695984D01*
X10188182Y-17695984D02*
X10178658Y-17791222D01*
X10178658Y-17791222D02*
X10188182Y-17781698D01*
X10188182Y-17781698D02*
X10207229Y-17772174D01*
X10207229Y-17772174D02*
X10254849Y-17772174D01*
X10254849Y-17772174D02*
X10273896Y-17781698D01*
X10273896Y-17781698D02*
X10283420Y-17791222D01*
X10283420Y-17791222D02*
X10292944Y-17810270D01*
X10292944Y-17810270D02*
X10292944Y-17857889D01*
X10292944Y-17857889D02*
X10283420Y-17876936D01*
X10283420Y-17876936D02*
X10273896Y-17886460D01*
X10273896Y-17886460D02*
X10254849Y-17895984D01*
X10254849Y-17895984D02*
X10207229Y-17895984D01*
X10207229Y-17895984D02*
X10188182Y-17886460D01*
X10188182Y-17886460D02*
X10178658Y-17876936D01*
X10369134Y-17695984D02*
X10369134Y-17734079D01*
X10445325Y-17695984D02*
X10445325Y-17734079D01*
X10740563Y-17972174D02*
X10731039Y-17962650D01*
X10731039Y-17962650D02*
X10711991Y-17934079D01*
X10711991Y-17934079D02*
X10702468Y-17915031D01*
X10702468Y-17915031D02*
X10692944Y-17886460D01*
X10692944Y-17886460D02*
X10683420Y-17838841D01*
X10683420Y-17838841D02*
X10683420Y-17800746D01*
X10683420Y-17800746D02*
X10692944Y-17753127D01*
X10692944Y-17753127D02*
X10702468Y-17724555D01*
X10702468Y-17724555D02*
X10711991Y-17705508D01*
X10711991Y-17705508D02*
X10731039Y-17676936D01*
X10731039Y-17676936D02*
X10740563Y-17667412D01*
X10807230Y-17715031D02*
X10816753Y-17705508D01*
X10816753Y-17705508D02*
X10835801Y-17695984D01*
X10835801Y-17695984D02*
X10883420Y-17695984D01*
X10883420Y-17695984D02*
X10902468Y-17705508D01*
X10902468Y-17705508D02*
X10911991Y-17715031D01*
X10911991Y-17715031D02*
X10921515Y-17734079D01*
X10921515Y-17734079D02*
X10921515Y-17753127D01*
X10921515Y-17753127D02*
X10911991Y-17781698D01*
X10911991Y-17781698D02*
X10797706Y-17895984D01*
X10797706Y-17895984D02*
X10921515Y-17895984D01*
X11092944Y-17762650D02*
X11092944Y-17895984D01*
X11045325Y-17686460D02*
X10997706Y-17829317D01*
X10997706Y-17829317D02*
X11121515Y-17829317D01*
X11350087Y-17895984D02*
X11350087Y-17695984D01*
X11435801Y-17895984D02*
X11435801Y-17791222D01*
X11435801Y-17791222D02*
X11426277Y-17772174D01*
X11426277Y-17772174D02*
X11407230Y-17762650D01*
X11407230Y-17762650D02*
X11378658Y-17762650D01*
X11378658Y-17762650D02*
X11359610Y-17772174D01*
X11359610Y-17772174D02*
X11350087Y-17781698D01*
X11559610Y-17895984D02*
X11540563Y-17886460D01*
X11540563Y-17886460D02*
X11531039Y-17876936D01*
X11531039Y-17876936D02*
X11521515Y-17857889D01*
X11521515Y-17857889D02*
X11521515Y-17800746D01*
X11521515Y-17800746D02*
X11531039Y-17781698D01*
X11531039Y-17781698D02*
X11540563Y-17772174D01*
X11540563Y-17772174D02*
X11559610Y-17762650D01*
X11559610Y-17762650D02*
X11588182Y-17762650D01*
X11588182Y-17762650D02*
X11607230Y-17772174D01*
X11607230Y-17772174D02*
X11616753Y-17781698D01*
X11616753Y-17781698D02*
X11626277Y-17800746D01*
X11626277Y-17800746D02*
X11626277Y-17857889D01*
X11626277Y-17857889D02*
X11616753Y-17876936D01*
X11616753Y-17876936D02*
X11607230Y-17886460D01*
X11607230Y-17886460D02*
X11588182Y-17895984D01*
X11588182Y-17895984D02*
X11559610Y-17895984D01*
X11740563Y-17895984D02*
X11721515Y-17886460D01*
X11721515Y-17886460D02*
X11711991Y-17867412D01*
X11711991Y-17867412D02*
X11711991Y-17695984D01*
X11892944Y-17886460D02*
X11873896Y-17895984D01*
X11873896Y-17895984D02*
X11835801Y-17895984D01*
X11835801Y-17895984D02*
X11816753Y-17886460D01*
X11816753Y-17886460D02*
X11807230Y-17867412D01*
X11807230Y-17867412D02*
X11807230Y-17791222D01*
X11807230Y-17791222D02*
X11816753Y-17772174D01*
X11816753Y-17772174D02*
X11835801Y-17762650D01*
X11835801Y-17762650D02*
X11873896Y-17762650D01*
X11873896Y-17762650D02*
X11892944Y-17772174D01*
X11892944Y-17772174D02*
X11902468Y-17791222D01*
X11902468Y-17791222D02*
X11902468Y-17810270D01*
X11902468Y-17810270D02*
X11807230Y-17829317D01*
X11978658Y-17886460D02*
X11997706Y-17895984D01*
X11997706Y-17895984D02*
X12035801Y-17895984D01*
X12035801Y-17895984D02*
X12054849Y-17886460D01*
X12054849Y-17886460D02*
X12064372Y-17867412D01*
X12064372Y-17867412D02*
X12064372Y-17857889D01*
X12064372Y-17857889D02*
X12054849Y-17838841D01*
X12054849Y-17838841D02*
X12035801Y-17829317D01*
X12035801Y-17829317D02*
X12007230Y-17829317D01*
X12007230Y-17829317D02*
X11988182Y-17819793D01*
X11988182Y-17819793D02*
X11978658Y-17800746D01*
X11978658Y-17800746D02*
X11978658Y-17791222D01*
X11978658Y-17791222D02*
X11988182Y-17772174D01*
X11988182Y-17772174D02*
X12007230Y-17762650D01*
X12007230Y-17762650D02*
X12035801Y-17762650D01*
X12035801Y-17762650D02*
X12054849Y-17772174D01*
X12131039Y-17972174D02*
X12140563Y-17962650D01*
X12140563Y-17962650D02*
X12159611Y-17934079D01*
X12159611Y-17934079D02*
X12169134Y-17915031D01*
X12169134Y-17915031D02*
X12178658Y-17886460D01*
X12178658Y-17886460D02*
X12188182Y-17838841D01*
X12188182Y-17838841D02*
X12188182Y-17800746D01*
X12188182Y-17800746D02*
X12178658Y-17753127D01*
X12178658Y-17753127D02*
X12169134Y-17724555D01*
X12169134Y-17724555D02*
X12159611Y-17705508D01*
X12159611Y-17705508D02*
X12140563Y-17676936D01*
X12140563Y-17676936D02*
X12131039Y-17667412D01*
D12*
X7118000Y-18021000D02*
X7118000Y-18116000D01*
X7070500Y-18068500D02*
X7165500Y-18068500D01*
D11*
X7464372Y-17959984D02*
X7483420Y-17959984D01*
X7483420Y-17959984D02*
X7502467Y-17969508D01*
X7502467Y-17969508D02*
X7511991Y-17979031D01*
X7511991Y-17979031D02*
X7521515Y-17998079D01*
X7521515Y-17998079D02*
X7531039Y-18036174D01*
X7531039Y-18036174D02*
X7531039Y-18083793D01*
X7531039Y-18083793D02*
X7521515Y-18121889D01*
X7521515Y-18121889D02*
X7511991Y-18140936D01*
X7511991Y-18140936D02*
X7502467Y-18150460D01*
X7502467Y-18150460D02*
X7483420Y-18159984D01*
X7483420Y-18159984D02*
X7464372Y-18159984D01*
X7464372Y-18159984D02*
X7445324Y-18150460D01*
X7445324Y-18150460D02*
X7435801Y-18140936D01*
X7435801Y-18140936D02*
X7426277Y-18121889D01*
X7426277Y-18121889D02*
X7416753Y-18083793D01*
X7416753Y-18083793D02*
X7416753Y-18036174D01*
X7416753Y-18036174D02*
X7426277Y-17998079D01*
X7426277Y-17998079D02*
X7435801Y-17979031D01*
X7435801Y-17979031D02*
X7445324Y-17969508D01*
X7445324Y-17969508D02*
X7464372Y-17959984D01*
X7616753Y-18140936D02*
X7626277Y-18150460D01*
X7626277Y-18150460D02*
X7616753Y-18159984D01*
X7616753Y-18159984D02*
X7607229Y-18150460D01*
X7607229Y-18150460D02*
X7616753Y-18140936D01*
X7616753Y-18140936D02*
X7616753Y-18159984D01*
X7721515Y-18159984D02*
X7759610Y-18159984D01*
X7759610Y-18159984D02*
X7778658Y-18150460D01*
X7778658Y-18150460D02*
X7788182Y-18140936D01*
X7788182Y-18140936D02*
X7807229Y-18112365D01*
X7807229Y-18112365D02*
X7816753Y-18074270D01*
X7816753Y-18074270D02*
X7816753Y-17998079D01*
X7816753Y-17998079D02*
X7807229Y-17979031D01*
X7807229Y-17979031D02*
X7797705Y-17969508D01*
X7797705Y-17969508D02*
X7778658Y-17959984D01*
X7778658Y-17959984D02*
X7740562Y-17959984D01*
X7740562Y-17959984D02*
X7721515Y-17969508D01*
X7721515Y-17969508D02*
X7711991Y-17979031D01*
X7711991Y-17979031D02*
X7702467Y-17998079D01*
X7702467Y-17998079D02*
X7702467Y-18045698D01*
X7702467Y-18045698D02*
X7711991Y-18064746D01*
X7711991Y-18064746D02*
X7721515Y-18074270D01*
X7721515Y-18074270D02*
X7740562Y-18083793D01*
X7740562Y-18083793D02*
X7778658Y-18083793D01*
X7778658Y-18083793D02*
X7797705Y-18074270D01*
X7797705Y-18074270D02*
X7807229Y-18064746D01*
X7807229Y-18064746D02*
X7816753Y-18045698D01*
X7997705Y-17959984D02*
X7902467Y-17959984D01*
X7902467Y-17959984D02*
X7892943Y-18055222D01*
X7892943Y-18055222D02*
X7902467Y-18045698D01*
X7902467Y-18045698D02*
X7921515Y-18036174D01*
X7921515Y-18036174D02*
X7969134Y-18036174D01*
X7969134Y-18036174D02*
X7988182Y-18045698D01*
X7988182Y-18045698D02*
X7997705Y-18055222D01*
X7997705Y-18055222D02*
X8007229Y-18074270D01*
X8007229Y-18074270D02*
X8007229Y-18121889D01*
X8007229Y-18121889D02*
X7997705Y-18140936D01*
X7997705Y-18140936D02*
X7988182Y-18150460D01*
X7988182Y-18150460D02*
X7969134Y-18159984D01*
X7969134Y-18159984D02*
X7921515Y-18159984D01*
X7921515Y-18159984D02*
X7902467Y-18150460D01*
X7902467Y-18150460D02*
X7892943Y-18140936D01*
X8131039Y-17959984D02*
X8150086Y-17959984D01*
X8150086Y-17959984D02*
X8169134Y-17969508D01*
X8169134Y-17969508D02*
X8178658Y-17979031D01*
X8178658Y-17979031D02*
X8188182Y-17998079D01*
X8188182Y-17998079D02*
X8197705Y-18036174D01*
X8197705Y-18036174D02*
X8197705Y-18083793D01*
X8197705Y-18083793D02*
X8188182Y-18121889D01*
X8188182Y-18121889D02*
X8178658Y-18140936D01*
X8178658Y-18140936D02*
X8169134Y-18150460D01*
X8169134Y-18150460D02*
X8150086Y-18159984D01*
X8150086Y-18159984D02*
X8131039Y-18159984D01*
X8131039Y-18159984D02*
X8111991Y-18150460D01*
X8111991Y-18150460D02*
X8102467Y-18140936D01*
X8102467Y-18140936D02*
X8092943Y-18121889D01*
X8092943Y-18121889D02*
X8083420Y-18083793D01*
X8083420Y-18083793D02*
X8083420Y-18036174D01*
X8083420Y-18036174D02*
X8092943Y-17998079D01*
X8092943Y-17998079D02*
X8102467Y-17979031D01*
X8102467Y-17979031D02*
X8111991Y-17969508D01*
X8111991Y-17969508D02*
X8131039Y-17959984D01*
X8283420Y-18159984D02*
X8283420Y-18026650D01*
X8283420Y-18045698D02*
X8292943Y-18036174D01*
X8292943Y-18036174D02*
X8311991Y-18026650D01*
X8311991Y-18026650D02*
X8340563Y-18026650D01*
X8340563Y-18026650D02*
X8359610Y-18036174D01*
X8359610Y-18036174D02*
X8369134Y-18055222D01*
X8369134Y-18055222D02*
X8369134Y-18159984D01*
X8369134Y-18055222D02*
X8378658Y-18036174D01*
X8378658Y-18036174D02*
X8397705Y-18026650D01*
X8397705Y-18026650D02*
X8426277Y-18026650D01*
X8426277Y-18026650D02*
X8445325Y-18036174D01*
X8445325Y-18036174D02*
X8454848Y-18055222D01*
X8454848Y-18055222D02*
X8454848Y-18159984D01*
X8550086Y-18159984D02*
X8550086Y-18026650D01*
X8550086Y-18045698D02*
X8559610Y-18036174D01*
X8559610Y-18036174D02*
X8578658Y-18026650D01*
X8578658Y-18026650D02*
X8607229Y-18026650D01*
X8607229Y-18026650D02*
X8626277Y-18036174D01*
X8626277Y-18036174D02*
X8635801Y-18055222D01*
X8635801Y-18055222D02*
X8635801Y-18159984D01*
X8635801Y-18055222D02*
X8645325Y-18036174D01*
X8645325Y-18036174D02*
X8664372Y-18026650D01*
X8664372Y-18026650D02*
X8692944Y-18026650D01*
X8692944Y-18026650D02*
X8711991Y-18036174D01*
X8711991Y-18036174D02*
X8721515Y-18055222D01*
X8721515Y-18055222D02*
X8721515Y-18159984D01*
X9111991Y-17950460D02*
X8940563Y-18207603D01*
X9369134Y-17959984D02*
X9388182Y-17959984D01*
X9388182Y-17959984D02*
X9407229Y-17969508D01*
X9407229Y-17969508D02*
X9416753Y-17979031D01*
X9416753Y-17979031D02*
X9426277Y-17998079D01*
X9426277Y-17998079D02*
X9435801Y-18036174D01*
X9435801Y-18036174D02*
X9435801Y-18083793D01*
X9435801Y-18083793D02*
X9426277Y-18121889D01*
X9426277Y-18121889D02*
X9416753Y-18140936D01*
X9416753Y-18140936D02*
X9407229Y-18150460D01*
X9407229Y-18150460D02*
X9388182Y-18159984D01*
X9388182Y-18159984D02*
X9369134Y-18159984D01*
X9369134Y-18159984D02*
X9350087Y-18150460D01*
X9350087Y-18150460D02*
X9340563Y-18140936D01*
X9340563Y-18140936D02*
X9331039Y-18121889D01*
X9331039Y-18121889D02*
X9321515Y-18083793D01*
X9321515Y-18083793D02*
X9321515Y-18036174D01*
X9321515Y-18036174D02*
X9331039Y-17998079D01*
X9331039Y-17998079D02*
X9340563Y-17979031D01*
X9340563Y-17979031D02*
X9350087Y-17969508D01*
X9350087Y-17969508D02*
X9369134Y-17959984D01*
X9521515Y-18140936D02*
X9531039Y-18150460D01*
X9531039Y-18150460D02*
X9521515Y-18159984D01*
X9521515Y-18159984D02*
X9511991Y-18150460D01*
X9511991Y-18150460D02*
X9521515Y-18140936D01*
X9521515Y-18140936D02*
X9521515Y-18159984D01*
X9654848Y-17959984D02*
X9673896Y-17959984D01*
X9673896Y-17959984D02*
X9692944Y-17969508D01*
X9692944Y-17969508D02*
X9702468Y-17979031D01*
X9702468Y-17979031D02*
X9711991Y-17998079D01*
X9711991Y-17998079D02*
X9721515Y-18036174D01*
X9721515Y-18036174D02*
X9721515Y-18083793D01*
X9721515Y-18083793D02*
X9711991Y-18121889D01*
X9711991Y-18121889D02*
X9702468Y-18140936D01*
X9702468Y-18140936D02*
X9692944Y-18150460D01*
X9692944Y-18150460D02*
X9673896Y-18159984D01*
X9673896Y-18159984D02*
X9654848Y-18159984D01*
X9654848Y-18159984D02*
X9635801Y-18150460D01*
X9635801Y-18150460D02*
X9626277Y-18140936D01*
X9626277Y-18140936D02*
X9616753Y-18121889D01*
X9616753Y-18121889D02*
X9607229Y-18083793D01*
X9607229Y-18083793D02*
X9607229Y-18036174D01*
X9607229Y-18036174D02*
X9616753Y-17998079D01*
X9616753Y-17998079D02*
X9626277Y-17979031D01*
X9626277Y-17979031D02*
X9635801Y-17969508D01*
X9635801Y-17969508D02*
X9654848Y-17959984D01*
X9788182Y-17959984D02*
X9911991Y-17959984D01*
X9911991Y-17959984D02*
X9845325Y-18036174D01*
X9845325Y-18036174D02*
X9873896Y-18036174D01*
X9873896Y-18036174D02*
X9892944Y-18045698D01*
X9892944Y-18045698D02*
X9902468Y-18055222D01*
X9902468Y-18055222D02*
X9911991Y-18074270D01*
X9911991Y-18074270D02*
X9911991Y-18121889D01*
X9911991Y-18121889D02*
X9902468Y-18140936D01*
X9902468Y-18140936D02*
X9892944Y-18150460D01*
X9892944Y-18150460D02*
X9873896Y-18159984D01*
X9873896Y-18159984D02*
X9816753Y-18159984D01*
X9816753Y-18159984D02*
X9797706Y-18150460D01*
X9797706Y-18150460D02*
X9788182Y-18140936D01*
X9978658Y-17959984D02*
X10111991Y-17959984D01*
X10111991Y-17959984D02*
X10026277Y-18159984D01*
X10273896Y-18026650D02*
X10273896Y-18159984D01*
X10226277Y-17950460D02*
X10178658Y-18093317D01*
X10178658Y-18093317D02*
X10302468Y-18093317D01*
X10369134Y-17959984D02*
X10369134Y-17998079D01*
X10445325Y-17959984D02*
X10445325Y-17998079D01*
X10740563Y-18236174D02*
X10731039Y-18226650D01*
X10731039Y-18226650D02*
X10711991Y-18198079D01*
X10711991Y-18198079D02*
X10702468Y-18179031D01*
X10702468Y-18179031D02*
X10692944Y-18150460D01*
X10692944Y-18150460D02*
X10683420Y-18102841D01*
X10683420Y-18102841D02*
X10683420Y-18064746D01*
X10683420Y-18064746D02*
X10692944Y-18017127D01*
X10692944Y-18017127D02*
X10702468Y-17988555D01*
X10702468Y-17988555D02*
X10711991Y-17969508D01*
X10711991Y-17969508D02*
X10731039Y-17940936D01*
X10731039Y-17940936D02*
X10740563Y-17931412D01*
X10921515Y-18159984D02*
X10807230Y-18159984D01*
X10864372Y-18159984D02*
X10864372Y-17959984D01*
X10864372Y-17959984D02*
X10845325Y-17988555D01*
X10845325Y-17988555D02*
X10826277Y-18007603D01*
X10826277Y-18007603D02*
X10807230Y-18017127D01*
X11102468Y-17959984D02*
X11007230Y-17959984D01*
X11007230Y-17959984D02*
X10997706Y-18055222D01*
X10997706Y-18055222D02*
X11007230Y-18045698D01*
X11007230Y-18045698D02*
X11026277Y-18036174D01*
X11026277Y-18036174D02*
X11073896Y-18036174D01*
X11073896Y-18036174D02*
X11092944Y-18045698D01*
X11092944Y-18045698D02*
X11102468Y-18055222D01*
X11102468Y-18055222D02*
X11111991Y-18074270D01*
X11111991Y-18074270D02*
X11111991Y-18121889D01*
X11111991Y-18121889D02*
X11102468Y-18140936D01*
X11102468Y-18140936D02*
X11092944Y-18150460D01*
X11092944Y-18150460D02*
X11073896Y-18159984D01*
X11073896Y-18159984D02*
X11026277Y-18159984D01*
X11026277Y-18159984D02*
X11007230Y-18150460D01*
X11007230Y-18150460D02*
X10997706Y-18140936D01*
X11350087Y-18159984D02*
X11350087Y-17959984D01*
X11435801Y-18159984D02*
X11435801Y-18055222D01*
X11435801Y-18055222D02*
X11426277Y-18036174D01*
X11426277Y-18036174D02*
X11407230Y-18026650D01*
X11407230Y-18026650D02*
X11378658Y-18026650D01*
X11378658Y-18026650D02*
X11359610Y-18036174D01*
X11359610Y-18036174D02*
X11350087Y-18045698D01*
X11559610Y-18159984D02*
X11540563Y-18150460D01*
X11540563Y-18150460D02*
X11531039Y-18140936D01*
X11531039Y-18140936D02*
X11521515Y-18121889D01*
X11521515Y-18121889D02*
X11521515Y-18064746D01*
X11521515Y-18064746D02*
X11531039Y-18045698D01*
X11531039Y-18045698D02*
X11540563Y-18036174D01*
X11540563Y-18036174D02*
X11559610Y-18026650D01*
X11559610Y-18026650D02*
X11588182Y-18026650D01*
X11588182Y-18026650D02*
X11607230Y-18036174D01*
X11607230Y-18036174D02*
X11616753Y-18045698D01*
X11616753Y-18045698D02*
X11626277Y-18064746D01*
X11626277Y-18064746D02*
X11626277Y-18121889D01*
X11626277Y-18121889D02*
X11616753Y-18140936D01*
X11616753Y-18140936D02*
X11607230Y-18150460D01*
X11607230Y-18150460D02*
X11588182Y-18159984D01*
X11588182Y-18159984D02*
X11559610Y-18159984D01*
X11740563Y-18159984D02*
X11721515Y-18150460D01*
X11721515Y-18150460D02*
X11711991Y-18131412D01*
X11711991Y-18131412D02*
X11711991Y-17959984D01*
X11892944Y-18150460D02*
X11873896Y-18159984D01*
X11873896Y-18159984D02*
X11835801Y-18159984D01*
X11835801Y-18159984D02*
X11816753Y-18150460D01*
X11816753Y-18150460D02*
X11807230Y-18131412D01*
X11807230Y-18131412D02*
X11807230Y-18055222D01*
X11807230Y-18055222D02*
X11816753Y-18036174D01*
X11816753Y-18036174D02*
X11835801Y-18026650D01*
X11835801Y-18026650D02*
X11873896Y-18026650D01*
X11873896Y-18026650D02*
X11892944Y-18036174D01*
X11892944Y-18036174D02*
X11902468Y-18055222D01*
X11902468Y-18055222D02*
X11902468Y-18074270D01*
X11902468Y-18074270D02*
X11807230Y-18093317D01*
X11978658Y-18150460D02*
X11997706Y-18159984D01*
X11997706Y-18159984D02*
X12035801Y-18159984D01*
X12035801Y-18159984D02*
X12054849Y-18150460D01*
X12054849Y-18150460D02*
X12064372Y-18131412D01*
X12064372Y-18131412D02*
X12064372Y-18121889D01*
X12064372Y-18121889D02*
X12054849Y-18102841D01*
X12054849Y-18102841D02*
X12035801Y-18093317D01*
X12035801Y-18093317D02*
X12007230Y-18093317D01*
X12007230Y-18093317D02*
X11988182Y-18083793D01*
X11988182Y-18083793D02*
X11978658Y-18064746D01*
X11978658Y-18064746D02*
X11978658Y-18055222D01*
X11978658Y-18055222D02*
X11988182Y-18036174D01*
X11988182Y-18036174D02*
X12007230Y-18026650D01*
X12007230Y-18026650D02*
X12035801Y-18026650D01*
X12035801Y-18026650D02*
X12054849Y-18036174D01*
X12131039Y-18236174D02*
X12140563Y-18226650D01*
X12140563Y-18226650D02*
X12159611Y-18198079D01*
X12159611Y-18198079D02*
X12169134Y-18179031D01*
X12169134Y-18179031D02*
X12178658Y-18150460D01*
X12178658Y-18150460D02*
X12188182Y-18102841D01*
X12188182Y-18102841D02*
X12188182Y-18064746D01*
X12188182Y-18064746D02*
X12178658Y-18017127D01*
X12178658Y-18017127D02*
X12169134Y-17988555D01*
X12169134Y-17988555D02*
X12159611Y-17969508D01*
X12159611Y-17969508D02*
X12140563Y-17940936D01*
X12140563Y-17940936D02*
X12131039Y-17931412D01*
D12*
X7150856Y-18367856D02*
X7150856Y-18297144D01*
X7080144Y-18297144D01*
X7080144Y-18367856D01*
X7150856Y-18367856D01*
D11*
X7531039Y-18423984D02*
X7416753Y-18423984D01*
X7473896Y-18423984D02*
X7473896Y-18223984D01*
X7473896Y-18223984D02*
X7454848Y-18252555D01*
X7454848Y-18252555D02*
X7435801Y-18271603D01*
X7435801Y-18271603D02*
X7416753Y-18281127D01*
X7616753Y-18404936D02*
X7626277Y-18414460D01*
X7626277Y-18414460D02*
X7616753Y-18423984D01*
X7616753Y-18423984D02*
X7607229Y-18414460D01*
X7607229Y-18414460D02*
X7616753Y-18404936D01*
X7616753Y-18404936D02*
X7616753Y-18423984D01*
X7750086Y-18223984D02*
X7769134Y-18223984D01*
X7769134Y-18223984D02*
X7788182Y-18233508D01*
X7788182Y-18233508D02*
X7797705Y-18243031D01*
X7797705Y-18243031D02*
X7807229Y-18262079D01*
X7807229Y-18262079D02*
X7816753Y-18300174D01*
X7816753Y-18300174D02*
X7816753Y-18347793D01*
X7816753Y-18347793D02*
X7807229Y-18385889D01*
X7807229Y-18385889D02*
X7797705Y-18404936D01*
X7797705Y-18404936D02*
X7788182Y-18414460D01*
X7788182Y-18414460D02*
X7769134Y-18423984D01*
X7769134Y-18423984D02*
X7750086Y-18423984D01*
X7750086Y-18423984D02*
X7731039Y-18414460D01*
X7731039Y-18414460D02*
X7721515Y-18404936D01*
X7721515Y-18404936D02*
X7711991Y-18385889D01*
X7711991Y-18385889D02*
X7702467Y-18347793D01*
X7702467Y-18347793D02*
X7702467Y-18300174D01*
X7702467Y-18300174D02*
X7711991Y-18262079D01*
X7711991Y-18262079D02*
X7721515Y-18243031D01*
X7721515Y-18243031D02*
X7731039Y-18233508D01*
X7731039Y-18233508D02*
X7750086Y-18223984D01*
X7940562Y-18223984D02*
X7959610Y-18223984D01*
X7959610Y-18223984D02*
X7978658Y-18233508D01*
X7978658Y-18233508D02*
X7988182Y-18243031D01*
X7988182Y-18243031D02*
X7997705Y-18262079D01*
X7997705Y-18262079D02*
X8007229Y-18300174D01*
X8007229Y-18300174D02*
X8007229Y-18347793D01*
X8007229Y-18347793D02*
X7997705Y-18385889D01*
X7997705Y-18385889D02*
X7988182Y-18404936D01*
X7988182Y-18404936D02*
X7978658Y-18414460D01*
X7978658Y-18414460D02*
X7959610Y-18423984D01*
X7959610Y-18423984D02*
X7940562Y-18423984D01*
X7940562Y-18423984D02*
X7921515Y-18414460D01*
X7921515Y-18414460D02*
X7911991Y-18404936D01*
X7911991Y-18404936D02*
X7902467Y-18385889D01*
X7902467Y-18385889D02*
X7892943Y-18347793D01*
X7892943Y-18347793D02*
X7892943Y-18300174D01*
X7892943Y-18300174D02*
X7902467Y-18262079D01*
X7902467Y-18262079D02*
X7911991Y-18243031D01*
X7911991Y-18243031D02*
X7921515Y-18233508D01*
X7921515Y-18233508D02*
X7940562Y-18223984D01*
X8131039Y-18223984D02*
X8150086Y-18223984D01*
X8150086Y-18223984D02*
X8169134Y-18233508D01*
X8169134Y-18233508D02*
X8178658Y-18243031D01*
X8178658Y-18243031D02*
X8188182Y-18262079D01*
X8188182Y-18262079D02*
X8197705Y-18300174D01*
X8197705Y-18300174D02*
X8197705Y-18347793D01*
X8197705Y-18347793D02*
X8188182Y-18385889D01*
X8188182Y-18385889D02*
X8178658Y-18404936D01*
X8178658Y-18404936D02*
X8169134Y-18414460D01*
X8169134Y-18414460D02*
X8150086Y-18423984D01*
X8150086Y-18423984D02*
X8131039Y-18423984D01*
X8131039Y-18423984D02*
X8111991Y-18414460D01*
X8111991Y-18414460D02*
X8102467Y-18404936D01*
X8102467Y-18404936D02*
X8092943Y-18385889D01*
X8092943Y-18385889D02*
X8083420Y-18347793D01*
X8083420Y-18347793D02*
X8083420Y-18300174D01*
X8083420Y-18300174D02*
X8092943Y-18262079D01*
X8092943Y-18262079D02*
X8102467Y-18243031D01*
X8102467Y-18243031D02*
X8111991Y-18233508D01*
X8111991Y-18233508D02*
X8131039Y-18223984D01*
X8283420Y-18423984D02*
X8283420Y-18290650D01*
X8283420Y-18309698D02*
X8292943Y-18300174D01*
X8292943Y-18300174D02*
X8311991Y-18290650D01*
X8311991Y-18290650D02*
X8340563Y-18290650D01*
X8340563Y-18290650D02*
X8359610Y-18300174D01*
X8359610Y-18300174D02*
X8369134Y-18319222D01*
X8369134Y-18319222D02*
X8369134Y-18423984D01*
X8369134Y-18319222D02*
X8378658Y-18300174D01*
X8378658Y-18300174D02*
X8397705Y-18290650D01*
X8397705Y-18290650D02*
X8426277Y-18290650D01*
X8426277Y-18290650D02*
X8445325Y-18300174D01*
X8445325Y-18300174D02*
X8454848Y-18319222D01*
X8454848Y-18319222D02*
X8454848Y-18423984D01*
X8550086Y-18423984D02*
X8550086Y-18290650D01*
X8550086Y-18309698D02*
X8559610Y-18300174D01*
X8559610Y-18300174D02*
X8578658Y-18290650D01*
X8578658Y-18290650D02*
X8607229Y-18290650D01*
X8607229Y-18290650D02*
X8626277Y-18300174D01*
X8626277Y-18300174D02*
X8635801Y-18319222D01*
X8635801Y-18319222D02*
X8635801Y-18423984D01*
X8635801Y-18319222D02*
X8645325Y-18300174D01*
X8645325Y-18300174D02*
X8664372Y-18290650D01*
X8664372Y-18290650D02*
X8692944Y-18290650D01*
X8692944Y-18290650D02*
X8711991Y-18300174D01*
X8711991Y-18300174D02*
X8721515Y-18319222D01*
X8721515Y-18319222D02*
X8721515Y-18423984D01*
X9111991Y-18214460D02*
X8940563Y-18471603D01*
X9369134Y-18223984D02*
X9388182Y-18223984D01*
X9388182Y-18223984D02*
X9407229Y-18233508D01*
X9407229Y-18233508D02*
X9416753Y-18243031D01*
X9416753Y-18243031D02*
X9426277Y-18262079D01*
X9426277Y-18262079D02*
X9435801Y-18300174D01*
X9435801Y-18300174D02*
X9435801Y-18347793D01*
X9435801Y-18347793D02*
X9426277Y-18385889D01*
X9426277Y-18385889D02*
X9416753Y-18404936D01*
X9416753Y-18404936D02*
X9407229Y-18414460D01*
X9407229Y-18414460D02*
X9388182Y-18423984D01*
X9388182Y-18423984D02*
X9369134Y-18423984D01*
X9369134Y-18423984D02*
X9350087Y-18414460D01*
X9350087Y-18414460D02*
X9340563Y-18404936D01*
X9340563Y-18404936D02*
X9331039Y-18385889D01*
X9331039Y-18385889D02*
X9321515Y-18347793D01*
X9321515Y-18347793D02*
X9321515Y-18300174D01*
X9321515Y-18300174D02*
X9331039Y-18262079D01*
X9331039Y-18262079D02*
X9340563Y-18243031D01*
X9340563Y-18243031D02*
X9350087Y-18233508D01*
X9350087Y-18233508D02*
X9369134Y-18223984D01*
X9521515Y-18404936D02*
X9531039Y-18414460D01*
X9531039Y-18414460D02*
X9521515Y-18423984D01*
X9521515Y-18423984D02*
X9511991Y-18414460D01*
X9511991Y-18414460D02*
X9521515Y-18404936D01*
X9521515Y-18404936D02*
X9521515Y-18423984D01*
X9654848Y-18223984D02*
X9673896Y-18223984D01*
X9673896Y-18223984D02*
X9692944Y-18233508D01*
X9692944Y-18233508D02*
X9702468Y-18243031D01*
X9702468Y-18243031D02*
X9711991Y-18262079D01*
X9711991Y-18262079D02*
X9721515Y-18300174D01*
X9721515Y-18300174D02*
X9721515Y-18347793D01*
X9721515Y-18347793D02*
X9711991Y-18385889D01*
X9711991Y-18385889D02*
X9702468Y-18404936D01*
X9702468Y-18404936D02*
X9692944Y-18414460D01*
X9692944Y-18414460D02*
X9673896Y-18423984D01*
X9673896Y-18423984D02*
X9654848Y-18423984D01*
X9654848Y-18423984D02*
X9635801Y-18414460D01*
X9635801Y-18414460D02*
X9626277Y-18404936D01*
X9626277Y-18404936D02*
X9616753Y-18385889D01*
X9616753Y-18385889D02*
X9607229Y-18347793D01*
X9607229Y-18347793D02*
X9607229Y-18300174D01*
X9607229Y-18300174D02*
X9616753Y-18262079D01*
X9616753Y-18262079D02*
X9626277Y-18243031D01*
X9626277Y-18243031D02*
X9635801Y-18233508D01*
X9635801Y-18233508D02*
X9654848Y-18223984D01*
X9788182Y-18223984D02*
X9911991Y-18223984D01*
X9911991Y-18223984D02*
X9845325Y-18300174D01*
X9845325Y-18300174D02*
X9873896Y-18300174D01*
X9873896Y-18300174D02*
X9892944Y-18309698D01*
X9892944Y-18309698D02*
X9902468Y-18319222D01*
X9902468Y-18319222D02*
X9911991Y-18338270D01*
X9911991Y-18338270D02*
X9911991Y-18385889D01*
X9911991Y-18385889D02*
X9902468Y-18404936D01*
X9902468Y-18404936D02*
X9892944Y-18414460D01*
X9892944Y-18414460D02*
X9873896Y-18423984D01*
X9873896Y-18423984D02*
X9816753Y-18423984D01*
X9816753Y-18423984D02*
X9797706Y-18414460D01*
X9797706Y-18414460D02*
X9788182Y-18404936D01*
X10007229Y-18423984D02*
X10045325Y-18423984D01*
X10045325Y-18423984D02*
X10064372Y-18414460D01*
X10064372Y-18414460D02*
X10073896Y-18404936D01*
X10073896Y-18404936D02*
X10092944Y-18376365D01*
X10092944Y-18376365D02*
X10102468Y-18338270D01*
X10102468Y-18338270D02*
X10102468Y-18262079D01*
X10102468Y-18262079D02*
X10092944Y-18243031D01*
X10092944Y-18243031D02*
X10083420Y-18233508D01*
X10083420Y-18233508D02*
X10064372Y-18223984D01*
X10064372Y-18223984D02*
X10026277Y-18223984D01*
X10026277Y-18223984D02*
X10007229Y-18233508D01*
X10007229Y-18233508D02*
X9997706Y-18243031D01*
X9997706Y-18243031D02*
X9988182Y-18262079D01*
X9988182Y-18262079D02*
X9988182Y-18309698D01*
X9988182Y-18309698D02*
X9997706Y-18328746D01*
X9997706Y-18328746D02*
X10007229Y-18338270D01*
X10007229Y-18338270D02*
X10026277Y-18347793D01*
X10026277Y-18347793D02*
X10064372Y-18347793D01*
X10064372Y-18347793D02*
X10083420Y-18338270D01*
X10083420Y-18338270D02*
X10092944Y-18328746D01*
X10092944Y-18328746D02*
X10102468Y-18309698D01*
X10273896Y-18290650D02*
X10273896Y-18423984D01*
X10226277Y-18214460D02*
X10178658Y-18357317D01*
X10178658Y-18357317D02*
X10302468Y-18357317D01*
X10369134Y-18223984D02*
X10369134Y-18262079D01*
X10445325Y-18223984D02*
X10445325Y-18262079D01*
X10740563Y-18500174D02*
X10731039Y-18490650D01*
X10731039Y-18490650D02*
X10711991Y-18462079D01*
X10711991Y-18462079D02*
X10702468Y-18443031D01*
X10702468Y-18443031D02*
X10692944Y-18414460D01*
X10692944Y-18414460D02*
X10683420Y-18366841D01*
X10683420Y-18366841D02*
X10683420Y-18328746D01*
X10683420Y-18328746D02*
X10692944Y-18281127D01*
X10692944Y-18281127D02*
X10702468Y-18252555D01*
X10702468Y-18252555D02*
X10711991Y-18233508D01*
X10711991Y-18233508D02*
X10731039Y-18204936D01*
X10731039Y-18204936D02*
X10740563Y-18195412D01*
X10797706Y-18223984D02*
X10921515Y-18223984D01*
X10921515Y-18223984D02*
X10854849Y-18300174D01*
X10854849Y-18300174D02*
X10883420Y-18300174D01*
X10883420Y-18300174D02*
X10902468Y-18309698D01*
X10902468Y-18309698D02*
X10911991Y-18319222D01*
X10911991Y-18319222D02*
X10921515Y-18338270D01*
X10921515Y-18338270D02*
X10921515Y-18385889D01*
X10921515Y-18385889D02*
X10911991Y-18404936D01*
X10911991Y-18404936D02*
X10902468Y-18414460D01*
X10902468Y-18414460D02*
X10883420Y-18423984D01*
X10883420Y-18423984D02*
X10826277Y-18423984D01*
X10826277Y-18423984D02*
X10807230Y-18414460D01*
X10807230Y-18414460D02*
X10797706Y-18404936D01*
X11159611Y-18423984D02*
X11159611Y-18223984D01*
X11245325Y-18423984D02*
X11245325Y-18319222D01*
X11245325Y-18319222D02*
X11235801Y-18300174D01*
X11235801Y-18300174D02*
X11216753Y-18290650D01*
X11216753Y-18290650D02*
X11188182Y-18290650D01*
X11188182Y-18290650D02*
X11169134Y-18300174D01*
X11169134Y-18300174D02*
X11159611Y-18309698D01*
X11369134Y-18423984D02*
X11350087Y-18414460D01*
X11350087Y-18414460D02*
X11340563Y-18404936D01*
X11340563Y-18404936D02*
X11331039Y-18385889D01*
X11331039Y-18385889D02*
X11331039Y-18328746D01*
X11331039Y-18328746D02*
X11340563Y-18309698D01*
X11340563Y-18309698D02*
X11350087Y-18300174D01*
X11350087Y-18300174D02*
X11369134Y-18290650D01*
X11369134Y-18290650D02*
X11397706Y-18290650D01*
X11397706Y-18290650D02*
X11416753Y-18300174D01*
X11416753Y-18300174D02*
X11426277Y-18309698D01*
X11426277Y-18309698D02*
X11435801Y-18328746D01*
X11435801Y-18328746D02*
X11435801Y-18385889D01*
X11435801Y-18385889D02*
X11426277Y-18404936D01*
X11426277Y-18404936D02*
X11416753Y-18414460D01*
X11416753Y-18414460D02*
X11397706Y-18423984D01*
X11397706Y-18423984D02*
X11369134Y-18423984D01*
X11550087Y-18423984D02*
X11531039Y-18414460D01*
X11531039Y-18414460D02*
X11521515Y-18395412D01*
X11521515Y-18395412D02*
X11521515Y-18223984D01*
X11702468Y-18414460D02*
X11683420Y-18423984D01*
X11683420Y-18423984D02*
X11645325Y-18423984D01*
X11645325Y-18423984D02*
X11626277Y-18414460D01*
X11626277Y-18414460D02*
X11616753Y-18395412D01*
X11616753Y-18395412D02*
X11616753Y-18319222D01*
X11616753Y-18319222D02*
X11626277Y-18300174D01*
X11626277Y-18300174D02*
X11645325Y-18290650D01*
X11645325Y-18290650D02*
X11683420Y-18290650D01*
X11683420Y-18290650D02*
X11702468Y-18300174D01*
X11702468Y-18300174D02*
X11711991Y-18319222D01*
X11711991Y-18319222D02*
X11711991Y-18338270D01*
X11711991Y-18338270D02*
X11616753Y-18357317D01*
X11788182Y-18414460D02*
X11807230Y-18423984D01*
X11807230Y-18423984D02*
X11845325Y-18423984D01*
X11845325Y-18423984D02*
X11864372Y-18414460D01*
X11864372Y-18414460D02*
X11873896Y-18395412D01*
X11873896Y-18395412D02*
X11873896Y-18385889D01*
X11873896Y-18385889D02*
X11864372Y-18366841D01*
X11864372Y-18366841D02*
X11845325Y-18357317D01*
X11845325Y-18357317D02*
X11816753Y-18357317D01*
X11816753Y-18357317D02*
X11797706Y-18347793D01*
X11797706Y-18347793D02*
X11788182Y-18328746D01*
X11788182Y-18328746D02*
X11788182Y-18319222D01*
X11788182Y-18319222D02*
X11797706Y-18300174D01*
X11797706Y-18300174D02*
X11816753Y-18290650D01*
X11816753Y-18290650D02*
X11845325Y-18290650D01*
X11845325Y-18290650D02*
X11864372Y-18300174D01*
X11940563Y-18500174D02*
X11950087Y-18490650D01*
X11950087Y-18490650D02*
X11969134Y-18462079D01*
X11969134Y-18462079D02*
X11978658Y-18443031D01*
X11978658Y-18443031D02*
X11988182Y-18414460D01*
X11988182Y-18414460D02*
X11997706Y-18366841D01*
X11997706Y-18366841D02*
X11997706Y-18328746D01*
X11997706Y-18328746D02*
X11988182Y-18281127D01*
X11988182Y-18281127D02*
X11978658Y-18252555D01*
X11978658Y-18252555D02*
X11969134Y-18233508D01*
X11969134Y-18233508D02*
X11950087Y-18204936D01*
X11950087Y-18204936D02*
X11940563Y-18195412D01*
D12*
X7115500Y-18646500D02*
X7165500Y-18596500D01*
X7115500Y-18546500D01*
X7065500Y-18596500D01*
X7115500Y-18646500D01*
D11*
X7531039Y-18687984D02*
X7416753Y-18687984D01*
X7473896Y-18687984D02*
X7473896Y-18487984D01*
X7473896Y-18487984D02*
X7454848Y-18516555D01*
X7454848Y-18516555D02*
X7435801Y-18535603D01*
X7435801Y-18535603D02*
X7416753Y-18545127D01*
X7616753Y-18668936D02*
X7626277Y-18678460D01*
X7626277Y-18678460D02*
X7616753Y-18687984D01*
X7616753Y-18687984D02*
X7607229Y-18678460D01*
X7607229Y-18678460D02*
X7616753Y-18668936D01*
X7616753Y-18668936D02*
X7616753Y-18687984D01*
X7750086Y-18487984D02*
X7769134Y-18487984D01*
X7769134Y-18487984D02*
X7788182Y-18497508D01*
X7788182Y-18497508D02*
X7797705Y-18507031D01*
X7797705Y-18507031D02*
X7807229Y-18526079D01*
X7807229Y-18526079D02*
X7816753Y-18564174D01*
X7816753Y-18564174D02*
X7816753Y-18611793D01*
X7816753Y-18611793D02*
X7807229Y-18649889D01*
X7807229Y-18649889D02*
X7797705Y-18668936D01*
X7797705Y-18668936D02*
X7788182Y-18678460D01*
X7788182Y-18678460D02*
X7769134Y-18687984D01*
X7769134Y-18687984D02*
X7750086Y-18687984D01*
X7750086Y-18687984D02*
X7731039Y-18678460D01*
X7731039Y-18678460D02*
X7721515Y-18668936D01*
X7721515Y-18668936D02*
X7711991Y-18649889D01*
X7711991Y-18649889D02*
X7702467Y-18611793D01*
X7702467Y-18611793D02*
X7702467Y-18564174D01*
X7702467Y-18564174D02*
X7711991Y-18526079D01*
X7711991Y-18526079D02*
X7721515Y-18507031D01*
X7721515Y-18507031D02*
X7731039Y-18497508D01*
X7731039Y-18497508D02*
X7750086Y-18487984D01*
X7940562Y-18487984D02*
X7959610Y-18487984D01*
X7959610Y-18487984D02*
X7978658Y-18497508D01*
X7978658Y-18497508D02*
X7988182Y-18507031D01*
X7988182Y-18507031D02*
X7997705Y-18526079D01*
X7997705Y-18526079D02*
X8007229Y-18564174D01*
X8007229Y-18564174D02*
X8007229Y-18611793D01*
X8007229Y-18611793D02*
X7997705Y-18649889D01*
X7997705Y-18649889D02*
X7988182Y-18668936D01*
X7988182Y-18668936D02*
X7978658Y-18678460D01*
X7978658Y-18678460D02*
X7959610Y-18687984D01*
X7959610Y-18687984D02*
X7940562Y-18687984D01*
X7940562Y-18687984D02*
X7921515Y-18678460D01*
X7921515Y-18678460D02*
X7911991Y-18668936D01*
X7911991Y-18668936D02*
X7902467Y-18649889D01*
X7902467Y-18649889D02*
X7892943Y-18611793D01*
X7892943Y-18611793D02*
X7892943Y-18564174D01*
X7892943Y-18564174D02*
X7902467Y-18526079D01*
X7902467Y-18526079D02*
X7911991Y-18507031D01*
X7911991Y-18507031D02*
X7921515Y-18497508D01*
X7921515Y-18497508D02*
X7940562Y-18487984D01*
X8131039Y-18487984D02*
X8150086Y-18487984D01*
X8150086Y-18487984D02*
X8169134Y-18497508D01*
X8169134Y-18497508D02*
X8178658Y-18507031D01*
X8178658Y-18507031D02*
X8188182Y-18526079D01*
X8188182Y-18526079D02*
X8197705Y-18564174D01*
X8197705Y-18564174D02*
X8197705Y-18611793D01*
X8197705Y-18611793D02*
X8188182Y-18649889D01*
X8188182Y-18649889D02*
X8178658Y-18668936D01*
X8178658Y-18668936D02*
X8169134Y-18678460D01*
X8169134Y-18678460D02*
X8150086Y-18687984D01*
X8150086Y-18687984D02*
X8131039Y-18687984D01*
X8131039Y-18687984D02*
X8111991Y-18678460D01*
X8111991Y-18678460D02*
X8102467Y-18668936D01*
X8102467Y-18668936D02*
X8092943Y-18649889D01*
X8092943Y-18649889D02*
X8083420Y-18611793D01*
X8083420Y-18611793D02*
X8083420Y-18564174D01*
X8083420Y-18564174D02*
X8092943Y-18526079D01*
X8092943Y-18526079D02*
X8102467Y-18507031D01*
X8102467Y-18507031D02*
X8111991Y-18497508D01*
X8111991Y-18497508D02*
X8131039Y-18487984D01*
X8283420Y-18687984D02*
X8283420Y-18554650D01*
X8283420Y-18573698D02*
X8292943Y-18564174D01*
X8292943Y-18564174D02*
X8311991Y-18554650D01*
X8311991Y-18554650D02*
X8340563Y-18554650D01*
X8340563Y-18554650D02*
X8359610Y-18564174D01*
X8359610Y-18564174D02*
X8369134Y-18583222D01*
X8369134Y-18583222D02*
X8369134Y-18687984D01*
X8369134Y-18583222D02*
X8378658Y-18564174D01*
X8378658Y-18564174D02*
X8397705Y-18554650D01*
X8397705Y-18554650D02*
X8426277Y-18554650D01*
X8426277Y-18554650D02*
X8445325Y-18564174D01*
X8445325Y-18564174D02*
X8454848Y-18583222D01*
X8454848Y-18583222D02*
X8454848Y-18687984D01*
X8550086Y-18687984D02*
X8550086Y-18554650D01*
X8550086Y-18573698D02*
X8559610Y-18564174D01*
X8559610Y-18564174D02*
X8578658Y-18554650D01*
X8578658Y-18554650D02*
X8607229Y-18554650D01*
X8607229Y-18554650D02*
X8626277Y-18564174D01*
X8626277Y-18564174D02*
X8635801Y-18583222D01*
X8635801Y-18583222D02*
X8635801Y-18687984D01*
X8635801Y-18583222D02*
X8645325Y-18564174D01*
X8645325Y-18564174D02*
X8664372Y-18554650D01*
X8664372Y-18554650D02*
X8692944Y-18554650D01*
X8692944Y-18554650D02*
X8711991Y-18564174D01*
X8711991Y-18564174D02*
X8721515Y-18583222D01*
X8721515Y-18583222D02*
X8721515Y-18687984D01*
X9111991Y-18478460D02*
X8940563Y-18735603D01*
X9369134Y-18487984D02*
X9388182Y-18487984D01*
X9388182Y-18487984D02*
X9407229Y-18497508D01*
X9407229Y-18497508D02*
X9416753Y-18507031D01*
X9416753Y-18507031D02*
X9426277Y-18526079D01*
X9426277Y-18526079D02*
X9435801Y-18564174D01*
X9435801Y-18564174D02*
X9435801Y-18611793D01*
X9435801Y-18611793D02*
X9426277Y-18649889D01*
X9426277Y-18649889D02*
X9416753Y-18668936D01*
X9416753Y-18668936D02*
X9407229Y-18678460D01*
X9407229Y-18678460D02*
X9388182Y-18687984D01*
X9388182Y-18687984D02*
X9369134Y-18687984D01*
X9369134Y-18687984D02*
X9350087Y-18678460D01*
X9350087Y-18678460D02*
X9340563Y-18668936D01*
X9340563Y-18668936D02*
X9331039Y-18649889D01*
X9331039Y-18649889D02*
X9321515Y-18611793D01*
X9321515Y-18611793D02*
X9321515Y-18564174D01*
X9321515Y-18564174D02*
X9331039Y-18526079D01*
X9331039Y-18526079D02*
X9340563Y-18507031D01*
X9340563Y-18507031D02*
X9350087Y-18497508D01*
X9350087Y-18497508D02*
X9369134Y-18487984D01*
X9521515Y-18668936D02*
X9531039Y-18678460D01*
X9531039Y-18678460D02*
X9521515Y-18687984D01*
X9521515Y-18687984D02*
X9511991Y-18678460D01*
X9511991Y-18678460D02*
X9521515Y-18668936D01*
X9521515Y-18668936D02*
X9521515Y-18687984D01*
X9654848Y-18487984D02*
X9673896Y-18487984D01*
X9673896Y-18487984D02*
X9692944Y-18497508D01*
X9692944Y-18497508D02*
X9702468Y-18507031D01*
X9702468Y-18507031D02*
X9711991Y-18526079D01*
X9711991Y-18526079D02*
X9721515Y-18564174D01*
X9721515Y-18564174D02*
X9721515Y-18611793D01*
X9721515Y-18611793D02*
X9711991Y-18649889D01*
X9711991Y-18649889D02*
X9702468Y-18668936D01*
X9702468Y-18668936D02*
X9692944Y-18678460D01*
X9692944Y-18678460D02*
X9673896Y-18687984D01*
X9673896Y-18687984D02*
X9654848Y-18687984D01*
X9654848Y-18687984D02*
X9635801Y-18678460D01*
X9635801Y-18678460D02*
X9626277Y-18668936D01*
X9626277Y-18668936D02*
X9616753Y-18649889D01*
X9616753Y-18649889D02*
X9607229Y-18611793D01*
X9607229Y-18611793D02*
X9607229Y-18564174D01*
X9607229Y-18564174D02*
X9616753Y-18526079D01*
X9616753Y-18526079D02*
X9626277Y-18507031D01*
X9626277Y-18507031D02*
X9635801Y-18497508D01*
X9635801Y-18497508D02*
X9654848Y-18487984D01*
X9788182Y-18487984D02*
X9911991Y-18487984D01*
X9911991Y-18487984D02*
X9845325Y-18564174D01*
X9845325Y-18564174D02*
X9873896Y-18564174D01*
X9873896Y-18564174D02*
X9892944Y-18573698D01*
X9892944Y-18573698D02*
X9902468Y-18583222D01*
X9902468Y-18583222D02*
X9911991Y-18602270D01*
X9911991Y-18602270D02*
X9911991Y-18649889D01*
X9911991Y-18649889D02*
X9902468Y-18668936D01*
X9902468Y-18668936D02*
X9892944Y-18678460D01*
X9892944Y-18678460D02*
X9873896Y-18687984D01*
X9873896Y-18687984D02*
X9816753Y-18687984D01*
X9816753Y-18687984D02*
X9797706Y-18678460D01*
X9797706Y-18678460D02*
X9788182Y-18668936D01*
X10007229Y-18687984D02*
X10045325Y-18687984D01*
X10045325Y-18687984D02*
X10064372Y-18678460D01*
X10064372Y-18678460D02*
X10073896Y-18668936D01*
X10073896Y-18668936D02*
X10092944Y-18640365D01*
X10092944Y-18640365D02*
X10102468Y-18602270D01*
X10102468Y-18602270D02*
X10102468Y-18526079D01*
X10102468Y-18526079D02*
X10092944Y-18507031D01*
X10092944Y-18507031D02*
X10083420Y-18497508D01*
X10083420Y-18497508D02*
X10064372Y-18487984D01*
X10064372Y-18487984D02*
X10026277Y-18487984D01*
X10026277Y-18487984D02*
X10007229Y-18497508D01*
X10007229Y-18497508D02*
X9997706Y-18507031D01*
X9997706Y-18507031D02*
X9988182Y-18526079D01*
X9988182Y-18526079D02*
X9988182Y-18573698D01*
X9988182Y-18573698D02*
X9997706Y-18592746D01*
X9997706Y-18592746D02*
X10007229Y-18602270D01*
X10007229Y-18602270D02*
X10026277Y-18611793D01*
X10026277Y-18611793D02*
X10064372Y-18611793D01*
X10064372Y-18611793D02*
X10083420Y-18602270D01*
X10083420Y-18602270D02*
X10092944Y-18592746D01*
X10092944Y-18592746D02*
X10102468Y-18573698D01*
X10273896Y-18554650D02*
X10273896Y-18687984D01*
X10226277Y-18478460D02*
X10178658Y-18621317D01*
X10178658Y-18621317D02*
X10302468Y-18621317D01*
X10369134Y-18487984D02*
X10369134Y-18526079D01*
X10445325Y-18487984D02*
X10445325Y-18526079D01*
X10740563Y-18764174D02*
X10731039Y-18754650D01*
X10731039Y-18754650D02*
X10711991Y-18726079D01*
X10711991Y-18726079D02*
X10702468Y-18707031D01*
X10702468Y-18707031D02*
X10692944Y-18678460D01*
X10692944Y-18678460D02*
X10683420Y-18630841D01*
X10683420Y-18630841D02*
X10683420Y-18592746D01*
X10683420Y-18592746D02*
X10692944Y-18545127D01*
X10692944Y-18545127D02*
X10702468Y-18516555D01*
X10702468Y-18516555D02*
X10711991Y-18497508D01*
X10711991Y-18497508D02*
X10731039Y-18468936D01*
X10731039Y-18468936D02*
X10740563Y-18459412D01*
X10921515Y-18687984D02*
X10807230Y-18687984D01*
X10864372Y-18687984D02*
X10864372Y-18487984D01*
X10864372Y-18487984D02*
X10845325Y-18516555D01*
X10845325Y-18516555D02*
X10826277Y-18535603D01*
X10826277Y-18535603D02*
X10807230Y-18545127D01*
X11045325Y-18487984D02*
X11064372Y-18487984D01*
X11064372Y-18487984D02*
X11083420Y-18497508D01*
X11083420Y-18497508D02*
X11092944Y-18507031D01*
X11092944Y-18507031D02*
X11102468Y-18526079D01*
X11102468Y-18526079D02*
X11111991Y-18564174D01*
X11111991Y-18564174D02*
X11111991Y-18611793D01*
X11111991Y-18611793D02*
X11102468Y-18649889D01*
X11102468Y-18649889D02*
X11092944Y-18668936D01*
X11092944Y-18668936D02*
X11083420Y-18678460D01*
X11083420Y-18678460D02*
X11064372Y-18687984D01*
X11064372Y-18687984D02*
X11045325Y-18687984D01*
X11045325Y-18687984D02*
X11026277Y-18678460D01*
X11026277Y-18678460D02*
X11016753Y-18668936D01*
X11016753Y-18668936D02*
X11007230Y-18649889D01*
X11007230Y-18649889D02*
X10997706Y-18611793D01*
X10997706Y-18611793D02*
X10997706Y-18564174D01*
X10997706Y-18564174D02*
X11007230Y-18526079D01*
X11007230Y-18526079D02*
X11016753Y-18507031D01*
X11016753Y-18507031D02*
X11026277Y-18497508D01*
X11026277Y-18497508D02*
X11045325Y-18487984D01*
X11188182Y-18507031D02*
X11197706Y-18497508D01*
X11197706Y-18497508D02*
X11216753Y-18487984D01*
X11216753Y-18487984D02*
X11264372Y-18487984D01*
X11264372Y-18487984D02*
X11283420Y-18497508D01*
X11283420Y-18497508D02*
X11292944Y-18507031D01*
X11292944Y-18507031D02*
X11302468Y-18526079D01*
X11302468Y-18526079D02*
X11302468Y-18545127D01*
X11302468Y-18545127D02*
X11292944Y-18573698D01*
X11292944Y-18573698D02*
X11178658Y-18687984D01*
X11178658Y-18687984D02*
X11302468Y-18687984D01*
X11540563Y-18687984D02*
X11540563Y-18487984D01*
X11626277Y-18687984D02*
X11626277Y-18583222D01*
X11626277Y-18583222D02*
X11616753Y-18564174D01*
X11616753Y-18564174D02*
X11597706Y-18554650D01*
X11597706Y-18554650D02*
X11569134Y-18554650D01*
X11569134Y-18554650D02*
X11550087Y-18564174D01*
X11550087Y-18564174D02*
X11540563Y-18573698D01*
X11750087Y-18687984D02*
X11731039Y-18678460D01*
X11731039Y-18678460D02*
X11721515Y-18668936D01*
X11721515Y-18668936D02*
X11711991Y-18649889D01*
X11711991Y-18649889D02*
X11711991Y-18592746D01*
X11711991Y-18592746D02*
X11721515Y-18573698D01*
X11721515Y-18573698D02*
X11731039Y-18564174D01*
X11731039Y-18564174D02*
X11750087Y-18554650D01*
X11750087Y-18554650D02*
X11778658Y-18554650D01*
X11778658Y-18554650D02*
X11797706Y-18564174D01*
X11797706Y-18564174D02*
X11807230Y-18573698D01*
X11807230Y-18573698D02*
X11816753Y-18592746D01*
X11816753Y-18592746D02*
X11816753Y-18649889D01*
X11816753Y-18649889D02*
X11807230Y-18668936D01*
X11807230Y-18668936D02*
X11797706Y-18678460D01*
X11797706Y-18678460D02*
X11778658Y-18687984D01*
X11778658Y-18687984D02*
X11750087Y-18687984D01*
X11931039Y-18687984D02*
X11911991Y-18678460D01*
X11911991Y-18678460D02*
X11902468Y-18659412D01*
X11902468Y-18659412D02*
X11902468Y-18487984D01*
X12083420Y-18678460D02*
X12064372Y-18687984D01*
X12064372Y-18687984D02*
X12026277Y-18687984D01*
X12026277Y-18687984D02*
X12007230Y-18678460D01*
X12007230Y-18678460D02*
X11997706Y-18659412D01*
X11997706Y-18659412D02*
X11997706Y-18583222D01*
X11997706Y-18583222D02*
X12007230Y-18564174D01*
X12007230Y-18564174D02*
X12026277Y-18554650D01*
X12026277Y-18554650D02*
X12064372Y-18554650D01*
X12064372Y-18554650D02*
X12083420Y-18564174D01*
X12083420Y-18564174D02*
X12092944Y-18583222D01*
X12092944Y-18583222D02*
X12092944Y-18602270D01*
X12092944Y-18602270D02*
X11997706Y-18621317D01*
X12169134Y-18678460D02*
X12188182Y-18687984D01*
X12188182Y-18687984D02*
X12226277Y-18687984D01*
X12226277Y-18687984D02*
X12245325Y-18678460D01*
X12245325Y-18678460D02*
X12254849Y-18659412D01*
X12254849Y-18659412D02*
X12254849Y-18649889D01*
X12254849Y-18649889D02*
X12245325Y-18630841D01*
X12245325Y-18630841D02*
X12226277Y-18621317D01*
X12226277Y-18621317D02*
X12197706Y-18621317D01*
X12197706Y-18621317D02*
X12178658Y-18611793D01*
X12178658Y-18611793D02*
X12169134Y-18592746D01*
X12169134Y-18592746D02*
X12169134Y-18583222D01*
X12169134Y-18583222D02*
X12178658Y-18564174D01*
X12178658Y-18564174D02*
X12197706Y-18554650D01*
X12197706Y-18554650D02*
X12226277Y-18554650D01*
X12226277Y-18554650D02*
X12245325Y-18564174D01*
X12321515Y-18764174D02*
X12331039Y-18754650D01*
X12331039Y-18754650D02*
X12350087Y-18726079D01*
X12350087Y-18726079D02*
X12359611Y-18707031D01*
X12359611Y-18707031D02*
X12369134Y-18678460D01*
X12369134Y-18678460D02*
X12378658Y-18630841D01*
X12378658Y-18630841D02*
X12378658Y-18592746D01*
X12378658Y-18592746D02*
X12369134Y-18545127D01*
X12369134Y-18545127D02*
X12359611Y-18516555D01*
X12359611Y-18516555D02*
X12350087Y-18497508D01*
X12350087Y-18497508D02*
X12331039Y-18468936D01*
X12331039Y-18468936D02*
X12321515Y-18459412D01*
D13*
X7055500Y-18805500D02*
X7165500Y-18915500D01*
X7165500Y-18805500D02*
X7055500Y-18915500D01*
X7165500Y-18860500D02*
G75*
G02*
X7055500Y-18860500I-55000J0D01*
G01*
X7055500Y-18860500D02*
G75*
G02*
X7165500Y-18860500I55000J0D01*
G01*
D11*
X7531039Y-18951984D02*
X7416753Y-18951984D01*
X7473896Y-18951984D02*
X7473896Y-18751984D01*
X7473896Y-18751984D02*
X7454848Y-18780555D01*
X7454848Y-18780555D02*
X7435801Y-18799603D01*
X7435801Y-18799603D02*
X7416753Y-18809127D01*
X7616753Y-18932936D02*
X7626277Y-18942460D01*
X7626277Y-18942460D02*
X7616753Y-18951984D01*
X7616753Y-18951984D02*
X7607229Y-18942460D01*
X7607229Y-18942460D02*
X7616753Y-18932936D01*
X7616753Y-18932936D02*
X7616753Y-18951984D01*
X7816753Y-18951984D02*
X7702467Y-18951984D01*
X7759610Y-18951984D02*
X7759610Y-18751984D01*
X7759610Y-18751984D02*
X7740562Y-18780555D01*
X7740562Y-18780555D02*
X7721515Y-18799603D01*
X7721515Y-18799603D02*
X7702467Y-18809127D01*
X7940562Y-18751984D02*
X7959610Y-18751984D01*
X7959610Y-18751984D02*
X7978658Y-18761508D01*
X7978658Y-18761508D02*
X7988182Y-18771031D01*
X7988182Y-18771031D02*
X7997705Y-18790079D01*
X7997705Y-18790079D02*
X8007229Y-18828174D01*
X8007229Y-18828174D02*
X8007229Y-18875793D01*
X8007229Y-18875793D02*
X7997705Y-18913889D01*
X7997705Y-18913889D02*
X7988182Y-18932936D01*
X7988182Y-18932936D02*
X7978658Y-18942460D01*
X7978658Y-18942460D02*
X7959610Y-18951984D01*
X7959610Y-18951984D02*
X7940562Y-18951984D01*
X7940562Y-18951984D02*
X7921515Y-18942460D01*
X7921515Y-18942460D02*
X7911991Y-18932936D01*
X7911991Y-18932936D02*
X7902467Y-18913889D01*
X7902467Y-18913889D02*
X7892943Y-18875793D01*
X7892943Y-18875793D02*
X7892943Y-18828174D01*
X7892943Y-18828174D02*
X7902467Y-18790079D01*
X7902467Y-18790079D02*
X7911991Y-18771031D01*
X7911991Y-18771031D02*
X7921515Y-18761508D01*
X7921515Y-18761508D02*
X7940562Y-18751984D01*
X8131039Y-18751984D02*
X8150086Y-18751984D01*
X8150086Y-18751984D02*
X8169134Y-18761508D01*
X8169134Y-18761508D02*
X8178658Y-18771031D01*
X8178658Y-18771031D02*
X8188182Y-18790079D01*
X8188182Y-18790079D02*
X8197705Y-18828174D01*
X8197705Y-18828174D02*
X8197705Y-18875793D01*
X8197705Y-18875793D02*
X8188182Y-18913889D01*
X8188182Y-18913889D02*
X8178658Y-18932936D01*
X8178658Y-18932936D02*
X8169134Y-18942460D01*
X8169134Y-18942460D02*
X8150086Y-18951984D01*
X8150086Y-18951984D02*
X8131039Y-18951984D01*
X8131039Y-18951984D02*
X8111991Y-18942460D01*
X8111991Y-18942460D02*
X8102467Y-18932936D01*
X8102467Y-18932936D02*
X8092943Y-18913889D01*
X8092943Y-18913889D02*
X8083420Y-18875793D01*
X8083420Y-18875793D02*
X8083420Y-18828174D01*
X8083420Y-18828174D02*
X8092943Y-18790079D01*
X8092943Y-18790079D02*
X8102467Y-18771031D01*
X8102467Y-18771031D02*
X8111991Y-18761508D01*
X8111991Y-18761508D02*
X8131039Y-18751984D01*
X8283420Y-18951984D02*
X8283420Y-18818650D01*
X8283420Y-18837698D02*
X8292943Y-18828174D01*
X8292943Y-18828174D02*
X8311991Y-18818650D01*
X8311991Y-18818650D02*
X8340563Y-18818650D01*
X8340563Y-18818650D02*
X8359610Y-18828174D01*
X8359610Y-18828174D02*
X8369134Y-18847222D01*
X8369134Y-18847222D02*
X8369134Y-18951984D01*
X8369134Y-18847222D02*
X8378658Y-18828174D01*
X8378658Y-18828174D02*
X8397705Y-18818650D01*
X8397705Y-18818650D02*
X8426277Y-18818650D01*
X8426277Y-18818650D02*
X8445325Y-18828174D01*
X8445325Y-18828174D02*
X8454848Y-18847222D01*
X8454848Y-18847222D02*
X8454848Y-18951984D01*
X8550086Y-18951984D02*
X8550086Y-18818650D01*
X8550086Y-18837698D02*
X8559610Y-18828174D01*
X8559610Y-18828174D02*
X8578658Y-18818650D01*
X8578658Y-18818650D02*
X8607229Y-18818650D01*
X8607229Y-18818650D02*
X8626277Y-18828174D01*
X8626277Y-18828174D02*
X8635801Y-18847222D01*
X8635801Y-18847222D02*
X8635801Y-18951984D01*
X8635801Y-18847222D02*
X8645325Y-18828174D01*
X8645325Y-18828174D02*
X8664372Y-18818650D01*
X8664372Y-18818650D02*
X8692944Y-18818650D01*
X8692944Y-18818650D02*
X8711991Y-18828174D01*
X8711991Y-18828174D02*
X8721515Y-18847222D01*
X8721515Y-18847222D02*
X8721515Y-18951984D01*
X9111991Y-18742460D02*
X8940563Y-18999603D01*
X9369134Y-18751984D02*
X9388182Y-18751984D01*
X9388182Y-18751984D02*
X9407229Y-18761508D01*
X9407229Y-18761508D02*
X9416753Y-18771031D01*
X9416753Y-18771031D02*
X9426277Y-18790079D01*
X9426277Y-18790079D02*
X9435801Y-18828174D01*
X9435801Y-18828174D02*
X9435801Y-18875793D01*
X9435801Y-18875793D02*
X9426277Y-18913889D01*
X9426277Y-18913889D02*
X9416753Y-18932936D01*
X9416753Y-18932936D02*
X9407229Y-18942460D01*
X9407229Y-18942460D02*
X9388182Y-18951984D01*
X9388182Y-18951984D02*
X9369134Y-18951984D01*
X9369134Y-18951984D02*
X9350087Y-18942460D01*
X9350087Y-18942460D02*
X9340563Y-18932936D01*
X9340563Y-18932936D02*
X9331039Y-18913889D01*
X9331039Y-18913889D02*
X9321515Y-18875793D01*
X9321515Y-18875793D02*
X9321515Y-18828174D01*
X9321515Y-18828174D02*
X9331039Y-18790079D01*
X9331039Y-18790079D02*
X9340563Y-18771031D01*
X9340563Y-18771031D02*
X9350087Y-18761508D01*
X9350087Y-18761508D02*
X9369134Y-18751984D01*
X9521515Y-18932936D02*
X9531039Y-18942460D01*
X9531039Y-18942460D02*
X9521515Y-18951984D01*
X9521515Y-18951984D02*
X9511991Y-18942460D01*
X9511991Y-18942460D02*
X9521515Y-18932936D01*
X9521515Y-18932936D02*
X9521515Y-18951984D01*
X9654848Y-18751984D02*
X9673896Y-18751984D01*
X9673896Y-18751984D02*
X9692944Y-18761508D01*
X9692944Y-18761508D02*
X9702468Y-18771031D01*
X9702468Y-18771031D02*
X9711991Y-18790079D01*
X9711991Y-18790079D02*
X9721515Y-18828174D01*
X9721515Y-18828174D02*
X9721515Y-18875793D01*
X9721515Y-18875793D02*
X9711991Y-18913889D01*
X9711991Y-18913889D02*
X9702468Y-18932936D01*
X9702468Y-18932936D02*
X9692944Y-18942460D01*
X9692944Y-18942460D02*
X9673896Y-18951984D01*
X9673896Y-18951984D02*
X9654848Y-18951984D01*
X9654848Y-18951984D02*
X9635801Y-18942460D01*
X9635801Y-18942460D02*
X9626277Y-18932936D01*
X9626277Y-18932936D02*
X9616753Y-18913889D01*
X9616753Y-18913889D02*
X9607229Y-18875793D01*
X9607229Y-18875793D02*
X9607229Y-18828174D01*
X9607229Y-18828174D02*
X9616753Y-18790079D01*
X9616753Y-18790079D02*
X9626277Y-18771031D01*
X9626277Y-18771031D02*
X9635801Y-18761508D01*
X9635801Y-18761508D02*
X9654848Y-18751984D01*
X9892944Y-18818650D02*
X9892944Y-18951984D01*
X9845325Y-18742460D02*
X9797706Y-18885317D01*
X9797706Y-18885317D02*
X9921515Y-18885317D01*
X9978658Y-18751984D02*
X10102468Y-18751984D01*
X10102468Y-18751984D02*
X10035801Y-18828174D01*
X10035801Y-18828174D02*
X10064372Y-18828174D01*
X10064372Y-18828174D02*
X10083420Y-18837698D01*
X10083420Y-18837698D02*
X10092944Y-18847222D01*
X10092944Y-18847222D02*
X10102468Y-18866270D01*
X10102468Y-18866270D02*
X10102468Y-18913889D01*
X10102468Y-18913889D02*
X10092944Y-18932936D01*
X10092944Y-18932936D02*
X10083420Y-18942460D01*
X10083420Y-18942460D02*
X10064372Y-18951984D01*
X10064372Y-18951984D02*
X10007229Y-18951984D01*
X10007229Y-18951984D02*
X9988182Y-18942460D01*
X9988182Y-18942460D02*
X9978658Y-18932936D01*
X10169134Y-18751984D02*
X10292944Y-18751984D01*
X10292944Y-18751984D02*
X10226277Y-18828174D01*
X10226277Y-18828174D02*
X10254849Y-18828174D01*
X10254849Y-18828174D02*
X10273896Y-18837698D01*
X10273896Y-18837698D02*
X10283420Y-18847222D01*
X10283420Y-18847222D02*
X10292944Y-18866270D01*
X10292944Y-18866270D02*
X10292944Y-18913889D01*
X10292944Y-18913889D02*
X10283420Y-18932936D01*
X10283420Y-18932936D02*
X10273896Y-18942460D01*
X10273896Y-18942460D02*
X10254849Y-18951984D01*
X10254849Y-18951984D02*
X10197706Y-18951984D01*
X10197706Y-18951984D02*
X10178658Y-18942460D01*
X10178658Y-18942460D02*
X10169134Y-18932936D01*
X10369134Y-18751984D02*
X10369134Y-18790079D01*
X10445325Y-18751984D02*
X10445325Y-18790079D01*
X10740563Y-19028174D02*
X10731039Y-19018650D01*
X10731039Y-19018650D02*
X10711991Y-18990079D01*
X10711991Y-18990079D02*
X10702468Y-18971031D01*
X10702468Y-18971031D02*
X10692944Y-18942460D01*
X10692944Y-18942460D02*
X10683420Y-18894841D01*
X10683420Y-18894841D02*
X10683420Y-18856746D01*
X10683420Y-18856746D02*
X10692944Y-18809127D01*
X10692944Y-18809127D02*
X10702468Y-18780555D01*
X10702468Y-18780555D02*
X10711991Y-18761508D01*
X10711991Y-18761508D02*
X10731039Y-18732936D01*
X10731039Y-18732936D02*
X10740563Y-18723412D01*
X10826277Y-18951984D02*
X10864372Y-18951984D01*
X10864372Y-18951984D02*
X10883420Y-18942460D01*
X10883420Y-18942460D02*
X10892944Y-18932936D01*
X10892944Y-18932936D02*
X10911991Y-18904365D01*
X10911991Y-18904365D02*
X10921515Y-18866270D01*
X10921515Y-18866270D02*
X10921515Y-18790079D01*
X10921515Y-18790079D02*
X10911991Y-18771031D01*
X10911991Y-18771031D02*
X10902468Y-18761508D01*
X10902468Y-18761508D02*
X10883420Y-18751984D01*
X10883420Y-18751984D02*
X10845325Y-18751984D01*
X10845325Y-18751984D02*
X10826277Y-18761508D01*
X10826277Y-18761508D02*
X10816753Y-18771031D01*
X10816753Y-18771031D02*
X10807230Y-18790079D01*
X10807230Y-18790079D02*
X10807230Y-18837698D01*
X10807230Y-18837698D02*
X10816753Y-18856746D01*
X10816753Y-18856746D02*
X10826277Y-18866270D01*
X10826277Y-18866270D02*
X10845325Y-18875793D01*
X10845325Y-18875793D02*
X10883420Y-18875793D01*
X10883420Y-18875793D02*
X10902468Y-18866270D01*
X10902468Y-18866270D02*
X10911991Y-18856746D01*
X10911991Y-18856746D02*
X10921515Y-18837698D01*
X11159611Y-18951984D02*
X11159611Y-18751984D01*
X11245325Y-18951984D02*
X11245325Y-18847222D01*
X11245325Y-18847222D02*
X11235801Y-18828174D01*
X11235801Y-18828174D02*
X11216753Y-18818650D01*
X11216753Y-18818650D02*
X11188182Y-18818650D01*
X11188182Y-18818650D02*
X11169134Y-18828174D01*
X11169134Y-18828174D02*
X11159611Y-18837698D01*
X11369134Y-18951984D02*
X11350087Y-18942460D01*
X11350087Y-18942460D02*
X11340563Y-18932936D01*
X11340563Y-18932936D02*
X11331039Y-18913889D01*
X11331039Y-18913889D02*
X11331039Y-18856746D01*
X11331039Y-18856746D02*
X11340563Y-18837698D01*
X11340563Y-18837698D02*
X11350087Y-18828174D01*
X11350087Y-18828174D02*
X11369134Y-18818650D01*
X11369134Y-18818650D02*
X11397706Y-18818650D01*
X11397706Y-18818650D02*
X11416753Y-18828174D01*
X11416753Y-18828174D02*
X11426277Y-18837698D01*
X11426277Y-18837698D02*
X11435801Y-18856746D01*
X11435801Y-18856746D02*
X11435801Y-18913889D01*
X11435801Y-18913889D02*
X11426277Y-18932936D01*
X11426277Y-18932936D02*
X11416753Y-18942460D01*
X11416753Y-18942460D02*
X11397706Y-18951984D01*
X11397706Y-18951984D02*
X11369134Y-18951984D01*
X11550087Y-18951984D02*
X11531039Y-18942460D01*
X11531039Y-18942460D02*
X11521515Y-18923412D01*
X11521515Y-18923412D02*
X11521515Y-18751984D01*
X11702468Y-18942460D02*
X11683420Y-18951984D01*
X11683420Y-18951984D02*
X11645325Y-18951984D01*
X11645325Y-18951984D02*
X11626277Y-18942460D01*
X11626277Y-18942460D02*
X11616753Y-18923412D01*
X11616753Y-18923412D02*
X11616753Y-18847222D01*
X11616753Y-18847222D02*
X11626277Y-18828174D01*
X11626277Y-18828174D02*
X11645325Y-18818650D01*
X11645325Y-18818650D02*
X11683420Y-18818650D01*
X11683420Y-18818650D02*
X11702468Y-18828174D01*
X11702468Y-18828174D02*
X11711991Y-18847222D01*
X11711991Y-18847222D02*
X11711991Y-18866270D01*
X11711991Y-18866270D02*
X11616753Y-18885317D01*
X11788182Y-18942460D02*
X11807230Y-18951984D01*
X11807230Y-18951984D02*
X11845325Y-18951984D01*
X11845325Y-18951984D02*
X11864372Y-18942460D01*
X11864372Y-18942460D02*
X11873896Y-18923412D01*
X11873896Y-18923412D02*
X11873896Y-18913889D01*
X11873896Y-18913889D02*
X11864372Y-18894841D01*
X11864372Y-18894841D02*
X11845325Y-18885317D01*
X11845325Y-18885317D02*
X11816753Y-18885317D01*
X11816753Y-18885317D02*
X11797706Y-18875793D01*
X11797706Y-18875793D02*
X11788182Y-18856746D01*
X11788182Y-18856746D02*
X11788182Y-18847222D01*
X11788182Y-18847222D02*
X11797706Y-18828174D01*
X11797706Y-18828174D02*
X11816753Y-18818650D01*
X11816753Y-18818650D02*
X11845325Y-18818650D01*
X11845325Y-18818650D02*
X11864372Y-18828174D01*
X11940563Y-19028174D02*
X11950087Y-19018650D01*
X11950087Y-19018650D02*
X11969134Y-18990079D01*
X11969134Y-18990079D02*
X11978658Y-18971031D01*
X11978658Y-18971031D02*
X11988182Y-18942460D01*
X11988182Y-18942460D02*
X11997706Y-18894841D01*
X11997706Y-18894841D02*
X11997706Y-18856746D01*
X11997706Y-18856746D02*
X11988182Y-18809127D01*
X11988182Y-18809127D02*
X11978658Y-18780555D01*
X11978658Y-18780555D02*
X11969134Y-18761508D01*
X11969134Y-18761508D02*
X11950087Y-18732936D01*
X11950087Y-18732936D02*
X11940563Y-18723412D01*
D14*
X7035500Y-19059500D02*
X7165500Y-19189500D01*
X7165500Y-19059500D02*
X7035500Y-19189500D01*
X7100500Y-19059500D02*
X7100500Y-19189500D01*
X7035500Y-19124500D02*
X7165500Y-19124500D01*
D11*
X7531039Y-19215984D02*
X7416753Y-19215984D01*
X7473896Y-19215984D02*
X7473896Y-19015984D01*
X7473896Y-19015984D02*
X7454848Y-19044555D01*
X7454848Y-19044555D02*
X7435801Y-19063603D01*
X7435801Y-19063603D02*
X7416753Y-19073127D01*
X7616753Y-19196936D02*
X7626277Y-19206460D01*
X7626277Y-19206460D02*
X7616753Y-19215984D01*
X7616753Y-19215984D02*
X7607229Y-19206460D01*
X7607229Y-19206460D02*
X7616753Y-19196936D01*
X7616753Y-19196936D02*
X7616753Y-19215984D01*
X7692943Y-19015984D02*
X7816753Y-19015984D01*
X7816753Y-19015984D02*
X7750086Y-19092174D01*
X7750086Y-19092174D02*
X7778658Y-19092174D01*
X7778658Y-19092174D02*
X7797705Y-19101698D01*
X7797705Y-19101698D02*
X7807229Y-19111222D01*
X7807229Y-19111222D02*
X7816753Y-19130270D01*
X7816753Y-19130270D02*
X7816753Y-19177889D01*
X7816753Y-19177889D02*
X7807229Y-19196936D01*
X7807229Y-19196936D02*
X7797705Y-19206460D01*
X7797705Y-19206460D02*
X7778658Y-19215984D01*
X7778658Y-19215984D02*
X7721515Y-19215984D01*
X7721515Y-19215984D02*
X7702467Y-19206460D01*
X7702467Y-19206460D02*
X7692943Y-19196936D01*
X7940562Y-19015984D02*
X7959610Y-19015984D01*
X7959610Y-19015984D02*
X7978658Y-19025508D01*
X7978658Y-19025508D02*
X7988182Y-19035031D01*
X7988182Y-19035031D02*
X7997705Y-19054079D01*
X7997705Y-19054079D02*
X8007229Y-19092174D01*
X8007229Y-19092174D02*
X8007229Y-19139793D01*
X8007229Y-19139793D02*
X7997705Y-19177889D01*
X7997705Y-19177889D02*
X7988182Y-19196936D01*
X7988182Y-19196936D02*
X7978658Y-19206460D01*
X7978658Y-19206460D02*
X7959610Y-19215984D01*
X7959610Y-19215984D02*
X7940562Y-19215984D01*
X7940562Y-19215984D02*
X7921515Y-19206460D01*
X7921515Y-19206460D02*
X7911991Y-19196936D01*
X7911991Y-19196936D02*
X7902467Y-19177889D01*
X7902467Y-19177889D02*
X7892943Y-19139793D01*
X7892943Y-19139793D02*
X7892943Y-19092174D01*
X7892943Y-19092174D02*
X7902467Y-19054079D01*
X7902467Y-19054079D02*
X7911991Y-19035031D01*
X7911991Y-19035031D02*
X7921515Y-19025508D01*
X7921515Y-19025508D02*
X7940562Y-19015984D01*
X8131039Y-19015984D02*
X8150086Y-19015984D01*
X8150086Y-19015984D02*
X8169134Y-19025508D01*
X8169134Y-19025508D02*
X8178658Y-19035031D01*
X8178658Y-19035031D02*
X8188182Y-19054079D01*
X8188182Y-19054079D02*
X8197705Y-19092174D01*
X8197705Y-19092174D02*
X8197705Y-19139793D01*
X8197705Y-19139793D02*
X8188182Y-19177889D01*
X8188182Y-19177889D02*
X8178658Y-19196936D01*
X8178658Y-19196936D02*
X8169134Y-19206460D01*
X8169134Y-19206460D02*
X8150086Y-19215984D01*
X8150086Y-19215984D02*
X8131039Y-19215984D01*
X8131039Y-19215984D02*
X8111991Y-19206460D01*
X8111991Y-19206460D02*
X8102467Y-19196936D01*
X8102467Y-19196936D02*
X8092943Y-19177889D01*
X8092943Y-19177889D02*
X8083420Y-19139793D01*
X8083420Y-19139793D02*
X8083420Y-19092174D01*
X8083420Y-19092174D02*
X8092943Y-19054079D01*
X8092943Y-19054079D02*
X8102467Y-19035031D01*
X8102467Y-19035031D02*
X8111991Y-19025508D01*
X8111991Y-19025508D02*
X8131039Y-19015984D01*
X8283420Y-19215984D02*
X8283420Y-19082650D01*
X8283420Y-19101698D02*
X8292943Y-19092174D01*
X8292943Y-19092174D02*
X8311991Y-19082650D01*
X8311991Y-19082650D02*
X8340563Y-19082650D01*
X8340563Y-19082650D02*
X8359610Y-19092174D01*
X8359610Y-19092174D02*
X8369134Y-19111222D01*
X8369134Y-19111222D02*
X8369134Y-19215984D01*
X8369134Y-19111222D02*
X8378658Y-19092174D01*
X8378658Y-19092174D02*
X8397705Y-19082650D01*
X8397705Y-19082650D02*
X8426277Y-19082650D01*
X8426277Y-19082650D02*
X8445325Y-19092174D01*
X8445325Y-19092174D02*
X8454848Y-19111222D01*
X8454848Y-19111222D02*
X8454848Y-19215984D01*
X8550086Y-19215984D02*
X8550086Y-19082650D01*
X8550086Y-19101698D02*
X8559610Y-19092174D01*
X8559610Y-19092174D02*
X8578658Y-19082650D01*
X8578658Y-19082650D02*
X8607229Y-19082650D01*
X8607229Y-19082650D02*
X8626277Y-19092174D01*
X8626277Y-19092174D02*
X8635801Y-19111222D01*
X8635801Y-19111222D02*
X8635801Y-19215984D01*
X8635801Y-19111222D02*
X8645325Y-19092174D01*
X8645325Y-19092174D02*
X8664372Y-19082650D01*
X8664372Y-19082650D02*
X8692944Y-19082650D01*
X8692944Y-19082650D02*
X8711991Y-19092174D01*
X8711991Y-19092174D02*
X8721515Y-19111222D01*
X8721515Y-19111222D02*
X8721515Y-19215984D01*
X9111991Y-19006460D02*
X8940563Y-19263603D01*
X9369134Y-19015984D02*
X9388182Y-19015984D01*
X9388182Y-19015984D02*
X9407229Y-19025508D01*
X9407229Y-19025508D02*
X9416753Y-19035031D01*
X9416753Y-19035031D02*
X9426277Y-19054079D01*
X9426277Y-19054079D02*
X9435801Y-19092174D01*
X9435801Y-19092174D02*
X9435801Y-19139793D01*
X9435801Y-19139793D02*
X9426277Y-19177889D01*
X9426277Y-19177889D02*
X9416753Y-19196936D01*
X9416753Y-19196936D02*
X9407229Y-19206460D01*
X9407229Y-19206460D02*
X9388182Y-19215984D01*
X9388182Y-19215984D02*
X9369134Y-19215984D01*
X9369134Y-19215984D02*
X9350087Y-19206460D01*
X9350087Y-19206460D02*
X9340563Y-19196936D01*
X9340563Y-19196936D02*
X9331039Y-19177889D01*
X9331039Y-19177889D02*
X9321515Y-19139793D01*
X9321515Y-19139793D02*
X9321515Y-19092174D01*
X9321515Y-19092174D02*
X9331039Y-19054079D01*
X9331039Y-19054079D02*
X9340563Y-19035031D01*
X9340563Y-19035031D02*
X9350087Y-19025508D01*
X9350087Y-19025508D02*
X9369134Y-19015984D01*
X9521515Y-19196936D02*
X9531039Y-19206460D01*
X9531039Y-19206460D02*
X9521515Y-19215984D01*
X9521515Y-19215984D02*
X9511991Y-19206460D01*
X9511991Y-19206460D02*
X9521515Y-19196936D01*
X9521515Y-19196936D02*
X9521515Y-19215984D01*
X9654848Y-19015984D02*
X9673896Y-19015984D01*
X9673896Y-19015984D02*
X9692944Y-19025508D01*
X9692944Y-19025508D02*
X9702468Y-19035031D01*
X9702468Y-19035031D02*
X9711991Y-19054079D01*
X9711991Y-19054079D02*
X9721515Y-19092174D01*
X9721515Y-19092174D02*
X9721515Y-19139793D01*
X9721515Y-19139793D02*
X9711991Y-19177889D01*
X9711991Y-19177889D02*
X9702468Y-19196936D01*
X9702468Y-19196936D02*
X9692944Y-19206460D01*
X9692944Y-19206460D02*
X9673896Y-19215984D01*
X9673896Y-19215984D02*
X9654848Y-19215984D01*
X9654848Y-19215984D02*
X9635801Y-19206460D01*
X9635801Y-19206460D02*
X9626277Y-19196936D01*
X9626277Y-19196936D02*
X9616753Y-19177889D01*
X9616753Y-19177889D02*
X9607229Y-19139793D01*
X9607229Y-19139793D02*
X9607229Y-19092174D01*
X9607229Y-19092174D02*
X9616753Y-19054079D01*
X9616753Y-19054079D02*
X9626277Y-19035031D01*
X9626277Y-19035031D02*
X9635801Y-19025508D01*
X9635801Y-19025508D02*
X9654848Y-19015984D01*
X9902468Y-19015984D02*
X9807229Y-19015984D01*
X9807229Y-19015984D02*
X9797706Y-19111222D01*
X9797706Y-19111222D02*
X9807229Y-19101698D01*
X9807229Y-19101698D02*
X9826277Y-19092174D01*
X9826277Y-19092174D02*
X9873896Y-19092174D01*
X9873896Y-19092174D02*
X9892944Y-19101698D01*
X9892944Y-19101698D02*
X9902468Y-19111222D01*
X9902468Y-19111222D02*
X9911991Y-19130270D01*
X9911991Y-19130270D02*
X9911991Y-19177889D01*
X9911991Y-19177889D02*
X9902468Y-19196936D01*
X9902468Y-19196936D02*
X9892944Y-19206460D01*
X9892944Y-19206460D02*
X9873896Y-19215984D01*
X9873896Y-19215984D02*
X9826277Y-19215984D01*
X9826277Y-19215984D02*
X9807229Y-19206460D01*
X9807229Y-19206460D02*
X9797706Y-19196936D01*
X10102468Y-19215984D02*
X9988182Y-19215984D01*
X10045325Y-19215984D02*
X10045325Y-19015984D01*
X10045325Y-19015984D02*
X10026277Y-19044555D01*
X10026277Y-19044555D02*
X10007229Y-19063603D01*
X10007229Y-19063603D02*
X9988182Y-19073127D01*
X10178658Y-19035031D02*
X10188182Y-19025508D01*
X10188182Y-19025508D02*
X10207229Y-19015984D01*
X10207229Y-19015984D02*
X10254849Y-19015984D01*
X10254849Y-19015984D02*
X10273896Y-19025508D01*
X10273896Y-19025508D02*
X10283420Y-19035031D01*
X10283420Y-19035031D02*
X10292944Y-19054079D01*
X10292944Y-19054079D02*
X10292944Y-19073127D01*
X10292944Y-19073127D02*
X10283420Y-19101698D01*
X10283420Y-19101698D02*
X10169134Y-19215984D01*
X10169134Y-19215984D02*
X10292944Y-19215984D01*
X10369134Y-19015984D02*
X10369134Y-19054079D01*
X10445325Y-19015984D02*
X10445325Y-19054079D01*
X10740563Y-19292174D02*
X10731039Y-19282650D01*
X10731039Y-19282650D02*
X10711991Y-19254079D01*
X10711991Y-19254079D02*
X10702468Y-19235031D01*
X10702468Y-19235031D02*
X10692944Y-19206460D01*
X10692944Y-19206460D02*
X10683420Y-19158841D01*
X10683420Y-19158841D02*
X10683420Y-19120746D01*
X10683420Y-19120746D02*
X10692944Y-19073127D01*
X10692944Y-19073127D02*
X10702468Y-19044555D01*
X10702468Y-19044555D02*
X10711991Y-19025508D01*
X10711991Y-19025508D02*
X10731039Y-18996936D01*
X10731039Y-18996936D02*
X10740563Y-18987412D01*
X10845325Y-19101698D02*
X10826277Y-19092174D01*
X10826277Y-19092174D02*
X10816753Y-19082650D01*
X10816753Y-19082650D02*
X10807230Y-19063603D01*
X10807230Y-19063603D02*
X10807230Y-19054079D01*
X10807230Y-19054079D02*
X10816753Y-19035031D01*
X10816753Y-19035031D02*
X10826277Y-19025508D01*
X10826277Y-19025508D02*
X10845325Y-19015984D01*
X10845325Y-19015984D02*
X10883420Y-19015984D01*
X10883420Y-19015984D02*
X10902468Y-19025508D01*
X10902468Y-19025508D02*
X10911991Y-19035031D01*
X10911991Y-19035031D02*
X10921515Y-19054079D01*
X10921515Y-19054079D02*
X10921515Y-19063603D01*
X10921515Y-19063603D02*
X10911991Y-19082650D01*
X10911991Y-19082650D02*
X10902468Y-19092174D01*
X10902468Y-19092174D02*
X10883420Y-19101698D01*
X10883420Y-19101698D02*
X10845325Y-19101698D01*
X10845325Y-19101698D02*
X10826277Y-19111222D01*
X10826277Y-19111222D02*
X10816753Y-19120746D01*
X10816753Y-19120746D02*
X10807230Y-19139793D01*
X10807230Y-19139793D02*
X10807230Y-19177889D01*
X10807230Y-19177889D02*
X10816753Y-19196936D01*
X10816753Y-19196936D02*
X10826277Y-19206460D01*
X10826277Y-19206460D02*
X10845325Y-19215984D01*
X10845325Y-19215984D02*
X10883420Y-19215984D01*
X10883420Y-19215984D02*
X10902468Y-19206460D01*
X10902468Y-19206460D02*
X10911991Y-19196936D01*
X10911991Y-19196936D02*
X10921515Y-19177889D01*
X10921515Y-19177889D02*
X10921515Y-19139793D01*
X10921515Y-19139793D02*
X10911991Y-19120746D01*
X10911991Y-19120746D02*
X10902468Y-19111222D01*
X10902468Y-19111222D02*
X10883420Y-19101698D01*
X11159611Y-19215984D02*
X11159611Y-19015984D01*
X11245325Y-19215984D02*
X11245325Y-19111222D01*
X11245325Y-19111222D02*
X11235801Y-19092174D01*
X11235801Y-19092174D02*
X11216753Y-19082650D01*
X11216753Y-19082650D02*
X11188182Y-19082650D01*
X11188182Y-19082650D02*
X11169134Y-19092174D01*
X11169134Y-19092174D02*
X11159611Y-19101698D01*
X11369134Y-19215984D02*
X11350087Y-19206460D01*
X11350087Y-19206460D02*
X11340563Y-19196936D01*
X11340563Y-19196936D02*
X11331039Y-19177889D01*
X11331039Y-19177889D02*
X11331039Y-19120746D01*
X11331039Y-19120746D02*
X11340563Y-19101698D01*
X11340563Y-19101698D02*
X11350087Y-19092174D01*
X11350087Y-19092174D02*
X11369134Y-19082650D01*
X11369134Y-19082650D02*
X11397706Y-19082650D01*
X11397706Y-19082650D02*
X11416753Y-19092174D01*
X11416753Y-19092174D02*
X11426277Y-19101698D01*
X11426277Y-19101698D02*
X11435801Y-19120746D01*
X11435801Y-19120746D02*
X11435801Y-19177889D01*
X11435801Y-19177889D02*
X11426277Y-19196936D01*
X11426277Y-19196936D02*
X11416753Y-19206460D01*
X11416753Y-19206460D02*
X11397706Y-19215984D01*
X11397706Y-19215984D02*
X11369134Y-19215984D01*
X11550087Y-19215984D02*
X11531039Y-19206460D01*
X11531039Y-19206460D02*
X11521515Y-19187412D01*
X11521515Y-19187412D02*
X11521515Y-19015984D01*
X11702468Y-19206460D02*
X11683420Y-19215984D01*
X11683420Y-19215984D02*
X11645325Y-19215984D01*
X11645325Y-19215984D02*
X11626277Y-19206460D01*
X11626277Y-19206460D02*
X11616753Y-19187412D01*
X11616753Y-19187412D02*
X11616753Y-19111222D01*
X11616753Y-19111222D02*
X11626277Y-19092174D01*
X11626277Y-19092174D02*
X11645325Y-19082650D01*
X11645325Y-19082650D02*
X11683420Y-19082650D01*
X11683420Y-19082650D02*
X11702468Y-19092174D01*
X11702468Y-19092174D02*
X11711991Y-19111222D01*
X11711991Y-19111222D02*
X11711991Y-19130270D01*
X11711991Y-19130270D02*
X11616753Y-19149317D01*
X11788182Y-19206460D02*
X11807230Y-19215984D01*
X11807230Y-19215984D02*
X11845325Y-19215984D01*
X11845325Y-19215984D02*
X11864372Y-19206460D01*
X11864372Y-19206460D02*
X11873896Y-19187412D01*
X11873896Y-19187412D02*
X11873896Y-19177889D01*
X11873896Y-19177889D02*
X11864372Y-19158841D01*
X11864372Y-19158841D02*
X11845325Y-19149317D01*
X11845325Y-19149317D02*
X11816753Y-19149317D01*
X11816753Y-19149317D02*
X11797706Y-19139793D01*
X11797706Y-19139793D02*
X11788182Y-19120746D01*
X11788182Y-19120746D02*
X11788182Y-19111222D01*
X11788182Y-19111222D02*
X11797706Y-19092174D01*
X11797706Y-19092174D02*
X11816753Y-19082650D01*
X11816753Y-19082650D02*
X11845325Y-19082650D01*
X11845325Y-19082650D02*
X11864372Y-19092174D01*
X11940563Y-19292174D02*
X11950087Y-19282650D01*
X11950087Y-19282650D02*
X11969134Y-19254079D01*
X11969134Y-19254079D02*
X11978658Y-19235031D01*
X11978658Y-19235031D02*
X11988182Y-19206460D01*
X11988182Y-19206460D02*
X11997706Y-19158841D01*
X11997706Y-19158841D02*
X11997706Y-19120746D01*
X11997706Y-19120746D02*
X11988182Y-19073127D01*
X11988182Y-19073127D02*
X11978658Y-19044555D01*
X11978658Y-19044555D02*
X11969134Y-19025508D01*
X11969134Y-19025508D02*
X11950087Y-18996936D01*
X11950087Y-18996936D02*
X11940563Y-18987412D01*
M02*
